<svg width="50" height="64" viewBox="0 0 50 64" fill="none" xmlns="http://www.w3.org/2000/svg">
<path d="M31.8434 63.0381L37.0758 54.3983L46.9132 56.7364L34.7376 27.6803L19.6677 33.9962L31.8434 63.0381Z" fill="#F11616"/>
<path style="mix-blend-mode:soft-light" d="M31.8434 63.0381L37.0758 54.3983L46.9132 56.7364L34.7376 27.6803L19.6677 33.9962L31.8434 63.0381Z" fill="url(#paint0_linear_630_81710)"/>
<mask id="mask0_630_81710" style="mask-type:luminance" maskUnits="userSpaceOnUse" x="19" y="27" width="28" height="37">
<path d="M31.8476 63.0452L37.0785 54.4025L46.9074 56.7335L34.7318 27.6802L19.6733 33.9904L31.8476 63.0452Z" fill="white"/>
</mask>
<g mask="url(#mask0_630_81710)">
<g style="mix-blend-mode:multiply" opacity="0.4">
<path d="M20.7798 35.3362C20.8843 35.7735 20.9889 36.2059 21.0934 36.6337C22.1057 36.434 23.1037 36.2487 24.1017 35.9208C23.9734 35.5216 23.9591 35.0654 23.7025 34.6947C22.733 34.9228 21.8063 35.265 20.7798 35.3362ZM23.7025 34.6947C23.9591 35.0654 23.9734 35.5216 24.1017 35.9208C24.4439 35.8257 24.7813 35.7307 25.114 35.6356C25.0569 35.1937 24.9286 34.7945 24.7005 34.4523C24.3774 34.5378 24.0447 34.6186 23.7025 34.6947ZM24.7005 34.4523C24.9286 34.7945 25.0569 35.1937 25.114 35.6356C25.5702 35.5216 25.9979 35.3933 26.4542 35.265C26.2973 34.8658 26.3258 34.2955 25.9979 34.0959C25.5702 34.2194 25.1377 34.3382 24.7005 34.4523ZM25.9979 34.0959C26.3258 34.2955 26.2973 34.8658 26.4542 35.265C26.725 35.1937 26.9959 35.0796 27.2811 34.9941C27.0957 34.6376 27.224 33.939 26.7963 33.8392C26.5302 33.9248 26.2641 34.0103 25.9979 34.0959ZM26.7963 33.8392C27.224 33.939 27.0957 34.6376 27.2811 34.9941C27.609 34.8658 27.9226 34.7374 28.2506 34.6091C28.1508 34.1814 28.1365 33.4828 27.7373 33.5113C27.4236 33.6254 27.11 33.7347 26.7963 33.8392ZM27.7373 33.5113C28.1365 33.4828 28.1508 34.1814 28.2506 34.6091C28.664 34.4523 29.0632 34.2812 29.4624 34.0959C29.3911 33.6396 29.2913 32.9695 28.9064 33.0694C28.5167 33.2214 28.127 33.3688 27.7373 33.5113ZM28.9064 33.0694C29.2913 32.9695 29.3911 33.6396 29.4624 34.0959C29.7903 33.9533 30.1325 33.8107 30.4747 33.6682C30.3464 33.1406 30.3606 32.4991 29.8901 32.6702C29.567 32.8032 29.2391 32.9363 28.9064 33.0694ZM29.8901 32.6702C30.3606 32.4991 30.3464 33.1406 30.4747 33.6682C30.8454 33.5256 31.2018 33.326 31.5725 33.1549C31.4727 32.7985 31.5725 31.9715 30.9594 32.2139C30.6078 32.366 30.2513 32.5181 29.8901 32.6702ZM30.9594 32.2139C31.5725 31.9715 31.4727 32.7985 31.5725 33.1549C31.7721 33.0694 31.9717 32.9696 32.157 32.8698C32.0145 32.4705 32.1143 31.7577 31.5297 31.9573C31.3396 32.0428 31.1495 32.1284 30.9594 32.2139ZM31.5297 31.9573C32.1143 31.7577 32.0145 32.4705 32.157 32.8698C32.3994 32.7557 32.6275 32.6416 32.8556 32.5276C32.7131 32.1284 32.7986 31.4013 32.2141 31.6579C31.9859 31.7624 31.7578 31.8622 31.5297 31.9573ZM32.2141 31.6579C32.7986 31.4013 32.7131 32.1284 32.8556 32.5276C33.2073 32.347 33.5637 32.1664 33.9249 31.9858C33.8489 31.6816 33.7728 31.3727 33.6968 31.0591C33.5115 31.1304 33.4402 31.1304 33.2548 31.1874C32.9127 31.349 32.5657 31.5058 32.2141 31.6579ZM33.2548 31.1874C33.4402 31.1304 33.5115 31.1304 33.6968 31.0591C33.7728 31.3727 33.8489 31.6816 33.9249 31.9858C34.2956 31.7862 34.6758 31.5866 35.0655 31.387C34.9895 31.0924 34.9134 30.7977 34.8374 30.5031C34.652 30.5743 34.5665 30.5886 34.3812 30.6741C34.001 30.8452 33.6255 31.0163 33.2548 31.1874ZM34.3812 30.6741C34.5665 30.5886 34.652 30.5743 34.8374 30.5031C34.9134 30.7977 34.9895 31.0924 35.0655 31.387C35.2936 31.2634 35.5265 31.1399 35.7641 31.0163C35.6881 30.7217 35.612 30.4318 35.536 30.1466C35.3506 30.2322 35.2651 30.2607 35.0655 30.3462C34.8374 30.4508 34.6093 30.5601 34.3812 30.6741ZM35.0655 30.3462C35.2651 30.2607 35.3506 30.2322 35.536 30.1466C35.612 30.4318 35.6881 30.7217 35.7641 31.0163C36.1348 30.8025 36.5197 30.6029 36.9189 30.4033C36.8429 30.1276 36.7669 29.852 36.6908 29.5763C36.5055 29.6761 36.4057 29.7047 36.2061 29.8045C35.8259 29.985 35.4457 30.1656 35.0655 30.3462ZM36.2061 29.8045C36.4057 29.7047 36.5055 29.6761 36.6908 29.5763C36.7669 29.852 36.8429 30.1276 36.9189 30.4033C37.1043 30.3035 37.3039 30.2037 37.4892 30.1039C37.4132 29.8377 37.3419 29.5716 37.2754 29.3055C37.0758 29.391 36.976 29.4338 36.7764 29.5336C36.5863 29.6191 36.3962 29.7094 36.2061 29.8045ZM21.0934 36.6337C21.3691 37.6982 21.6685 38.7437 21.9916 39.7702C22.8471 42.3223 23.9164 44.7745 25.0284 47.1982C25.3041 47.8065 25.5797 48.4148 25.8553 49.0232C26.6395 50.8623 27.4807 52.73 28.2363 54.5835C29.3056 54.1843 29.106 54.2698 30.1468 53.8563C29.2771 51.3471 28.2506 48.9091 27.3666 46.3998C27.1385 45.782 26.9104 45.169 26.6823 44.5607C26.0122 42.7072 25.3991 40.8538 24.8859 38.9861C24.6007 37.9786 24.3393 36.9568 24.1017 35.9208C23.1037 36.2487 22.1057 36.434 21.0934 36.6337ZM24.1017 35.9208C24.3393 36.9568 24.6007 37.9786 24.8859 38.9861C25.3991 40.8538 26.0122 42.7072 26.6823 44.5607C26.9104 45.169 27.1385 45.782 27.3666 46.3998C28.2506 48.9091 29.2771 51.3471 30.1468 53.8563C30.5032 53.7138 30.7313 53.5997 30.9452 53.5142C29.9757 51.0477 29.106 48.5954 28.222 46.0862C28.0034 45.4684 27.7896 44.8506 27.5805 44.2327C26.9674 42.3936 26.3829 40.5401 25.8696 38.6724C25.6035 37.6649 25.3516 36.6527 25.114 35.6356C24.7813 35.7307 24.4439 35.8257 24.1017 35.9208ZM25.114 35.6356C25.3516 36.6527 25.6035 37.6649 25.8696 38.6724C26.3829 40.5401 26.9674 42.3936 27.5805 44.2327C27.7896 44.8506 28.0034 45.4684 28.222 46.0862C29.106 48.5954 29.9757 51.0477 30.9452 53.5142C31.2161 53.3716 31.4584 53.2575 31.9004 53.0722C30.8026 50.1637 29.9186 47.184 28.9777 44.2327C28.7686 43.5674 28.5595 42.9021 28.3504 42.2367C27.9417 40.8966 27.5615 39.5659 27.2098 38.2447C27.0767 37.7505 26.9484 37.2562 26.8248 36.762C26.6918 36.2677 26.5682 35.7687 26.4542 35.265C25.9979 35.3933 25.5702 35.5216 25.114 35.6356ZM26.4542 35.265C26.5682 35.7687 26.6918 36.2677 26.8248 36.762C26.9484 37.2562 27.0767 37.7505 27.2098 38.2447C27.5615 39.5659 27.9417 40.8966 28.3504 42.2367C28.5595 42.9021 28.7686 43.5674 28.9777 44.2327C29.9186 47.184 30.8026 50.1637 31.9004 53.0722C32.1855 52.9581 32.599 52.7871 33.0552 52.6017C32.0002 49.4936 30.9309 46.4711 29.8189 43.4058C29.6002 42.807 29.3864 42.2035 29.1773 41.5952C28.9777 40.9869 28.7828 40.3785 28.5927 39.7702C28.2933 38.7009 27.8941 37.6174 27.6375 36.4768C27.5139 35.9826 27.3951 35.4883 27.2811 34.9941C26.9959 35.0796 26.725 35.1937 26.4542 35.265ZM27.2811 34.9941C27.3951 35.4883 27.5139 35.9826 27.6375 36.4768C27.8941 37.6174 28.2933 38.7009 28.5927 39.7702C28.7828 40.3785 28.9777 40.9869 29.1773 41.5952C29.3864 42.2035 29.6002 42.807 29.8189 43.4058C30.9309 46.4711 32.0002 49.4936 33.0552 52.6017C33.6113 52.3736 34.2243 52.1027 34.7946 51.8603C33.6398 48.8236 32.4137 45.8723 31.102 42.9211C30.8454 42.3318 30.5982 41.7425 30.3606 41.1532C29.7048 39.4851 29.1202 37.817 28.6355 36.1061C28.4929 35.6119 28.3646 35.1129 28.2506 34.6091C27.9226 34.7374 27.609 34.8658 27.2811 34.9941ZM28.2506 34.6091C28.3646 35.1129 28.4929 35.6119 28.6355 36.1061C29.1202 37.817 29.7048 39.4851 30.3606 41.1532C30.5982 41.7425 30.8454 42.3318 31.102 42.9211C32.4137 45.8723 33.6398 48.8236 34.7946 51.8603C35.5217 51.5609 36.1918 51.2758 36.5768 51.1047C35.3649 48.1107 34.0532 45.2022 32.7273 42.2795C31.658 40.0554 30.7028 37.8455 29.9187 35.5644C29.7571 35.0891 29.605 34.5996 29.4624 34.0959C29.0632 34.2812 28.664 34.4523 28.2506 34.6091ZM29.4624 34.0959C29.605 34.5996 29.7571 35.0891 29.9187 35.5644C30.7028 37.8455 31.658 40.0554 32.7273 42.2795C34.0532 45.2022 35.3649 48.1107 36.5768 51.1047C36.8999 50.9621 37.2183 50.8196 37.532 50.677C36.3914 47.74 34.9657 45.0026 33.7111 42.1369C32.6418 39.87 31.6865 37.5604 30.8881 35.1509C30.7361 34.6662 30.5982 34.1719 30.4747 33.6682C30.1325 33.8107 29.7903 33.9533 29.4624 34.0959ZM30.4747 33.6682C30.5982 34.1719 30.7361 34.6662 30.8881 35.1509C31.6865 37.5604 32.6418 39.87 33.7111 42.1369C34.9657 45.0026 36.3914 47.74 37.532 50.677C37.8837 50.5249 38.2306 50.3728 38.5728 50.2208C37.5605 47.8256 36.477 45.4731 35.4647 43.1207C34.2671 40.2835 32.8414 37.5461 31.9859 34.6234C31.8339 34.1386 31.696 33.6491 31.5725 33.1549C31.2018 33.326 30.8454 33.5256 30.4747 33.6682ZM31.5725 33.1549C31.696 33.6491 31.8339 34.1386 31.9859 34.6234C32.8414 37.5461 34.2671 40.2835 35.4647 43.1207C36.477 45.4731 37.5605 47.8256 38.5728 50.2208C38.7534 50.1447 38.934 50.0687 39.1145 49.9926C38.0595 47.626 37.0615 45.2307 36.0065 42.8783C34.8231 40.0554 33.5257 37.2895 32.5847 34.3382C32.4327 33.8535 32.2901 33.364 32.157 32.8698C31.9717 32.9696 31.7721 33.0694 31.5725 33.1549ZM32.157 32.8698C32.2901 33.364 32.4327 33.8535 32.5847 34.3382C33.5257 37.2895 34.8231 40.0554 36.0065 42.8783C37.0615 45.2307 38.0595 47.626 39.1145 49.9926C39.3332 49.8976 39.547 49.8026 39.7561 49.7075C38.7724 47.3123 37.7744 44.9171 36.6908 42.5504C35.4219 39.7417 34.2386 36.8903 33.2833 33.9676C33.1313 33.4923 32.9887 33.0123 32.8556 32.5276C32.6275 32.6416 32.3994 32.7557 32.157 32.8698ZM32.8556 32.5276C32.9887 33.0123 33.1313 33.4923 33.2833 33.9676C34.2386 36.8903 35.4219 39.7417 36.6908 42.5504C37.7744 44.9171 38.7724 47.3123 39.7561 49.7075C40.0888 49.5554 40.4215 49.4081 40.7541 49.2655C39.9842 47.4834 39.2286 45.687 38.4587 43.8906C36.9617 40.4688 35.3934 37.0756 34.3384 33.4543C34.1863 32.96 34.0485 32.4705 33.9249 31.9858C33.5637 32.1664 33.2073 32.347 32.8556 32.5276ZM33.9249 31.9858C34.0485 32.4705 34.1863 32.96 34.3384 33.4543C35.3934 37.0756 36.9617 40.4688 38.4587 43.8906C39.2286 45.687 39.9842 47.4834 40.7541 49.2655C41.1058 49.1135 41.4575 48.9566 41.8092 48.795C41.0535 46.9986 40.2836 45.2022 39.5137 43.4201C38.031 39.9841 36.5768 36.4768 35.4932 32.8698C35.3411 32.3755 35.1986 31.8813 35.0655 31.387C34.6758 31.5866 34.2956 31.7862 33.9249 31.9858ZM35.0655 31.387C35.1986 31.8813 35.3411 32.3755 35.4932 32.8698C36.5768 36.4768 38.031 39.9841 39.5137 43.4201C40.2836 45.2022 41.0535 46.9986 41.8092 48.795C42.0278 48.7 42.2464 48.6049 42.465 48.5099C41.581 46.7278 40.9109 44.8886 40.1125 43.0922C38.6583 39.6134 37.3467 36.0919 36.1918 32.4706C36.0397 31.9858 35.8972 31.5011 35.7641 31.0163C35.5265 31.1399 35.2936 31.2634 35.0655 31.387ZM35.7641 31.0163C35.8972 31.5011 36.0397 31.9858 36.1918 32.4706C37.3467 36.0919 38.6583 39.6134 40.1125 43.0922C40.9109 44.8886 41.581 46.7278 42.465 48.5099C42.8167 48.3578 43.1731 48.201 43.5343 48.0394C42.9782 46.8846 42.5078 45.6299 41.966 44.4466C41.7189 43.8383 41.4765 43.23 41.2389 42.6217C39.8987 39.0431 38.473 35.5073 37.3467 31.9003C37.2041 31.406 37.0615 30.907 36.9189 30.4033C36.5197 30.6029 36.1348 30.8025 35.7641 31.0163ZM36.9189 30.4033C37.0615 30.907 37.2041 31.406 37.3467 31.9003C38.473 35.5073 39.8987 39.0431 41.2389 42.6217C41.4765 43.23 41.7189 43.8383 41.966 44.4466C42.5078 45.6299 42.9782 46.8846 43.5343 48.0394C43.7054 47.9634 43.8812 47.8873 44.0618 47.8113C43.5913 46.5852 43.0068 45.4303 42.5648 44.19C42.3177 43.5817 42.0705 42.9734 41.8234 42.365C40.4405 38.815 39.0005 35.2507 37.9169 31.6009C37.7744 31.1066 37.6318 30.6076 37.4892 30.1039C37.3039 30.2037 37.1043 30.3035 36.9189 30.4033ZM28.2363 54.5835C28.4644 55.1347 28.6878 55.6813 28.9064 56.223C30.1468 59.545 31.5155 62.7814 32.9982 65.975C33.2073 66.4217 33.4164 66.8637 33.6255 67.3009C33.8441 67.7381 34.0675 68.1753 34.2956 68.6126C35.1653 70.3519 36.0778 72.0628 37.0615 73.7166C37.8029 73.1463 38.6298 72.6758 39.3712 72.1626C37.9455 70.7084 36.8904 68.912 35.8354 67.1441C35.4742 66.5358 35.132 65.9179 34.8089 65.2906C33.1693 62.1683 31.9574 58.8179 30.7741 55.4532C30.565 54.9209 30.3559 54.3886 30.1468 53.8563C29.106 54.2698 29.3056 54.1843 28.2363 54.5835ZM30.1468 53.8563C30.3559 54.3886 30.565 54.9209 30.7741 55.4532C31.9574 58.8179 33.1693 62.1683 34.8089 65.2906C35.132 65.9179 35.4742 66.5358 35.8354 67.1441C36.8904 68.912 37.9455 70.7084 39.3712 72.1626C39.6278 72.001 39.8844 71.8394 40.1411 71.6779C38.9149 70.0098 37.8599 68.2133 36.8762 66.3884C36.515 65.7896 36.1681 65.1861 35.8354 64.5778C34.1816 61.5267 32.9269 58.2903 31.5867 55.0967C31.3681 54.574 31.1543 54.0464 30.9452 53.5142C30.7313 53.5997 30.5032 53.7138 30.1468 53.8563ZM30.9452 53.5142C31.1543 54.0464 31.3681 54.574 31.5867 55.0967C32.9269 58.2903 34.1816 61.5267 35.8354 64.5778C36.1681 65.1861 36.515 65.7896 36.8762 66.3884C37.8599 68.2133 38.9149 70.0098 40.1411 71.6779C40.4927 71.4592 40.8444 71.2454 41.1961 71.0363C40.949 70.561 40.7066 70.0858 40.469 69.6106C40.2314 69.1448 39.9937 68.6743 39.7561 68.1991C39.2999 67.2581 38.8294 66.3171 38.3447 65.3762C38.0025 64.7916 37.6746 64.1928 37.3324 63.6083C35.65 60.6713 34.0532 57.6915 32.5705 54.6405C32.3424 54.1272 32.119 53.6045 31.9004 53.0722C31.4584 53.2575 31.2161 53.3716 30.9452 53.5142ZM31.9004 53.0722C32.119 53.6045 32.3424 54.1272 32.5705 54.6405C34.0532 57.6915 35.65 60.6713 37.3324 63.6083C37.6746 64.1928 38.0025 64.7916 38.3447 65.3762C38.8294 66.3171 39.2999 67.2581 39.7561 68.1991C39.9937 68.6743 40.2314 69.1448 40.469 69.6106C40.7066 70.0858 40.949 70.561 41.1961 71.0363C41.4147 70.9032 41.6381 70.7749 41.8662 70.6513C41.5668 70.0668 41.2816 69.4822 41.0108 68.8977C40.7351 68.3084 40.4595 67.7239 40.1838 67.1441C39.6421 65.9607 39.086 64.7916 38.473 63.6653C38.1878 63.152 37.9074 62.634 37.6318 62.1113C36.2346 59.5022 34.8944 56.8646 33.7111 54.1557C33.4925 53.633 33.2738 53.115 33.0552 52.6017C32.599 52.7871 32.1855 52.9581 31.9004 53.0722ZM33.0552 52.6017C33.2738 53.115 33.4925 53.633 33.7111 54.1557C34.8944 56.8646 36.2346 59.5022 37.6318 62.1113C37.9074 62.634 38.1878 63.152 38.473 63.6653C39.086 64.7916 39.6421 65.9607 40.1838 67.1441C40.4595 67.7239 40.7351 68.3084 41.0108 68.8977C41.2816 69.4822 41.5668 70.0668 41.8662 70.6513C42.1323 70.5088 42.4032 70.3662 42.6788 70.2236C41.9945 68.8549 41.4242 67.4292 40.8254 66.032C40.6258 65.5663 40.431 65.0958 40.2409 64.6205C39.8559 63.6796 39.4567 62.7386 39.0433 61.8119C38.7296 61.118 38.4207 60.4242 38.1165 59.7303C37.2041 57.6345 36.3201 55.5244 35.4219 53.4286C35.2128 52.9059 35.0037 52.3831 34.7946 51.8603C34.2243 52.1027 33.6113 52.3736 33.0552 52.6017ZM34.7946 51.8603C35.0037 52.3831 35.2128 52.9059 35.4219 53.4286C36.3201 55.5244 37.2041 57.6345 38.1165 59.7303C38.4207 60.4242 38.7296 61.118 39.0433 61.8119C39.4567 62.7386 39.8559 63.6796 40.2409 64.6205C40.431 65.0958 40.6258 65.5663 40.8254 66.032C41.4242 67.4292 41.9945 68.8549 42.6788 70.2236C43.021 70.043 43.3727 69.8672 43.7339 69.6961C42.8642 67.8569 42.3367 65.8894 41.5525 63.9932C41.3719 63.518 41.1913 63.0427 41.0108 62.5675C40.8302 62.1018 40.6401 61.6313 40.4405 61.156C40.1648 60.4527 39.8892 59.7493 39.6135 59.046C38.8009 56.9216 38.0025 54.7831 37.1898 52.673C36.9902 52.1502 36.7859 51.6275 36.5768 51.1047C36.1918 51.2758 35.5217 51.5609 34.7946 51.8603ZM36.5768 51.1047C36.7859 51.6275 36.9902 52.1502 37.1898 52.673C38.0025 54.7831 38.8009 56.9216 39.6135 59.046C39.8892 59.7493 40.1648 60.4527 40.4405 61.156C40.6401 61.6313 40.8302 62.1018 41.0108 62.5675C41.1913 63.0427 41.3719 63.518 41.5525 63.9932C42.3367 65.8894 42.8642 67.8569 43.7339 69.6961C44.038 69.5535 44.3469 69.411 44.6606 69.2684C43.8052 67.529 43.3062 65.6043 42.6076 63.7936C42.3937 63.1948 42.1656 62.596 41.9232 61.9972C41.6666 61.3509 41.41 60.6998 41.1533 60.044C40.1553 57.4207 39.2143 54.7973 38.1593 52.2453C37.9502 51.7225 37.7411 51.1998 37.532 50.677C37.2183 50.8196 36.8999 50.9621 36.5768 51.1047ZM37.532 50.677C37.7411 51.1998 37.9502 51.7225 38.1593 52.2453C39.2143 54.7973 40.1553 57.4207 41.1533 60.044C41.41 60.6998 41.6666 61.3509 41.9232 61.9972C42.1656 62.596 42.3937 63.1948 42.6076 63.7936C43.3062 65.6043 43.8052 67.529 44.6606 69.2684C44.9933 69.1068 45.3402 68.95 45.7014 68.7979C44.7034 66.973 44.1901 64.9484 43.4772 62.9952C43.2634 62.3394 43.021 61.6978 42.7786 61.0562C42.541 60.4384 42.3034 59.8206 42.0658 59.2028C41.1248 56.7363 40.1981 54.2556 39.2001 51.7891C38.991 51.2663 38.7819 50.7435 38.5728 50.2208C38.2306 50.3728 37.8837 50.5249 37.532 50.677ZM38.5728 50.2208C38.7819 50.7435 38.991 51.2663 39.2001 51.7891C40.1981 54.2556 41.1248 56.7363 42.0658 59.2028C42.3034 59.8206 42.541 60.4384 42.7786 61.0562C43.021 61.6978 43.2634 62.3394 43.4772 62.9952C44.1901 64.9484 44.7034 66.973 45.7014 68.7979C45.8915 68.7124 46.0816 68.6268 46.2717 68.5413C45.4305 66.6023 44.9172 64.5778 44.1473 62.6103C43.8907 61.9972 43.6341 61.3842 43.3774 60.7711C42.1086 57.7058 40.9822 54.612 39.7419 51.5467C39.5328 51.0239 39.3236 50.5059 39.1145 49.9926C38.934 50.0687 38.7534 50.1447 38.5728 50.2208ZM39.1145 49.9926C39.3236 50.5059 39.5328 51.0239 39.7419 51.5467C40.9822 54.612 42.1086 57.7058 43.3774 60.7711C43.6341 61.3842 43.8907 61.9972 44.1473 62.6103C44.9172 64.5778 45.4305 66.6023 46.2717 68.5413C46.5093 68.4462 46.7421 68.3464 46.9703 68.2419C45.9295 65.8752 45.2024 63.4087 44.2471 61.0277C43.981 60.3814 43.7196 59.7303 43.463 59.0745C42.4365 56.4654 41.467 53.8421 40.3977 51.2615C40.1886 50.7388 39.9747 50.2208 39.7561 49.7075C39.547 49.8026 39.3332 49.8976 39.1145 49.9926ZM39.7561 49.7075C39.9747 50.2208 40.1886 50.7388 40.3977 51.2615C41.467 53.8421 42.4365 56.4654 43.463 59.0745C43.7196 59.7303 43.981 60.3814 44.2471 61.0277C45.2024 63.4087 45.9295 65.8752 46.9703 68.2419C47.3409 68.0898 47.7116 67.933 48.0823 67.7714C47.0701 65.5187 46.3715 63.1235 45.4162 60.8281C45.1786 60.2768 44.9457 59.7208 44.7176 59.16C43.577 56.3799 42.5078 53.5997 41.3957 50.8196C41.1866 50.3063 40.9727 49.7883 40.7541 49.2655C40.4215 49.4081 40.0888 49.5554 39.7561 49.7075ZM40.7541 49.2655C40.9727 49.7883 41.1866 50.3063 41.3957 50.8196C42.5078 53.5997 43.577 56.3799 44.7176 59.16C44.9457 59.7208 45.1786 60.2768 45.4162 60.8281C46.3715 63.1235 47.0701 65.5187 48.0823 67.7714C48.4815 67.6098 48.8855 67.4435 49.2942 67.2724C48.3675 64.9627 47.512 62.653 46.5425 60.3719C46.3049 59.8111 46.0721 59.2551 45.8439 58.7038C44.6891 55.9236 43.6626 53.115 42.465 50.3491C42.2464 49.8358 42.0278 49.3178 41.8092 48.795C41.4575 48.9566 41.1058 49.1135 40.7541 49.2655ZM41.8092 48.795C42.0278 49.3178 42.2464 49.8358 42.465 50.3491C43.6626 53.115 44.6891 55.9236 45.8439 58.7038C46.0721 59.2551 46.3049 59.8111 46.5425 60.3719C47.512 62.653 48.3675 64.9627 49.2942 67.2724C49.5508 67.1678 49.8074 67.0633 50.0641 66.9587C48.9092 64.7346 48.2249 62.3394 47.1984 60.101C46.9608 59.5497 46.7231 58.9984 46.4855 58.4472C45.3164 55.6813 44.2614 52.8583 43.1066 50.0639C42.8975 49.5507 42.6836 49.0327 42.465 48.5099C42.2464 48.6049 42.0278 48.7 41.8092 48.795ZM42.465 48.5099C42.6836 49.0327 42.8975 49.5507 43.1066 50.0639C44.2614 52.8583 45.3164 55.6813 46.4855 58.4472C46.7231 58.9984 46.9608 59.5497 47.1984 60.101C48.2249 62.3394 48.9092 64.7346 50.0641 66.9587C50.4823 66.7876 50.9005 66.6165 51.3187 66.4455C50.2637 63.8934 49.2086 61.2701 48.0538 58.7466C47.6641 57.9101 47.2887 57.069 46.9275 56.223C45.958 54.0132 45.1026 51.8176 44.1901 49.6077C43.9715 49.0849 43.7529 48.5622 43.5343 48.0394C43.1731 48.201 42.8167 48.3578 42.465 48.5099ZM43.5343 48.0394C43.7529 48.5622 43.9715 49.0849 44.1901 49.6077C45.1026 51.8176 45.958 54.0132 46.9275 56.223C47.2887 57.069 47.6641 57.9101 48.0538 58.7466C49.2086 61.2701 50.2637 63.8934 51.3187 66.4455C51.5278 66.3599 51.7369 66.2744 51.946 66.1888C50.7769 63.6938 49.7504 61.0562 48.5956 58.5327C48.2249 57.6868 47.859 56.8409 47.4978 55.9949C46.5425 53.7708 45.6586 51.5895 44.7176 49.3796C44.499 48.8568 44.2804 48.3341 44.0618 47.8113C43.8812 47.8873 43.7054 47.9634 43.5343 48.0394Z" fill="url(#paint1_linear_630_81710)" fill-opacity="0.5"/>
</g>
</g>
<path d="M43.0638 55.8239L31.7864 28.9206L33.3262 28.2648L45.0598 56.2944L43.0638 55.8239Z" fill="url(#paint2_linear_630_81710)"/>
<path d="M32.827 61.427L21.0791 33.3974L22.6189 32.7558L33.8963 59.6591L32.827 61.427Z" fill="url(#paint3_linear_630_81710)"/>
<path d="M18.1423 63.0382L12.9241 54.3983L3.08667 56.7365L15.2623 27.6803L30.3179 33.9963L18.1423 63.0382Z" fill="#F11616"/>
<path style="mix-blend-mode:soft-light" d="M18.1423 63.0382L12.9241 54.3983L3.08667 56.7365L15.2623 27.6803L30.3179 33.9963L18.1423 63.0382Z" fill="url(#paint4_linear_630_81710)"/>
<mask id="mask1_630_81710" style="mask-type:luminance" maskUnits="userSpaceOnUse" x="3" y="27" width="28" height="37">
<path d="M18.1466 63.0452L12.917 54.4025L3.08813 56.7336L15.2638 27.6803L30.3222 33.9905L18.1466 63.0452Z" fill="white"/>
</mask>
<g mask="url(#mask1_630_81710)">
<g style="mix-blend-mode:multiply" opacity="0.4">
<path d="M29.22 35.3363C29.1155 35.7735 29.0109 36.206 28.9064 36.6337C27.8941 36.4341 26.8961 36.2488 25.8981 35.9209C26.0264 35.5216 26.0264 35.0654 26.2831 34.6947C27.2668 34.9228 28.1935 35.265 29.22 35.3363ZM26.2831 34.6947C26.0264 35.0654 26.0264 35.5216 25.8981 35.9209C25.5559 35.8258 25.2138 35.7308 24.8716 35.6357C24.9429 35.1937 25.0712 34.7945 25.2993 34.4524C25.6225 34.5379 25.9504 34.6187 26.2831 34.6947ZM25.2993 34.4524C25.0712 34.7945 24.9429 35.1937 24.8716 35.6357C24.4296 35.5216 23.9877 35.3933 23.5457 35.265C23.7025 34.8658 23.6597 34.2955 24.0019 34.0959C24.4296 34.2195 24.8621 34.3383 25.2993 34.4524ZM24.0019 34.0959C23.6597 34.2955 23.7025 34.8658 23.5457 35.265C23.2748 35.1937 22.9896 35.0797 22.7188 34.9941C22.9041 34.6377 22.7758 33.9391 23.2035 33.8393C23.4696 33.9248 23.7358 34.0104 24.0019 34.0959ZM23.2035 33.8393C22.7758 33.9391 22.9041 34.6377 22.7188 34.9941C22.3908 34.8658 22.0629 34.7375 21.735 34.6092C21.8491 34.1815 21.8633 33.4829 22.2625 33.5114C22.5762 33.6254 22.8898 33.7347 23.2035 33.8393ZM22.2625 33.5114C21.8633 33.4829 21.8491 34.1815 21.735 34.6092C21.3358 34.4524 20.9366 34.2813 20.5374 34.0959C20.6087 33.6397 20.7085 32.9696 21.0792 33.0694C21.4784 33.2215 21.8728 33.3688 22.2625 33.5114ZM21.0792 33.0694C20.7085 32.9696 20.6087 33.6397 20.5374 34.0959C20.1952 33.9534 19.8673 33.8108 19.5251 33.6682C19.6392 33.1407 19.6392 32.4991 20.0954 32.6702C20.4281 32.8033 20.756 32.9363 21.0792 33.0694ZM20.0954 32.6702C19.6392 32.4991 19.6392 33.1407 19.5251 33.6682C19.1545 33.5256 18.7838 33.326 18.4131 33.155C18.5271 32.7985 18.4273 31.9716 19.0261 32.214C19.3873 32.3661 19.7438 32.5181 20.0954 32.6702ZM19.0261 32.214C18.4273 31.9716 18.5271 32.7985 18.4131 33.155C18.2277 33.0694 18.0281 32.9696 17.8285 32.8698C17.9711 32.4706 17.8856 31.7578 18.4559 31.9574C18.646 32.0429 18.8361 32.1284 19.0261 32.214ZM18.4559 31.9574C17.8856 31.7578 17.9711 32.4706 17.8285 32.8698C17.6004 32.7558 17.3723 32.6417 17.1442 32.5276C17.2868 32.1284 17.187 31.4013 17.7715 31.6579C17.9996 31.7625 18.2277 31.8623 18.4559 31.9574ZM17.7715 31.6579C17.187 31.4013 17.2868 32.1284 17.1442 32.5276C16.783 32.347 16.4266 32.1665 16.0749 31.9859C16.1509 31.6817 16.227 31.3728 16.303 31.0591C16.4741 31.1304 16.5597 31.1304 16.745 31.1875C17.0872 31.349 17.4293 31.5059 17.7715 31.6579ZM16.745 31.1875C16.5597 31.1304 16.4741 31.1304 16.303 31.0591C16.227 31.3728 16.1509 31.6817 16.0749 31.9859C15.6947 31.7863 15.3145 31.5867 14.9343 31.3871C15.0104 31.0924 15.0864 30.7978 15.1624 30.5031C15.3478 30.5744 15.4333 30.5887 15.6187 30.6742C15.9989 30.8453 16.3743 31.0164 16.745 31.1875ZM15.6187 30.6742C15.4333 30.5887 15.3478 30.5744 15.1624 30.5031C15.0864 30.7978 15.0104 31.0924 14.9343 31.3871C14.7062 31.2635 14.4733 31.1399 14.2357 31.0164C14.3118 30.7217 14.3878 30.4318 14.4638 30.1467C14.6492 30.2322 14.7347 30.2607 14.9343 30.3463C15.1624 30.4508 15.3906 30.5601 15.6187 30.6742ZM14.9343 30.3463C14.7347 30.2607 14.6492 30.2322 14.4638 30.1467C14.3878 30.4318 14.3118 30.7217 14.2357 31.0164C13.8508 30.8025 13.4658 30.6029 13.0809 30.4033C13.1569 30.1277 13.2282 29.852 13.2948 29.5764C13.4944 29.6762 13.5942 29.7047 13.7938 29.8045C14.1739 29.9851 14.5541 30.1657 14.9343 30.3463ZM13.7938 29.8045C13.5942 29.7047 13.4944 29.6762 13.2948 29.5764C13.2282 29.852 13.1569 30.1277 13.0809 30.4033C12.8956 30.3035 12.696 30.2037 12.5106 30.1039C12.5866 29.8378 12.6579 29.5716 12.7245 29.3055C12.9241 29.3911 13.0239 29.4338 13.2235 29.5336C13.4136 29.6192 13.6037 29.7095 13.7938 29.8045ZM28.9064 36.6337C28.6307 37.6982 28.3313 38.7438 28.0082 39.7703C27.1385 42.3223 26.0692 44.7746 24.9714 47.1983C24.6958 47.8066 24.4201 48.4149 24.1445 49.0232C23.3461 50.8624 22.5192 52.7301 21.7493 54.5835C20.68 54.1843 20.8938 54.2699 19.8531 53.8564C20.7228 51.3471 21.7493 48.9092 22.619 46.3999C22.8566 45.7821 23.0847 45.169 23.3033 44.5607C23.9734 42.7073 24.6007 40.8538 25.114 38.9861C25.3991 37.9786 25.6605 36.9569 25.8981 35.9209C26.8961 36.2488 27.8941 36.4341 28.9064 36.6337ZM25.8981 35.9209C25.6605 36.9569 25.3991 37.9786 25.114 38.9861C24.6007 40.8538 23.9734 42.7073 23.3033 44.5607C23.0847 45.169 22.8566 45.7821 22.619 46.3999C21.7493 48.9092 20.7228 51.3471 19.8531 53.8564C19.4824 53.7138 19.2685 53.5998 19.0547 53.5142C20.0099 51.0477 20.8938 48.5955 21.7778 46.0862C21.9964 45.4684 22.2055 44.8506 22.4051 44.2328C23.0324 42.3936 23.6027 40.5402 24.116 38.6725C24.3916 37.665 24.6435 36.6527 24.8716 35.6357C25.2138 35.7308 25.5559 35.8258 25.8981 35.9209ZM24.8716 35.6357C24.6435 36.6527 24.3916 37.665 24.116 38.6725C23.6027 40.5402 23.0324 42.3936 22.4051 44.2328C22.2055 44.8506 21.9964 45.4684 21.7778 46.0862C20.8938 48.5955 20.0099 51.0477 19.0547 53.5142C18.7838 53.3717 18.5414 53.2576 18.0852 53.0723C19.183 50.1638 20.0669 47.184 21.0079 44.2328C21.2265 43.5675 21.4356 42.9021 21.6352 42.2368C22.0439 40.8966 22.4289 39.5659 22.79 38.2448C22.9231 37.7505 23.0514 37.2563 23.175 36.762C23.2986 36.2678 23.4221 35.7688 23.5457 35.265C23.9877 35.3933 24.4296 35.5216 24.8716 35.6357ZM23.5457 35.265C23.4221 35.7688 23.2986 36.2678 23.175 36.762C23.0514 37.2563 22.9231 37.7505 22.79 38.2448C22.4289 39.5659 22.0439 40.8966 21.6352 42.2368C21.4356 42.9021 21.2265 43.5675 21.0079 44.2328C20.0669 47.184 19.183 50.1638 18.0852 53.0723C17.8143 52.9582 17.4008 52.7871 16.9303 52.6018C17.9996 49.4937 19.0547 46.4712 20.181 43.4059C20.3996 42.8071 20.6087 42.2035 20.8083 41.5952C21.0174 40.9869 21.217 40.3786 21.4071 39.7703C21.7065 38.701 22.0914 37.6175 22.3481 36.4769C22.4811 35.9826 22.6047 35.4884 22.7188 34.9941C22.9896 35.0797 23.2748 35.1937 23.5457 35.265ZM22.7188 34.9941C22.6047 35.4884 22.4811 35.9826 22.3481 36.4769C22.0914 37.6175 21.7065 38.701 21.4071 39.7703C21.217 40.3786 21.0174 40.9869 20.8083 41.5952C20.6087 42.2035 20.3996 42.8071 20.181 43.4059C19.0547 46.4712 17.9996 49.4937 16.9303 52.6018C16.3886 52.3737 15.7755 52.1028 15.191 51.8604C16.3601 48.8236 17.5862 45.8724 18.8978 42.9211C19.1545 42.3318 19.4016 41.7425 19.6392 41.1532C20.295 39.4852 20.8796 37.8171 21.3643 36.1062C21.4974 35.6119 21.621 35.1129 21.735 34.6092C22.0629 34.7375 22.3908 34.8658 22.7188 34.9941ZM21.735 34.6092C21.621 35.1129 21.4974 35.6119 21.3643 36.1062C20.8796 37.8171 20.295 39.4852 19.6392 41.1532C19.4016 41.7425 19.1545 42.3318 18.8978 42.9211C17.5862 45.8724 16.3601 48.8236 15.191 51.8604C14.4781 51.561 13.808 51.2759 13.4231 51.1048C14.6349 48.1108 15.9466 45.2023 17.2725 42.2796C18.3275 40.0554 19.2828 37.8456 20.0812 35.5644C20.2428 35.0892 20.3948 34.5997 20.5374 34.0959C20.9366 34.2813 21.3358 34.4524 21.735 34.6092ZM20.5374 34.0959C20.3948 34.5997 20.2428 35.0892 20.0812 35.5644C19.2828 37.8456 18.3275 40.0554 17.2725 42.2796C15.9466 45.2023 14.6349 48.1108 13.4231 51.1048C13.0999 50.9622 12.7767 50.8196 12.4536 50.6771C13.5942 47.7401 15.0199 45.0027 16.2745 42.137C17.3581 39.8701 18.3133 37.5604 19.0974 35.151C19.2495 34.6662 19.3921 34.172 19.5251 33.6682C19.8673 33.8108 20.1952 33.9534 20.5374 34.0959ZM19.5251 33.6682C19.3921 34.172 19.2495 34.6662 19.0974 35.151C18.3133 37.5604 17.3581 39.8701 16.2745 42.137C15.0199 45.0027 13.5942 47.7401 12.4536 50.6771C12.1114 50.525 11.7692 50.3729 11.4271 50.2208C12.4393 47.8256 13.5229 45.4732 14.5351 43.1207C15.7185 40.2836 17.1585 37.5462 18.0139 34.6234C18.166 34.1387 18.299 33.6492 18.4131 33.155C18.7838 33.326 19.1545 33.5256 19.5251 33.6682ZM18.4131 33.155C18.299 33.6492 18.166 34.1387 18.0139 34.6234C17.1585 37.5462 15.7185 40.2836 14.5351 43.1207C13.5229 45.4732 12.4393 47.8256 11.4271 50.2208C11.2465 50.1448 11.0659 50.0687 10.8853 49.9927C11.9261 47.626 12.9241 45.2308 13.9934 42.8784C15.1767 40.0554 16.4599 37.2895 17.4008 34.3383C17.5529 33.8536 17.6955 33.3641 17.8285 32.8698C18.0281 32.9696 18.2277 33.0694 18.4131 33.155ZM17.8285 32.8698C17.6955 33.3641 17.5529 33.8536 17.4008 34.3383C16.4599 37.2895 15.1767 40.0554 13.9934 42.8784C12.9241 45.2308 11.9261 47.626 10.8853 49.9927C10.6667 49.8977 10.4481 49.8026 10.2295 49.7076C11.2132 47.3124 12.2255 44.9171 13.2948 42.5504C14.5636 39.7418 15.7612 36.8903 16.7022 33.9676C16.8638 33.4924 17.0111 33.0124 17.1442 32.5276C17.3723 32.6417 17.6004 32.7558 17.8285 32.8698ZM17.1442 32.5276C17.0111 33.0124 16.8638 33.4924 16.7022 33.9676C15.7612 36.8903 14.5636 39.7418 13.2948 42.5504C12.2255 44.9171 11.2132 47.3124 10.2295 49.7076C9.89679 49.5555 9.56887 49.4082 9.24571 49.2656C10.0156 47.4834 10.7712 45.687 11.5411 43.8906C13.0381 40.4689 14.5922 37.0757 15.6614 33.4544C15.804 32.9601 15.9418 32.4706 16.0749 31.9859C16.4266 32.1665 16.783 32.347 17.1442 32.5276ZM16.0749 31.9859C15.9418 32.4706 15.804 32.9601 15.6614 33.4544C14.5922 37.0757 13.0381 40.4689 11.5411 43.8906C10.7712 45.687 10.0156 47.4834 9.24571 49.2656C8.89403 49.1135 8.54235 48.9567 8.19068 48.7951C8.94631 46.9987 9.7162 45.2023 10.4861 43.4201C11.9688 39.9842 13.4231 36.4769 14.5066 32.8698C14.6587 32.3756 14.8013 31.8813 14.9343 31.3871C15.3145 31.5867 15.6947 31.7863 16.0749 31.9859ZM14.9343 31.3871C14.8013 31.8813 14.6587 32.3756 14.5066 32.8698C13.4231 36.4769 11.9688 39.9842 10.4861 43.4201C9.7162 45.2023 8.94631 46.9987 8.19068 48.7951C7.97206 48.7001 7.75345 48.605 7.53484 48.51C8.41879 46.7278 9.08888 44.8886 9.88728 43.0922C11.3415 39.6135 12.6532 36.0919 13.808 32.4706C13.9601 31.9859 14.1027 31.5011 14.2357 31.0164C14.4733 31.1399 14.7062 31.2635 14.9343 31.3871ZM14.2357 31.0164C14.1027 31.5011 13.9601 31.9859 13.808 32.4706C12.6532 36.0919 11.3415 39.6135 9.88728 43.0922C9.08888 44.8886 8.41879 46.7278 7.53484 48.51C7.18317 48.3579 6.82674 48.2011 6.46555 48.0395C7.00733 46.8846 7.49207 45.63 8.03385 44.4467C8.28097 43.8384 8.52334 43.23 8.76096 42.6217C10.1011 39.0432 11.5126 35.5074 12.6389 31.9003C12.791 31.4061 12.9383 30.9071 13.0809 30.4033C13.4658 30.6029 13.8508 30.8025 14.2357 31.0164ZM13.0809 30.4033C12.9383 30.9071 12.791 31.4061 12.6389 31.9003C11.5126 35.5074 10.1011 39.0432 8.76096 42.6217C8.52334 43.23 8.28097 43.8384 8.03385 44.4467C7.49207 45.63 7.00733 46.8846 6.46555 48.0395C6.28496 47.9634 6.10912 47.8874 5.93804 47.8114C6.40853 46.5852 6.97882 45.4304 7.42079 44.19C7.66791 43.5817 7.91504 42.9734 8.16216 42.3651C9.55937 38.8151 10.9851 35.2508 12.0686 31.6009C12.2207 31.1067 12.368 30.6077 12.5106 30.1039C12.696 30.2037 12.8956 30.3035 13.0809 30.4033ZM21.7493 54.5835C21.5307 55.1348 21.312 55.6813 21.0934 56.2231C19.8531 59.545 18.4701 62.7814 17.0016 65.975C16.7925 66.4218 16.5787 66.8637 16.3601 67.3009C16.1509 67.7382 15.9323 68.1754 15.7042 68.6126C14.8203 70.352 13.9078 72.0629 12.9241 73.7167C12.1969 73.1464 11.3558 72.6759 10.6287 72.1627C12.0544 70.7084 13.1094 68.912 14.1644 67.1441C14.5256 66.5358 14.8678 65.918 15.191 65.2907C16.8163 62.1684 18.0281 58.8179 19.2257 55.4532C19.4253 54.9209 19.6345 54.3887 19.8531 53.8564C20.8938 54.2699 20.68 54.1843 21.7493 54.5835ZM19.8531 53.8564C19.6345 54.3887 19.4253 54.9209 19.2257 55.4532C18.0281 58.8179 16.8163 62.1684 15.191 65.2907C14.8678 65.918 14.5256 66.5358 14.1644 67.1441C13.1094 68.912 12.0544 70.7084 10.6287 72.1627C10.372 72.0011 10.1106 71.8395 9.84451 71.6779C11.0849 70.0098 12.1399 68.2134 13.1237 66.3885C13.4848 65.7897 13.827 65.1861 14.1502 64.5778C15.804 61.5268 17.0729 58.2904 18.4131 55.0968C18.6317 54.574 18.8456 54.0465 19.0547 53.5142C19.2685 53.5998 19.4824 53.7138 19.8531 53.8564ZM19.0547 53.5142C18.8456 54.0465 18.6317 54.574 18.4131 55.0968C17.0729 58.2904 15.804 61.5268 14.1502 64.5778C13.827 65.1861 13.4848 65.7897 13.1237 66.3885C12.1399 68.2134 11.0849 70.0098 9.84451 71.6779C9.50234 71.4593 9.15541 71.2454 8.80374 71.0363C9.05086 70.5611 9.29323 70.0859 9.53085 69.6106C9.76847 69.1449 10.0013 68.6744 10.2295 68.1992C10.6999 67.2582 11.1704 66.3172 11.6552 65.3762C11.9831 64.7917 12.3253 64.1929 12.6674 63.6083C14.3498 60.6713 15.9466 57.6916 17.4151 54.6406C17.6527 54.1273 17.8761 53.6045 18.0852 53.0723C18.5414 53.2576 18.7838 53.3717 19.0547 53.5142ZM18.0852 53.0723C17.8761 53.6045 17.6527 54.1273 17.4151 54.6406C15.9466 57.6916 14.3498 60.6713 12.6674 63.6083C12.3253 64.1929 11.9831 64.7917 11.6552 65.3762C11.1704 66.3172 10.6999 67.2582 10.2295 68.1992C10.0013 68.6744 9.76847 69.1449 9.53085 69.6106C9.29323 70.0859 9.05086 70.5611 8.80374 71.0363C8.57562 70.9033 8.3475 70.775 8.11939 70.6514C8.41879 70.0668 8.70394 69.4823 8.98908 68.8978C9.26472 68.3085 9.54036 67.7239 9.816 67.1441C10.3578 65.9608 10.8995 64.7917 11.5126 63.6654C11.7977 63.1521 12.0829 62.6341 12.368 62.1113C13.751 59.5023 15.1054 56.8647 16.2888 54.1558C16.5074 53.633 16.7212 53.115 16.9303 52.6018C17.4008 52.7871 17.8143 52.9582 18.0852 53.0723ZM16.9303 52.6018C16.7212 53.115 16.5074 53.633 16.2888 54.1558C15.1054 56.8647 13.751 59.5023 12.368 62.1113C12.0829 62.6341 11.7977 63.1521 11.5126 63.6654C10.8995 64.7917 10.3578 65.9608 9.816 67.1441C9.54036 67.7239 9.26472 68.3085 8.98908 68.8978C8.70394 69.4823 8.41879 70.0668 8.11939 70.6514C7.85326 70.5088 7.58712 70.3662 7.32099 70.2237C8.00533 68.855 8.56136 67.4293 9.17442 66.0321C9.36452 65.5663 9.55937 65.0958 9.75897 64.6206C10.1439 63.6796 10.5289 62.7386 10.9566 61.8119C11.2702 61.1181 11.5791 60.4242 11.8833 59.7304C12.7957 57.6346 13.6797 55.5245 14.5636 53.4287C14.7823 52.9059 14.9914 52.3832 15.191 51.8604C15.7755 52.1028 16.3886 52.3737 16.9303 52.6018ZM15.191 51.8604C14.9914 52.3832 14.7823 52.9059 14.5636 53.4287C13.6797 55.5245 12.7957 57.6346 11.8833 59.7304C11.5791 60.4242 11.2702 61.1181 10.9566 61.8119C10.5289 62.7386 10.1439 63.6796 9.75897 64.6206C9.55937 65.0958 9.36452 65.5663 9.17442 66.0321C8.56136 67.4293 8.00533 68.855 7.32099 70.2237C6.96931 70.0431 6.61763 69.8672 6.26595 69.6962C7.13564 67.857 7.66316 65.8895 8.44731 63.9933C8.61839 63.518 8.79898 63.0428 8.98908 62.5676C9.16967 62.1018 9.35977 61.6313 9.55937 61.1561C9.83501 60.4527 10.1106 59.7494 10.3863 59.046C11.1989 56.9217 11.9831 54.7831 12.81 52.6731C13.0096 52.1503 13.214 51.6275 13.4231 51.1048C13.808 51.2759 14.4781 51.561 15.191 51.8604ZM13.4231 51.1048C13.214 51.6275 13.0096 52.1503 12.81 52.6731C11.9831 54.7831 11.1989 56.9217 10.3863 59.046C10.1106 59.7494 9.83501 60.4527 9.55937 61.1561C9.35977 61.6313 9.16967 62.1018 8.98908 62.5676C8.79898 63.0428 8.61839 63.518 8.44731 63.9933C7.66316 65.8895 7.13564 67.857 6.26595 69.6962C5.9618 69.5536 5.65289 69.411 5.33924 69.2684C6.18041 67.5291 6.69367 65.6043 7.37802 63.7937C7.59187 63.1949 7.81999 62.5961 8.07662 61.9973C8.33325 61.3509 8.58512 60.6999 8.83225 60.044C9.84451 57.4207 10.7855 54.7974 11.8405 52.2453C12.0401 51.7226 12.2445 51.1998 12.4536 50.6771C12.7767 50.8196 13.0999 50.9622 13.4231 51.1048ZM12.4536 50.6771C12.2445 51.1998 12.0401 51.7226 11.8405 52.2453C10.7855 54.7974 9.84451 57.4207 8.83225 60.044C8.58512 60.6999 8.33325 61.3509 8.07662 61.9973C7.81999 62.5961 7.59187 63.1949 7.37802 63.7937C6.69367 65.6043 6.18041 67.5291 5.33924 69.2684C4.99706 69.1069 4.65014 68.95 4.29846 68.798C5.29646 66.973 5.79547 64.9485 6.50833 62.9953C6.73644 62.3394 6.96456 61.6979 7.22119 61.0563C7.45881 60.4385 7.69643 59.8207 7.93405 59.2029C8.87502 56.7364 9.78748 54.2556 10.7997 51.7891C11.0088 51.2664 11.218 50.7436 11.4271 50.2208C11.7692 50.3729 12.1114 50.525 12.4536 50.6771ZM11.4271 50.2208C11.218 50.7436 11.0088 51.2664 10.7997 51.7891C9.78748 54.2556 8.87502 56.7364 7.93405 59.2029C7.69643 59.8207 7.45881 60.4385 7.22119 61.0563C6.96456 61.6979 6.73644 62.3394 6.50833 62.9953C5.79547 64.9485 5.29646 66.973 4.29846 68.798C4.10836 68.7124 3.91827 68.6269 3.72817 68.5413C4.56935 66.6023 5.06835 64.5778 5.8525 62.6103C6.10913 61.9973 6.36575 61.3842 6.62238 60.7712C7.89127 57.7059 9.01759 54.612 10.2437 51.5467C10.4528 51.024 10.6667 50.506 10.8853 49.9927C11.0659 50.0687 11.2465 50.1448 11.4271 50.2208ZM10.8853 49.9927C10.6667 50.506 10.4528 51.024 10.2437 51.5467C9.01759 54.612 7.89127 57.7059 6.62238 60.7712C6.36575 61.3842 6.10913 61.9973 5.8525 62.6103C5.06835 64.5778 4.56935 66.6023 3.72817 68.5413C3.49055 68.4463 3.25293 68.3465 3.01531 68.2419C4.05609 65.8752 4.79746 63.4087 5.75269 61.0278C6.01883 60.3815 6.28021 59.7304 6.53684 59.0745C7.5491 56.4655 8.53285 53.8422 9.60214 51.2616C9.81124 50.7388 10.0203 50.2208 10.2295 49.7076C10.4481 49.8026 10.6667 49.8977 10.8853 49.9927ZM10.2295 49.7076C10.0203 50.2208 9.81124 50.7388 9.60214 51.2616C8.53285 53.8422 7.5491 56.4655 6.53684 59.0745C6.28021 59.7304 6.01883 60.3815 5.75269 61.0278C4.79746 63.4087 4.05609 65.8752 3.01531 68.2419C2.65413 68.0898 2.2882 67.933 1.91751 67.7714C2.92977 65.5188 3.61411 63.1236 4.5836 60.8282C4.81172 60.2769 5.03983 59.7209 5.26795 59.1601C6.42278 56.3799 7.49207 53.5998 8.60413 50.8196C8.81324 50.3064 9.0271 49.7884 9.24571 49.2656C9.56887 49.4082 9.89679 49.5555 10.2295 49.7076ZM9.24571 49.2656C9.0271 49.7884 8.81324 50.3064 8.60413 50.8196C7.49207 53.5998 6.42278 56.3799 5.26795 59.1601C5.03983 59.7209 4.81172 60.2769 4.5836 60.8282C3.61411 63.1236 2.92977 65.5188 1.91751 67.7714C1.5088 67.6099 1.10009 67.4435 0.691388 67.2724C1.63236 64.9628 2.4878 62.6531 3.45729 60.372C3.69491 59.8112 3.92777 59.2551 4.15589 58.7039C5.31072 55.9237 6.33724 53.115 7.53484 50.3491C7.75345 49.8359 7.97206 49.3179 8.19068 48.7951C8.54235 48.9567 8.89403 49.1135 9.24571 49.2656ZM8.19068 48.7951C7.97206 49.3179 7.75345 49.8359 7.53484 50.3491C6.33724 53.115 5.31072 55.9237 4.15589 58.7039C3.92777 59.2551 3.69491 59.8112 3.45729 60.372C2.4878 62.6531 1.63236 64.9628 0.691388 67.2724C0.444264 67.1679 0.192388 67.0633 -0.0642414 66.9588C1.07633 64.7346 1.77494 62.3394 2.7872 60.1011C3.03432 59.5498 3.27194 58.9985 3.50006 58.4472C4.66915 55.6813 5.73844 52.8584 6.87901 50.064C7.09762 49.5507 7.31623 49.0327 7.53484 48.51C7.75345 48.605 7.97206 48.7001 8.19068 48.7951ZM7.53484 48.51C7.31623 49.0327 7.09762 49.5507 6.87901 50.064C5.73844 52.8584 4.66915 55.6813 3.50006 58.4472C3.27194 58.9985 3.03432 59.5498 2.7872 60.1011C1.77494 62.3394 1.07633 64.7346 -0.0642414 66.9588C-0.482453 66.7877 -0.905417 66.6166 -1.33313 66.4455C-0.278101 63.8935 0.791189 61.2702 1.94602 58.7466C2.32621 57.9102 2.70166 57.069 3.07234 56.2231C4.02757 54.0132 4.88301 51.8176 5.80972 49.6078C6.02833 49.085 6.24694 48.5622 6.46555 48.0395C6.82674 48.2011 7.18317 48.3579 7.53484 48.51ZM6.46555 48.0395C6.24694 48.5622 6.02833 49.085 5.80972 49.6078C4.88301 51.8176 4.02757 54.0132 3.07234 56.2231C2.70166 57.069 2.32621 57.9102 1.94602 58.7466C0.791189 61.2702 -0.278101 63.8935 -1.33313 66.4455C-1.54224 66.36 -1.75134 66.2744 -1.96045 66.1889C-0.777102 63.6939 0.249417 61.0563 1.38999 58.5328C1.77018 57.6868 2.14087 56.8409 2.50205 55.995C3.44303 53.7709 4.34123 51.5895 5.28221 49.3796C5.50082 48.8569 5.71943 48.3341 5.93804 47.8114C6.10912 47.8874 6.28496 47.9634 6.46555 48.0395Z" fill="url(#paint5_linear_630_81710)" fill-opacity="0.5"/>
</g>
</g>
<path d="M6.93605 55.824L18.2135 28.9207L16.6737 28.2648L4.92578 56.2945L6.93605 55.824Z" fill="url(#paint6_linear_630_81710)"/>
<path d="M17.1728 61.4271L28.9065 33.3974L27.3667 32.7559L16.1035 59.6592L17.1728 61.4271Z" fill="url(#paint7_linear_630_81710)"/>
<path d="M25.7129 0.320787L26.9675 1.74651C27.2954 2.11719 27.8514 2.18848 28.2506 1.90334L29.7904 0.791275C30.2609 0.449102 30.9167 0.591674 31.1876 1.10493L32.1001 2.77303C32.3282 3.20074 32.8557 3.38609 33.312 3.20074L35.0656 2.45937C35.5931 2.23125 36.1919 2.53065 36.3487 3.07243L36.862 4.91161C36.9903 5.38209 37.4608 5.68149 37.9455 5.59595L39.8275 5.26804C40.3835 5.16824 40.911 5.58169 40.9396 6.15198L41.0393 8.06245C41.0679 8.54719 41.4528 8.93214 41.9376 8.96065L43.848 9.06045C44.4183 9.08897 44.8318 9.61648 44.732 10.1725L44.4041 12.0545C44.3185 12.5392 44.6179 12.9954 45.0884 13.138L46.9276 13.6513C47.4694 13.8081 47.7687 14.4069 47.5406 14.9344L46.7993 16.6881C46.6139 17.1443 46.7993 17.6718 47.227 17.8999L48.8951 18.8124C49.4083 19.0833 49.5509 19.7391 49.2087 20.2096L48.0967 21.7494C47.8115 22.1486 47.8828 22.7046 48.2535 23.0325L49.6792 24.2871C50.1069 24.6721 50.1069 25.3422 49.6792 25.7129L48.2535 26.9818C47.8828 27.2954 47.8115 27.8514 48.0967 28.2506L49.2087 29.7904C49.5509 30.2609 49.4083 30.9167 48.8951 31.1876L47.227 32.1001C46.7993 32.3425 46.6139 32.8557 46.7993 33.312L47.5406 35.0656C47.7687 35.5931 47.4694 36.1919 46.9276 36.3487L45.0884 36.8763C44.6179 37.0046 44.3185 37.4751 44.4041 37.9598L44.732 39.8275C44.8318 40.3978 44.4183 40.9253 43.848 40.9538L41.9376 41.0393C41.4528 41.0679 41.0679 41.4528 41.0393 41.9518L40.9396 43.848C40.911 44.4183 40.3835 44.846 39.8275 44.7462L37.9455 44.4041C37.4608 44.3185 36.9903 44.6179 36.862 45.0884L36.3487 46.9276C36.1919 47.4836 35.5931 47.7687 35.0656 47.5406L33.312 46.7993C32.8557 46.6139 32.3282 46.7993 32.1001 47.227L31.1876 48.8951C30.9167 49.4083 30.2609 49.5509 29.7904 49.223L28.2506 48.1109C27.8514 47.8258 27.2954 47.8828 26.9675 48.2535L25.7129 49.6792C25.3279 50.1069 24.6578 50.1069 24.2871 49.6792L23.0182 48.2535C22.7046 47.8828 22.1486 47.8258 21.7494 48.1109L20.2096 49.223C19.7391 49.5509 19.0833 49.4083 18.8124 48.8951L17.8999 47.227C17.6575 46.7993 17.1443 46.6139 16.6881 46.7993L14.9344 47.5406C14.4069 47.7687 13.8081 47.4836 13.6513 46.9276L13.1238 45.0884C12.9954 44.6179 12.525 44.3185 12.0402 44.4041L10.1725 44.7462C9.60222 44.846 9.07471 44.4183 9.04619 43.848L8.96065 41.9518C8.93213 41.4528 8.54719 41.0679 8.04819 41.0393L6.15198 40.9538C5.58169 40.9253 5.15398 40.3978 5.25378 39.8275L5.59595 37.9598C5.68149 37.4751 5.38209 37.0046 4.9116 36.8763L3.07243 36.3487C2.5164 36.1919 2.23125 35.5931 2.45937 35.0656L3.20074 33.312C3.38608 32.8557 3.20074 32.3425 2.77303 32.1001L1.10493 31.1876C0.591674 30.9167 0.449101 30.2609 0.777017 29.7904L1.88908 28.2506C2.17422 27.8514 2.11719 27.2954 1.74651 26.9818L0.320787 25.7129C-0.106929 25.3422 -0.106929 24.6721 0.320787 24.2871L1.74651 23.0325C2.11719 22.7046 2.17422 22.1486 1.88908 21.7494L0.777017 20.2096C0.449101 19.7391 0.591674 19.0833 1.10493 18.8124L2.77303 17.8999C3.20074 17.6718 3.38608 17.1443 3.20074 16.6881L2.45937 14.9344C2.23125 14.4069 2.5164 13.8081 3.07243 13.6513L4.9116 13.138C5.38209 12.9954 5.68149 12.5392 5.59595 12.0545L5.25378 10.1725C5.15398 9.61648 5.58169 9.08897 6.15198 9.06045L8.04819 8.96065C8.54719 8.93214 8.93213 8.54719 8.96065 8.06245L9.04619 6.15198C9.07471 5.58169 9.60222 5.16824 10.1725 5.26804L12.0402 5.59595C12.525 5.68149 12.9954 5.38209 13.1238 4.91161L13.6513 3.07243C13.8081 2.53065 14.4069 2.23125 14.9344 2.45937L16.6881 3.20074C17.1443 3.38609 17.6575 3.20074 17.8999 2.77303L18.8124 1.10493C19.0833 0.591674 19.7391 0.449102 20.2096 0.791275L21.7494 1.90334C22.1486 2.18848 22.7046 2.11719 23.0182 1.74651L24.2871 0.320787C24.6578 -0.106929 25.3279 -0.106929 25.7129 0.320787Z" fill="#007B55"/>
<path d="M25.7129 0.320787L26.9675 1.74651C27.2954 2.11719 27.8514 2.18848 28.2506 1.90334L29.7904 0.791275C30.2609 0.449102 30.9167 0.591674 31.1876 1.10493L32.1001 2.77303C32.3282 3.20074 32.8557 3.38609 33.312 3.20074L35.0656 2.45937C35.5931 2.23125 36.1919 2.53065 36.3487 3.07243L36.862 4.91161C36.9903 5.38209 37.4608 5.68149 37.9455 5.59595L39.8275 5.26804C40.3835 5.16824 40.911 5.58169 40.9396 6.15198L41.0393 8.06245C41.0679 8.54719 41.4528 8.93214 41.9376 8.96065L43.848 9.06045C44.4183 9.08897 44.8318 9.61648 44.732 10.1725L44.4041 12.0545C44.3185 12.5392 44.6179 12.9954 45.0884 13.138L46.9276 13.6513C47.4694 13.8081 47.7687 14.4069 47.5406 14.9344L46.7993 16.6881C46.6139 17.1443 46.7993 17.6718 47.227 17.8999L48.8951 18.8124C49.4083 19.0833 49.5509 19.7391 49.2087 20.2096L48.0967 21.7494C47.8115 22.1486 47.8828 22.7046 48.2535 23.0325L49.6792 24.2871C50.1069 24.6721 50.1069 25.3422 49.6792 25.7129L48.2535 26.9818C47.8828 27.2954 47.8115 27.8514 48.0967 28.2506L49.2087 29.7904C49.5509 30.2609 49.4083 30.9167 48.8951 31.1876L47.227 32.1001C46.7993 32.3425 46.6139 32.8557 46.7993 33.312L47.5406 35.0656C47.7687 35.5931 47.4694 36.1919 46.9276 36.3487L45.0884 36.8763C44.6179 37.0046 44.3185 37.4751 44.4041 37.9598L44.732 39.8275C44.8318 40.3978 44.4183 40.9253 43.848 40.9538L41.9376 41.0393C41.4528 41.0679 41.0679 41.4528 41.0393 41.9518L40.9396 43.848C40.911 44.4183 40.3835 44.846 39.8275 44.7462L37.9455 44.4041C37.4608 44.3185 36.9903 44.6179 36.862 45.0884L36.3487 46.9276C36.1919 47.4836 35.5931 47.7687 35.0656 47.5406L33.312 46.7993C32.8557 46.6139 32.3282 46.7993 32.1001 47.227L31.1876 48.8951C30.9167 49.4083 30.2609 49.5509 29.7904 49.223L28.2506 48.1109C27.8514 47.8258 27.2954 47.8828 26.9675 48.2535L25.7129 49.6792C25.3279 50.1069 24.6578 50.1069 24.2871 49.6792L23.0182 48.2535C22.7046 47.8828 22.1486 47.8258 21.7494 48.1109L20.2096 49.223C19.7391 49.5509 19.0833 49.4083 18.8124 48.8951L17.8999 47.227C17.6575 46.7993 17.1443 46.6139 16.6881 46.7993L14.9344 47.5406C14.4069 47.7687 13.8081 47.4836 13.6513 46.9276L13.1238 45.0884C12.9954 44.6179 12.525 44.3185 12.0402 44.4041L10.1725 44.7462C9.60222 44.846 9.07471 44.4183 9.04619 43.848L8.96065 41.9518C8.93213 41.4528 8.54719 41.0679 8.04819 41.0393L6.15198 40.9538C5.58169 40.9253 5.15398 40.3978 5.25378 39.8275L5.59595 37.9598C5.68149 37.4751 5.38209 37.0046 4.9116 36.8763L3.07243 36.3487C2.5164 36.1919 2.23125 35.5931 2.45937 35.0656L3.20074 33.312C3.38608 32.8557 3.20074 32.3425 2.77303 32.1001L1.10493 31.1876C0.591674 30.9167 0.449101 30.2609 0.777017 29.7904L1.88908 28.2506C2.17422 27.8514 2.11719 27.2954 1.74651 26.9818L0.320787 25.7129C-0.106929 25.3422 -0.106929 24.6721 0.320787 24.2871L1.74651 23.0325C2.11719 22.7046 2.17422 22.1486 1.88908 21.7494L0.777017 20.2096C0.449101 19.7391 0.591674 19.0833 1.10493 18.8124L2.77303 17.8999C3.20074 17.6718 3.38608 17.1443 3.20074 16.6881L2.45937 14.9344C2.23125 14.4069 2.5164 13.8081 3.07243 13.6513L4.9116 13.138C5.38209 12.9954 5.68149 12.5392 5.59595 12.0545L5.25378 10.1725C5.15398 9.61648 5.58169 9.08897 6.15198 9.06045L8.04819 8.96065C8.54719 8.93214 8.93213 8.54719 8.96065 8.06245L9.04619 6.15198C9.07471 5.58169 9.60222 5.16824 10.1725 5.26804L12.0402 5.59595C12.525 5.68149 12.9954 5.38209 13.1238 4.91161L13.6513 3.07243C13.8081 2.53065 14.4069 2.23125 14.9344 2.45937L16.6881 3.20074C17.1443 3.38609 17.6575 3.20074 17.8999 2.77303L18.8124 1.10493C19.0833 0.591674 19.7391 0.449102 20.2096 0.791275L21.7494 1.90334C22.1486 2.18848 22.7046 2.11719 23.0182 1.74651L24.2871 0.320787C24.6578 -0.106929 25.3279 -0.106929 25.7129 0.320787Z" fill="url(#paint8_linear_630_81710)" fill-opacity="0.1"/>
<path d="M24.9999 4.4126C36.4769 4.4126 45.7726 13.7083 45.7726 25.1853C45.7726 36.6624 36.4769 45.9723 24.9999 45.9723C13.5228 45.9723 4.21289 36.6624 4.21289 25.1853C4.21289 13.7083 13.5228 4.4126 24.9999 4.4126Z" fill="url(#paint9_linear_630_81710)"/>
<path d="M25 6.0094C35.5931 6.0094 44.1902 14.5922 44.1902 25.1853C44.1902 35.7927 35.5931 44.3755 25 44.3755C14.4069 44.3755 5.80981 35.7927 5.80981 25.1853C5.80981 14.5922 14.4069 6.0094 25 6.0094Z" fill="url(#paint10_linear_630_81710)"/>
<path d="M25 7.05017C35.0228 7.05017 43.1352 15.1768 43.1352 25.1853C43.1352 35.2081 35.0228 43.3347 25 43.3347C14.9772 43.3347 6.85059 35.2081 6.85059 25.1853C6.85059 15.1768 14.9772 7.05017 25 7.05017Z" fill="#F1F2F2"/>
<g filter="url(#filter0_d_630_81710)">
<path d="M12.9435 23.06C12.5715 23.06 12.2555 22.996 11.9955 22.868C11.7395 22.736 11.5435 22.55 11.4075 22.31C11.2715 22.066 11.1955 21.774 11.1795 21.434C11.1755 21.27 11.1735 21.094 11.1735 20.906C11.1735 20.718 11.1755 20.538 11.1795 20.366C11.1955 20.03 11.2715 19.74 11.4075 19.496C11.5475 19.252 11.7455 19.066 12.0015 18.938C12.2615 18.806 12.5755 18.74 12.9435 18.74C13.2155 18.74 13.4595 18.776 13.6755 18.848C13.8915 18.92 14.0755 19.02 14.2275 19.148C14.3795 19.272 14.4975 19.418 14.5815 19.586C14.6655 19.754 14.7095 19.936 14.7135 20.132C14.7175 20.168 14.7055 20.198 14.6775 20.222C14.6535 20.246 14.6235 20.258 14.5875 20.258H14.0175C13.9735 20.258 13.9375 20.248 13.9095 20.228C13.8815 20.204 13.8615 20.166 13.8495 20.114C13.7855 19.85 13.6755 19.67 13.5195 19.574C13.3635 19.478 13.1695 19.43 12.9375 19.43C12.6695 19.43 12.4555 19.506 12.2955 19.658C12.1355 19.806 12.0495 20.052 12.0375 20.396C12.0255 20.724 12.0255 21.06 12.0375 21.404C12.0495 21.748 12.1355 21.996 12.2955 22.148C12.4555 22.296 12.6695 22.37 12.9375 22.37C13.1695 22.37 13.3635 22.322 13.5195 22.226C13.6755 22.126 13.7855 21.946 13.8495 21.686C13.8615 21.63 13.8815 21.592 13.9095 21.572C13.9375 21.552 13.9735 21.542 14.0175 21.542H14.5875C14.6235 21.542 14.6535 21.554 14.6775 21.578C14.7055 21.602 14.7175 21.632 14.7135 21.668C14.7095 21.864 14.6655 22.046 14.5815 22.214C14.4975 22.382 14.3795 22.53 14.2275 22.658C14.0755 22.782 13.8915 22.88 13.6755 22.952C13.4595 23.024 13.2155 23.06 12.9435 23.06ZM17.039 23.06C16.683 23.06 16.377 23.002 16.121 22.886C15.865 22.766 15.665 22.584 15.521 22.34C15.377 22.092 15.299 21.784 15.287 21.416C15.283 21.244 15.281 21.074 15.281 20.906C15.281 20.738 15.283 20.566 15.287 20.39C15.299 20.026 15.379 19.722 15.527 19.478C15.675 19.234 15.877 19.05 16.133 18.926C16.393 18.802 16.695 18.74 17.039 18.74C17.383 18.74 17.685 18.802 17.945 18.926C18.205 19.05 18.409 19.234 18.557 19.478C18.705 19.722 18.785 20.026 18.797 20.39C18.805 20.566 18.809 20.738 18.809 20.906C18.809 21.074 18.805 21.244 18.797 21.416C18.785 21.784 18.707 22.092 18.563 22.34C18.419 22.584 18.217 22.766 17.957 22.886C17.701 23.002 17.395 23.06 17.039 23.06ZM17.039 22.37C17.299 22.37 17.511 22.294 17.675 22.142C17.839 21.986 17.927 21.734 17.939 21.386C17.947 21.21 17.951 21.048 17.951 20.9C17.951 20.748 17.947 20.586 17.939 20.414C17.931 20.182 17.887 19.994 17.807 19.85C17.731 19.702 17.627 19.596 17.495 19.532C17.363 19.464 17.211 19.43 17.039 19.43C16.871 19.43 16.721 19.464 16.589 19.532C16.457 19.596 16.351 19.702 16.271 19.85C16.195 19.994 16.153 20.182 16.145 20.414C16.141 20.586 16.139 20.748 16.139 20.9C16.139 21.048 16.141 21.21 16.145 21.386C16.157 21.734 16.245 21.986 16.409 22.142C16.573 22.294 16.783 22.37 17.039 22.37ZM21.2709 23.06C20.9229 23.06 20.6209 23.002 20.3649 22.886C20.1089 22.766 19.9109 22.584 19.7709 22.34C19.6309 22.092 19.5609 21.776 19.5609 21.392V18.95C19.5609 18.906 19.5749 18.87 19.6029 18.842C19.6309 18.814 19.6649 18.8 19.7049 18.8H20.2509C20.2949 18.8 20.3289 18.814 20.3529 18.842C20.3809 18.87 20.3949 18.906 20.3949 18.95V21.392C20.3949 21.72 20.4729 21.964 20.6289 22.124C20.7849 22.28 20.9989 22.358 21.2709 22.358C21.5429 22.358 21.7549 22.28 21.9069 22.124C22.0629 21.964 22.1409 21.72 22.1409 21.392V18.95C22.1409 18.906 22.1549 18.87 22.1829 18.842C22.2109 18.814 22.2469 18.8 22.2909 18.8H22.8309C22.8749 18.8 22.9089 18.814 22.9329 18.842C22.9609 18.87 22.9749 18.906 22.9749 18.95V21.392C22.9749 21.776 22.9049 22.092 22.7649 22.34C22.6289 22.584 22.4329 22.766 22.1769 22.886C21.9249 23.002 21.6229 23.06 21.2709 23.06ZM24.0183 23C23.9783 23 23.9443 22.986 23.9163 22.958C23.8883 22.93 23.8743 22.896 23.8743 22.856V18.95C23.8743 18.906 23.8883 18.87 23.9163 18.842C23.9443 18.814 23.9783 18.8 24.0183 18.8H24.4803C24.5363 18.8 24.5763 18.814 24.6003 18.842C24.6283 18.866 24.6463 18.884 24.6543 18.896L26.3823 21.584V18.95C26.3823 18.906 26.3943 18.87 26.4183 18.842C26.4463 18.814 26.4823 18.8 26.5263 18.8H27.0303C27.0743 18.8 27.1103 18.814 27.1383 18.842C27.1663 18.87 27.1803 18.906 27.1803 18.95V22.85C27.1803 22.894 27.1663 22.93 27.1383 22.958C27.1103 22.986 27.0763 23 27.0363 23H26.5683C26.5123 23 26.4723 22.986 26.4483 22.958C26.4243 22.93 26.4063 22.912 26.3943 22.904L24.6723 20.276V22.856C24.6723 22.896 24.6583 22.93 24.6303 22.958C24.6023 22.986 24.5663 23 24.5223 23H24.0183ZM29.1844 23C29.1444 23 29.1104 22.986 29.0824 22.958C29.0544 22.93 29.0404 22.896 29.0404 22.856V19.538H27.9304C27.8904 19.538 27.8564 19.524 27.8284 19.496C27.8004 19.468 27.7864 19.434 27.7864 19.394V18.95C27.7864 18.906 27.8004 18.87 27.8284 18.842C27.8564 18.814 27.8904 18.8 27.9304 18.8H30.9904C31.0344 18.8 31.0704 18.814 31.0984 18.842C31.1264 18.87 31.1404 18.906 31.1404 18.95V19.394C31.1404 19.434 31.1264 19.468 31.0984 19.496C31.0704 19.524 31.0344 19.538 30.9904 19.538H29.8864V22.856C29.8864 22.896 29.8724 22.93 29.8444 22.958C29.8164 22.986 29.7804 23 29.7364 23H29.1844ZM31.8933 23C31.8533 23 31.8193 22.986 31.7913 22.958C31.7633 22.93 31.7493 22.896 31.7493 22.856V18.95C31.7493 18.906 31.7633 18.87 31.7913 18.842C31.8193 18.814 31.8533 18.8 31.8933 18.8H33.4473C33.9313 18.8 34.3133 18.912 34.5933 19.136C34.8733 19.36 35.0133 19.686 35.0133 20.114C35.0133 20.41 34.9393 20.656 34.7913 20.852C34.6473 21.048 34.4533 21.19 34.2093 21.278L35.0853 22.808C35.0973 22.832 35.1033 22.854 35.1033 22.874C35.1033 22.91 35.0893 22.94 35.0613 22.964C35.0373 22.988 35.0093 23 34.9773 23H34.4313C34.3633 23 34.3113 22.982 34.2753 22.946C34.2393 22.91 34.2113 22.874 34.1913 22.838L33.4173 21.416H32.5833V22.856C32.5833 22.896 32.5693 22.93 32.5413 22.958C32.5173 22.986 32.4833 23 32.4393 23H31.8933ZM32.5833 20.738H33.4293C33.6733 20.738 33.8553 20.684 33.9753 20.576C34.0953 20.464 34.1553 20.308 34.1553 20.108C34.1553 19.908 34.0953 19.752 33.9753 19.64C33.8593 19.524 33.6773 19.466 33.4293 19.466H32.5833V20.738ZM36.8762 23C36.8362 23 36.8022 22.986 36.7742 22.958C36.7462 22.93 36.7322 22.896 36.7322 22.856V21.5L35.3162 18.992C35.3122 18.984 35.3082 18.974 35.3042 18.962C35.3002 18.95 35.2982 18.938 35.2982 18.926C35.2982 18.89 35.3102 18.86 35.3342 18.836C35.3582 18.812 35.3862 18.8 35.4182 18.8H35.9522C36.0002 18.8 36.0382 18.812 36.0662 18.836C36.0982 18.86 36.1202 18.886 36.1322 18.914L37.1522 20.66L38.1662 18.914C38.1822 18.886 38.2042 18.86 38.2322 18.836C38.2642 18.812 38.3042 18.8 38.3522 18.8H38.8802C38.9162 18.8 38.9462 18.812 38.9702 18.836C38.9942 18.86 39.0062 18.89 39.0062 18.926C39.0062 18.938 39.0042 18.95 39.0002 18.962C39.0002 18.974 38.9962 18.984 38.9882 18.992L37.5722 21.5V22.856C37.5722 22.896 37.5582 22.93 37.5302 22.958C37.5022 22.986 37.4662 23 37.4222 23H36.8762ZM10.9608 31C10.9168 31 10.8808 30.986 10.8528 30.958C10.8248 30.93 10.8108 30.896 10.8108 30.856V26.95C10.8108 26.906 10.8248 26.87 10.8528 26.842C10.8808 26.814 10.9168 26.8 10.9608 26.8H11.4348C11.4908 26.8 11.5328 26.816 11.5608 26.848C11.5888 26.876 11.6068 26.898 11.6148 26.914L12.7728 29.074L13.9428 26.914C13.9508 26.898 13.9688 26.876 13.9968 26.848C14.0248 26.816 14.0668 26.8 14.1228 26.8H14.5908C14.6348 26.8 14.6708 26.814 14.6988 26.842C14.7268 26.87 14.7408 26.906 14.7408 26.95V30.856C14.7408 30.896 14.7268 30.93 14.6988 30.958C14.6708 30.986 14.6348 31 14.5908 31H14.0868C14.0428 31 14.0068 30.986 13.9788 30.958C13.9548 30.93 13.9428 30.896 13.9428 30.856V28.258L13.1028 29.86C13.0828 29.896 13.0568 29.928 13.0248 29.956C12.9928 29.98 12.9508 29.992 12.8988 29.992H12.6528C12.5968 29.992 12.5528 29.98 12.5208 29.956C12.4928 29.928 12.4688 29.896 12.4488 29.86L11.6088 28.258V30.856C11.6088 30.896 11.5948 30.93 11.5668 30.958C11.5388 30.986 11.5048 31 11.4648 31H10.9608ZM15.4161 31C15.3841 31 15.3541 30.988 15.3261 30.964C15.3021 30.94 15.2901 30.91 15.2901 30.874C15.2901 30.858 15.2941 30.84 15.3021 30.82L16.7481 26.95C16.7601 26.91 16.7821 26.876 16.8141 26.848C16.8501 26.816 16.8981 26.8 16.9581 26.8H17.6121C17.6721 26.8 17.7181 26.816 17.7501 26.848C17.7821 26.876 17.8061 26.91 17.8221 26.95L19.2681 30.82C19.2721 30.84 19.2741 30.858 19.2741 30.874C19.2741 30.91 19.2621 30.94 19.2381 30.964C19.2141 30.988 19.1861 31 19.1541 31H18.6321C18.5761 31 18.5341 30.988 18.5061 30.964C18.4821 30.936 18.4661 30.91 18.4581 30.886L18.1761 30.154H16.3941L16.1121 30.886C16.1041 30.91 16.0861 30.936 16.0581 30.964C16.0341 30.988 15.9941 31 15.9381 31H15.4161ZM16.6041 29.464H17.9661L17.2821 27.61L16.6041 29.464ZM19.9782 31C19.9382 31 19.9042 30.986 19.8762 30.958C19.8482 30.93 19.8342 30.896 19.8342 30.856V26.95C19.8342 26.906 19.8482 26.87 19.8762 26.842C19.9042 26.814 19.9382 26.8 19.9782 26.8H20.4402C20.4962 26.8 20.5362 26.814 20.5602 26.842C20.5882 26.866 20.6062 26.884 20.6142 26.896L22.3422 29.584V26.95C22.3422 26.906 22.3542 26.87 22.3782 26.842C22.4062 26.814 22.4422 26.8 22.4862 26.8H22.9902C23.0342 26.8 23.0702 26.814 23.0982 26.842C23.1262 26.87 23.1402 26.906 23.1402 26.95V30.85C23.1402 30.894 23.1262 30.93 23.0982 30.958C23.0702 30.986 23.0362 31 22.9962 31H22.5282C22.4722 31 22.4322 30.986 22.4082 30.958C22.3842 30.93 22.3662 30.912 22.3542 30.904L20.6322 28.276V30.856C20.6322 30.896 20.6182 30.93 20.5902 30.958C20.5622 30.986 20.5262 31 20.4822 31H19.9782ZM23.8184 31C23.7864 31 23.7564 30.988 23.7284 30.964C23.7044 30.94 23.6924 30.91 23.6924 30.874C23.6924 30.858 23.6964 30.84 23.7044 30.82L25.1504 26.95C25.1624 26.91 25.1844 26.876 25.2164 26.848C25.2524 26.816 25.3004 26.8 25.3604 26.8H26.0144C26.0744 26.8 26.1204 26.816 26.1524 26.848C26.1844 26.876 26.2084 26.91 26.2244 26.95L27.6704 30.82C27.6744 30.84 27.6764 30.858 27.6764 30.874C27.6764 30.91 27.6644 30.94 27.6404 30.964C27.6164 30.988 27.5884 31 27.5564 31H27.0344C26.9784 31 26.9364 30.988 26.9084 30.964C26.8844 30.936 26.8684 30.91 26.8604 30.886L26.5784 30.154H24.7964L24.5144 30.886C24.5064 30.91 24.4884 30.936 24.4604 30.964C24.4364 30.988 24.3964 31 24.3404 31H23.8184ZM25.0064 29.464H26.3684L25.6844 27.61L25.0064 29.464ZM29.7865 31.06C29.4185 31.06 29.1045 30.996 28.8445 30.868C28.5885 30.74 28.3885 30.556 28.2445 30.316C28.1045 30.072 28.0285 29.782 28.0165 29.446C28.0125 29.274 28.0105 29.09 28.0105 28.894C28.0105 28.694 28.0125 28.506 28.0165 28.33C28.0285 27.998 28.1045 27.714 28.2445 27.478C28.3885 27.242 28.5905 27.06 28.8505 26.932C29.1145 26.804 29.4265 26.74 29.7865 26.74C30.0785 26.74 30.3345 26.78 30.5545 26.86C30.7745 26.936 30.9565 27.036 31.1005 27.16C31.2485 27.28 31.3585 27.41 31.4305 27.55C31.5065 27.69 31.5465 27.82 31.5505 27.94C31.5545 27.976 31.5445 28.006 31.5205 28.03C31.4965 28.054 31.4645 28.066 31.4245 28.066H30.8065C30.7665 28.066 30.7365 28.058 30.7165 28.042C30.6965 28.026 30.6785 28.002 30.6625 27.97C30.6305 27.886 30.5805 27.804 30.5125 27.724C30.4445 27.64 30.3525 27.57 30.2365 27.514C30.1205 27.458 29.9705 27.43 29.7865 27.43C29.5145 27.43 29.2965 27.502 29.1325 27.646C28.9725 27.79 28.8865 28.028 28.8745 28.36C28.8625 28.708 28.8625 29.06 28.8745 29.416C28.8865 29.756 28.9745 30 29.1385 30.148C29.3065 30.296 29.5265 30.37 29.7985 30.37C29.9785 30.37 30.1385 30.338 30.2785 30.274C30.4225 30.21 30.5345 30.11 30.6145 29.974C30.6985 29.838 30.7405 29.664 30.7405 29.452V29.266H30.0085C29.9685 29.266 29.9345 29.252 29.9065 29.224C29.8785 29.196 29.8645 29.16 29.8645 29.116V28.798C29.8645 28.754 29.8785 28.718 29.9065 28.69C29.9345 28.662 29.9685 28.648 30.0085 28.648H31.4425C31.4865 28.648 31.5205 28.662 31.5445 28.69C31.5725 28.718 31.5865 28.754 31.5865 28.798V29.428C31.5865 29.764 31.5125 30.054 31.3645 30.298C31.2205 30.542 31.0125 30.73 30.7405 30.862C30.4725 30.994 30.1545 31.06 29.7865 31.06ZM32.4997 31C32.4597 31 32.4257 30.986 32.3977 30.958C32.3697 30.93 32.3557 30.896 32.3557 30.856V26.95C32.3557 26.906 32.3697 26.87 32.3977 26.842C32.4257 26.814 32.4597 26.8 32.4997 26.8H35.1397C35.1837 26.8 35.2197 26.814 35.2477 26.842C35.2757 26.87 35.2897 26.906 35.2897 26.95V27.346C35.2897 27.386 35.2757 27.42 35.2477 27.448C35.2197 27.476 35.1837 27.49 35.1397 27.49H33.1657V28.552H35.0077C35.0517 28.552 35.0877 28.566 35.1157 28.594C35.1437 28.618 35.1577 28.652 35.1577 28.696V29.068C35.1577 29.112 35.1437 29.148 35.1157 29.176C35.0877 29.2 35.0517 29.212 35.0077 29.212H33.1657V30.31H35.1877C35.2317 30.31 35.2677 30.324 35.2957 30.352C35.3237 30.38 35.3377 30.416 35.3377 30.46V30.856C35.3377 30.896 35.3237 30.93 35.2957 30.958C35.2677 30.986 35.2317 31 35.1877 31H32.4997ZM36.2321 31C36.1921 31 36.1581 30.986 36.1301 30.958C36.1021 30.93 36.0881 30.896 36.0881 30.856V26.95C36.0881 26.906 36.1021 26.87 36.1301 26.842C36.1581 26.814 36.1921 26.8 36.2321 26.8H37.7861C38.2701 26.8 38.6521 26.912 38.9321 27.136C39.2121 27.36 39.3521 27.686 39.3521 28.114C39.3521 28.41 39.2781 28.656 39.1301 28.852C38.9861 29.048 38.7921 29.19 38.5481 29.278L39.4241 30.808C39.4361 30.832 39.4421 30.854 39.4421 30.874C39.4421 30.91 39.4281 30.94 39.4001 30.964C39.3761 30.988 39.3481 31 39.3161 31H38.7701C38.7021 31 38.6501 30.982 38.6141 30.946C38.5781 30.91 38.5501 30.874 38.5301 30.838L37.7561 29.416H36.9221V30.856C36.9221 30.896 36.9081 30.93 36.8801 30.958C36.8561 30.986 36.8221 31 36.7781 31H36.2321ZM36.9221 28.738H37.7681C38.0121 28.738 38.1941 28.684 38.3141 28.576C38.4341 28.464 38.4941 28.308 38.4941 28.108C38.4941 27.908 38.4341 27.752 38.3141 27.64C38.1981 27.524 38.0161 27.466 37.7681 27.466H36.9221V28.738Z" fill="#212B36"/>
</g>
<defs>
<filter id="filter0_d_630_81710" x="8.81079" y="18.74" width="32.6313" height="16.32" filterUnits="userSpaceOnUse" color-interpolation-filters="sRGB">
<feFlood flood-opacity="0" result="BackgroundImageFix"/>
<feColorMatrix in="SourceAlpha" type="matrix" values="0 0 0 0 0 0 0 0 0 0 0 0 0 0 0 0 0 0 127 0" result="hardAlpha"/>
<feOffset dy="2"/>
<feGaussianBlur stdDeviation="1"/>
<feComposite in2="hardAlpha" operator="out"/>
<feColorMatrix type="matrix" values="0 0 0 0 0 0 0 0 0 0 0 0 0 0 0 0 0 0 0.15 0"/>
<feBlend mode="normal" in2="BackgroundImageFix" result="effect1_dropShadow_630_81710"/>
<feBlend mode="normal" in="SourceGraphic" in2="effect1_dropShadow_630_81710" result="shape"/>
</filter>
<linearGradient id="paint0_linear_630_81710" x1="58.7459" y1="33.0234" x2="74.6608" y2="67.1054" gradientUnits="userSpaceOnUse">
<stop stop-color="#231F20"/>
<stop offset="1" stop-color="white"/>
</linearGradient>
<linearGradient id="paint1_linear_630_81710" x1="20.7818" y1="35.3361" x2="30.147" y2="53.8502" gradientUnits="userSpaceOnUse">
<stop stop-color="white"/>
<stop offset="1" stop-color="#A1A1A1"/>
</linearGradient>
<linearGradient id="paint2_linear_630_81710" x1="-186.121" y1="229.684" x2="-162.347" y2="253.458" gradientUnits="userSpaceOnUse">
<stop stop-color="#B8B8B8"/>
<stop offset="0.164" stop-color="#E8E8E8"/>
<stop offset="0.291" stop-color="white"/>
<stop offset="0.552" stop-color="#ABABAB"/>
<stop offset="0.782" stop-color="#E8E8E8"/>
<stop offset="0.909" stop-color="#A2A2A2"/>
<stop offset="1" stop-color="#717171"/>
</linearGradient>
<linearGradient id="paint3_linear_630_81710" x1="-196.817" y1="234.163" x2="-173.042" y2="257.938" gradientUnits="userSpaceOnUse">
<stop stop-color="#B8B8B8"/>
<stop offset="0.164" stop-color="#E8E8E8"/>
<stop offset="0.291" stop-color="white"/>
<stop offset="0.552" stop-color="#ABABAB"/>
<stop offset="0.782" stop-color="#E8E8E8"/>
<stop offset="0.909" stop-color="#A2A2A2"/>
<stop offset="1" stop-color="#717171"/>
</linearGradient>
<linearGradient id="paint4_linear_630_81710" x1="-8.7508" y1="33.0235" x2="-24.6657" y2="67.1055" gradientUnits="userSpaceOnUse">
<stop stop-color="#231F20"/>
<stop offset="1" stop-color="white"/>
</linearGradient>
<linearGradient id="paint5_linear_630_81710" x1="29.2132" y1="35.3362" x2="19.848" y2="53.8503" gradientUnits="userSpaceOnUse">
<stop stop-color="white"/>
<stop offset="1" stop-color="#A1A1A1"/>
</linearGradient>
<linearGradient id="paint6_linear_630_81710" x1="-212.975" y1="-144.471" x2="-189.201" y2="-168.245" gradientUnits="userSpaceOnUse">
<stop stop-color="#B8B8B8"/>
<stop offset="0.164" stop-color="#E8E8E8"/>
<stop offset="0.291" stop-color="white"/>
<stop offset="0.552" stop-color="#ABABAB"/>
<stop offset="0.782" stop-color="#E8E8E8"/>
<stop offset="0.909" stop-color="#A2A2A2"/>
<stop offset="1" stop-color="#717171"/>
</linearGradient>
<linearGradient id="paint7_linear_630_81710" x1="-202.271" y1="-139.983" x2="-178.497" y2="-163.758" gradientUnits="userSpaceOnUse">
<stop stop-color="#B8B8B8"/>
<stop offset="0.164" stop-color="#E8E8E8"/>
<stop offset="0.291" stop-color="white"/>
<stop offset="0.552" stop-color="#ABABAB"/>
<stop offset="0.782" stop-color="#E8E8E8"/>
<stop offset="0.909" stop-color="#A2A2A2"/>
<stop offset="1" stop-color="#717171"/>
</linearGradient>
<linearGradient id="paint8_linear_630_81710" x1="13.9591" y1="-6.53151e-07" x2="30.8124" y2="45.8854" gradientUnits="userSpaceOnUse">
<stop stop-color="white"/>
<stop offset="0.403279" stop-color="#D0D2D3"/>
<stop offset="0.463551" stop-color="#333333"/>
<stop offset="1"/>
</linearGradient>
<linearGradient id="paint9_linear_630_81710" x1="45.7773" y1="2.44411" x2="45.7773" y2="50.4375" gradientUnits="userSpaceOnUse">
<stop stop-color="#B8B8B8"/>
<stop offset="0.164" stop-color="#E8E8E8"/>
<stop offset="0.291" stop-color="white"/>
<stop offset="0.552" stop-color="#ABABAB"/>
<stop offset="0.782" stop-color="#E8E8E8"/>
<stop offset="0.909" stop-color="#A2A2A2"/>
<stop offset="1" stop-color="#717171"/>
</linearGradient>
<linearGradient id="paint10_linear_630_81710" x1="44.1851" y1="1.34131" x2="44.1851" y2="45.6572" gradientUnits="userSpaceOnUse">
<stop stop-color="#B8B8B8"/>
<stop offset="0.164" stop-color="#E8E8E8"/>
<stop offset="0.291" stop-color="white"/>
<stop offset="0.552" stop-color="#ABABAB"/>
<stop offset="0.782" stop-color="#E8E8E8"/>
<stop offset="0.909" stop-color="#A2A2A2"/>
<stop offset="1" stop-color="#717171"/>
</linearGradient>
</defs>
</svg>
