<svg width="70" height="89" viewBox="0 0 70 89" fill="none" xmlns="http://www.w3.org/2000/svg">
<path d="M44.5806 88.2534L51.9059 76.1576L65.6784 79.431L48.6325 38.7524L27.5347 47.5947L44.5806 88.2534Z" fill="#FC4F1F"/>
<path style="mix-blend-mode:soft-light" d="M44.5806 88.2534L51.9059 76.1576L65.6784 79.431L48.6325 38.7524L27.5347 47.5947L44.5806 88.2534Z" fill="url(#paint0_linear_298_2213)"/>
<mask id="mask0_298_2213" style="mask-type:luminance" maskUnits="userSpaceOnUse" x="27" y="38" width="39" height="51">
<path d="M44.5866 88.2633L51.91 76.1635L65.6705 79.427L48.6246 38.7523L27.5427 47.5866L44.5866 88.2633Z" fill="white"/>
</mask>
<g mask="url(#mask0_298_2213)">
<g style="mix-blend-mode:multiply" opacity="0.4">
<path d="M29.0916 49.4708C29.2379 50.0829 29.3843 50.6884 29.5307 51.2872C30.9478 51.0077 32.345 50.7482 33.7423 50.2892C33.5626 49.7303 33.5427 49.0915 33.1834 48.5726C31.8261 48.8919 30.5287 49.371 29.0916 49.4708ZM33.1834 48.5726C33.5427 49.0915 33.5626 49.7303 33.7423 50.2892C34.2213 50.1561 34.6937 50.023 35.1594 49.89C35.0796 49.2712 34.8999 48.7123 34.5806 48.2333C34.1281 48.353 33.6624 48.4661 33.1834 48.5726ZM34.5806 48.2333C34.8999 48.7123 35.0796 49.2712 35.1594 49.89C35.7981 49.7303 36.3969 49.5506 37.0357 49.371C36.8161 48.8121 36.856 48.0137 36.3969 47.7343C35.7981 47.9073 35.1927 48.0736 34.5806 48.2333ZM36.3969 47.7343C36.856 48.0137 36.8161 48.8121 37.0357 49.371C37.4149 49.2712 37.7941 49.1115 38.1933 48.9918C37.9339 48.4927 38.1135 47.5147 37.5147 47.375C37.1421 47.4947 36.7695 47.6145 36.3969 47.7343ZM37.5147 47.375C38.1135 47.5147 37.9339 48.4927 38.1933 48.9918C38.6524 48.8121 39.0916 48.6325 39.5506 48.4528C39.4109 47.854 39.391 46.876 38.8321 46.9159C38.393 47.0756 37.9538 47.2286 37.5147 47.375ZM38.8321 46.9159C39.391 46.876 39.4109 47.854 39.5506 48.4528C40.1295 48.2333 40.6884 47.9937 41.2472 47.7343C41.1474 47.0955 41.0077 46.1574 40.4688 46.2971C39.9232 46.51 39.3777 46.7163 38.8321 46.9159ZM40.4688 46.2971C41.0077 46.1574 41.1474 47.0955 41.2472 47.7343C41.7063 47.5347 42.1854 47.3351 42.6644 47.1355C42.4848 46.3969 42.5047 45.4987 41.846 45.7383C41.3936 45.9246 40.9345 46.1108 40.4688 46.2971ZM41.846 45.7383C42.5047 45.4987 42.4848 46.3969 42.6644 47.1355C43.1834 46.9359 43.6824 46.6564 44.2013 46.4169C44.0616 45.9179 44.2013 44.7602 43.3431 45.0995C42.8507 45.3124 42.3517 45.5254 41.846 45.7383ZM43.3431 45.0995C44.2013 44.7602 44.0616 45.9179 44.2013 46.4169C44.4808 46.2971 44.7602 46.1574 45.0197 46.0177C44.8201 45.4588 44.9598 44.4608 44.1415 44.7403C43.8753 44.86 43.6092 44.9798 43.3431 45.0995ZM44.1415 44.7403C44.9598 44.4608 44.8201 45.4588 45.0197 46.0177C45.359 45.858 45.6784 45.6983 45.9977 45.5387C45.7981 44.9798 45.9179 43.9618 45.0995 44.3211C44.7802 44.4675 44.4608 44.6072 44.1415 44.7403ZM45.0995 44.3211C45.9179 43.9618 45.7981 44.9798 45.9977 45.5387C46.4901 45.2858 46.9891 45.033 47.4947 44.7802C47.3883 44.3544 47.2818 43.9219 47.1754 43.4828C46.9159 43.5826 46.8161 43.5826 46.5566 43.6624C46.0776 43.8886 45.5919 44.1082 45.0995 44.3211ZM46.5566 43.6624C46.8161 43.5826 46.9159 43.5826 47.1754 43.4828C47.2818 43.9219 47.3883 44.3544 47.4947 44.7802C48.0137 44.5007 48.546 44.2213 49.0916 43.9419C48.9851 43.5293 48.8786 43.1168 48.7722 42.7043C48.5127 42.8041 48.393 42.8241 48.1335 42.9438C47.6012 43.1834 47.0756 43.4229 46.5566 43.6624ZM48.1335 42.9438C48.393 42.8241 48.5127 42.8041 48.7722 42.7043C48.8786 43.1168 48.9851 43.5293 49.0916 43.9419C49.4109 43.7689 49.7369 43.5959 50.0696 43.4229C49.9631 43.0104 49.8567 42.6045 49.7502 42.2053C49.4908 42.3251 49.371 42.365 49.0916 42.4848C48.7722 42.6311 48.4528 42.7842 48.1335 42.9438ZM49.0916 42.4848C49.371 42.365 49.4908 42.3251 49.7502 42.2053C49.8567 42.6045 49.9631 43.0104 50.0696 43.4229C50.5886 43.1235 51.1275 42.844 51.6864 42.5646C51.5799 42.1787 51.4735 41.7928 51.367 41.4069C51.1075 41.5466 50.9678 41.5866 50.6884 41.7263C50.1561 41.9791 49.6238 42.2319 49.0916 42.4848ZM50.6884 41.7263C50.9678 41.5866 51.1075 41.5466 51.367 41.4069C51.4735 41.7928 51.5799 42.1787 51.6864 42.5646C51.9458 42.4249 52.2253 42.2852 52.4848 42.1454C52.3783 41.7729 52.2785 41.4003 52.1854 41.0277C51.9059 41.1474 51.7662 41.2073 51.4868 41.347C51.2206 41.4668 50.9545 41.5932 50.6884 41.7263ZM29.5307 51.2872C29.9166 52.7775 30.3357 54.2413 30.7882 55.6784C31.9858 59.2512 33.4828 62.6844 35.0397 66.0776C35.4256 66.9292 35.8114 67.7808 36.1973 68.6325C37.2951 71.2073 38.4728 73.8221 39.5307 76.4169C41.0277 75.858 40.7482 75.9778 42.2053 75.3989C40.9878 71.886 39.5506 68.4728 38.3131 64.9598C37.9938 64.0949 37.6744 63.2366 37.355 62.385C36.4169 59.7902 35.5586 57.1953 34.8401 54.5806C34.4409 53.1701 34.0749 51.7396 33.7423 50.2892C32.345 50.7482 30.9478 51.0077 29.5307 51.2872ZM33.7423 50.2892C34.0749 51.7396 34.4409 53.1701 34.8401 54.5806C35.5586 57.1953 36.4169 59.7902 37.355 62.385C37.6744 63.2366 37.9938 64.0949 38.3131 64.9598C39.5506 68.4728 40.9878 71.886 42.2053 75.3989C42.7043 75.1993 43.0237 75.0397 43.3231 74.9199C41.9658 71.4668 40.7482 68.0337 39.5107 64.5207C39.2047 63.6558 38.9053 62.7908 38.6125 61.9259C37.7542 59.351 36.9359 56.7562 36.2173 54.1415C35.8447 52.7309 35.4921 51.3138 35.1594 49.89C34.6937 50.023 34.2213 50.1561 33.7423 50.2892ZM35.1594 49.89C35.4921 51.3138 35.8447 52.7309 36.2173 54.1415C36.9359 56.7562 37.7542 59.351 38.6125 61.9259C38.9053 62.7908 39.2047 63.6558 39.5107 64.5207C40.7482 68.0337 41.9658 71.4668 43.3231 74.9199C43.7023 74.7203 44.0417 74.5606 44.6604 74.3011C43.1235 70.2293 41.886 66.0576 40.5686 61.9259C40.2759 60.9944 39.9831 60.0629 39.6904 59.1315C39.1182 57.2552 38.5859 55.3923 38.0935 53.5427C37.9073 52.8507 37.7276 52.1587 37.5546 51.4668C37.3683 50.7748 37.1953 50.0762 37.0357 49.371C36.3969 49.5506 35.7981 49.7303 35.1594 49.89ZM37.0357 49.371C37.1953 50.0762 37.3683 50.7748 37.5546 51.4668C37.7276 52.1587 37.9073 52.8507 38.0935 53.5427C38.5859 55.3923 39.1182 57.2552 39.6904 59.1315C39.9831 60.0629 40.2759 60.9944 40.5686 61.9259C41.886 66.0576 43.1235 70.2293 44.6604 74.3011C45.0596 74.1415 45.6385 73.9019 46.2772 73.6424C44.8001 69.2912 43.3031 65.0596 41.7462 60.7682C41.4402 59.9299 41.1408 59.0849 40.848 58.2333C40.5686 57.3816 40.2958 56.53 40.0297 55.6784C39.6105 54.1814 39.0516 52.6644 38.6924 51.0676C38.5194 50.3756 38.353 49.6837 38.1933 48.9918C37.7941 49.1115 37.4149 49.2712 37.0357 49.371ZM38.1933 48.9918C38.353 49.6837 38.5194 50.3756 38.6924 51.0676C39.0516 52.6644 39.6105 54.1814 40.0297 55.6784C40.2958 56.53 40.5686 57.3816 40.848 58.2333C41.1408 59.0849 41.4402 59.9299 41.7462 60.7682C43.3031 65.0596 44.8001 69.2912 46.2772 73.6424C47.0556 73.3231 47.9139 72.9438 48.7123 72.6045C47.0955 68.353 45.379 64.2213 43.5427 60.0896C43.1834 59.2645 42.8374 58.4395 42.5047 57.6145C41.5866 55.2792 40.7682 52.9438 40.0896 50.5486C39.89 49.8567 39.7103 49.1581 39.5506 48.4528C39.0916 48.6325 38.6524 48.8121 38.1933 48.9918ZM39.5506 48.4528C39.7103 49.1581 39.89 49.8567 40.0896 50.5486C40.7682 52.9438 41.5866 55.2792 42.5047 57.6145C42.8374 58.4395 43.1834 59.2645 43.5427 60.0896C45.379 64.2213 47.0955 68.353 48.7123 72.6045C49.7303 72.1854 50.6684 71.7862 51.2073 71.5466C49.5107 67.355 47.6744 63.2832 45.8181 59.1914C44.3211 56.0776 42.9838 52.9838 41.886 49.7902C41.6597 49.1248 41.4468 48.4395 41.2472 47.7343C40.6884 47.9937 40.1295 48.2333 39.5506 48.4528ZM41.2472 47.7343C41.4468 48.4395 41.6597 49.1248 41.886 49.7902C42.9838 52.9838 44.3211 56.0776 45.8181 59.1914C47.6744 63.2832 49.5107 67.355 51.2073 71.5466C51.6598 71.347 52.1055 71.1474 52.5446 70.9478C50.9478 66.8361 48.9518 63.0037 47.1953 58.9918C45.6983 55.8181 44.361 52.5846 43.2433 49.2113C43.0303 48.5327 42.8374 47.8407 42.6644 47.1355C42.1854 47.3351 41.7063 47.5347 41.2472 47.7343ZM42.6644 47.1355C42.8374 47.8407 43.0303 48.5327 43.2433 49.2113C44.361 52.5846 45.6983 55.8181 47.1953 58.9918C48.9518 63.0037 50.9478 66.8361 52.5446 70.9478C53.037 70.7349 53.5227 70.522 54.0017 70.3091C52.5846 66.9558 51.0676 63.6624 49.6504 60.369C47.9738 56.3969 45.9778 52.5646 44.7802 48.4728C44.5673 47.7941 44.3743 47.1089 44.2013 46.4169C43.6824 46.6564 43.1834 46.9359 42.6644 47.1355ZM44.2013 46.4169C44.3743 47.1089 44.5673 47.7941 44.7802 48.4728C45.9778 52.5646 47.9738 56.3969 49.6504 60.369C51.0676 63.6624 52.5846 66.9558 54.0017 70.3091C54.2546 70.2027 54.5074 70.0962 54.7602 69.9898C53.2832 66.6764 51.886 63.3231 50.4089 60.0297C48.7522 56.0776 46.9359 52.2053 45.6185 48.0736C45.4056 47.3949 45.206 46.7096 45.0197 46.0177C44.7602 46.1574 44.4808 46.2971 44.2013 46.4169ZM45.0197 46.0177C45.206 46.7096 45.4056 47.3949 45.6185 48.0736C46.9359 52.2053 48.7522 56.0776 50.4089 60.0297C51.886 63.3231 53.2832 66.6764 54.7602 69.9898C55.0663 69.8567 55.3657 69.7236 55.6584 69.5906C54.2812 66.2373 52.884 62.884 51.367 59.5706C49.5906 55.6385 47.9339 51.6464 46.5965 47.5546C46.3836 46.8893 46.184 46.2173 45.9977 45.5387C45.6784 45.6983 45.359 45.858 45.0197 46.0177ZM45.9977 45.5387C46.184 46.2173 46.3836 46.8893 46.5965 47.5546C47.9339 51.6464 49.5906 55.6385 51.367 59.5706C52.884 62.884 54.2812 66.2373 55.6584 69.5906C56.1242 69.3776 56.5899 69.1714 57.0556 68.9718C55.9778 66.4768 54.9199 63.9618 53.8421 61.4468C51.7462 56.6564 49.5506 51.9059 48.0736 46.8361C47.8607 46.1441 47.6677 45.4588 47.4947 44.7802C46.9891 45.033 46.4901 45.2858 45.9977 45.5387ZM47.4947 44.7802C47.6677 45.4588 47.8607 46.1441 48.0736 46.8361C49.5506 51.9059 51.7462 56.6564 53.8421 61.4468C54.9199 63.9618 55.9778 66.4768 57.0556 68.9718C57.548 68.7589 58.0403 68.5393 58.5327 68.3131C57.4748 65.7981 56.3969 63.2832 55.3191 60.7882C53.2433 55.9778 51.2073 51.0676 49.6904 46.0177C49.4774 45.3257 49.2778 44.6338 49.0916 43.9419C48.546 44.2213 48.0137 44.5007 47.4947 44.7802ZM49.0916 43.9419C49.2778 44.6338 49.4774 45.3257 49.6904 46.0177C51.2073 51.0676 53.2433 55.9778 55.3191 60.7882C56.3969 63.2832 57.4748 65.7981 58.5327 68.3131C58.8387 68.18 59.1448 68.047 59.4508 67.9139C58.2133 65.4189 57.2752 62.844 56.1574 60.3291C54.1215 55.4588 52.2852 50.5287 50.6684 45.4588C50.4555 44.7802 50.2559 44.1015 50.0696 43.4229C49.7369 43.5959 49.4109 43.7689 49.0916 43.9419ZM50.0696 43.4229C50.2559 44.1015 50.4555 44.7802 50.6684 45.4588C52.2852 50.5287 54.1215 55.4588 56.1574 60.3291C57.2752 62.844 58.2133 65.4189 59.4508 67.9139C59.9432 67.701 60.4422 67.4814 60.9478 67.2552C60.1694 65.6385 59.5107 63.882 58.7522 62.2253C58.4063 61.3737 58.0669 60.522 57.7343 59.6704C55.858 54.6604 53.862 49.7103 52.2852 44.6604C52.0856 43.9685 51.886 43.2699 51.6864 42.5646C51.1275 42.844 50.5886 43.1235 50.0696 43.4229ZM51.6864 42.5646C51.886 43.2699 52.0856 43.9685 52.2852 44.6604C53.862 49.7103 55.858 54.6604 57.7343 59.6704C58.0669 60.522 58.4063 61.3737 58.7522 62.2253C59.5107 63.882 60.1694 65.6385 60.9478 67.2552C61.1874 67.1488 61.4335 67.0423 61.6864 66.9359C61.0277 65.2193 60.2093 63.6025 59.5906 61.866C59.2446 61.0144 58.8986 60.1627 58.5526 59.3111C56.6165 54.3411 54.6005 49.351 53.0836 44.2413C52.884 43.5493 52.6844 42.8507 52.4848 42.1454C52.2253 42.2852 51.9458 42.4249 51.6864 42.5646ZM39.5307 76.4169C39.85 77.1887 40.1627 77.9538 40.4688 78.7123C42.2053 83.363 44.1215 87.894 46.1973 92.365C46.4901 92.9904 46.7828 93.6092 47.0756 94.2213C47.3816 94.8334 47.6943 95.4455 48.0137 96.0576C49.2313 98.4928 50.5087 100.888 51.886 103.203C52.9239 102.405 54.0816 101.746 55.1195 101.028C53.1235 98.9917 51.6464 96.4768 50.1694 94.0017C49.6637 93.1501 49.1847 92.2852 48.7323 91.4069C46.4369 87.0357 44.7403 82.345 43.0836 77.6345C42.7908 76.8893 42.4981 76.1441 42.2053 75.3989C40.7482 75.9778 41.0277 75.858 39.5307 76.4169ZM42.2053 75.3989C42.4981 76.1441 42.7908 76.8893 43.0836 77.6345C44.7403 82.345 46.4369 87.0357 48.7323 91.4069C49.1847 92.2852 49.6637 93.1501 50.1694 94.0017C51.6464 96.4768 53.1235 98.9917 55.1195 101.028C55.4788 100.801 55.8381 100.575 56.1973 100.349C54.4808 98.0137 53.0037 95.4987 51.6265 92.9438C51.1208 92.1055 50.6351 91.2606 50.1694 90.4089C47.854 86.1375 46.0975 81.6065 44.2213 77.1355C43.9152 76.4036 43.6158 75.6651 43.3231 74.9199C43.0237 75.0397 42.7043 75.1993 42.2053 75.3989ZM43.3231 74.9199C43.6158 75.6651 43.9152 76.4036 44.2213 77.1355C46.0975 81.6065 47.854 86.1375 50.1694 90.4089C50.6351 91.2606 51.1208 92.1055 51.6265 92.9438C53.0037 95.4987 54.4808 98.0137 56.1973 100.349C56.6897 100.043 57.182 99.7436 57.6744 99.4508C57.3284 98.7855 56.9891 98.1202 56.6564 97.4548C56.3238 96.8028 55.9911 96.1441 55.6584 95.4788C55.0197 94.1614 54.361 92.844 53.6824 91.5267C53.2033 90.7083 52.7442 89.87 52.2652 89.0516C49.9099 84.9398 47.6744 80.7682 45.5985 76.4967C45.2792 75.7782 44.9665 75.0463 44.6604 74.3011C44.0417 74.5606 43.7023 74.7203 43.3231 74.9199ZM44.6604 74.3011C44.9665 75.0463 45.2792 75.7782 45.5985 76.4967C47.6744 80.7682 49.9099 84.9398 52.2652 89.0516C52.7442 89.87 53.2033 90.7083 53.6824 91.5267C54.361 92.844 55.0197 94.1614 55.6584 95.4788C55.9911 96.1441 56.3238 96.8028 56.6564 97.4548C56.9891 98.1202 57.3284 98.7855 57.6744 99.4508C57.9804 99.2645 58.2932 99.0849 58.6125 98.9119C58.1934 98.0935 57.7942 97.2752 57.4149 96.4568C57.029 95.6318 56.6431 94.8134 56.2572 94.0017C55.4987 92.3451 54.7203 90.7083 53.862 89.1315C53.4628 88.4129 53.0703 87.6877 52.6844 86.9558C50.7283 83.3031 48.852 79.6105 47.1953 75.8181C46.8893 75.0862 46.5832 74.361 46.2772 73.6424C45.6385 73.9019 45.0596 74.1415 44.6604 74.3011ZM46.2772 73.6424C46.5832 74.361 46.8893 75.0862 47.1953 75.8181C48.852 79.6105 50.7283 83.3031 52.6844 86.9558C53.0703 87.6877 53.4628 88.4129 53.862 89.1315C54.7203 90.7083 55.4987 92.3451 56.2572 94.0017C56.6431 94.8134 57.029 95.6318 57.4149 96.4568C57.7942 97.2752 58.1934 98.0935 58.6125 98.9119C58.9851 98.7123 59.3643 98.5127 59.7502 98.3131C58.7922 96.3969 57.9937 94.4009 57.1554 92.4448C56.876 91.7928 56.6032 91.1341 56.3371 90.4688C55.7981 89.1514 55.2393 87.8341 54.6604 86.5367C54.2213 85.5653 53.7888 84.5939 53.363 83.6225C52.0856 80.6884 50.848 77.7343 49.5906 74.8001C49.2978 74.0683 49.0051 73.3364 48.7123 72.6045C47.9139 72.9438 47.0556 73.3231 46.2772 73.6424ZM48.7123 72.6045C49.0051 73.3364 49.2978 74.0683 49.5906 74.8001C50.848 77.7343 52.0856 80.6884 53.363 83.6225C53.7888 84.5939 54.2213 85.5653 54.6604 86.5367C55.2393 87.8341 55.7981 89.1514 56.3371 90.4688C56.6032 91.1341 56.876 91.7928 57.1554 92.4448C57.9937 94.4009 58.7922 96.3969 59.7502 98.3131C60.2293 98.0603 60.7216 97.8141 61.2273 97.5746C60.0097 94.9997 59.2712 92.2452 58.1734 89.5906C57.9206 88.9252 57.6677 88.2599 57.4149 87.5945C57.1621 86.9425 56.8959 86.2838 56.6165 85.6185C56.2306 84.6338 55.8447 83.6491 55.4588 82.6644C54.3211 79.6904 53.2033 76.6963 52.0656 73.7422C51.7862 73.0104 51.5001 72.2785 51.2073 71.5466C50.6684 71.7862 49.7303 72.1854 48.7123 72.6045ZM51.2073 71.5466C51.5001 72.2785 51.7862 73.0104 52.0656 73.7422C53.2033 76.6963 54.3211 79.6904 55.4588 82.6644C55.8447 83.6491 56.2306 84.6338 56.6165 85.6185C56.8959 86.2838 57.1621 86.9425 57.4149 87.5945C57.6677 88.2599 57.9206 88.9252 58.1734 89.5906C59.2712 92.2452 60.0097 94.9997 61.2273 97.5746C61.6531 97.375 62.0856 97.1754 62.5247 96.9758C61.3271 94.5407 60.6285 91.846 59.6504 89.3111C59.351 88.4728 59.0317 87.6345 58.6924 86.7961C58.3331 85.8913 57.9738 84.9798 57.6145 84.0616C56.2173 80.389 54.8999 76.7163 53.4229 73.1434C53.1301 72.4116 52.8374 71.6797 52.5446 70.9478C52.1055 71.1474 51.6598 71.347 51.2073 71.5466ZM52.5446 70.9478C52.8374 71.6797 53.1301 72.4116 53.4229 73.1434C54.8999 76.7163 56.2173 80.389 57.6145 84.0616C57.9738 84.9798 58.3331 85.8913 58.6924 86.7961C59.0317 87.6345 59.351 88.4728 59.6504 89.3111C60.6285 91.846 61.3271 94.5407 62.5247 96.9758C62.9904 96.7496 63.4761 96.53 63.9818 96.3171C62.5846 93.7622 61.866 90.9279 60.868 88.1933C60.5686 87.2752 60.2293 86.377 59.89 85.4788C59.5573 84.6138 59.2246 83.7489 58.892 82.884C57.5746 79.4309 56.2772 75.9578 54.88 72.5047C54.5872 71.7729 54.2945 71.041 54.0017 70.3091C53.5227 70.522 53.037 70.7349 52.5446 70.9478ZM54.0017 70.3091C54.2945 71.041 54.5872 71.7729 54.88 72.5047C56.2772 75.9578 57.5746 79.4309 58.892 82.884C59.2246 83.7489 59.5573 84.6138 59.89 85.4788C60.2293 86.377 60.5686 87.2752 60.868 88.1933C61.866 90.9279 62.5846 93.7622 63.9818 96.3171C64.2479 96.1973 64.514 96.0776 64.7802 95.9578C63.6025 93.2433 62.884 90.4089 61.8061 87.6544C61.4468 86.7961 61.0876 85.9379 60.7283 85.0796C58.9518 80.7882 57.375 76.4568 55.6385 72.1654C55.3457 71.4335 55.053 70.7083 54.7602 69.9898C54.5074 70.0962 54.2546 70.2027 54.0017 70.3091ZM54.7602 69.9898C55.053 70.7083 55.3457 71.4335 55.6385 72.1654C57.375 76.4568 58.9518 80.7882 60.7283 85.0796C61.0876 85.9379 61.4468 86.7961 61.8061 87.6544C62.884 90.4089 63.6025 93.2433 64.7802 95.9578C65.1128 95.8248 65.4389 95.685 65.7582 95.5387C64.3011 92.2253 63.2832 88.7722 61.9458 85.4389C61.5733 84.534 61.2073 83.6225 60.848 82.7043C59.4109 79.0516 58.0536 75.379 56.5566 71.7662C56.2639 71.0343 55.9645 70.3091 55.6584 69.5906C55.3657 69.7236 55.0663 69.8567 54.7602 69.9898ZM55.6584 69.5906C55.9645 70.3091 56.2639 71.0343 56.5566 71.7662C58.0536 75.379 59.4109 79.0516 60.848 82.7043C61.2073 83.6225 61.5733 84.534 61.9458 85.4389C63.2832 88.7722 64.3011 92.2253 65.7582 95.5387C66.2772 95.3257 66.7961 95.1062 67.3151 94.88C65.8979 91.7263 64.9199 88.373 63.5826 85.1594C63.2499 84.3876 62.9239 83.6092 62.6045 82.8241C61.0077 78.9319 59.5107 75.0397 57.9538 71.1474C57.6611 70.4289 57.3617 69.7037 57.0556 68.9718C56.5899 69.1714 56.1242 69.3776 55.6584 69.5906ZM57.0556 68.9718C57.3617 69.7037 57.6611 70.4289 57.9538 71.1474C59.5107 75.0397 61.0077 78.9319 62.6045 82.8241C62.9239 83.6092 63.2499 84.3876 63.5826 85.1594C64.9199 88.373 65.8979 91.7263 67.3151 94.88C67.874 94.6538 68.4395 94.4209 69.0117 94.1814C67.7143 90.9478 66.5167 87.7143 65.1594 84.5207C64.8267 83.7356 64.5007 82.9572 64.1814 82.1854C62.5646 78.2932 61.1275 74.361 59.4508 70.4888C59.1448 69.7702 58.8387 69.045 58.5327 68.3131C58.0403 68.5393 57.548 68.7589 57.0556 68.9718ZM58.5327 68.3131C58.8387 69.045 59.1448 69.7702 59.4508 70.4888C61.1275 74.361 62.5646 78.2932 64.1814 82.1854C64.5007 82.9572 64.8267 83.7356 65.1594 84.5207C66.5167 87.7143 67.7143 90.9478 69.0117 94.1814C69.371 94.035 69.7303 93.8886 70.0896 93.7422C68.4728 90.6285 67.5147 87.2752 66.0776 84.1415C65.7449 83.3697 65.4122 82.5979 65.0796 81.8261C63.4429 77.9538 61.9658 74.0017 60.349 70.0896C60.0563 69.371 59.7569 68.6458 59.4508 67.9139C59.1448 68.047 58.8387 68.18 58.5327 68.3131ZM59.4508 67.9139C59.7569 68.6458 60.0563 69.371 60.349 70.0896C61.9658 74.0017 63.4429 77.9538 65.0796 81.8261C65.4122 82.5979 65.7449 83.3697 66.0776 84.1415C67.5147 87.2752 68.4728 90.6285 70.0896 93.7422C70.6751 93.5027 71.2605 93.2632 71.846 93.0237C70.369 89.4508 68.892 85.7782 67.2752 82.2452C66.7296 81.0743 66.204 79.8966 65.6983 78.7123C64.3411 75.6185 63.1434 72.5446 61.866 69.4508C61.5599 68.719 61.2539 67.9871 60.9478 67.2552C60.4422 67.4814 59.9432 67.701 59.4508 67.9139ZM60.9478 67.2552C61.2539 67.9871 61.5599 68.719 61.866 69.4508C63.1434 72.5446 64.3411 75.6185 65.6983 78.7123C66.204 79.8966 66.7296 81.0743 67.2752 82.2452C68.892 85.7782 70.369 89.4508 71.846 93.0237C72.1388 92.9039 72.4315 92.7842 72.7243 92.6644C71.0876 89.1714 69.6504 85.4788 68.0337 81.9458C67.5147 80.7615 67.0024 79.5773 66.4967 78.393C65.1594 75.2792 63.9219 72.2253 62.6045 69.1315C62.2985 68.3996 61.9924 67.6677 61.6864 66.9359C61.4335 67.0423 61.1874 67.1488 60.9478 67.2552Z" fill="url(#paint1_linear_298_2213)" fill-opacity="0.5"/>
</g>
</g>
<path d="M60.2892 78.1535L44.5007 40.4889L46.6564 39.5707L63.0836 78.8122L60.2892 78.1535Z" fill="url(#paint2_linear_298_2213)"/>
<path d="M45.9578 85.9978L29.5107 46.7563L31.6664 45.8581L47.4549 83.5228L45.9578 85.9978Z" fill="url(#paint3_linear_298_2213)"/>
<path d="M25.3989 88.2535L18.0935 76.1577L4.32104 79.4311L21.367 38.7525L42.4448 47.5948L25.3989 88.2535Z" fill="#FC4F1F"/>
<path style="mix-blend-mode:soft-light" d="M25.3989 88.2535L18.0935 76.1577L4.32104 79.4311L21.367 38.7525L42.4448 47.5948L25.3989 88.2535Z" fill="url(#paint4_linear_298_2213)"/>
<mask id="mask1_298_2213" style="mask-type:luminance" maskUnits="userSpaceOnUse" x="4" y="38" width="39" height="51">
<path d="M25.4048 88.2634L18.0835 76.1636L4.323 79.427L21.3689 38.7524L42.4507 47.5867L25.4048 88.2634Z" fill="white"/>
</mask>
<g mask="url(#mask1_298_2213)">
<g style="mix-blend-mode:multiply" opacity="0.4">
<path d="M40.9078 49.4709C40.7614 50.083 40.6151 50.6884 40.4687 51.2872C39.0515 51.0078 37.6543 50.7483 36.2571 50.2892C36.4368 49.7303 36.4368 49.0916 36.796 48.5726C38.1733 48.892 39.4707 49.3711 40.9078 49.4709ZM36.796 48.5726C36.4368 49.0916 36.4368 49.7303 36.2571 50.2892C35.7781 50.1561 35.299 50.0231 34.82 49.89C34.9198 49.2713 35.0994 48.7124 35.4188 48.2333C35.8712 48.3531 36.3303 48.4662 36.796 48.5726ZM35.4188 48.2333C35.0994 48.7124 34.9198 49.2713 34.82 49.89C34.2012 49.7303 33.5825 49.5507 32.9637 49.3711C33.1833 48.8122 33.1234 48.0138 33.6024 47.7343C34.2012 47.9073 34.8067 48.0736 35.4188 48.2333ZM33.6024 47.7343C33.1234 48.0138 33.1833 48.8122 32.9637 49.3711C32.5845 49.2713 32.1853 49.1116 31.806 48.9918C32.0655 48.4928 31.8859 47.5148 32.4847 47.375C32.8573 47.4948 33.2298 47.6146 33.6024 47.7343ZM32.4847 47.375C31.8859 47.5148 32.0655 48.4928 31.806 48.9918C31.3469 48.8122 30.8879 48.6325 30.4288 48.4529C30.5885 47.8541 30.6084 46.876 31.1673 46.916C31.6064 47.0756 32.0455 47.2287 32.4847 47.375ZM31.1673 46.916C30.6084 46.876 30.5885 47.8541 30.4288 48.4529C29.8699 48.2333 29.311 47.9938 28.7521 47.7343C28.8519 47.0956 28.9916 46.1575 29.5106 46.2972C30.0695 46.5101 30.6217 46.7164 31.1673 46.916ZM29.5106 46.2972C28.9916 46.1575 28.8519 47.0956 28.7521 47.7343C28.2731 47.5347 27.814 47.3351 27.335 47.1355C27.4946 46.397 27.4946 45.4988 28.1334 45.7383C28.5991 45.9246 29.0582 46.1109 29.5106 46.2972ZM28.1334 45.7383C27.4946 45.4988 27.4946 46.397 27.335 47.1355C26.816 46.9359 26.297 46.6565 25.7781 46.417C25.9378 45.918 25.798 44.7603 26.6364 45.0996C27.142 45.3125 27.641 45.5254 28.1334 45.7383ZM26.6364 45.0996C25.798 44.7603 25.9378 45.918 25.7781 46.417C25.5186 46.2972 25.2392 46.1575 24.9597 46.0178C25.1593 45.4589 25.0396 44.4609 25.838 44.7403C26.1041 44.8601 26.3702 44.9798 26.6364 45.0996ZM25.838 44.7403C25.0396 44.4609 25.1593 45.4589 24.9597 46.0178C24.6404 45.8581 24.321 45.6984 24.0016 45.5387C24.2012 44.9798 24.0615 43.9619 24.8799 44.3212C25.1992 44.4675 25.5186 44.6072 25.838 44.7403ZM24.8799 44.3212C24.0615 43.9619 24.2012 44.9798 24.0016 45.5387C23.496 45.2859 22.997 45.0331 22.5046 44.7802C22.6111 44.3544 22.7175 43.9219 22.824 43.4828C23.0635 43.5826 23.1833 43.5826 23.4427 43.6625C23.9218 43.8887 24.4008 44.1082 24.8799 44.3212ZM23.4427 43.6625C23.1833 43.5826 23.0635 43.5826 22.824 43.4828C22.7175 43.9219 22.6111 44.3544 22.5046 44.7802C21.9724 44.5008 21.4401 44.2214 20.9078 43.9419C21.0143 43.5294 21.1207 43.1169 21.2272 42.7044C21.4867 42.8042 21.6064 42.8241 21.8659 42.9439C22.3982 43.1834 22.9238 43.423 23.4427 43.6625ZM21.8659 42.9439C21.6064 42.8241 21.4867 42.8042 21.2272 42.7044C21.1207 43.1169 21.0143 43.5294 20.9078 43.9419C20.5885 43.7689 20.2624 43.5959 19.9298 43.423C20.0362 43.0104 20.1427 42.6046 20.2491 42.2054C20.5086 42.3251 20.6284 42.3651 20.9078 42.4848C21.2272 42.6312 21.5465 42.7842 21.8659 42.9439ZM20.9078 42.4848C20.6284 42.3651 20.5086 42.3251 20.2491 42.2054C20.1427 42.6046 20.0362 43.0104 19.9298 43.423C19.3909 43.1235 18.8519 42.8441 18.313 42.5647C18.4195 42.1788 18.5193 41.7929 18.6124 41.407C18.8919 41.5467 19.0316 41.5866 19.311 41.7263C19.8433 41.9792 20.3756 42.232 20.9078 42.4848ZM19.311 41.7263C19.0316 41.5866 18.8919 41.5467 18.6124 41.407C18.5193 41.7929 18.4195 42.1788 18.313 42.5647C18.0535 42.4249 17.7741 42.2852 17.5146 42.1455C17.6211 41.7729 17.7209 41.4003 17.814 41.0277C18.0934 41.1475 18.2332 41.2074 18.5126 41.3471C18.7787 41.4669 19.0449 41.5933 19.311 41.7263ZM40.4687 51.2872C40.0828 52.7776 39.6636 54.2413 39.2112 55.6784C37.9936 59.2513 36.4966 62.6844 34.9597 66.0776C34.5738 66.9293 34.1879 67.7809 33.802 68.6325C32.6843 71.2074 31.5266 73.8222 30.4487 76.417C28.9517 75.8581 29.2511 75.9778 27.794 75.399C29.0116 71.886 30.4487 68.4728 31.6663 64.9599C31.999 64.0949 32.3183 63.2367 32.6244 62.385C33.5625 59.7902 34.4408 57.1954 35.1593 54.5806C35.5585 53.1701 35.9245 51.7396 36.2571 50.2892C37.6543 50.7483 39.0515 51.0078 40.4687 51.2872ZM36.2571 50.2892C35.9245 51.7396 35.5585 53.1701 35.1593 54.5806C34.4408 57.1954 33.5625 59.7902 32.6244 62.385C32.3183 63.2367 31.999 64.0949 31.6663 64.9599C30.4487 68.4728 29.0116 71.886 27.794 75.399C27.2751 75.1994 26.9757 75.0397 26.6763 74.92C28.0136 71.4669 29.2511 68.0337 30.4887 64.5208C30.7947 63.6558 31.0875 62.7909 31.3669 61.9259C32.2451 59.3511 33.0435 56.7563 33.7621 54.1415C34.148 52.731 34.5006 51.3138 34.82 49.89C35.299 50.0231 35.7781 50.1561 36.2571 50.2892ZM34.82 49.89C34.5006 51.3138 34.148 52.731 33.7621 54.1415C33.0435 56.7563 32.2451 59.3511 31.3669 61.9259C31.0875 62.7909 30.7947 63.6558 30.4887 64.5208C29.2511 68.0337 28.0136 71.4669 26.6763 74.92C26.297 74.7204 25.9577 74.5607 25.319 74.3012C26.8559 70.2293 28.0934 66.0577 29.4108 61.9259C29.7169 60.9945 30.0096 60.063 30.2891 59.1315C30.8612 57.2553 31.4002 55.3923 31.9058 53.5427C32.0921 52.8508 32.2718 52.1588 32.4447 51.4669C32.6177 50.7749 32.7907 50.0763 32.9637 49.3711C33.5825 49.5507 34.2012 49.7303 34.82 49.89ZM32.9637 49.3711C32.7907 50.0763 32.6177 50.7749 32.4447 51.4669C32.2718 52.1588 32.0921 52.8508 31.9058 53.5427C31.4002 55.3923 30.8612 57.2553 30.2891 59.1315C30.0096 60.063 29.7169 60.9945 29.4108 61.9259C28.0934 66.0577 26.8559 70.2293 25.319 74.3012C24.9398 74.1415 24.3609 73.902 23.7022 73.6425C25.1992 69.2912 26.6763 65.0597 28.2531 60.7683C28.5592 59.9299 28.8519 59.085 29.1314 58.2333C29.4241 57.3817 29.7036 56.5301 29.9697 55.6784C30.3889 54.1814 30.9278 52.6645 31.2871 51.0677C31.4734 50.3757 31.6463 49.6838 31.806 48.9918C32.1853 49.1116 32.5845 49.2713 32.9637 49.3711ZM31.806 48.9918C31.6463 49.6838 31.4734 50.3757 31.2871 51.0677C30.9278 52.6645 30.3889 54.1814 29.9697 55.6784C29.7036 56.5301 29.4241 57.3817 29.1314 58.2333C28.8519 59.085 28.5592 59.9299 28.2531 60.7683C26.6763 65.0597 25.1992 69.2912 23.7022 73.6425C22.9437 73.3232 22.0855 72.9439 21.2671 72.6046C22.9038 68.3531 24.6204 64.2214 26.4567 60.0896C26.816 59.2646 27.162 58.4396 27.4946 57.6146C28.4128 55.2792 29.2312 52.9439 29.9098 50.5487C30.0961 49.8568 30.2691 49.1581 30.4288 48.4529C30.8879 48.6325 31.3469 48.8122 31.806 48.9918ZM30.4288 48.4529C30.2691 49.1581 30.0961 49.8568 29.9098 50.5487C29.2312 52.9439 28.4128 55.2792 27.4946 57.6146C27.162 58.4396 26.816 59.2646 26.4567 60.0896C24.6204 64.2214 22.9038 68.3531 21.2671 72.6046C20.2691 72.1854 19.331 71.7862 18.7921 71.5467C20.4887 67.3551 22.325 63.2832 24.1813 59.1914C25.6583 56.0776 26.9956 52.9838 28.1134 49.7902C28.3396 49.1249 28.5525 48.4396 28.7521 47.7343C29.311 47.9938 29.8699 48.2333 30.4288 48.4529ZM28.7521 47.7343C28.5525 48.4396 28.3396 49.1249 28.1134 49.7902C26.9956 52.9838 25.6583 56.0776 24.1813 59.1914C22.325 63.2832 20.4887 67.3551 18.7921 71.5467C18.3396 71.3471 17.8872 71.1475 17.4348 70.9479C19.0316 66.8361 21.0276 63.0038 22.7841 58.9918C24.301 55.8182 25.6384 52.5846 26.7362 49.2114C26.9491 48.5327 27.1487 47.8408 27.335 47.1355C27.814 47.3351 28.2731 47.5347 28.7521 47.7343ZM27.335 47.1355C27.1487 47.8408 26.9491 48.5327 26.7362 49.2114C25.6384 52.5846 24.301 55.8182 22.7841 58.9918C21.0276 63.0038 19.0316 66.8361 17.4348 70.9479C16.9557 70.735 16.4767 70.5221 15.9976 70.3092C17.4148 66.9559 18.9318 63.6625 20.3489 60.3691C22.0056 56.397 24.0216 52.5647 25.2192 48.4728C25.4321 47.7942 25.6184 47.1089 25.7781 46.417C26.297 46.6565 26.816 46.9359 27.335 47.1355ZM25.7781 46.417C25.6184 47.1089 25.4321 47.7942 25.2192 48.4728C24.0216 52.5647 22.0056 56.397 20.3489 60.3691C18.9318 63.6625 17.4148 66.9559 15.9976 70.3092C15.7448 70.2027 15.492 70.0963 15.2392 69.9898C16.6962 66.6764 18.0934 63.3232 19.5905 60.0297C21.2471 56.0776 23.0435 52.2054 24.3609 48.0736C24.5738 47.395 24.7734 46.7097 24.9597 46.0178C25.2392 46.1575 25.5186 46.2972 25.7781 46.417ZM24.9597 46.0178C24.7734 46.7097 24.5738 47.395 24.3609 48.0736C23.0435 52.2054 21.2471 56.0776 19.5905 60.0297C18.0934 63.3232 16.6962 66.6764 15.2392 69.9898C14.9331 69.8568 14.627 69.7237 14.321 69.5906C15.6982 66.2373 17.1154 62.884 18.6124 59.5707C20.3889 55.6385 22.0655 51.6465 23.3829 47.5547C23.6091 46.8894 23.8153 46.2174 24.0016 45.5387C24.321 45.6984 24.6404 45.8581 24.9597 46.0178ZM24.0016 45.5387C23.8153 46.2174 23.6091 46.8894 23.3829 47.5547C22.0655 51.6465 20.3889 55.6385 18.6124 59.5707C17.1154 62.884 15.6982 66.2373 14.321 69.5906C13.8553 69.3777 13.3962 69.1715 12.9437 68.9719C14.0216 66.4768 15.0795 63.9619 16.1573 61.4469C18.2531 56.6565 20.4288 51.906 21.9258 46.8361C22.1254 46.1442 22.3183 45.4589 22.5046 44.7802C22.997 45.0331 23.496 45.2859 24.0016 45.5387ZM22.5046 44.7802C22.3183 45.4589 22.1254 46.1442 21.9258 46.8361C20.4288 51.906 18.2531 56.6565 16.1573 61.4469C15.0795 63.9619 14.0216 66.4768 12.9437 68.9719C12.4514 68.7589 11.9591 68.5394 11.4667 68.3132C12.5246 65.7982 13.6024 63.2832 14.6803 60.7882C16.7561 55.9778 18.7921 51.0677 20.309 46.0178C20.5219 45.3258 20.7215 44.6339 20.9078 43.9419C21.4401 44.2214 21.9724 44.5008 22.5046 44.7802ZM20.9078 43.9419C20.7215 44.6339 20.5219 45.3258 20.309 46.0178C18.7921 51.0677 16.7561 55.9778 14.6803 60.7882C13.6024 63.2832 12.5246 65.7982 11.4667 68.3132C11.1606 68.1801 10.8546 68.047 10.5485 67.914C11.7861 65.419 12.7242 62.8441 13.842 60.3291C15.8779 55.4589 17.7142 50.5287 19.331 45.4589C19.5439 44.7802 19.7435 44.1016 19.9298 43.423C20.2624 43.5959 20.5885 43.7689 20.9078 43.9419ZM19.9298 43.423C19.7435 44.1016 19.5439 44.7802 19.331 45.4589C17.7142 50.5287 15.8779 55.4589 13.842 60.3291C12.7242 62.8441 11.7861 65.419 10.5485 67.914C10.0562 67.7011 9.55719 67.4815 9.05153 67.2553C9.81001 65.6385 10.4887 63.882 11.2471 62.2253C11.5931 61.3737 11.9324 60.5221 12.2651 59.6705C14.1414 54.6605 16.1174 49.7104 17.6942 44.6605C17.9072 43.9685 18.1134 43.2699 18.313 42.5647C18.8519 42.8441 19.3909 43.1235 19.9298 43.423ZM18.313 42.5647C18.1134 43.2699 17.9072 43.9685 17.6942 44.6605C16.1174 49.7104 14.1414 54.6605 12.2651 59.6705C11.9324 60.5221 11.5931 61.3737 11.2471 62.2253C10.4887 63.882 9.81001 65.6385 9.05153 67.2553C8.7987 67.1488 8.55253 67.0424 8.31301 66.9359C8.97169 65.2194 9.7701 63.6026 10.3889 61.8661C10.7348 61.0144 11.0808 60.1628 11.4268 59.3112C13.3829 54.3411 15.3789 49.3511 16.8958 44.2413C17.1088 43.5494 17.315 42.8508 17.5146 42.1455C17.7741 42.2852 18.0535 42.4249 18.313 42.5647ZM30.4487 76.417C30.1427 77.1888 29.8366 77.9539 29.5306 78.7124C27.794 83.3631 25.8579 87.894 23.802 92.3651C23.5093 92.9905 23.2099 93.6092 22.9038 94.2214C22.6111 94.8335 22.305 95.4456 21.9857 96.0577C20.7481 98.4928 19.4707 100.888 18.0934 103.203C17.0755 102.405 15.8978 101.746 14.8799 101.028C16.8759 98.9918 18.3529 96.4768 19.83 94.0018C20.3356 93.1502 20.8147 92.2852 21.2671 91.407C23.5426 87.0357 25.2392 82.3451 26.9158 77.6345C27.1952 76.8894 27.488 76.1442 27.794 75.399C29.2511 75.9778 28.9517 75.8581 30.4487 76.417ZM27.794 75.399C27.488 76.1442 27.1952 76.8894 26.9158 77.6345C25.2392 82.3451 23.5426 87.0357 21.2671 91.407C20.8147 92.2852 20.3356 93.1502 19.83 94.0018C18.3529 96.4768 16.8759 98.9918 14.8799 101.028C14.5206 100.802 14.1547 100.575 13.7821 100.349C15.5186 98.0138 16.9956 95.4988 18.3729 92.9439C18.8785 92.1056 19.3576 91.2606 19.81 90.409C22.1254 86.1375 23.9018 81.6066 25.7781 77.1355C26.0841 76.4037 26.3835 75.6651 26.6763 74.92C26.9757 75.0397 27.2751 75.1994 27.794 75.399ZM26.6763 74.92C26.3835 75.6651 26.0841 76.4037 25.7781 77.1355C23.9018 81.6066 22.1254 86.1375 19.81 90.409C19.3576 91.2606 18.8785 92.1056 18.3729 92.9439C16.9956 95.4988 15.5186 98.0138 13.7821 100.349C13.303 100.043 12.8173 99.7436 12.325 99.4509C12.671 98.7856 13.0103 98.1202 13.3429 97.4549C13.6756 96.8029 14.0016 96.1442 14.321 95.4788C14.9797 94.1615 15.6384 92.8441 16.317 91.5267C16.7761 90.7084 17.2551 89.8701 17.7342 89.0517C20.0895 84.9399 22.325 80.7683 24.3809 76.4968C24.7135 75.7782 25.0262 75.0464 25.319 74.3012C25.9577 74.5607 26.297 74.7204 26.6763 74.92ZM25.319 74.3012C25.0262 75.0464 24.7135 75.7782 24.3809 76.4968C22.325 80.7683 20.0895 84.9399 17.7342 89.0517C17.2551 89.8701 16.7761 90.7084 16.317 91.5267C15.6384 92.8441 14.9797 94.1615 14.321 95.4788C14.0016 96.1442 13.6756 96.8029 13.3429 97.4549C13.0103 98.1202 12.671 98.7856 12.325 99.4509C12.0056 99.2646 11.6863 99.085 11.3669 98.912C11.7861 98.0936 12.1853 97.2752 12.5845 96.4569C12.9704 95.6319 13.3563 94.8135 13.7421 94.0018C14.5006 92.3451 15.2591 90.7084 16.1174 89.1315C16.5166 88.413 16.9158 87.6877 17.315 86.9559C19.2511 83.3032 21.1473 79.6106 22.804 75.8182C23.1101 75.0863 23.4095 74.3611 23.7022 73.6425C24.3609 73.902 24.9398 74.1415 25.319 74.3012ZM23.7022 73.6425C23.4095 74.3611 23.1101 75.0863 22.804 75.8182C21.1473 79.6106 19.2511 83.3032 17.315 86.9559C16.9158 87.6877 16.5166 88.413 16.1174 89.1315C15.2591 90.7084 14.5006 92.3451 13.7421 94.0018C13.3563 94.8135 12.9704 95.6319 12.5845 96.4569C12.1853 97.2752 11.7861 98.0936 11.3669 98.912C10.9943 98.7124 10.6217 98.5128 10.2491 98.3132C11.2072 96.397 11.9857 94.401 12.8439 92.4449C13.1101 91.7929 13.3829 91.1342 13.6623 90.4689C14.2012 89.1515 14.7402 87.8341 15.339 86.5367C15.7781 85.5653 16.2105 84.5939 16.6364 83.6226C17.9138 80.6884 19.1513 77.7343 20.3889 74.8002C20.6949 74.0683 20.9877 73.3365 21.2671 72.6046C22.0855 72.9439 22.9437 73.3232 23.7022 73.6425ZM21.2671 72.6046C20.9877 73.3365 20.6949 74.0683 20.3889 74.8002C19.1513 77.7343 17.9138 80.6884 16.6364 83.6226C16.2105 84.5939 15.7781 85.5653 15.339 86.5367C14.7402 87.8341 14.2012 89.1515 13.6623 90.4689C13.3829 91.1342 13.1101 91.7929 12.8439 92.4449C11.9857 94.401 11.2072 96.397 10.2491 98.3132C9.75679 98.0603 9.26444 97.8142 8.77209 97.5746C9.98966 94.9998 10.7282 92.2453 11.826 89.5906C12.0655 88.9253 12.3183 88.2599 12.5845 87.5946C12.8373 86.9426 13.1034 86.2839 13.3829 85.6186C13.7688 84.6339 14.1547 83.6492 14.5406 82.6645C15.6783 79.6904 16.7761 76.6964 17.9338 73.7423C18.2132 73.0104 18.4993 72.2786 18.7921 71.5467C19.331 71.7862 20.2691 72.1854 21.2671 72.6046ZM18.7921 71.5467C18.4993 72.2786 18.2132 73.0104 17.9338 73.7423C16.7761 76.6964 15.6783 79.6904 14.5406 82.6645C14.1547 83.6492 13.7688 84.6339 13.3829 85.6186C13.1034 86.2839 12.8373 86.9426 12.5845 87.5946C12.3183 88.2599 12.0655 88.9253 11.826 89.5906C10.7282 92.2453 9.98966 94.9998 8.77209 97.5746C8.34628 97.375 7.91381 97.1754 7.47469 96.9758C8.65233 94.5407 9.37089 91.8461 10.329 89.3112C10.6284 88.4729 10.9477 87.6345 11.307 86.7962C11.6663 85.8913 12.0189 84.9798 12.3649 84.0617C13.7821 80.389 15.0994 76.7164 16.5765 73.1435C16.8559 72.4116 17.142 71.6798 17.4348 70.9479C17.8872 71.1475 18.3396 71.3471 18.7921 71.5467ZM17.4348 70.9479C17.142 71.6798 16.8559 72.4116 16.5765 73.1435C15.0994 76.7164 13.7821 80.389 12.3649 84.0617C12.0189 84.9798 11.6663 85.8913 11.307 86.7962C10.9477 87.6345 10.6284 88.4729 10.329 89.3112C9.37089 91.8461 8.65233 94.5407 7.47469 96.9758C6.99564 96.7496 6.50995 96.5301 6.0176 96.3172C7.41481 93.7623 8.11341 90.9279 9.11141 88.1934C9.43077 87.2752 9.75014 86.377 10.1094 85.4788C10.4421 84.6139 10.7748 83.749 11.1074 82.884C12.4248 79.4309 13.7022 75.9579 15.1194 72.5048C15.4121 71.7729 15.7049 71.041 15.9976 70.3092C16.4767 70.5221 16.9557 70.735 17.4348 70.9479ZM15.9976 70.3092C15.7049 71.041 15.4121 71.7729 15.1194 72.5048C13.7022 75.9579 12.4248 79.4309 11.1074 82.884C10.7748 83.749 10.4421 84.6139 10.1094 85.4788C9.75014 86.377 9.43077 87.2752 9.11141 88.1934C8.11341 90.9279 7.41481 93.7623 6.0176 96.3172C5.75147 96.1974 5.48533 96.0776 5.2192 95.9579C6.39684 93.2433 7.09545 90.409 8.19325 87.6545C8.55253 86.7962 8.91181 85.9379 9.27109 85.0796C11.0475 80.7882 12.6244 76.4569 14.341 72.1655C14.6337 71.4336 14.9331 70.7084 15.2392 69.9898C15.492 70.0963 15.7448 70.2027 15.9976 70.3092ZM15.2392 69.9898C14.9331 70.7084 14.6337 71.4336 14.341 72.1655C12.6244 76.4569 11.0475 80.7882 9.27109 85.0796C8.91181 85.9379 8.55253 86.7962 8.19325 87.6545C7.09545 90.409 6.39684 93.2433 5.2192 95.9579C4.88653 95.8248 4.55386 95.6851 4.22119 95.5387C5.67828 92.2253 6.7162 88.7723 8.05353 85.4389C8.42612 84.5341 8.79205 83.6225 9.15133 82.7044C10.5685 79.0517 11.9457 75.379 13.4427 71.7663C13.7355 71.0344 14.0282 70.3092 14.321 69.5906C14.627 69.7237 14.9331 69.8568 15.2392 69.9898ZM14.321 69.5906C14.0282 70.3092 13.7355 71.0344 13.4427 71.7663C11.9457 75.379 10.5685 79.0517 9.15133 82.7044C8.79205 83.6225 8.42612 84.5341 8.05353 85.4389C6.7162 88.7723 5.67828 92.2253 4.22119 95.5387C3.71554 95.3258 3.20323 95.1062 2.68427 94.88C4.10143 91.7263 5.05952 88.3731 6.4168 85.1595C6.73616 84.3877 7.05552 83.6092 7.37489 82.8241C8.99165 78.9319 10.4887 75.0397 12.0455 71.1475C12.3383 70.4289 12.6377 69.7037 12.9437 68.9719C13.3962 69.1715 13.8553 69.3777 14.321 69.5906ZM12.9437 68.9719C12.6377 69.7037 12.3383 70.4289 12.0455 71.1475C10.4887 75.0397 8.99165 78.9319 7.37489 82.8241C7.05552 83.6092 6.73616 84.3877 6.4168 85.1595C5.05952 88.3731 4.10143 91.7263 2.68427 94.88C2.11208 94.6538 1.53989 94.421 0.9677 94.1814C2.28506 90.9479 3.48267 87.7144 4.83996 84.5208C5.17262 83.7357 5.49864 82.9572 5.818 82.1854C7.43477 78.2932 8.87189 74.3611 10.5485 70.4888C10.8546 69.7703 11.1606 69.045 11.4667 68.3132C11.9591 68.5394 12.4514 68.7589 12.9437 68.9719ZM11.4667 68.3132C11.1606 69.045 10.8546 69.7703 10.5485 70.4888C8.87189 74.3611 7.43477 78.2932 5.818 82.1854C5.49864 82.9572 5.17262 83.7357 4.83996 84.5208C3.48267 87.7144 2.28506 90.9479 0.9677 94.1814C0.621725 94.0351 0.269099 93.8887 -0.0901821 93.7423C1.50662 90.6285 2.48467 87.2752 3.90183 84.1415C4.24781 83.3697 4.58048 82.5979 4.89984 81.8261C6.53656 77.9539 8.03357 74.0018 9.63038 70.0896C9.93643 69.3711 10.2425 68.6458 10.5485 67.914C10.8546 68.047 11.1606 68.1801 11.4667 68.3132ZM10.5485 67.914C10.2425 68.6458 9.93643 69.3711 9.63038 70.0896C8.03357 74.0018 6.53656 77.9539 4.89984 81.8261C4.58048 82.5979 4.24781 83.3697 3.90183 84.1415C2.48467 87.2752 1.50662 90.6285 -0.0901821 93.7423C-0.675678 93.5028 -1.26783 93.2633 -1.86663 93.0238C-0.389585 89.4509 1.10742 85.7782 2.72419 82.2453C3.25646 81.0743 3.78207 79.8967 4.30104 78.7124C5.63836 75.6186 6.83596 72.5447 8.13337 69.4509C8.43942 68.719 8.74548 67.9872 9.05153 67.2553C9.55719 67.4815 10.0562 67.7011 10.5485 67.914ZM9.05153 67.2553C8.74548 67.9872 8.43942 68.719 8.13337 69.4509C6.83596 72.5447 5.63836 75.6186 4.30104 78.7124C3.78207 79.8967 3.25646 81.0743 2.72419 82.2453C1.10742 85.7782 -0.389585 89.4509 -1.86663 93.0238C-2.15938 92.904 -2.45213 92.7842 -2.74487 92.6645C-1.08819 89.1715 0.348939 85.4788 1.94575 81.9459C2.47801 80.7616 2.99698 79.5773 3.50263 78.393C4.82 75.2792 6.07748 72.2253 7.39485 69.1315C7.7009 68.3997 8.00696 67.6678 8.31301 66.9359C8.55253 67.0424 8.7987 67.1488 9.05153 67.2553Z" fill="url(#paint5_linear_298_2213)" fill-opacity="0.5"/>
</g>
</g>
<path d="M9.71037 78.1536L25.4988 40.4889L23.3431 39.5708L6.896 78.8123L9.71037 78.1536Z" fill="url(#paint6_linear_298_2213)"/>
<path d="M24.0417 85.9979L40.4688 46.7564L38.3131 45.8582L22.5447 83.5229L24.0417 85.9979Z" fill="url(#paint7_linear_298_2213)"/>
<path d="M35.9978 0.449102L37.7542 2.44511C38.2133 2.96407 38.9918 3.06387 39.5507 2.66467L41.7063 1.10778C42.365 0.628743 43.2832 0.828343 43.6624 1.54691L44.9399 3.88224C45.2592 4.48104 45.9978 4.74052 46.6365 4.48104L49.0916 3.44311C49.8301 3.12375 50.6684 3.54291 50.888 4.3014L51.6065 6.87625C51.7862 7.53493 52.4449 7.95409 53.1235 7.83433L55.7582 7.37525C56.5367 7.23553 57.2752 7.81437 57.3151 8.61277L57.4548 11.2874C57.4948 11.9661 58.0337 12.505 58.7123 12.5449L61.387 12.6846C62.1854 12.7246 62.7642 13.4631 62.6245 14.2415L62.1654 16.8762C62.0457 17.5549 62.4648 18.1936 63.1235 18.3932L65.6984 19.1118C66.4568 19.3313 66.876 20.1697 66.5566 20.9082L65.5187 23.3633C65.2592 24.002 65.5187 24.7405 66.1175 25.0599L68.4529 26.3373C69.1714 26.7166 69.371 27.6347 68.892 28.2934L67.3351 30.4491C66.9359 31.008 67.0357 31.7864 67.5546 32.2455L69.5507 34.002C70.1495 34.5409 70.1495 35.479 69.5507 35.998L67.5546 37.7745C67.0357 38.2136 66.9359 38.992 67.3351 39.5509L68.892 41.7066C69.371 42.3653 69.1714 43.2834 68.4529 43.6627L66.1175 44.9401C65.5187 45.2794 65.2592 45.998 65.5187 46.6367L66.5566 49.0918C66.876 49.8303 66.4568 50.6687 65.6984 50.8882L63.1235 51.6267C62.4648 51.8064 62.0457 52.4651 62.1654 53.1437L62.6245 55.7585C62.7642 56.5569 62.1854 57.2954 61.387 57.3353L58.7123 57.4551C58.0337 57.495 57.4948 58.0339 57.4548 58.7325L57.3151 61.3872C57.2752 62.1856 56.5367 62.7844 55.7582 62.6447L53.1235 62.1657C52.4449 62.0459 51.7862 62.4651 51.6065 63.1237L50.888 65.6986C50.6684 66.477 49.8301 66.8762 49.0916 66.5569L46.6365 65.519C45.9978 65.2595 45.2592 65.519 44.9399 66.1178L43.6624 68.4531C43.2832 69.1717 42.365 69.3713 41.7063 68.9122L39.5507 67.3553C38.9918 66.9561 38.2133 67.0359 37.7542 67.5549L35.9978 69.5509C35.4588 70.1497 34.5207 70.1497 34.0017 69.5509L32.2253 67.5549C31.7862 67.0359 31.0077 66.9561 30.4489 67.3553L28.2932 68.9122C27.6345 69.3713 26.7163 69.1717 26.3371 68.4531L25.0596 66.1178C24.7203 65.519 24.0018 65.2595 23.363 65.519L20.9079 66.5569C20.1694 66.8762 19.3311 66.477 19.1115 65.6986L18.373 63.1237C18.1934 62.4651 17.5347 62.0459 16.856 62.1657L14.2413 62.6447C13.4429 62.7844 12.7043 62.1856 12.6644 61.3872L12.5447 58.7325C12.5047 58.0339 11.9658 57.495 11.2672 57.4551L8.61253 57.3353C7.81413 57.2954 7.21532 56.5569 7.35504 55.7585L7.83409 53.1437C7.95385 52.4651 7.53469 51.8064 6.876 51.6267L4.30115 50.8882C3.52271 50.6687 3.12351 49.8303 3.44287 49.0918L4.48079 46.6367C4.74027 45.998 4.48079 45.2794 3.88199 44.9401L1.54666 43.6627C0.828099 43.2834 0.628498 42.3653 1.08758 41.7066L2.64447 39.5509C3.04367 38.992 2.96383 38.2136 2.44487 37.7745L0.448858 35.998C-0.149945 35.479 -0.149945 34.5409 0.448858 34.002L2.44487 32.2455C2.96383 31.7864 3.04367 31.008 2.64447 30.4491L1.08758 28.2934C0.628498 27.6347 0.828099 26.7166 1.54666 26.3373L3.88199 25.0599C4.48079 24.7405 4.74027 24.002 4.48079 23.3633L3.44287 20.9082C3.12351 20.1697 3.52271 19.3313 4.30115 19.1118L6.876 18.3932C7.53469 18.1936 7.95385 17.5549 7.83409 16.8762L7.35504 14.2415C7.21532 13.4631 7.81413 12.7246 8.61253 12.6846L11.2672 12.5449C11.9658 12.505 12.5047 11.9661 12.5447 11.2874L12.6644 8.61277C12.7043 7.81437 13.4429 7.23553 14.2413 7.37525L16.856 7.83433C17.5347 7.95409 18.1934 7.53493 18.373 6.87625L19.1115 4.3014C19.3311 3.54291 20.1694 3.12375 20.9079 3.44311L23.363 4.48104C24.0018 4.74052 24.7203 4.48104 25.0596 3.88224L26.3371 1.54691C26.7163 0.828343 27.6345 0.628743 28.2932 1.10778L30.4489 2.66467C31.0077 3.06387 31.7862 2.96407 32.2253 2.44511L34.0017 0.449102C34.5207 -0.149701 35.4588 -0.149701 35.9978 0.449102Z" fill="#B72136"/>
<path d="M35.9978 0.449102L37.7542 2.44511C38.2133 2.96407 38.9918 3.06387 39.5507 2.66467L41.7063 1.10778C42.365 0.628743 43.2832 0.828343 43.6624 1.54691L44.9399 3.88224C45.2592 4.48104 45.9978 4.74052 46.6365 4.48104L49.0916 3.44311C49.8301 3.12375 50.6684 3.54291 50.888 4.3014L51.6065 6.87625C51.7862 7.53493 52.4449 7.95409 53.1235 7.83433L55.7582 7.37525C56.5367 7.23553 57.2752 7.81437 57.3151 8.61277L57.4548 11.2874C57.4948 11.9661 58.0337 12.505 58.7123 12.5449L61.387 12.6846C62.1854 12.7246 62.7642 13.4631 62.6245 14.2415L62.1654 16.8762C62.0457 17.5549 62.4648 18.1936 63.1235 18.3932L65.6984 19.1118C66.4568 19.3313 66.876 20.1697 66.5566 20.9082L65.5187 23.3633C65.2592 24.002 65.5187 24.7405 66.1175 25.0599L68.4529 26.3373C69.1714 26.7166 69.371 27.6347 68.892 28.2934L67.3351 30.4491C66.9359 31.008 67.0357 31.7864 67.5546 32.2455L69.5507 34.002C70.1495 34.5409 70.1495 35.479 69.5507 35.998L67.5546 37.7745C67.0357 38.2136 66.9359 38.992 67.3351 39.5509L68.892 41.7066C69.371 42.3653 69.1714 43.2834 68.4529 43.6627L66.1175 44.9401C65.5187 45.2794 65.2592 45.998 65.5187 46.6367L66.5566 49.0918C66.876 49.8303 66.4568 50.6687 65.6984 50.8882L63.1235 51.6267C62.4648 51.8064 62.0457 52.4651 62.1654 53.1437L62.6245 55.7585C62.7642 56.5569 62.1854 57.2954 61.387 57.3353L58.7123 57.4551C58.0337 57.495 57.4948 58.0339 57.4548 58.7325L57.3151 61.3872C57.2752 62.1856 56.5367 62.7844 55.7582 62.6447L53.1235 62.1657C52.4449 62.0459 51.7862 62.4651 51.6065 63.1237L50.888 65.6986C50.6684 66.477 49.8301 66.8762 49.0916 66.5569L46.6365 65.519C45.9978 65.2595 45.2592 65.519 44.9399 66.1178L43.6624 68.4531C43.2832 69.1717 42.365 69.3713 41.7063 68.9122L39.5507 67.3553C38.9918 66.9561 38.2133 67.0359 37.7542 67.5549L35.9978 69.5509C35.4588 70.1497 34.5207 70.1497 34.0017 69.5509L32.2253 67.5549C31.7862 67.0359 31.0077 66.9561 30.4489 67.3553L28.2932 68.9122C27.6345 69.3713 26.7163 69.1717 26.3371 68.4531L25.0596 66.1178C24.7203 65.519 24.0018 65.2595 23.363 65.519L20.9079 66.5569C20.1694 66.8762 19.3311 66.477 19.1115 65.6986L18.373 63.1237C18.1934 62.4651 17.5347 62.0459 16.856 62.1657L14.2413 62.6447C13.4429 62.7844 12.7043 62.1856 12.6644 61.3872L12.5447 58.7325C12.5047 58.0339 11.9658 57.495 11.2672 57.4551L8.61253 57.3353C7.81413 57.2954 7.21532 56.5569 7.35504 55.7585L7.83409 53.1437C7.95385 52.4651 7.53469 51.8064 6.876 51.6267L4.30115 50.8882C3.52271 50.6687 3.12351 49.8303 3.44287 49.0918L4.48079 46.6367C4.74027 45.998 4.48079 45.2794 3.88199 44.9401L1.54666 43.6627C0.828099 43.2834 0.628498 42.3653 1.08758 41.7066L2.64447 39.5509C3.04367 38.992 2.96383 38.2136 2.44487 37.7745L0.448858 35.998C-0.149945 35.479 -0.149945 34.5409 0.448858 34.002L2.44487 32.2455C2.96383 31.7864 3.04367 31.008 2.64447 30.4491L1.08758 28.2934C0.628498 27.6347 0.828099 26.7166 1.54666 26.3373L3.88199 25.0599C4.48079 24.7405 4.74027 24.002 4.48079 23.3633L3.44287 20.9082C3.12351 20.1697 3.52271 19.3313 4.30115 19.1118L6.876 18.3932C7.53469 18.1936 7.95385 17.5549 7.83409 16.8762L7.35504 14.2415C7.21532 13.4631 7.81413 12.7246 8.61253 12.6846L11.2672 12.5449C11.9658 12.505 12.5047 11.9661 12.5447 11.2874L12.6644 8.61277C12.7043 7.81437 13.4429 7.23553 14.2413 7.37525L16.856 7.83433C17.5347 7.95409 18.1934 7.53493 18.373 6.87625L19.1115 4.3014C19.3311 3.54291 20.1694 3.12375 20.9079 3.44311L23.363 4.48104C24.0018 4.74052 24.7203 4.48104 25.0596 3.88224L26.3371 1.54691C26.7163 0.828343 27.6345 0.628743 28.2932 1.10778L30.4489 2.66467C31.0077 3.06387 31.7862 2.96407 32.2253 2.44511L34.0017 0.449102C34.5207 -0.149701 35.4588 -0.149701 35.9978 0.449102Z" fill="url(#paint8_linear_298_2213)" fill-opacity="0.1"/>
<path d="M34.9997 6.17763C51.0676 6.17763 64.0816 19.1916 64.0816 35.2595C64.0816 51.3273 51.0676 64.3613 34.9997 64.3613C18.9319 64.3613 5.89795 51.3273 5.89795 35.2595C5.89795 19.1916 18.9319 6.17763 34.9997 6.17763Z" fill="url(#paint9_linear_298_2213)"/>
<path d="M34.9998 8.41315C49.8301 8.41315 61.8661 20.4291 61.8661 35.2595C61.8661 50.1098 49.8301 62.1257 34.9998 62.1257C20.1695 62.1257 8.13354 50.1098 8.13354 35.2595C8.13354 20.4291 20.1695 8.41315 34.9998 8.41315Z" fill="url(#paint10_linear_298_2213)"/>
<path d="M34.9998 9.87025C49.0317 9.87025 60.389 21.2475 60.389 35.2595C60.389 49.2914 49.0317 60.6687 34.9998 60.6687C20.9678 60.6687 9.59058 49.2914 9.59058 35.2595C9.59058 21.2475 20.9678 9.87025 34.9998 9.87025Z" fill="#F1F2F2"/>
<g filter="url(#filter0_d_298_2213)">
<path d="M17.3033 32.1317C17.25 32.1317 17.2046 32.1131 17.1673 32.0757C17.13 32.0384 17.1113 31.9931 17.1113 31.9397V26.7317C17.1113 26.6731 17.13 26.6251 17.1673 26.5877C17.2046 26.5504 17.25 26.5317 17.3033 26.5317H20.7753C20.834 26.5317 20.882 26.5504 20.9193 26.5877C20.9566 26.6251 20.9753 26.6731 20.9753 26.7317V27.2917C20.9753 27.3504 20.9566 27.3984 20.9193 27.4357C20.882 27.4677 20.834 27.4837 20.7753 27.4837H18.2073V29.0037H20.6153C20.674 29.0037 20.722 29.0224 20.7593 29.0597C20.7966 29.0971 20.8153 29.1451 20.8153 29.2037V29.7637C20.8153 29.8171 20.7966 29.8624 20.7593 29.8997C20.722 29.9371 20.674 29.9557 20.6153 29.9557H18.2073V31.9397C18.2073 31.9931 18.1886 32.0384 18.1513 32.0757C18.114 32.1131 18.066 32.1317 18.0073 32.1317H17.3033ZM24.0289 32.2117C23.5543 32.2117 23.1463 32.1344 22.8049 31.9797C22.4636 31.8197 22.1969 31.5771 22.0049 31.2517C21.8129 30.9211 21.7089 30.5104 21.6929 30.0197C21.6876 29.7904 21.6849 29.5637 21.6849 29.3397C21.6849 29.1157 21.6876 28.8864 21.6929 28.6517C21.7089 28.1664 21.8156 27.7611 22.0129 27.4357C22.2103 27.1104 22.4796 26.8651 22.8209 26.6997C23.1676 26.5344 23.5703 26.4517 24.0289 26.4517C24.4876 26.4517 24.8903 26.5344 25.2369 26.6997C25.5836 26.8651 25.8556 27.1104 26.0529 27.4357C26.2503 27.7611 26.3569 28.1664 26.3729 28.6517C26.3836 28.8864 26.3889 29.1157 26.3889 29.3397C26.3889 29.5637 26.3836 29.7904 26.3729 30.0197C26.3569 30.5104 26.2529 30.9211 26.0609 31.2517C25.8689 31.5771 25.5996 31.8197 25.2529 31.9797C24.9116 32.1344 24.5036 32.2117 24.0289 32.2117ZM24.0289 31.2917C24.3756 31.2917 24.6583 31.1904 24.8769 30.9877C25.0956 30.7797 25.2129 30.4437 25.2289 29.9797C25.2396 29.7451 25.2449 29.5291 25.2449 29.3317C25.2449 29.1291 25.2396 28.9131 25.2289 28.6837C25.2183 28.3744 25.1596 28.1237 25.0529 27.9317C24.9516 27.7344 24.8129 27.5931 24.6369 27.5077C24.4609 27.4171 24.2583 27.3717 24.0289 27.3717C23.8049 27.3717 23.6049 27.4171 23.4289 27.5077C23.2529 27.5931 23.1116 27.7344 23.0049 27.9317C22.9036 28.1237 22.8476 28.3744 22.8369 28.6837C22.8316 28.9131 22.8289 29.1291 22.8289 29.3317C22.8289 29.5291 22.8316 29.7451 22.8369 29.9797C22.8529 30.4437 22.9703 30.7797 23.1889 30.9877C23.4076 31.1904 23.6876 31.2917 24.0289 31.2917ZM29.6714 32.2117C29.2074 32.2117 28.8048 32.1344 28.4634 31.9797C28.1221 31.8197 27.8581 31.5771 27.6714 31.2517C27.4848 30.9211 27.3914 30.4997 27.3914 29.9877V26.7317C27.3914 26.6731 27.4101 26.6251 27.4474 26.5877C27.4848 26.5504 27.5301 26.5317 27.5834 26.5317H28.3114C28.3701 26.5317 28.4154 26.5504 28.4474 26.5877C28.4848 26.6251 28.5034 26.6731 28.5034 26.7317V29.9877C28.5034 30.4251 28.6074 30.7504 28.8154 30.9637C29.0234 31.1717 29.3088 31.2757 29.6714 31.2757C30.0341 31.2757 30.3168 31.1717 30.5194 30.9637C30.7274 30.7504 30.8314 30.4251 30.8314 29.9877V26.7317C30.8314 26.6731 30.8501 26.6251 30.8874 26.5877C30.9248 26.5504 30.9728 26.5317 31.0314 26.5317H31.7514C31.8101 26.5317 31.8554 26.5504 31.8874 26.5877C31.9248 26.6251 31.9434 26.6731 31.9434 26.7317V29.9877C31.9434 30.4997 31.8501 30.9211 31.6634 31.2517C31.4821 31.5771 31.2208 31.8197 30.8794 31.9797C30.5434 32.1344 30.1408 32.2117 29.6714 32.2117ZM33.3346 32.1317C33.2812 32.1317 33.2359 32.1131 33.1986 32.0757C33.1612 32.0384 33.1426 31.9931 33.1426 31.9397V26.7317C33.1426 26.6731 33.1612 26.6251 33.1986 26.5877C33.2359 26.5504 33.2812 26.5317 33.3346 26.5317H33.9506C34.0252 26.5317 34.0786 26.5504 34.1106 26.5877C34.1479 26.6197 34.1719 26.6437 34.1826 26.6597L36.4866 30.2437V26.7317C36.4866 26.6731 36.5026 26.6251 36.5346 26.5877C36.5719 26.5504 36.6199 26.5317 36.6786 26.5317H37.3506C37.4092 26.5317 37.4572 26.5504 37.4946 26.5877C37.5319 26.6251 37.5506 26.6731 37.5506 26.7317V31.9317C37.5506 31.9904 37.5319 32.0384 37.4946 32.0757C37.4572 32.1131 37.4119 32.1317 37.3586 32.1317H36.7346C36.6599 32.1317 36.6066 32.1131 36.5746 32.0757C36.5426 32.0384 36.5186 32.0144 36.5026 32.0037L34.2066 28.4997V31.9397C34.2066 31.9931 34.1879 32.0384 34.1506 32.0757C34.1132 32.1131 34.0652 32.1317 34.0066 32.1317H33.3346ZM38.9908 32.1317C38.9375 32.1317 38.8921 32.1131 38.8548 32.0757C38.8175 32.0384 38.7988 31.9931 38.7988 31.9397V26.7317C38.7988 26.6731 38.8175 26.6251 38.8548 26.5877C38.8921 26.5504 38.9375 26.5317 38.9908 26.5317H40.9428C41.4815 26.5317 41.9241 26.6144 42.2708 26.7797C42.6228 26.9451 42.8868 27.1904 43.0628 27.5157C43.2441 27.8411 43.3375 28.2384 43.3428 28.7077C43.3535 28.9424 43.3588 29.1504 43.3588 29.3317C43.3588 29.5131 43.3535 29.7184 43.3428 29.9477C43.3321 30.4437 43.2415 30.8544 43.0708 31.1797C42.9001 31.4997 42.6415 31.7397 42.2948 31.8997C41.9535 32.0544 41.5161 32.1317 40.9828 32.1317H38.9908ZM39.9108 31.2117H40.9428C41.2415 31.2117 41.4841 31.1691 41.6708 31.0837C41.8575 30.9984 41.9935 30.8624 42.0788 30.6757C42.1695 30.4837 42.2175 30.2331 42.2228 29.9237C42.2281 29.7637 42.2308 29.6251 42.2308 29.5077C42.2361 29.3851 42.2361 29.2651 42.2308 29.1477C42.2308 29.0251 42.2281 28.8864 42.2228 28.7317C42.2121 28.2944 42.1028 27.9717 41.8948 27.7637C41.6868 27.5557 41.3561 27.4517 40.9028 27.4517H39.9108V31.2117ZM44.6158 32.1317C44.5625 32.1317 44.5171 32.1131 44.4798 32.0757C44.4425 32.0384 44.4238 31.9931 44.4238 31.9397V26.7317C44.4238 26.6731 44.4425 26.6251 44.4798 26.5877C44.5171 26.5504 44.5625 26.5317 44.6158 26.5317H48.1358C48.1945 26.5317 48.2425 26.5504 48.2798 26.5877C48.3171 26.6251 48.3358 26.6731 48.3358 26.7317V27.2597C48.3358 27.3131 48.3171 27.3584 48.2798 27.3957C48.2425 27.4331 48.1945 27.4517 48.1358 27.4517H45.5038V28.8677H47.9598C48.0185 28.8677 48.0665 28.8864 48.1038 28.9237C48.1411 28.9557 48.1598 29.0011 48.1598 29.0597V29.5557C48.1598 29.6144 48.1411 29.6624 48.1038 29.6997C48.0665 29.7317 48.0185 29.7477 47.9598 29.7477H45.5038V31.2117H48.1998C48.2585 31.2117 48.3065 31.2304 48.3438 31.2677C48.3811 31.3051 48.3998 31.3531 48.3998 31.4117V31.9397C48.3998 31.9931 48.3811 32.0384 48.3438 32.0757C48.3065 32.1131 48.2585 32.1317 48.1998 32.1317H44.6158ZM49.5924 32.1317C49.539 32.1317 49.4937 32.1131 49.4564 32.0757C49.419 32.0384 49.4004 31.9931 49.4004 31.9397V26.7317C49.4004 26.6731 49.419 26.6251 49.4564 26.5877C49.4937 26.5504 49.539 26.5317 49.5924 26.5317H51.6644C52.3097 26.5317 52.819 26.6811 53.1924 26.9797C53.5657 27.2784 53.7524 27.7131 53.7524 28.2837C53.7524 28.6784 53.6537 29.0064 53.4564 29.2677C53.2644 29.5291 53.0057 29.7184 52.6804 29.8357L53.8484 31.8757C53.8644 31.9077 53.8724 31.9371 53.8724 31.9637C53.8724 32.0117 53.8537 32.0517 53.8164 32.0837C53.7844 32.1157 53.747 32.1317 53.7044 32.1317H52.9764C52.8857 32.1317 52.8164 32.1077 52.7684 32.0597C52.7204 32.0117 52.683 31.9637 52.6564 31.9157L51.6244 30.0197H50.5124V31.9397C50.5124 31.9931 50.4937 32.0384 50.4564 32.0757C50.4244 32.1131 50.379 32.1317 50.3204 32.1317H49.5924ZM50.5124 29.1157H51.6404C51.9657 29.1157 52.2084 29.0437 52.3684 28.8997C52.5284 28.7504 52.6084 28.5424 52.6084 28.2757C52.6084 28.0091 52.5284 27.8011 52.3684 27.6517C52.2137 27.4971 51.971 27.4197 51.6404 27.4197H50.5124V29.1157ZM23.951 42.2117C23.455 42.2117 23.0337 42.1264 22.687 41.9557C22.3457 41.7797 22.0843 41.5317 21.903 41.2117C21.7217 40.8864 21.6203 40.4971 21.599 40.0437C21.5937 39.8251 21.591 39.5904 21.591 39.3397C21.591 39.0891 21.5937 38.8491 21.599 38.6197C21.6203 38.1717 21.7217 37.7851 21.903 37.4597C22.0897 37.1344 22.3537 36.8864 22.695 36.7157C23.0417 36.5397 23.4603 36.4517 23.951 36.4517C24.3137 36.4517 24.639 36.4997 24.927 36.5957C25.215 36.6917 25.4603 36.8251 25.663 36.9957C25.8657 37.1611 26.023 37.3557 26.135 37.5797C26.247 37.8037 26.3057 38.0464 26.311 38.3077C26.3163 38.3557 26.3003 38.3957 26.263 38.4277C26.231 38.4597 26.191 38.4757 26.143 38.4757H25.383C25.3243 38.4757 25.2763 38.4624 25.239 38.4357C25.2017 38.4037 25.175 38.3531 25.159 38.2837C25.0737 37.9317 24.927 37.6917 24.719 37.5637C24.511 37.4357 24.2523 37.3717 23.943 37.3717C23.5857 37.3717 23.3003 37.4731 23.087 37.6757C22.8737 37.8731 22.759 38.2011 22.743 38.6597C22.727 39.0971 22.727 39.5451 22.743 40.0037C22.759 40.4624 22.8737 40.7931 23.087 40.9957C23.3003 41.1931 23.5857 41.2917 23.943 41.2917C24.2523 41.2917 24.511 41.2277 24.719 41.0997C24.927 40.9664 25.0737 40.7264 25.159 40.3797C25.175 40.3051 25.2017 40.2544 25.239 40.2277C25.2763 40.2011 25.3243 40.1877 25.383 40.1877H26.143C26.191 40.1877 26.231 40.2037 26.263 40.2357C26.3003 40.2677 26.3163 40.3077 26.311 40.3557C26.3057 40.6171 26.247 40.8597 26.135 41.0837C26.023 41.3077 25.8657 41.5051 25.663 41.6757C25.4603 41.8411 25.215 41.9717 24.927 42.0677C24.639 42.1637 24.3137 42.2117 23.951 42.2117ZM27.4517 42.1317C27.3984 42.1317 27.3531 42.1131 27.3157 42.0757C27.2784 42.0384 27.2597 41.9931 27.2597 41.9397V36.7237C27.2597 36.6704 27.2784 36.6251 27.3157 36.5877C27.3531 36.5504 27.3984 36.5317 27.4517 36.5317H28.2037C28.2624 36.5317 28.3077 36.5504 28.3397 36.5877C28.3771 36.6251 28.3957 36.6704 28.3957 36.7237V41.9397C28.3957 41.9931 28.3771 42.0384 28.3397 42.0757C28.3077 42.1131 28.2624 42.1317 28.2037 42.1317H27.4517ZM29.8424 42.1317C29.789 42.1317 29.7437 42.1131 29.7064 42.0757C29.669 42.0384 29.6504 41.9931 29.6504 41.9397V36.7317C29.6504 36.6731 29.669 36.6251 29.7064 36.5877C29.7437 36.5504 29.789 36.5317 29.8424 36.5317H31.9144C32.5597 36.5317 33.069 36.6811 33.4424 36.9797C33.8157 37.2784 34.0024 37.7131 34.0024 38.2837C34.0024 38.6784 33.9037 39.0064 33.7064 39.2677C33.5144 39.5291 33.2557 39.7184 32.9304 39.8357L34.0984 41.8757C34.1144 41.9077 34.1224 41.9371 34.1224 41.9637C34.1224 42.0117 34.1037 42.0517 34.0664 42.0837C34.0344 42.1157 33.997 42.1317 33.9544 42.1317H33.2264C33.1357 42.1317 33.0664 42.1077 33.0184 42.0597C32.9704 42.0117 32.933 41.9637 32.9064 41.9157L31.8744 40.0197H30.7624V41.9397C30.7624 41.9931 30.7437 42.0384 30.7064 42.0757C30.6744 42.1131 30.629 42.1317 30.5704 42.1317H29.8424ZM30.7624 39.1157H31.8904C32.2157 39.1157 32.4584 39.0437 32.6184 38.8997C32.7784 38.7504 32.8584 38.5424 32.8584 38.2757C32.8584 38.0091 32.7784 37.8011 32.6184 37.6517C32.4637 37.4971 32.221 37.4197 31.8904 37.4197H30.7624V39.1157ZM37.1776 42.2117C36.6816 42.2117 36.2602 42.1264 35.9136 41.9557C35.5722 41.7797 35.3109 41.5317 35.1296 41.2117C34.9482 40.8864 34.8469 40.4971 34.8256 40.0437C34.8202 39.8251 34.8176 39.5904 34.8176 39.3397C34.8176 39.0891 34.8202 38.8491 34.8256 38.6197C34.8469 38.1717 34.9482 37.7851 35.1296 37.4597C35.3162 37.1344 35.5802 36.8864 35.9216 36.7157C36.2682 36.5397 36.6869 36.4517 37.1776 36.4517C37.5402 36.4517 37.8656 36.4997 38.1536 36.5957C38.4416 36.6917 38.6869 36.8251 38.8896 36.9957C39.0922 37.1611 39.2496 37.3557 39.3616 37.5797C39.4736 37.8037 39.5322 38.0464 39.5376 38.3077C39.5429 38.3557 39.5269 38.3957 39.4896 38.4277C39.4576 38.4597 39.4176 38.4757 39.3696 38.4757H38.6096C38.5509 38.4757 38.5029 38.4624 38.4656 38.4357C38.4282 38.4037 38.4016 38.3531 38.3856 38.2837C38.3002 37.9317 38.1536 37.6917 37.9456 37.5637C37.7376 37.4357 37.4789 37.3717 37.1696 37.3717C36.8122 37.3717 36.5269 37.4731 36.3136 37.6757C36.1002 37.8731 35.9856 38.2011 35.9696 38.6597C35.9536 39.0971 35.9536 39.5451 35.9696 40.0037C35.9856 40.4624 36.1002 40.7931 36.3136 40.9957C36.5269 41.1931 36.8122 41.2917 37.1696 41.2917C37.4789 41.2917 37.7376 41.2277 37.9456 41.0997C38.1536 40.9664 38.3002 40.7264 38.3856 40.3797C38.4016 40.3051 38.4282 40.2544 38.4656 40.2277C38.5029 40.2011 38.5509 40.1877 38.6096 40.1877H39.3696C39.4176 40.1877 39.4576 40.2037 39.4896 40.2357C39.5269 40.2677 39.5429 40.3077 39.5376 40.3557C39.5322 40.6171 39.4736 40.8597 39.3616 41.0837C39.2496 41.3077 39.0922 41.5051 38.8896 41.6757C38.6869 41.8411 38.4416 41.9717 38.1536 42.0677C37.8656 42.1637 37.5402 42.2117 37.1776 42.2117ZM40.6783 42.1317C40.625 42.1317 40.5796 42.1131 40.5423 42.0757C40.505 42.0384 40.4863 41.9931 40.4863 41.9397V36.7237C40.4863 36.6704 40.505 36.6251 40.5423 36.5877C40.5796 36.5504 40.625 36.5317 40.6783 36.5317H41.4223C41.4756 36.5317 41.521 36.5504 41.5583 36.5877C41.5956 36.6251 41.6143 36.6704 41.6143 36.7237V41.1797H44.1503C44.209 41.1797 44.257 41.1984 44.2943 41.2357C44.3316 41.2731 44.3503 41.3211 44.3503 41.3797V41.9397C44.3503 41.9931 44.3316 42.0384 44.2943 42.0757C44.257 42.1131 44.209 42.1317 44.1503 42.1317H40.6783ZM45.3189 42.1317C45.2656 42.1317 45.2203 42.1131 45.1829 42.0757C45.1456 42.0384 45.1269 41.9931 45.1269 41.9397V36.7317C45.1269 36.6731 45.1456 36.6251 45.1829 36.5877C45.2203 36.5504 45.2656 36.5317 45.3189 36.5317H48.8389C48.8976 36.5317 48.9456 36.5504 48.9829 36.5877C49.0203 36.6251 49.0389 36.6731 49.0389 36.7317V37.2597C49.0389 37.3131 49.0203 37.3584 48.9829 37.3957C48.9456 37.4331 48.8976 37.4517 48.8389 37.4517H46.2069V38.8677H48.6629C48.7216 38.8677 48.7696 38.8864 48.8069 38.9237C48.8443 38.9557 48.8629 39.0011 48.8629 39.0597V39.5557C48.8629 39.6144 48.8443 39.6624 48.8069 39.6997C48.7696 39.7317 48.7216 39.7477 48.6629 39.7477H46.2069V41.2117H48.9029C48.9616 41.2117 49.0096 41.2304 49.0469 41.2677C49.0843 41.3051 49.1029 41.3531 49.1029 41.4117V41.9397C49.1029 41.9931 49.0843 42.0384 49.0469 42.0757C49.0096 42.1131 48.9616 42.1317 48.9029 42.1317H45.3189Z" fill="#212B36"/>
</g>
<defs>
<filter id="filter0_d_298_2213" x="15.1113" y="26.4518" width="40.761" height="19.76" filterUnits="userSpaceOnUse" color-interpolation-filters="sRGB">
<feFlood flood-opacity="0" result="BackgroundImageFix"/>
<feColorMatrix in="SourceAlpha" type="matrix" values="0 0 0 0 0 0 0 0 0 0 0 0 0 0 0 0 0 0 127 0" result="hardAlpha"/>
<feOffset dy="2"/>
<feGaussianBlur stdDeviation="1"/>
<feComposite in2="hardAlpha" operator="out"/>
<feColorMatrix type="matrix" values="0 0 0 0 0 0 0 0 0 0 0 0 0 0 0 0 0 0 0.15 0"/>
<feBlend mode="normal" in2="BackgroundImageFix" result="effect1_dropShadow_298_2213"/>
<feBlend mode="normal" in="SourceGraphic" in2="effect1_dropShadow_298_2213" result="shape"/>
</filter>
<linearGradient id="paint0_linear_298_2213" x1="82.2441" y1="46.2328" x2="104.525" y2="93.9476" gradientUnits="userSpaceOnUse">
<stop stop-color="#231F20"/>
<stop offset="1" stop-color="white"/>
</linearGradient>
<linearGradient id="paint1_linear_298_2213" x1="29.0943" y1="49.4706" x2="42.2056" y2="75.3904" gradientUnits="userSpaceOnUse">
<stop stop-color="white"/>
<stop offset="1" stop-color="#A1A1A1"/>
</linearGradient>
<linearGradient id="paint2_linear_298_2213" x1="-260.57" y1="321.557" x2="-227.286" y2="354.841" gradientUnits="userSpaceOnUse">
<stop stop-color="#B8B8B8"/>
<stop offset="0.164" stop-color="#E8E8E8"/>
<stop offset="0.291" stop-color="white"/>
<stop offset="0.552" stop-color="#ABABAB"/>
<stop offset="0.782" stop-color="#E8E8E8"/>
<stop offset="0.909" stop-color="#A2A2A2"/>
<stop offset="1" stop-color="#717171"/>
</linearGradient>
<linearGradient id="paint3_linear_298_2213" x1="-275.544" y1="327.829" x2="-242.259" y2="361.113" gradientUnits="userSpaceOnUse">
<stop stop-color="#B8B8B8"/>
<stop offset="0.164" stop-color="#E8E8E8"/>
<stop offset="0.291" stop-color="white"/>
<stop offset="0.552" stop-color="#ABABAB"/>
<stop offset="0.782" stop-color="#E8E8E8"/>
<stop offset="0.909" stop-color="#A2A2A2"/>
<stop offset="1" stop-color="#717171"/>
</linearGradient>
<linearGradient id="paint4_linear_298_2213" x1="-12.2514" y1="46.2329" x2="-34.5323" y2="93.9476" gradientUnits="userSpaceOnUse">
<stop stop-color="#231F20"/>
<stop offset="1" stop-color="white"/>
</linearGradient>
<linearGradient id="paint5_linear_298_2213" x1="40.8982" y1="49.4707" x2="27.7869" y2="75.3905" gradientUnits="userSpaceOnUse">
<stop stop-color="white"/>
<stop offset="1" stop-color="#A1A1A1"/>
</linearGradient>
<linearGradient id="paint6_linear_298_2213" x1="-298.165" y1="-202.259" x2="-264.881" y2="-235.544" gradientUnits="userSpaceOnUse">
<stop stop-color="#B8B8B8"/>
<stop offset="0.164" stop-color="#E8E8E8"/>
<stop offset="0.291" stop-color="white"/>
<stop offset="0.552" stop-color="#ABABAB"/>
<stop offset="0.782" stop-color="#E8E8E8"/>
<stop offset="0.909" stop-color="#A2A2A2"/>
<stop offset="1" stop-color="#717171"/>
</linearGradient>
<linearGradient id="paint7_linear_298_2213" x1="-283.18" y1="-195.977" x2="-249.896" y2="-229.261" gradientUnits="userSpaceOnUse">
<stop stop-color="#B8B8B8"/>
<stop offset="0.164" stop-color="#E8E8E8"/>
<stop offset="0.291" stop-color="white"/>
<stop offset="0.552" stop-color="#ABABAB"/>
<stop offset="0.782" stop-color="#E8E8E8"/>
<stop offset="0.909" stop-color="#A2A2A2"/>
<stop offset="1" stop-color="#717171"/>
</linearGradient>
<linearGradient id="paint8_linear_298_2213" x1="19.5425" y1="-9.14411e-07" x2="43.1371" y2="64.2395" gradientUnits="userSpaceOnUse">
<stop stop-color="white"/>
<stop offset="0.403279" stop-color="#D0D2D3"/>
<stop offset="0.463551" stop-color="#333333"/>
<stop offset="1"/>
</linearGradient>
<linearGradient id="paint9_linear_298_2213" x1="64.0882" y1="3.42174" x2="64.0882" y2="70.6126" gradientUnits="userSpaceOnUse">
<stop stop-color="#B8B8B8"/>
<stop offset="0.164" stop-color="#E8E8E8"/>
<stop offset="0.291" stop-color="white"/>
<stop offset="0.552" stop-color="#ABABAB"/>
<stop offset="0.782" stop-color="#E8E8E8"/>
<stop offset="0.909" stop-color="#A2A2A2"/>
<stop offset="1" stop-color="#717171"/>
</linearGradient>
<linearGradient id="paint10_linear_298_2213" x1="61.8589" y1="1.87782" x2="61.8589" y2="63.9201" gradientUnits="userSpaceOnUse">
<stop stop-color="#B8B8B8"/>
<stop offset="0.164" stop-color="#E8E8E8"/>
<stop offset="0.291" stop-color="white"/>
<stop offset="0.552" stop-color="#ABABAB"/>
<stop offset="0.782" stop-color="#E8E8E8"/>
<stop offset="0.909" stop-color="#A2A2A2"/>
<stop offset="1" stop-color="#717171"/>
</linearGradient>
</defs>
</svg>
