<svg width="62" height="64" viewBox="0 0 62 64" fill="none" xmlns="http://www.w3.org/2000/svg">
<path d="M37.8431 63.0381L43.0755 54.3983L52.913 56.7364L40.7373 27.6803L25.6675 33.9962L37.8431 63.0381Z" fill="#F11616"/>
<path style="mix-blend-mode:soft-light" d="M37.8431 63.0381L43.0755 54.3983L52.913 56.7364L40.7373 27.6803L25.6675 33.9962L37.8431 63.0381Z" fill="url(#paint0_linear_630_81822)"/>
<mask id="mask0_630_81822" style="mask-type:luminance" maskUnits="userSpaceOnUse" x="25" y="27" width="28" height="37">
<path d="M37.8473 63.0452L43.0783 54.4025L52.9072 56.7335L40.7315 27.6802L25.6731 33.9904L37.8473 63.0452Z" fill="white"/>
</mask>
<g mask="url(#mask0_630_81822)">
<g style="mix-blend-mode:multiply" opacity="0.4">
<path d="M26.7795 35.3362C26.8841 35.7735 26.9886 36.2059 27.0932 36.6337C28.1055 36.434 29.1035 36.2487 30.1015 35.9208C29.9732 35.5216 29.9589 35.0654 29.7023 34.6947C28.7328 34.9228 27.8061 35.265 26.7795 35.3362ZM29.7023 34.6947C29.9589 35.0654 29.9732 35.5216 30.1015 35.9208C30.4436 35.8257 30.7811 35.7307 31.1137 35.6356C31.0567 35.1937 30.9284 34.7945 30.7003 34.4523C30.3771 34.5378 30.0444 34.6186 29.7023 34.6947ZM30.7003 34.4523C30.9284 34.7945 31.0567 35.1937 31.1137 35.6356C31.57 35.5216 31.9977 35.3933 32.4539 35.265C32.2971 34.8658 32.3256 34.2955 31.9977 34.0959C31.57 34.2194 31.1375 34.3382 30.7003 34.4523ZM31.9977 34.0959C32.3256 34.2955 32.2971 34.8658 32.4539 35.265C32.7248 35.1937 32.9957 35.0796 33.2808 34.9941C33.0955 34.6376 33.2238 33.939 32.7961 33.8392C32.5299 33.9248 32.2638 34.0103 31.9977 34.0959ZM32.7961 33.8392C33.2238 33.939 33.0955 34.6376 33.2808 34.9941C33.6087 34.8658 33.9224 34.7374 34.2503 34.6091C34.1505 34.1814 34.1363 33.4828 33.7371 33.5113C33.4234 33.6254 33.1097 33.7347 32.7961 33.8392ZM33.7371 33.5113C34.1363 33.4828 34.1505 34.1814 34.2503 34.6091C34.6638 34.4523 35.063 34.2812 35.4622 34.0959C35.3909 33.6396 35.2911 32.9695 34.9061 33.0694C34.5164 33.2214 34.1268 33.3688 33.7371 33.5113ZM34.9061 33.0694C35.2911 32.9695 35.3909 33.6396 35.4622 34.0959C35.7901 33.9533 36.1323 33.8107 36.4744 33.6682C36.3461 33.1406 36.3604 32.4991 35.8899 32.6702C35.5667 32.8032 35.2388 32.9363 34.9061 33.0694ZM35.8899 32.6702C36.3604 32.4991 36.3461 33.1406 36.4744 33.6682C36.8451 33.5256 37.2016 33.326 37.5722 33.1549C37.4724 32.7985 37.5722 31.9715 36.9592 32.2139C36.6075 32.366 36.2511 32.5181 35.8899 32.6702ZM36.9592 32.2139C37.5722 31.9715 37.4724 32.7985 37.5722 33.1549C37.7718 33.0694 37.9714 32.9696 38.1568 32.8698C38.0142 32.4705 38.114 31.7577 37.5295 31.9573C37.3394 32.0428 37.1493 32.1284 36.9592 32.2139ZM37.5295 31.9573C38.114 31.7577 38.0142 32.4705 38.1568 32.8698C38.3992 32.7557 38.6273 32.6416 38.8554 32.5276C38.7128 32.1284 38.7984 31.4013 38.2138 31.6579C37.9857 31.7624 37.7576 31.8622 37.5295 31.9573ZM38.2138 31.6579C38.7984 31.4013 38.7128 32.1284 38.8554 32.5276C39.2071 32.347 39.5635 32.1664 39.9247 31.9858C39.8486 31.6816 39.7726 31.3727 39.6966 31.0591C39.5112 31.1304 39.4399 31.1304 39.2546 31.1874C38.9124 31.349 38.5655 31.5058 38.2138 31.6579ZM39.2546 31.1874C39.4399 31.1304 39.5112 31.1304 39.6966 31.0591C39.7726 31.3727 39.8486 31.6816 39.9247 31.9858C40.2954 31.7862 40.6756 31.5866 41.0653 31.387C40.9892 31.0924 40.9132 30.7977 40.8371 30.5031C40.6518 30.5743 40.5663 30.5886 40.3809 30.6741C40.0007 30.8452 39.6253 31.0163 39.2546 31.1874ZM40.3809 30.6741C40.5663 30.5886 40.6518 30.5743 40.8371 30.5031C40.9132 30.7977 40.9892 31.0924 41.0653 31.387C41.2934 31.2634 41.5262 31.1399 41.7639 31.0163C41.6878 30.7217 41.6118 30.4318 41.5357 30.1466C41.3504 30.2322 41.2649 30.2607 41.0653 30.3462C40.8371 30.4508 40.609 30.5601 40.3809 30.6741ZM41.0653 30.3462C41.2649 30.2607 41.3504 30.2322 41.5357 30.1466C41.6118 30.4318 41.6878 30.7217 41.7639 31.0163C42.1345 30.8025 42.5195 30.6029 42.9187 30.4033C42.8427 30.1276 42.7666 29.852 42.6906 29.5763C42.5052 29.6761 42.4054 29.7047 42.2058 29.8045C41.8256 29.985 41.4454 30.1656 41.0653 30.3462ZM42.2058 29.8045C42.4054 29.7047 42.5052 29.6761 42.6906 29.5763C42.7666 29.852 42.8427 30.1276 42.9187 30.4033C43.104 30.3035 43.3036 30.2037 43.489 30.1039C43.4129 29.8377 43.3417 29.5716 43.2751 29.3055C43.0755 29.391 42.9757 29.4338 42.7761 29.5336C42.586 29.6191 42.3959 29.7094 42.2058 29.8045ZM27.0932 36.6337C27.3688 37.6982 27.6682 38.7437 27.9914 39.7702C28.8468 42.3223 29.9161 44.7745 31.0282 47.1982C31.3038 47.8065 31.5795 48.4148 31.8551 49.0232C32.6393 50.8623 33.4804 52.73 34.2361 54.5835C35.3053 54.1843 35.1057 54.2698 36.1465 53.8563C35.2768 51.3471 34.2503 48.9091 33.3664 46.3998C33.1383 45.782 32.9101 45.169 32.682 44.5607C32.0119 42.7072 31.3989 40.8538 30.8856 38.9861C30.6005 37.9786 30.3391 36.9568 30.1015 35.9208C29.1035 36.2487 28.1055 36.434 27.0932 36.6337ZM30.1015 35.9208C30.3391 36.9568 30.6005 37.9786 30.8856 38.9861C31.3989 40.8538 32.0119 42.7072 32.682 44.5607C32.9101 45.169 33.1383 45.782 33.3664 46.3998C34.2503 48.9091 35.2768 51.3471 36.1465 53.8563C36.503 53.7138 36.7311 53.5997 36.9449 53.5142C35.9754 51.0477 35.1057 48.5954 34.2218 46.0862C34.0032 45.4684 33.7893 44.8506 33.5802 44.2327C32.9672 42.3936 32.3826 40.5401 31.8694 38.6724C31.6032 37.6649 31.3514 36.6527 31.1137 35.6356C30.7811 35.7307 30.4436 35.8257 30.1015 35.9208ZM31.1137 35.6356C31.3514 36.6527 31.6032 37.6649 31.8694 38.6724C32.3826 40.5401 32.9672 42.3936 33.5802 44.2327C33.7893 44.8506 34.0032 45.4684 34.2218 46.0862C35.1057 48.5954 35.9754 51.0477 36.9449 53.5142C37.2158 53.3716 37.4582 53.2575 37.9002 53.0722C36.8024 50.1637 35.9184 47.184 34.9774 44.2327C34.7683 43.5674 34.5592 42.9021 34.3501 42.2367C33.9414 40.8966 33.5612 39.5659 33.2095 38.2447C33.0765 37.7505 32.9482 37.2562 32.8246 36.762C32.6915 36.2677 32.568 35.7687 32.4539 35.265C31.9977 35.3933 31.57 35.5216 31.1137 35.6356ZM32.4539 35.265C32.568 35.7687 32.6915 36.2677 32.8246 36.762C32.9482 37.2562 33.0765 37.7505 33.2095 38.2447C33.5612 39.5659 33.9414 40.8966 34.3501 42.2367C34.5592 42.9021 34.7683 43.5674 34.9774 44.2327C35.9184 47.184 36.8024 50.1637 37.9002 53.0722C38.1853 52.9581 38.5988 52.7871 39.055 52.6017C38 49.4936 36.9307 46.4711 35.8186 43.4058C35.6 42.807 35.3861 42.2035 35.177 41.5952C34.9774 40.9869 34.7826 40.3785 34.5925 39.7702C34.2931 38.7009 33.8939 37.6174 33.6373 36.4768C33.5137 35.9826 33.3949 35.4883 33.2808 34.9941C32.9957 35.0796 32.7248 35.1937 32.4539 35.265ZM33.2808 34.9941C33.3949 35.4883 33.5137 35.9826 33.6373 36.4768C33.8939 37.6174 34.2931 38.7009 34.5925 39.7702C34.7826 40.3785 34.9774 40.9869 35.177 41.5952C35.3861 42.2035 35.6 42.807 35.8186 43.4058C36.9307 46.4711 38 49.4936 39.055 52.6017C39.611 52.3736 40.2241 52.1027 40.7944 51.8603C39.6395 48.8236 38.4134 45.8723 37.1018 42.9211C36.8451 42.3318 36.598 41.7425 36.3604 41.1532C35.7045 39.4851 35.12 37.817 34.6353 36.1061C34.4927 35.6119 34.3644 35.1129 34.2503 34.6091C33.9224 34.7374 33.6087 34.8658 33.2808 34.9941ZM34.2503 34.6091C34.3644 35.1129 34.4927 35.6119 34.6353 36.1061C35.12 37.817 35.7045 39.4851 36.3604 41.1532C36.598 41.7425 36.8451 42.3318 37.1018 42.9211C38.4134 45.8723 39.6395 48.8236 40.7944 51.8603C41.5215 51.5609 42.1916 51.2758 42.5765 51.1047C41.3647 48.1107 40.053 45.2022 38.7271 42.2795C37.6578 40.0554 36.7026 37.8455 35.9184 35.5644C35.7568 35.0891 35.6048 34.5996 35.4622 34.0959C35.063 34.2812 34.6638 34.4523 34.2503 34.6091ZM35.4622 34.0959C35.6048 34.5996 35.7568 35.0891 35.9184 35.5644C36.7026 37.8455 37.6578 40.0554 38.7271 42.2795C40.053 45.2022 41.3647 48.1107 42.5765 51.1047C42.8997 50.9621 43.2181 50.8196 43.5317 50.677C42.3912 47.74 40.9655 45.0026 39.7108 42.1369C38.6415 39.87 37.6863 37.5604 36.8879 35.1509C36.7358 34.6662 36.598 34.1719 36.4744 33.6682C36.1323 33.8107 35.7901 33.9533 35.4622 34.0959ZM36.4744 33.6682C36.598 34.1719 36.7358 34.6662 36.8879 35.1509C37.6863 37.5604 38.6415 39.87 39.7108 42.1369C40.9655 45.0026 42.3912 47.74 43.5317 50.677C43.8834 50.5249 44.2304 50.3728 44.5725 50.2208C43.5603 47.8256 42.4767 45.4731 41.4645 43.1207C40.2669 40.2835 38.8411 37.5461 37.9857 34.6234C37.8336 34.1386 37.6958 33.6491 37.5722 33.1549C37.2016 33.326 36.8451 33.5256 36.4744 33.6682ZM37.5722 33.1549C37.6958 33.6491 37.8336 34.1386 37.9857 34.6234C38.8411 37.5461 40.2669 40.2835 41.4645 43.1207C42.4767 45.4731 43.5603 47.8256 44.5725 50.2208C44.7531 50.1447 44.9337 50.0687 45.1143 49.9926C44.0593 47.626 43.0613 45.2307 42.0062 42.8783C40.8229 40.0554 39.5255 37.2895 38.5845 34.3382C38.4324 33.8535 38.2899 33.364 38.1568 32.8698C37.9714 32.9696 37.7718 33.0694 37.5722 33.1549ZM38.1568 32.8698C38.2899 33.364 38.4324 33.8535 38.5845 34.3382C39.5255 37.2895 40.8229 40.0554 42.0062 42.8783C43.0613 45.2307 44.0593 47.626 45.1143 49.9926C45.3329 49.8976 45.5468 49.8026 45.7559 49.7075C44.7721 47.3123 43.7741 44.9171 42.6906 42.5504C41.4217 39.7417 40.2383 36.8903 39.2831 33.9676C39.131 33.4923 38.9885 33.0123 38.8554 32.5276C38.6273 32.6416 38.3992 32.7557 38.1568 32.8698ZM38.8554 32.5276C38.9885 33.0123 39.131 33.4923 39.2831 33.9676C40.2383 36.8903 41.4217 39.7417 42.6906 42.5504C43.7741 44.9171 44.7721 47.3123 45.7559 49.7075C46.0885 49.5554 46.4212 49.4081 46.7539 49.2655C45.984 47.4834 45.2284 45.687 44.4585 43.8906C42.9615 40.4688 41.3932 37.0756 40.3381 33.4543C40.1861 32.96 40.0482 32.4705 39.9247 31.9858C39.5635 32.1664 39.2071 32.347 38.8554 32.5276ZM39.9247 31.9858C40.0482 32.4705 40.1861 32.96 40.3381 33.4543C41.3932 37.0756 42.9615 40.4688 44.4585 43.8906C45.2284 45.687 45.984 47.4834 46.7539 49.2655C47.1056 49.1135 47.4572 48.9566 47.8089 48.795C47.0533 46.9986 46.2834 45.2022 45.5135 43.4201C44.0308 39.9841 42.5765 36.4768 41.493 32.8698C41.3409 32.3755 41.1983 31.8813 41.0653 31.387C40.6756 31.5866 40.2954 31.7862 39.9247 31.9858ZM41.0653 31.387C41.1983 31.8813 41.3409 32.3755 41.493 32.8698C42.5765 36.4768 44.0308 39.9841 45.5135 43.4201C46.2834 45.2022 47.0533 46.9986 47.8089 48.795C48.0275 48.7 48.2461 48.6049 48.4647 48.5099C47.5808 46.7278 46.9107 44.8886 46.1123 43.0922C44.6581 39.6134 43.3464 36.0919 42.1916 32.4706C42.0395 31.9858 41.8969 31.5011 41.7639 31.0163C41.5262 31.1399 41.2934 31.2634 41.0653 31.387ZM41.7639 31.0163C41.8969 31.5011 42.0395 31.9858 42.1916 32.4706C43.3464 36.0919 44.6581 39.6134 46.1123 43.0922C46.9107 44.8886 47.5808 46.7278 48.4647 48.5099C48.8164 48.3578 49.1728 48.201 49.534 48.0394C48.978 46.8846 48.5075 45.6299 47.9657 44.4466C47.7186 43.8383 47.4762 43.23 47.2386 42.6217C45.8984 39.0431 44.4727 35.5073 43.3464 31.9003C43.2038 31.406 43.0613 30.907 42.9187 30.4033C42.5195 30.6029 42.1345 30.8025 41.7639 31.0163ZM42.9187 30.4033C43.0613 30.907 43.2038 31.406 43.3464 31.9003C44.4727 35.5073 45.8984 39.0431 47.2386 42.6217C47.4762 43.23 47.7186 43.8383 47.9657 44.4466C48.5075 45.6299 48.978 46.8846 49.534 48.0394C49.7051 47.9634 49.881 47.8873 50.0615 47.8113C49.5911 46.5852 49.0065 45.4303 48.5645 44.19C48.3174 43.5817 48.0703 42.9734 47.8232 42.365C46.4402 38.815 45.0002 35.2507 43.9167 31.6009C43.7741 31.1066 43.6316 30.6076 43.489 30.1039C43.3036 30.2037 43.104 30.3035 42.9187 30.4033ZM34.2361 54.5835C34.4642 55.1347 34.6875 55.6813 34.9061 56.223C36.1465 59.545 37.5152 62.7814 38.998 65.975C39.2071 66.4217 39.4162 66.8637 39.6253 67.3009C39.8439 67.7381 40.0673 68.1753 40.2954 68.6126C41.1651 70.3519 42.0775 72.0628 43.0613 73.7166C43.8026 73.1463 44.6296 72.6758 45.3709 72.1626C43.9452 70.7084 42.8902 68.912 41.8351 67.1441C41.474 66.5358 41.1318 65.9179 40.8086 65.2906C39.1691 62.1683 37.9572 58.8179 36.7738 55.4532C36.5647 54.9209 36.3556 54.3886 36.1465 53.8563C35.1057 54.2698 35.3053 54.1843 34.2361 54.5835ZM36.1465 53.8563C36.3556 54.3886 36.5647 54.9209 36.7738 55.4532C37.9572 58.8179 39.1691 62.1683 40.8086 65.2906C41.1318 65.9179 41.474 66.5358 41.8351 67.1441C42.8902 68.912 43.9452 70.7084 45.3709 72.1626C45.6276 72.001 45.8842 71.8394 46.1408 71.6779C44.9147 70.0098 43.8597 68.2133 42.8759 66.3884C42.5147 65.7896 42.1678 65.1861 41.8351 64.5778C40.1813 61.5267 38.9267 58.2903 37.5865 55.0967C37.3679 54.574 37.154 54.0464 36.9449 53.5142C36.7311 53.5997 36.503 53.7138 36.1465 53.8563ZM36.9449 53.5142C37.154 54.0464 37.3679 54.574 37.5865 55.0967C38.9267 58.2903 40.1813 61.5267 41.8351 64.5778C42.1678 65.1861 42.5147 65.7896 42.8759 66.3884C43.8597 68.2133 44.9147 70.0098 46.1408 71.6779C46.4925 71.4592 46.8442 71.2454 47.1959 71.0363C46.9487 70.561 46.7064 70.0858 46.4687 69.6106C46.2311 69.1448 45.9935 68.6743 45.7559 68.1991C45.2996 67.2581 44.8292 66.3171 44.3444 65.3762C44.0022 64.7916 43.6743 64.1928 43.3321 63.6083C41.6498 60.6713 40.053 57.6915 38.5702 54.6405C38.3421 54.1272 38.1188 53.6045 37.9002 53.0722C37.4582 53.2575 37.2158 53.3716 36.9449 53.5142ZM37.9002 53.0722C38.1188 53.6045 38.3421 54.1272 38.5702 54.6405C40.053 57.6915 41.6498 60.6713 43.3321 63.6083C43.6743 64.1928 44.0022 64.7916 44.3444 65.3762C44.8292 66.3171 45.2996 67.2581 45.7559 68.1991C45.9935 68.6743 46.2311 69.1448 46.4687 69.6106C46.7064 70.0858 46.9487 70.561 47.1959 71.0363C47.4145 70.9032 47.6378 70.7749 47.8659 70.6513C47.5665 70.0668 47.2814 69.4822 47.0105 68.8977C46.7349 68.3084 46.4592 67.7239 46.1836 67.1441C45.6418 65.9607 45.0858 64.7916 44.4727 63.6653C44.1876 63.152 43.9072 62.634 43.6316 62.1113C42.2343 59.5022 40.8942 56.8646 39.7108 54.1557C39.4922 53.633 39.2736 53.115 39.055 52.6017C38.5988 52.7871 38.1853 52.9581 37.9002 53.0722ZM39.055 52.6017C39.2736 53.115 39.4922 53.633 39.7108 54.1557C40.8942 56.8646 42.2343 59.5022 43.6316 62.1113C43.9072 62.634 44.1876 63.152 44.4727 63.6653C45.0858 64.7916 45.6418 65.9607 46.1836 67.1441C46.4592 67.7239 46.7349 68.3084 47.0105 68.8977C47.2814 69.4822 47.5665 70.0668 47.8659 70.6513C48.1321 70.5088 48.403 70.3662 48.6786 70.2236C47.9943 68.8549 47.424 67.4292 46.8252 66.032C46.6256 65.5663 46.4307 65.0958 46.2406 64.6205C45.8557 63.6796 45.4565 62.7386 45.043 61.8119C44.7294 61.118 44.4204 60.4242 44.1163 59.7303C43.2038 57.6345 42.3199 55.5244 41.4217 53.4286C41.2126 52.9059 41.0035 52.3831 40.7944 51.8603C40.2241 52.1027 39.611 52.3736 39.055 52.6017ZM40.7944 51.8603C41.0035 52.3831 41.2126 52.9059 41.4217 53.4286C42.3199 55.5244 43.2038 57.6345 44.1163 59.7303C44.4204 60.4242 44.7294 61.118 45.043 61.8119C45.4565 62.7386 45.8557 63.6796 46.2406 64.6205C46.4307 65.0958 46.6256 65.5663 46.8252 66.032C47.424 67.4292 47.9943 68.8549 48.6786 70.2236C49.0208 70.043 49.3724 69.8672 49.7336 69.6961C48.8639 67.8569 48.3364 65.8894 47.5523 63.9932C47.3717 63.518 47.1911 63.0427 47.0105 62.5675C46.8299 62.1018 46.6398 61.6313 46.4402 61.156C46.1646 60.4527 45.8889 59.7493 45.6133 59.046C44.8006 56.9216 44.0022 54.7831 43.1896 52.673C42.99 52.1502 42.7856 51.6275 42.5765 51.1047C42.1916 51.2758 41.5215 51.5609 40.7944 51.8603ZM42.5765 51.1047C42.7856 51.6275 42.99 52.1502 43.1896 52.673C44.0022 54.7831 44.8006 56.9216 45.6133 59.046C45.8889 59.7493 46.1646 60.4527 46.4402 61.156C46.6398 61.6313 46.8299 62.1018 47.0105 62.5675C47.1911 63.0427 47.3717 63.518 47.5523 63.9932C48.3364 65.8894 48.8639 67.8569 49.7336 69.6961C50.0378 69.5535 50.3467 69.411 50.6603 69.2684C49.8049 67.529 49.3059 65.6043 48.6073 63.7936C48.3935 63.1948 48.1653 62.596 47.923 61.9972C47.6663 61.3509 47.4097 60.6998 47.1531 60.044C46.1551 57.4207 45.2141 54.7973 44.1591 52.2453C43.95 51.7225 43.7409 51.1998 43.5317 50.677C43.2181 50.8196 42.8997 50.9621 42.5765 51.1047ZM43.5317 50.677C43.7409 51.1998 43.95 51.7225 44.1591 52.2453C45.2141 54.7973 46.1551 57.4207 47.1531 60.044C47.4097 60.6998 47.6663 61.3509 47.923 61.9972C48.1653 62.596 48.3935 63.1948 48.6073 63.7936C49.3059 65.6043 49.8049 67.529 50.6603 69.2684C50.993 69.1068 51.3399 68.95 51.7011 68.7979C50.7031 66.973 50.1899 64.9484 49.477 62.9952C49.2631 62.3394 49.0208 61.6978 48.7784 61.0562C48.5408 60.4384 48.3032 59.8206 48.0655 59.2028C47.1246 56.7363 46.1978 54.2556 45.1998 51.7891C44.9907 51.2663 44.7816 50.7435 44.5725 50.2208C44.2304 50.3728 43.8834 50.5249 43.5317 50.677ZM44.5725 50.2208C44.7816 50.7435 44.9907 51.2663 45.1998 51.7891C46.1978 54.2556 47.1246 56.7363 48.0655 59.2028C48.3032 59.8206 48.5408 60.4384 48.7784 61.0562C49.0208 61.6978 49.2631 62.3394 49.477 62.9952C50.1899 64.9484 50.7031 66.973 51.7011 68.7979C51.8912 68.7124 52.0813 68.6268 52.2714 68.5413C51.4302 66.6023 50.917 64.5778 50.1471 62.6103C49.8905 61.9972 49.6338 61.3842 49.3772 60.7711C48.1083 57.7058 46.982 54.612 45.7416 51.5467C45.5325 51.0239 45.3234 50.5059 45.1143 49.9926C44.9337 50.0687 44.7531 50.1447 44.5725 50.2208ZM45.1143 49.9926C45.3234 50.5059 45.5325 51.0239 45.7416 51.5467C46.982 54.612 48.1083 57.7058 49.3772 60.7711C49.6338 61.3842 49.8905 61.9972 50.1471 62.6103C50.917 64.5778 51.4302 66.6023 52.2714 68.5413C52.509 68.4462 52.7419 68.3464 52.97 68.2419C51.9292 65.8752 51.2021 63.4087 50.2469 61.0277C49.9808 60.3814 49.7194 59.7303 49.4627 59.0745C48.4362 56.4654 47.4667 53.8421 46.3974 51.2615C46.1883 50.7388 45.9745 50.2208 45.7559 49.7075C45.5468 49.8026 45.3329 49.8976 45.1143 49.9926ZM45.7559 49.7075C45.9745 50.2208 46.1883 50.7388 46.3974 51.2615C47.4667 53.8421 48.4362 56.4654 49.4627 59.0745C49.7194 59.7303 49.9808 60.3814 50.2469 61.0277C51.2021 63.4087 51.9292 65.8752 52.97 68.2419C53.3407 68.0898 53.7114 67.933 54.0821 67.7714C53.0698 65.5187 52.3712 63.1235 51.416 60.8281C51.1784 60.2768 50.9455 59.7208 50.7174 59.16C49.5768 56.3799 48.5075 53.5997 47.3955 50.8196C47.1863 50.3063 46.9725 49.7883 46.7539 49.2655C46.4212 49.4081 46.0885 49.5554 45.7559 49.7075ZM46.7539 49.2655C46.9725 49.7883 47.1863 50.3063 47.3955 50.8196C48.5075 53.5997 49.5768 56.3799 50.7174 59.16C50.9455 59.7208 51.1784 60.2768 51.416 60.8281C52.3712 63.1235 53.0698 65.5187 54.0821 67.7714C54.4813 67.6098 54.8852 67.4435 55.2939 67.2724C54.3672 64.9627 53.5118 62.653 52.5423 60.3719C52.3047 59.8111 52.0718 59.2551 51.8437 58.7038C50.6889 55.9236 49.6623 53.115 48.4647 50.3491C48.2461 49.8358 48.0275 49.3178 47.8089 48.795C47.4572 48.9566 47.1056 49.1135 46.7539 49.2655ZM47.8089 48.795C48.0275 49.3178 48.2461 49.8358 48.4647 50.3491C49.6623 53.115 50.6889 55.9236 51.8437 58.7038C52.0718 59.2551 52.3047 59.8111 52.5423 60.3719C53.5118 62.653 54.3672 64.9627 55.2939 67.2724C55.5506 67.1678 55.8072 67.0633 56.0638 66.9587C54.909 64.7346 54.2247 62.3394 53.1981 60.101C52.9605 59.5497 52.7229 58.9984 52.4853 58.4472C51.3162 55.6813 50.2611 52.8583 49.1063 50.0639C48.8972 49.5507 48.6834 49.0327 48.4647 48.5099C48.2461 48.6049 48.0275 48.7 47.8089 48.795ZM48.4647 48.5099C48.6834 49.0327 48.8972 49.5507 49.1063 50.0639C50.2611 52.8583 51.3162 55.6813 52.4853 58.4472C52.7229 58.9984 52.9605 59.5497 53.1981 60.101C54.2247 62.3394 54.909 64.7346 56.0638 66.9587C56.482 66.7876 56.9003 66.6165 57.3185 66.4455C56.2634 63.8934 55.2084 61.2701 54.0536 58.7466C53.6639 57.9101 53.2884 57.069 52.9272 56.223C51.9578 54.0132 51.1023 51.8176 50.1899 49.6077C49.9713 49.0849 49.7526 48.5622 49.534 48.0394C49.1728 48.201 48.8164 48.3578 48.4647 48.5099ZM49.534 48.0394C49.7526 48.5622 49.9713 49.0849 50.1899 49.6077C51.1023 51.8176 51.9578 54.0132 52.9272 56.223C53.2884 57.069 53.6639 57.9101 54.0536 58.7466C55.2084 61.2701 56.2634 63.8934 57.3185 66.4455C57.5276 66.3599 57.7367 66.2744 57.9458 66.1888C56.7767 63.6938 55.7502 61.0562 54.5953 58.5327C54.2246 57.6868 53.8587 56.8409 53.4975 55.9949C52.5423 53.7708 51.6584 51.5895 50.7174 49.3796C50.4988 48.8568 50.2802 48.3341 50.0615 47.8113C49.881 47.8873 49.7051 47.9634 49.534 48.0394Z" fill="url(#paint1_linear_630_81822)" fill-opacity="0.5"/>
</g>
</g>
<path d="M49.0636 55.8239L37.7861 28.9206L39.3259 28.2648L51.0596 56.2944L49.0636 55.8239Z" fill="url(#paint2_linear_630_81822)"/>
<path d="M38.8268 61.427L27.0789 33.3974L28.6186 32.7558L39.8961 59.6591L38.8268 61.427Z" fill="url(#paint3_linear_630_81822)"/>
<path d="M24.142 63.0382L18.9239 54.3983L9.08643 56.7365L21.2621 27.6803L36.3177 33.9963L24.142 63.0382Z" fill="#F11616"/>
<path style="mix-blend-mode:soft-light" d="M24.142 63.0382L18.9239 54.3983L9.08643 56.7365L21.2621 27.6803L36.3177 33.9963L24.142 63.0382Z" fill="url(#paint4_linear_630_81822)"/>
<mask id="mask1_630_81822" style="mask-type:luminance" maskUnits="userSpaceOnUse" x="9" y="27" width="28" height="37">
<path d="M24.1463 63.0452L18.9168 54.4025L9.08789 56.7336L21.2635 27.6803L36.322 33.9905L24.1463 63.0452Z" fill="white"/>
</mask>
<g mask="url(#mask1_630_81822)">
<g style="mix-blend-mode:multiply" opacity="0.4">
<path d="M35.2198 35.3363C35.1152 35.7735 35.0107 36.206 34.9061 36.6337C33.8939 36.4341 32.8959 36.2488 31.8979 35.9209C32.0262 35.5216 32.0262 35.0654 32.2828 34.6947C33.2666 34.9228 34.1933 35.265 35.2198 35.3363ZM32.2828 34.6947C32.0262 35.0654 32.0262 35.5216 31.8979 35.9209C31.5557 35.8258 31.2135 35.7308 30.8714 35.6357C30.9426 35.1937 31.071 34.7945 31.2991 34.4524C31.6222 34.5379 31.9501 34.6187 32.2828 34.6947ZM31.2991 34.4524C31.071 34.7945 30.9426 35.1937 30.8714 35.6357C30.4294 35.5216 29.9874 35.3933 29.5454 35.265C29.7023 34.8658 29.6595 34.2955 30.0017 34.0959C30.4294 34.2195 30.8618 34.3383 31.2991 34.4524ZM30.0017 34.0959C29.6595 34.2955 29.7023 34.8658 29.5454 35.265C29.2745 35.1937 28.9894 35.0797 28.7185 34.9941C28.9039 34.6377 28.7755 33.9391 29.2033 33.8393C29.4694 33.9248 29.7355 34.0104 30.0017 34.0959ZM29.2033 33.8393C28.7755 33.9391 28.9039 34.6377 28.7185 34.9941C28.3906 34.8658 28.0627 34.7375 27.7348 34.6092C27.8488 34.1815 27.8631 33.4829 28.2623 33.5114C28.5759 33.6254 28.8896 33.7347 29.2033 33.8393ZM28.2623 33.5114C27.8631 33.4829 27.8488 34.1815 27.7348 34.6092C27.3356 34.4524 26.9364 34.2813 26.5372 34.0959C26.6085 33.6397 26.7083 32.9696 27.0789 33.0694C27.4781 33.2215 27.8726 33.3688 28.2623 33.5114ZM27.0789 33.0694C26.7083 32.9696 26.6085 33.6397 26.5372 34.0959C26.195 33.9534 25.8671 33.8108 25.5249 33.6682C25.639 33.1407 25.639 32.4991 26.0952 32.6702C26.4279 32.8033 26.7558 32.9363 27.0789 33.0694ZM26.0952 32.6702C25.639 32.4991 25.639 33.1407 25.5249 33.6682C25.1542 33.5256 24.7835 33.326 24.4128 33.155C24.5269 32.7985 24.4271 31.9716 25.0259 32.214C25.3871 32.3661 25.7435 32.5181 26.0952 32.6702ZM25.0259 32.214C24.4271 31.9716 24.5269 32.7985 24.4128 33.155C24.2275 33.0694 24.0279 32.9696 23.8283 32.8698C23.9709 32.4706 23.8853 31.7578 24.4556 31.9574C24.6457 32.0429 24.8358 32.1284 25.0259 32.214ZM24.4556 31.9574C23.8853 31.7578 23.9709 32.4706 23.8283 32.8698C23.6002 32.7558 23.3721 32.6417 23.144 32.5276C23.2865 32.1284 23.1867 31.4013 23.7713 31.6579C23.9994 31.7625 24.2275 31.8623 24.4556 31.9574ZM23.7713 31.6579C23.1867 31.4013 23.2865 32.1284 23.144 32.5276C22.7828 32.347 22.4263 32.1665 22.0747 31.9859C22.1507 31.6817 22.2267 31.3728 22.3028 31.0591C22.4739 31.1304 22.5594 31.1304 22.7448 31.1875C23.0869 31.349 23.4291 31.5059 23.7713 31.6579ZM22.7448 31.1875C22.5594 31.1304 22.4739 31.1304 22.3028 31.0591C22.2267 31.3728 22.1507 31.6817 22.0747 31.9859C21.6945 31.7863 21.3143 31.5867 20.9341 31.3871C21.0101 31.0924 21.0862 30.7978 21.1622 30.5031C21.3475 30.5744 21.4331 30.5887 21.6184 30.6742C21.9986 30.8453 22.3741 31.0164 22.7448 31.1875ZM21.6184 30.6742C21.4331 30.5887 21.3475 30.5744 21.1622 30.5031C21.0862 30.7978 21.0101 31.0924 20.9341 31.3871C20.706 31.2635 20.4731 31.1399 20.2355 31.0164C20.3115 30.7217 20.3876 30.4318 20.4636 30.1467C20.6489 30.2322 20.7345 30.2607 20.9341 30.3463C21.1622 30.4508 21.3903 30.5601 21.6184 30.6742ZM20.9341 30.3463C20.7345 30.2607 20.6489 30.2322 20.4636 30.1467C20.3876 30.4318 20.3115 30.7217 20.2355 31.0164C19.8505 30.8025 19.4656 30.6029 19.0807 30.4033C19.1567 30.1277 19.228 29.852 19.2945 29.5764C19.4941 29.6762 19.5939 29.7047 19.7935 29.8045C20.1737 29.9851 20.5539 30.1657 20.9341 30.3463ZM19.7935 29.8045C19.5939 29.7047 19.4941 29.6762 19.2945 29.5764C19.228 29.852 19.1567 30.1277 19.0807 30.4033C18.8953 30.3035 18.6957 30.2037 18.5104 30.1039C18.5864 29.8378 18.6577 29.5716 18.7242 29.3055C18.9238 29.3911 19.0236 29.4338 19.2232 29.5336C19.4133 29.6192 19.6034 29.7095 19.7935 29.8045ZM34.9061 36.6337C34.6305 37.6982 34.3311 38.7438 34.0079 39.7703C33.1382 42.3223 32.069 44.7746 30.9712 47.1983C30.6955 47.8066 30.4199 48.4149 30.1442 49.0232C29.3458 50.8624 28.5189 52.7301 27.749 54.5835C26.6797 54.1843 26.8936 54.2699 25.8528 53.8564C26.7225 51.3471 27.749 48.9092 28.6187 46.3999C28.8563 45.7821 29.0845 45.169 29.3031 44.5607C29.9732 42.7073 30.6005 40.8538 31.1137 38.9861C31.3989 37.9786 31.6603 36.9569 31.8979 35.9209C32.8959 36.2488 33.8939 36.4341 34.9061 36.6337ZM31.8979 35.9209C31.6603 36.9569 31.3989 37.9786 31.1137 38.9861C30.6005 40.8538 29.9732 42.7073 29.3031 44.5607C29.0845 45.169 28.8563 45.7821 28.6187 46.3999C27.749 48.9092 26.7225 51.3471 25.8528 53.8564C25.4821 53.7138 25.2683 53.5998 25.0544 53.5142C26.0097 51.0477 26.8936 48.5955 27.7775 46.0862C27.9962 45.4684 28.2053 44.8506 28.4049 44.2328C29.0322 42.3936 29.6025 40.5402 30.1157 38.6725C30.3914 37.665 30.6432 36.6527 30.8714 35.6357C31.2135 35.7308 31.5557 35.8258 31.8979 35.9209ZM30.8714 35.6357C30.6432 36.6527 30.3914 37.665 30.1157 38.6725C29.6025 40.5402 29.0322 42.3936 28.4049 44.2328C28.2053 44.8506 27.9962 45.4684 27.7775 46.0862C26.8936 48.5955 26.0097 51.0477 25.0544 53.5142C24.7835 53.3717 24.5412 53.2576 24.0849 53.0723C25.1827 50.1638 26.0667 47.184 27.0077 44.2328C27.2263 43.5675 27.4354 42.9021 27.635 42.2368C28.0437 40.8966 28.4286 39.5659 28.7898 38.2448C28.9229 37.7505 29.0512 37.2563 29.1747 36.762C29.2983 36.2678 29.4219 35.7688 29.5454 35.265C29.9874 35.3933 30.4294 35.5216 30.8714 35.6357ZM29.5454 35.265C29.4219 35.7688 29.2983 36.2678 29.1747 36.762C29.0512 37.2563 28.9229 37.7505 28.7898 38.2448C28.4286 39.5659 28.0437 40.8966 27.635 42.2368C27.4354 42.9021 27.2263 43.5675 27.0077 44.2328C26.0667 47.184 25.1827 50.1638 24.0849 53.0723C23.814 52.9582 23.4006 52.7871 22.9301 52.6018C23.9994 49.4937 25.0544 46.4712 26.1807 43.4059C26.3993 42.8071 26.6085 42.2035 26.8081 41.5952C27.0172 40.9869 27.2168 40.3786 27.4069 39.7703C27.7063 38.701 28.0912 37.6175 28.3478 36.4769C28.4809 35.9826 28.6045 35.4884 28.7185 34.9941C28.9894 35.0797 29.2745 35.1937 29.5454 35.265ZM28.7185 34.9941C28.6045 35.4884 28.4809 35.9826 28.3478 36.4769C28.0912 37.6175 27.7063 38.701 27.4069 39.7703C27.2168 40.3786 27.0172 40.9869 26.8081 41.5952C26.6085 42.2035 26.3993 42.8071 26.1807 43.4059C25.0544 46.4712 23.9994 49.4937 22.9301 52.6018C22.3883 52.3737 21.7753 52.1028 21.1907 51.8604C22.3598 48.8236 23.5859 45.8724 24.8976 42.9211C25.1542 42.3318 25.4013 41.7425 25.639 41.1532C26.2948 39.4852 26.8793 37.8171 27.3641 36.1062C27.4971 35.6119 27.6207 35.1129 27.7348 34.6092C28.0627 34.7375 28.3906 34.8658 28.7185 34.9941ZM27.7348 34.6092C27.6207 35.1129 27.4971 35.6119 27.3641 36.1062C26.8793 37.8171 26.2948 39.4852 25.639 41.1532C25.4013 41.7425 25.1542 42.3318 24.8976 42.9211C23.5859 45.8724 22.3598 48.8236 21.1907 51.8604C20.4779 51.561 19.8078 51.2759 19.4228 51.1048C20.6347 48.1108 21.9463 45.2023 23.2723 42.2796C24.3273 40.0554 25.2825 37.8456 26.0809 35.5644C26.2425 35.0892 26.3946 34.5997 26.5372 34.0959C26.9364 34.2813 27.3356 34.4524 27.7348 34.6092ZM26.5372 34.0959C26.3946 34.5997 26.2425 35.0892 26.0809 35.5644C25.2825 37.8456 24.3273 40.0554 23.2723 42.2796C21.9463 45.2023 20.6347 48.1108 19.4228 51.1048C19.0997 50.9622 18.7765 50.8196 18.4533 50.6771C19.5939 47.7401 21.0196 45.0027 22.2743 42.137C23.3578 39.8701 24.313 37.5604 25.0972 35.151C25.2493 34.6662 25.3918 34.172 25.5249 33.6682C25.8671 33.8108 26.195 33.9534 26.5372 34.0959ZM25.5249 33.6682C25.3918 34.172 25.2493 34.6662 25.0972 35.151C24.313 37.5604 23.3578 39.8701 22.2743 42.137C21.0196 45.0027 19.5939 47.7401 18.4533 50.6771C18.1112 50.525 17.769 50.3729 17.4268 50.2208C18.4391 47.8256 19.5226 45.4732 20.5349 43.1207C21.7182 40.2836 23.1582 37.5462 24.0136 34.6234C24.1657 34.1387 24.2988 33.6492 24.4128 33.155C24.7835 33.326 25.1542 33.5256 25.5249 33.6682ZM24.4128 33.155C24.2988 33.6492 24.1657 34.1387 24.0136 34.6234C23.1582 37.5462 21.7182 40.2836 20.5349 43.1207C19.5226 45.4732 18.4391 47.8256 17.4268 50.2208C17.2462 50.1448 17.0656 50.0687 16.885 49.9927C17.9258 47.626 18.9238 45.2308 19.9931 42.8784C21.1765 40.0554 22.4596 37.2895 23.4006 34.3383C23.5527 33.8536 23.6952 33.3641 23.8283 32.8698C24.0279 32.9696 24.2275 33.0694 24.4128 33.155ZM23.8283 32.8698C23.6952 33.3641 23.5527 33.8536 23.4006 34.3383C22.4596 37.2895 21.1765 40.0554 19.9931 42.8784C18.9238 45.2308 17.9258 47.626 16.885 49.9927C16.6664 49.8977 16.4478 49.8026 16.2292 49.7076C17.213 47.3124 18.2252 44.9171 19.2945 42.5504C20.5634 39.7418 21.761 36.8903 22.702 33.9676C22.8636 33.4924 23.0109 33.0124 23.144 32.5276C23.3721 32.6417 23.6002 32.7558 23.8283 32.8698ZM23.144 32.5276C23.0109 33.0124 22.8636 33.4924 22.702 33.9676C21.761 36.8903 20.5634 39.7418 19.2945 42.5504C18.2252 44.9171 17.213 47.3124 16.2292 49.7076C15.8965 49.5555 15.5686 49.4082 15.2455 49.2656C16.0154 47.4834 16.771 45.687 17.5409 43.8906C19.0379 40.4689 20.5919 37.0757 21.6612 33.4544C21.8038 32.9601 21.9416 32.4706 22.0747 31.9859C22.4263 32.1665 22.7828 32.347 23.144 32.5276ZM22.0747 31.9859C21.9416 32.4706 21.8038 32.9601 21.6612 33.4544C20.5919 37.0757 19.0379 40.4689 17.5409 43.8906C16.771 45.687 16.0154 47.4834 15.2455 49.2656C14.8938 49.1135 14.5421 48.9567 14.1904 48.7951C14.9461 46.9987 15.716 45.2023 16.4858 43.4201C17.9686 39.9842 19.4228 36.4769 20.5064 32.8698C20.6584 32.3756 20.801 31.8813 20.9341 31.3871C21.3143 31.5867 21.6945 31.7863 22.0747 31.9859ZM20.9341 31.3871C20.801 31.8813 20.6584 32.3756 20.5064 32.8698C19.4228 36.4769 17.9686 39.9842 16.4858 43.4201C15.716 45.2023 14.9461 46.9987 14.1904 48.7951C13.9718 48.7001 13.7532 48.605 13.5346 48.51C14.4185 46.7278 15.0886 44.8886 15.887 43.0922C17.3413 39.6135 18.6529 36.0919 19.8078 32.4706C19.9598 31.9859 20.1024 31.5011 20.2355 31.0164C20.4731 31.1399 20.706 31.2635 20.9341 31.3871ZM20.2355 31.0164C20.1024 31.5011 19.9598 31.9859 19.8078 32.4706C18.6529 36.0919 17.3413 39.6135 15.887 43.0922C15.0886 44.8886 14.4185 46.7278 13.5346 48.51C13.1829 48.3579 12.8265 48.2011 12.4653 48.0395C13.0071 46.8846 13.4918 45.63 14.0336 44.4467C14.2807 43.8384 14.5231 43.23 14.7607 42.6217C16.1009 39.0432 17.5124 35.5074 18.6387 31.9003C18.7908 31.4061 18.9381 30.9071 19.0807 30.4033C19.4656 30.6029 19.8505 30.8025 20.2355 31.0164ZM19.0807 30.4033C18.9381 30.9071 18.7908 31.4061 18.6387 31.9003C17.5124 35.5074 16.1009 39.0432 14.7607 42.6217C14.5231 43.23 14.2807 43.8384 14.0336 44.4467C13.4918 45.63 13.0071 46.8846 12.4653 48.0395C12.2847 47.9634 12.1089 47.8874 11.9378 47.8114C12.4083 46.5852 12.9786 45.4304 13.4205 44.19C13.6677 43.5817 13.9148 42.9734 14.1619 42.3651C15.5591 38.8151 16.9848 35.2508 18.0684 31.6009C18.2205 31.1067 18.3678 30.6077 18.5104 30.1039C18.6957 30.2037 18.8953 30.3035 19.0807 30.4033ZM27.749 54.5835C27.5304 55.1348 27.3118 55.6813 27.0932 56.2231C25.8528 59.545 24.4699 62.7814 23.0014 65.975C22.7923 66.4218 22.5784 66.8637 22.3598 67.3009C22.1507 67.7382 21.9321 68.1754 21.704 68.6126C20.82 70.352 19.9076 72.0629 18.9238 73.7167C18.1967 73.1464 17.3555 72.6759 16.6284 72.1627C18.0541 70.7084 19.1092 68.912 20.1642 67.1441C20.5254 66.5358 20.8676 65.918 21.1907 65.2907C22.816 62.1684 24.0279 58.8179 25.2255 55.4532C25.4251 54.9209 25.6342 54.3887 25.8528 53.8564C26.8936 54.2699 26.6797 54.1843 27.749 54.5835ZM25.8528 53.8564C25.6342 54.3887 25.4251 54.9209 25.2255 55.4532C24.0279 58.8179 22.816 62.1684 21.1907 65.2907C20.8676 65.918 20.5254 66.5358 20.1642 67.1441C19.1092 68.912 18.0541 70.7084 16.6284 72.1627C16.3718 72.0011 16.1104 71.8395 15.8443 71.6779C17.0846 70.0098 18.1397 68.2134 19.1234 66.3885C19.4846 65.7897 19.8268 65.1861 20.1499 64.5778C21.8038 61.5268 23.0727 58.2904 24.4128 55.0968C24.6315 54.574 24.8453 54.0465 25.0544 53.5142C25.2683 53.5998 25.4821 53.7138 25.8528 53.8564ZM25.0544 53.5142C24.8453 54.0465 24.6315 54.574 24.4128 55.0968C23.0727 58.2904 21.8038 61.5268 20.1499 64.5778C19.8268 65.1861 19.4846 65.7897 19.1234 66.3885C18.1397 68.2134 17.0846 70.0098 15.8443 71.6779C15.5021 71.4593 15.1552 71.2454 14.8035 71.0363C15.0506 70.5611 15.293 70.0859 15.5306 69.6106C15.7682 69.1449 16.0011 68.6744 16.2292 68.1992C16.6997 67.2582 17.1702 66.3172 17.6549 65.3762C17.9828 64.7917 18.325 64.1929 18.6672 63.6083C20.3495 60.6713 21.9463 57.6916 23.4148 54.6406C23.6525 54.1273 23.8758 53.6045 24.0849 53.0723C24.5412 53.2576 24.7835 53.3717 25.0544 53.5142ZM24.0849 53.0723C23.8758 53.6045 23.6525 54.1273 23.4148 54.6406C21.9463 57.6916 20.3495 60.6713 18.6672 63.6083C18.325 64.1929 17.9828 64.7917 17.6549 65.3762C17.1702 66.3172 16.6997 67.2582 16.2292 68.1992C16.0011 68.6744 15.7682 69.1449 15.5306 69.6106C15.293 70.0859 15.0506 70.5611 14.8035 71.0363C14.5754 70.9033 14.3473 70.775 14.1191 70.6514C14.4185 70.0668 14.7037 69.4823 14.9888 68.8978C15.2645 68.3085 15.5401 67.7239 15.8158 67.1441C16.3575 65.9608 16.8993 64.7917 17.5124 63.6654C17.7975 63.1521 18.0826 62.6341 18.3678 62.1113C19.7507 59.5023 21.1052 56.8647 22.2885 54.1558C22.5071 53.633 22.721 53.115 22.9301 52.6018C23.4006 52.7871 23.814 52.9582 24.0849 53.0723ZM22.9301 52.6018C22.721 53.115 22.5071 53.633 22.2885 54.1558C21.1052 56.8647 19.7507 59.5023 18.3678 62.1113C18.0826 62.6341 17.7975 63.1521 17.5124 63.6654C16.8993 64.7917 16.3575 65.9608 15.8158 67.1441C15.5401 67.7239 15.2645 68.3085 14.9888 68.8978C14.7037 69.4823 14.4185 70.0668 14.1191 70.6514C13.853 70.5088 13.5869 70.3662 13.3207 70.2237C14.0051 68.855 14.5611 67.4293 15.1742 66.0321C15.3643 65.5663 15.5591 65.0958 15.7587 64.6206C16.1437 63.6796 16.5286 62.7386 16.9563 61.8119C17.27 61.1181 17.5789 60.4242 17.883 59.7304C18.7955 57.6346 19.6795 55.5245 20.5634 53.4287C20.782 52.9059 20.9911 52.3832 21.1907 51.8604C21.7753 52.1028 22.3883 52.3737 22.9301 52.6018ZM21.1907 51.8604C20.9911 52.3832 20.782 52.9059 20.5634 53.4287C19.6795 55.5245 18.7955 57.6346 17.883 59.7304C17.5789 60.4242 17.27 61.1181 16.9563 61.8119C16.5286 62.7386 16.1437 63.6796 15.7587 64.6206C15.5591 65.0958 15.3643 65.5663 15.1742 66.0321C14.5611 67.4293 14.0051 68.855 13.3207 70.2237C12.9691 70.0431 12.6174 69.8672 12.2657 69.6962C13.1354 67.857 13.6629 65.8895 14.4471 63.9933C14.6181 63.518 14.7987 63.0428 14.9888 62.5676C15.1694 62.1018 15.3595 61.6313 15.5591 61.1561C15.8348 60.4527 16.1104 59.7494 16.386 59.046C17.1987 56.9217 17.9828 54.7831 18.8098 52.6731C19.0094 52.1503 19.2137 51.6275 19.4228 51.1048C19.8078 51.2759 20.4779 51.561 21.1907 51.8604ZM19.4228 51.1048C19.2137 51.6275 19.0094 52.1503 18.8098 52.6731C17.9828 54.7831 17.1987 56.9217 16.386 59.046C16.1104 59.7494 15.8348 60.4527 15.5591 61.1561C15.3595 61.6313 15.1694 62.1018 14.9888 62.5676C14.7987 63.0428 14.6181 63.518 14.4471 63.9933C13.6629 65.8895 13.1354 67.857 12.2657 69.6962C11.9616 69.5536 11.6527 69.411 11.339 69.2684C12.1802 67.5291 12.6934 65.6043 13.3778 63.7937C13.5916 63.1949 13.8197 62.5961 14.0764 61.9973C14.333 61.3509 14.5849 60.6999 14.832 60.044C15.8443 57.4207 16.7852 54.7974 17.8403 52.2453C18.0399 51.7226 18.2442 51.1998 18.4533 50.6771C18.7765 50.8196 19.0997 50.9622 19.4228 51.1048ZM18.4533 50.6771C18.2442 51.1998 18.0399 51.7226 17.8403 52.2453C16.7852 54.7974 15.8443 57.4207 14.832 60.044C14.5849 60.6999 14.333 61.3509 14.0764 61.9973C13.8197 62.5961 13.5916 63.1949 13.3778 63.7937C12.6934 65.6043 12.1802 67.5291 11.339 69.2684C10.9968 69.1069 10.6499 68.95 10.2982 68.798C11.2962 66.973 11.7952 64.9485 12.5081 62.9953C12.7362 62.3394 12.9643 61.6979 13.2209 61.0563C13.4586 60.4385 13.6962 59.8207 13.9338 59.2029C14.8748 56.7364 15.7872 54.2556 16.7995 51.7891C17.0086 51.2664 17.2177 50.7436 17.4268 50.2208C17.769 50.3729 18.1112 50.525 18.4533 50.6771ZM17.4268 50.2208C17.2177 50.7436 17.0086 51.2664 16.7995 51.7891C15.7872 54.2556 14.8748 56.7364 13.9338 59.2029C13.6962 59.8207 13.4586 60.4385 13.2209 61.0563C12.9643 61.6979 12.7362 62.3394 12.5081 62.9953C11.7952 64.9485 11.2962 66.973 10.2982 68.798C10.1081 68.7124 9.91802 68.6269 9.72793 68.5413C10.5691 66.6023 11.0681 64.5778 11.8523 62.6103C12.1089 61.9973 12.3655 61.3842 12.6221 60.7712C13.891 57.7059 15.0173 54.612 16.2435 51.5467C16.4526 51.024 16.6664 50.506 16.885 49.9927C17.0656 50.0687 17.2462 50.1448 17.4268 50.2208ZM16.885 49.9927C16.6664 50.506 16.4526 51.024 16.2435 51.5467C15.0173 54.612 13.891 57.7059 12.6221 60.7712C12.3655 61.3842 12.1089 61.9973 11.8523 62.6103C11.0681 64.5778 10.5691 66.6023 9.72793 68.5413C9.49031 68.4463 9.25269 68.3465 9.01507 68.2419C10.0558 65.8752 10.7972 63.4087 11.7524 61.0278C12.0186 60.3815 12.28 59.7304 12.5366 59.0745C13.5489 56.4655 14.5326 53.8422 15.6019 51.2616C15.811 50.7388 16.0201 50.2208 16.2292 49.7076C16.4478 49.8026 16.6664 49.8977 16.885 49.9927ZM16.2292 49.7076C16.0201 50.2208 15.811 50.7388 15.6019 51.2616C14.5326 53.8422 13.5489 56.4655 12.5366 59.0745C12.28 59.7304 12.0186 60.3815 11.7524 61.0278C10.7972 63.4087 10.0558 65.8752 9.01507 68.2419C8.65389 68.0898 8.28795 67.933 7.91726 67.7714C8.92953 65.5188 9.61387 63.1236 10.5834 60.8282C10.8115 60.2769 11.0396 59.7209 11.2677 59.1601C12.4225 56.3799 13.4918 53.5998 14.6039 50.8196C14.813 50.3064 15.0269 49.7884 15.2455 49.2656C15.5686 49.4082 15.8965 49.5555 16.2292 49.7076ZM15.2455 49.2656C15.0269 49.7884 14.813 50.3064 14.6039 50.8196C13.4918 53.5998 12.4225 56.3799 11.2677 59.1601C11.0396 59.7209 10.8115 60.2769 10.5834 60.8282C9.61387 63.1236 8.92953 65.5188 7.91726 67.7714C7.50856 67.6099 7.09985 67.4435 6.69114 67.2724C7.63212 64.9628 8.48755 62.6531 9.45704 60.372C9.69466 59.8112 9.92753 59.2551 10.1556 58.7039C11.3105 55.9237 12.337 53.115 13.5346 50.3491C13.7532 49.8359 13.9718 49.3179 14.1904 48.7951C14.5421 48.9567 14.8938 49.1135 15.2455 49.2656ZM14.1904 48.7951C13.9718 49.3179 13.7532 49.8359 13.5346 50.3491C12.337 53.115 11.3105 55.9237 10.1556 58.7039C9.92753 59.2551 9.69466 59.8112 9.45704 60.372C8.48755 62.6531 7.63212 64.9628 6.69114 67.2724C6.44402 67.1679 6.19214 67.0633 5.93551 66.9588C7.07609 64.7346 7.77469 62.3394 8.78695 60.1011C9.03408 59.5498 9.2717 58.9985 9.49981 58.4472C10.6689 55.6813 11.7382 52.8584 12.8788 50.064C13.0974 49.5507 13.316 49.0327 13.5346 48.51C13.7532 48.605 13.9718 48.7001 14.1904 48.7951ZM13.5346 48.51C13.316 49.0327 13.0974 49.5507 12.8788 50.064C11.7382 52.8584 10.6689 55.6813 9.49981 58.4472C9.2717 58.9985 9.03408 59.5498 8.78695 60.1011C7.77469 62.3394 7.07609 64.7346 5.93551 66.9588C5.5173 66.7877 5.09434 66.6166 4.66662 66.4455C5.72166 63.8935 6.79095 61.2702 7.94578 58.7466C8.32597 57.9102 8.70141 57.069 9.0721 56.2231C10.0273 54.0132 10.8828 51.8176 11.8095 49.6078C12.0281 49.085 12.2467 48.5622 12.4653 48.0395C12.8265 48.2011 13.1829 48.3579 13.5346 48.51ZM12.4653 48.0395C12.2467 48.5622 12.0281 49.085 11.8095 49.6078C10.8828 51.8176 10.0273 54.0132 9.0721 56.2231C8.70141 57.069 8.32597 57.9102 7.94578 58.7466C6.79095 61.2702 5.72166 63.8935 4.66662 66.4455C4.45752 66.36 4.24841 66.2744 4.03931 66.1889C5.22265 63.6939 6.24917 61.0563 7.38975 58.5328C7.76994 57.6868 8.14063 56.8409 8.50181 55.995C9.44279 53.7709 10.341 51.5895 11.282 49.3796C11.5006 48.8569 11.7192 48.3341 11.9378 47.8114C12.1089 47.8874 12.2847 47.9634 12.4653 48.0395Z" fill="url(#paint5_linear_630_81822)" fill-opacity="0.5"/>
</g>
</g>
<path d="M12.9358 55.824L24.2132 28.9207L22.6735 28.2648L10.9255 56.2945L12.9358 55.824Z" fill="url(#paint6_linear_630_81822)"/>
<path d="M23.1726 61.4271L34.9062 33.3974L33.3665 32.7559L22.1033 59.6592L23.1726 61.4271Z" fill="url(#paint7_linear_630_81822)"/>
<path d="M31.7126 0.320787L32.9673 1.74651C33.2952 2.11719 33.8512 2.18848 34.2504 1.90334L35.7902 0.791275C36.2607 0.449102 36.9165 0.591674 37.1874 1.10493L38.0998 2.77303C38.328 3.20074 38.8555 3.38609 39.3117 3.20074L41.0653 2.45937C41.5929 2.23125 42.1917 2.53065 42.3485 3.07243L42.8617 4.91161C42.9901 5.38209 43.4606 5.68149 43.9453 5.59595L45.8272 5.26804C46.3833 5.16824 46.9108 5.58169 46.9393 6.15198L47.0391 8.06245C47.0676 8.54719 47.4526 8.93214 47.9373 8.96065L49.8478 9.06045C50.4181 9.08897 50.8315 9.61648 50.7317 10.1725L50.4038 12.0545C50.3183 12.5392 50.6177 12.9954 51.0882 13.138L52.9273 13.6513C53.4691 13.8081 53.7685 14.4069 53.5404 14.9344L52.799 16.6881C52.6137 17.1443 52.799 17.6718 53.2267 17.8999L54.8948 18.8124C55.4081 19.0833 55.5507 19.7391 55.2085 20.2096L54.0964 21.7494C53.8113 22.1486 53.8826 22.7046 54.2533 23.0325L55.679 24.2871C56.1067 24.6721 56.1067 25.3422 55.679 25.7129L54.2533 26.9818C53.8826 27.2954 53.8113 27.8514 54.0964 28.2506L55.2085 29.7904C55.5507 30.2609 55.4081 30.9167 54.8948 31.1876L53.2267 32.1001C52.799 32.3425 52.6137 32.8557 52.799 33.312L53.5404 35.0656C53.7685 35.5931 53.4691 36.1919 52.9273 36.3487L51.0882 36.8763C50.6177 37.0046 50.3183 37.4751 50.4038 37.9598L50.7317 39.8275C50.8315 40.3978 50.4181 40.9253 49.8478 40.9538L47.9373 41.0393C47.4526 41.0679 47.0676 41.4528 47.0391 41.9518L46.9393 43.848C46.9108 44.4183 46.3833 44.846 45.8272 44.7462L43.9453 44.4041C43.4606 44.3185 42.9901 44.6179 42.8617 45.0884L42.3485 46.9276C42.1917 47.4836 41.5929 47.7687 41.0653 47.5406L39.3117 46.7993C38.8555 46.6139 38.328 46.7993 38.0998 47.227L37.1874 48.8951C36.9165 49.4083 36.2607 49.5509 35.7902 49.223L34.2504 48.1109C33.8512 47.8258 33.2952 47.8828 32.9673 48.2535L31.7126 49.6792C31.3277 50.1069 30.6576 50.1069 30.2869 49.6792L29.018 48.2535C28.7043 47.8828 28.1483 47.8258 27.7491 48.1109L26.2093 49.223C25.7388 49.5509 25.083 49.4083 24.8121 48.8951L23.8997 47.227C23.6573 46.7993 23.144 46.6139 22.6878 46.7993L20.9342 47.5406C20.4067 47.7687 19.8079 47.4836 19.651 46.9276L19.1235 45.0884C18.9952 44.6179 18.5247 44.3185 18.04 44.4041L16.1723 44.7462C15.602 44.846 15.0745 44.4183 15.0459 43.848L14.9604 41.9518C14.9319 41.4528 14.5469 41.0679 14.0479 41.0393L12.1517 40.9538C11.5814 40.9253 11.1537 40.3978 11.2535 39.8275L11.5957 37.9598C11.6813 37.4751 11.3818 37.0046 10.9114 36.8763L9.07218 36.3487C8.51615 36.1919 8.23101 35.5931 8.45912 35.0656L9.2005 33.312C9.38584 32.8557 9.2005 32.3425 8.77278 32.1001L7.10469 31.1876C6.59143 30.9167 6.44886 30.2609 6.77677 29.7904L7.88883 28.2506C8.17398 27.8514 8.11695 27.2954 7.74626 26.9818L6.32054 25.7129C5.89283 25.3422 5.89283 24.6721 6.32054 24.2871L7.74626 23.0325C8.11695 22.7046 8.17398 22.1486 7.88883 21.7494L6.77677 20.2096C6.44886 19.7391 6.59143 19.0833 7.10469 18.8124L8.77278 17.8999C9.2005 17.6718 9.38584 17.1443 9.2005 16.6881L8.45912 14.9344C8.23101 14.4069 8.51615 13.8081 9.07218 13.6513L10.9114 13.138C11.3818 12.9954 11.6813 12.5392 11.5957 12.0545L11.2535 10.1725C11.1537 9.61648 11.5814 9.08897 12.1517 9.06045L14.0479 8.96065C14.5469 8.93214 14.9319 8.54719 14.9604 8.06245L15.0459 6.15198C15.0745 5.58169 15.602 5.16824 16.1723 5.26804L18.04 5.59595C18.5247 5.68149 18.9952 5.38209 19.1235 4.91161L19.651 3.07243C19.8079 2.53065 20.4067 2.23125 20.9342 2.45937L22.6878 3.20074C23.144 3.38609 23.6573 3.20074 23.8997 2.77303L24.8121 1.10493C25.083 0.591674 25.7388 0.449102 26.2093 0.791275L27.7491 1.90334C28.1483 2.18848 28.7043 2.11719 29.018 1.74651L30.2869 0.320787C30.6576 -0.106929 31.3277 -0.106929 31.7126 0.320787Z" fill="#B72136"/>
<path d="M31.7126 0.320787L32.9673 1.74651C33.2952 2.11719 33.8512 2.18848 34.2504 1.90334L35.7902 0.791275C36.2607 0.449102 36.9165 0.591674 37.1874 1.10493L38.0998 2.77303C38.328 3.20074 38.8555 3.38609 39.3117 3.20074L41.0653 2.45937C41.5929 2.23125 42.1917 2.53065 42.3485 3.07243L42.8617 4.91161C42.9901 5.38209 43.4606 5.68149 43.9453 5.59595L45.8272 5.26804C46.3833 5.16824 46.9108 5.58169 46.9393 6.15198L47.0391 8.06245C47.0676 8.54719 47.4526 8.93214 47.9373 8.96065L49.8478 9.06045C50.4181 9.08897 50.8315 9.61648 50.7317 10.1725L50.4038 12.0545C50.3183 12.5392 50.6177 12.9954 51.0882 13.138L52.9273 13.6513C53.4691 13.8081 53.7685 14.4069 53.5404 14.9344L52.799 16.6881C52.6137 17.1443 52.799 17.6718 53.2267 17.8999L54.8948 18.8124C55.4081 19.0833 55.5507 19.7391 55.2085 20.2096L54.0964 21.7494C53.8113 22.1486 53.8826 22.7046 54.2533 23.0325L55.679 24.2871C56.1067 24.6721 56.1067 25.3422 55.679 25.7129L54.2533 26.9818C53.8826 27.2954 53.8113 27.8514 54.0964 28.2506L55.2085 29.7904C55.5507 30.2609 55.4081 30.9167 54.8948 31.1876L53.2267 32.1001C52.799 32.3425 52.6137 32.8557 52.799 33.312L53.5404 35.0656C53.7685 35.5931 53.4691 36.1919 52.9273 36.3487L51.0882 36.8763C50.6177 37.0046 50.3183 37.4751 50.4038 37.9598L50.7317 39.8275C50.8315 40.3978 50.4181 40.9253 49.8478 40.9538L47.9373 41.0393C47.4526 41.0679 47.0676 41.4528 47.0391 41.9518L46.9393 43.848C46.9108 44.4183 46.3833 44.846 45.8272 44.7462L43.9453 44.4041C43.4606 44.3185 42.9901 44.6179 42.8617 45.0884L42.3485 46.9276C42.1917 47.4836 41.5929 47.7687 41.0653 47.5406L39.3117 46.7993C38.8555 46.6139 38.328 46.7993 38.0998 47.227L37.1874 48.8951C36.9165 49.4083 36.2607 49.5509 35.7902 49.223L34.2504 48.1109C33.8512 47.8258 33.2952 47.8828 32.9673 48.2535L31.7126 49.6792C31.3277 50.1069 30.6576 50.1069 30.2869 49.6792L29.018 48.2535C28.7043 47.8828 28.1483 47.8258 27.7491 48.1109L26.2093 49.223C25.7388 49.5509 25.083 49.4083 24.8121 48.8951L23.8997 47.227C23.6573 46.7993 23.144 46.6139 22.6878 46.7993L20.9342 47.5406C20.4067 47.7687 19.8079 47.4836 19.651 46.9276L19.1235 45.0884C18.9952 44.6179 18.5247 44.3185 18.04 44.4041L16.1723 44.7462C15.602 44.846 15.0745 44.4183 15.0459 43.848L14.9604 41.9518C14.9319 41.4528 14.5469 41.0679 14.0479 41.0393L12.1517 40.9538C11.5814 40.9253 11.1537 40.3978 11.2535 39.8275L11.5957 37.9598C11.6813 37.4751 11.3818 37.0046 10.9114 36.8763L9.07218 36.3487C8.51615 36.1919 8.23101 35.5931 8.45912 35.0656L9.2005 33.312C9.38584 32.8557 9.2005 32.3425 8.77278 32.1001L7.10469 31.1876C6.59143 30.9167 6.44886 30.2609 6.77677 29.7904L7.88883 28.2506C8.17398 27.8514 8.11695 27.2954 7.74626 26.9818L6.32054 25.7129C5.89283 25.3422 5.89283 24.6721 6.32054 24.2871L7.74626 23.0325C8.11695 22.7046 8.17398 22.1486 7.88883 21.7494L6.77677 20.2096C6.44886 19.7391 6.59143 19.0833 7.10469 18.8124L8.77278 17.8999C9.2005 17.6718 9.38584 17.1443 9.2005 16.6881L8.45912 14.9344C8.23101 14.4069 8.51615 13.8081 9.07218 13.6513L10.9114 13.138C11.3818 12.9954 11.6813 12.5392 11.5957 12.0545L11.2535 10.1725C11.1537 9.61648 11.5814 9.08897 12.1517 9.06045L14.0479 8.96065C14.5469 8.93214 14.9319 8.54719 14.9604 8.06245L15.0459 6.15198C15.0745 5.58169 15.602 5.16824 16.1723 5.26804L18.04 5.59595C18.5247 5.68149 18.9952 5.38209 19.1235 4.91161L19.651 3.07243C19.8079 2.53065 20.4067 2.23125 20.9342 2.45937L22.6878 3.20074C23.144 3.38609 23.6573 3.20074 23.8997 2.77303L24.8121 1.10493C25.083 0.591674 25.7388 0.449102 26.2093 0.791275L27.7491 1.90334C28.1483 2.18848 28.7043 2.11719 29.018 1.74651L30.2869 0.320787C30.6576 -0.106929 31.3277 -0.106929 31.7126 0.320787Z" fill="url(#paint8_linear_630_81822)" fill-opacity="0.1"/>
<path d="M30.9996 4.4126C42.4767 4.4126 51.7724 13.7083 51.7724 25.1853C51.7724 36.6624 42.4767 45.9723 30.9996 45.9723C19.5226 45.9723 10.2126 36.6624 10.2126 25.1853C10.2126 13.7083 19.5226 4.4126 30.9996 4.4126Z" fill="url(#paint9_linear_630_81822)"/>
<path d="M30.9998 6.0094C41.5929 6.0094 50.1899 14.5922 50.1899 25.1853C50.1899 35.7927 41.5929 44.3755 30.9998 44.3755C20.4067 44.3755 11.8096 35.7927 11.8096 25.1853C11.8096 14.5922 20.4067 6.0094 30.9998 6.0094Z" fill="url(#paint10_linear_630_81822)"/>
<path d="M30.9998 7.05017C41.0226 7.05017 49.1349 15.1768 49.1349 25.1853C49.1349 35.2081 41.0226 43.3347 30.9998 43.3347C20.9769 43.3347 12.8503 35.2081 12.8503 25.1853C12.8503 15.1768 20.9769 7.05017 30.9998 7.05017Z" fill="#F1F2F2"/>
<g filter="url(#filter0_d_630_81822)">
<path d="M17.4848 23C17.4448 23 17.4108 22.986 17.3828 22.958C17.3548 22.93 17.3408 22.896 17.3408 22.856V18.95C17.3408 18.906 17.3548 18.87 17.3828 18.842C17.4108 18.814 17.4448 18.8 17.4848 18.8H20.0888C20.1328 18.8 20.1688 18.814 20.1968 18.842C20.2248 18.87 20.2388 18.906 20.2388 18.95V19.37C20.2388 19.414 20.2248 19.45 20.1968 19.478C20.1688 19.502 20.1328 19.514 20.0888 19.514H18.1628V20.654H19.9688C20.0128 20.654 20.0488 20.668 20.0768 20.696C20.1048 20.724 20.1188 20.76 20.1188 20.804V21.224C20.1188 21.264 20.1048 21.298 20.0768 21.326C20.0488 21.354 20.0128 21.368 19.9688 21.368H18.1628V22.856C18.1628 22.896 18.1488 22.93 18.1208 22.958C18.0928 22.986 18.0568 23 18.0128 23H17.4848ZM22.529 23.06C22.173 23.06 21.867 23.002 21.611 22.886C21.355 22.766 21.155 22.584 21.011 22.34C20.867 22.092 20.789 21.784 20.777 21.416C20.773 21.244 20.771 21.074 20.771 20.906C20.771 20.738 20.773 20.566 20.777 20.39C20.789 20.026 20.869 19.722 21.017 19.478C21.165 19.234 21.367 19.05 21.623 18.926C21.883 18.802 22.185 18.74 22.529 18.74C22.873 18.74 23.175 18.802 23.435 18.926C23.695 19.05 23.899 19.234 24.047 19.478C24.195 19.722 24.275 20.026 24.287 20.39C24.295 20.566 24.299 20.738 24.299 20.906C24.299 21.074 24.295 21.244 24.287 21.416C24.275 21.784 24.197 22.092 24.053 22.34C23.909 22.584 23.707 22.766 23.447 22.886C23.191 23.002 22.885 23.06 22.529 23.06ZM22.529 22.37C22.789 22.37 23.001 22.294 23.165 22.142C23.329 21.986 23.417 21.734 23.429 21.386C23.437 21.21 23.441 21.048 23.441 20.9C23.441 20.748 23.437 20.586 23.429 20.414C23.421 20.182 23.377 19.994 23.297 19.85C23.221 19.702 23.117 19.596 22.985 19.532C22.853 19.464 22.701 19.43 22.529 19.43C22.361 19.43 22.211 19.464 22.079 19.532C21.947 19.596 21.841 19.702 21.761 19.85C21.685 19.994 21.643 20.182 21.635 20.414C21.631 20.586 21.629 20.748 21.629 20.9C21.629 21.048 21.631 21.21 21.635 21.386C21.647 21.734 21.735 21.986 21.899 22.142C22.063 22.294 22.273 22.37 22.529 22.37ZM26.7609 23.06C26.4129 23.06 26.1109 23.002 25.8549 22.886C25.5989 22.766 25.4009 22.584 25.2609 22.34C25.1209 22.092 25.0509 21.776 25.0509 21.392V18.95C25.0509 18.906 25.0649 18.87 25.0929 18.842C25.1209 18.814 25.1549 18.8 25.1949 18.8H25.7409C25.7849 18.8 25.8189 18.814 25.8429 18.842C25.8709 18.87 25.8849 18.906 25.8849 18.95V21.392C25.8849 21.72 25.9629 21.964 26.1189 22.124C26.2749 22.28 26.4889 22.358 26.7609 22.358C27.0329 22.358 27.2449 22.28 27.3969 22.124C27.5529 21.964 27.6309 21.72 27.6309 21.392V18.95C27.6309 18.906 27.6449 18.87 27.6729 18.842C27.7009 18.814 27.7369 18.8 27.7809 18.8H28.3209C28.3649 18.8 28.3989 18.814 28.4229 18.842C28.4509 18.87 28.4649 18.906 28.4649 18.95V21.392C28.4649 21.776 28.3949 22.092 28.2549 22.34C28.1189 22.584 27.9229 22.766 27.6669 22.886C27.4149 23.002 27.1129 23.06 26.7609 23.06ZM29.5082 23C29.4682 23 29.4342 22.986 29.4062 22.958C29.3782 22.93 29.3642 22.896 29.3642 22.856V18.95C29.3642 18.906 29.3782 18.87 29.4062 18.842C29.4342 18.814 29.4682 18.8 29.5082 18.8H29.9702C30.0262 18.8 30.0662 18.814 30.0902 18.842C30.1182 18.866 30.1362 18.884 30.1442 18.896L31.8722 21.584V18.95C31.8722 18.906 31.8842 18.87 31.9082 18.842C31.9362 18.814 31.9722 18.8 32.0162 18.8H32.5202C32.5642 18.8 32.6002 18.814 32.6282 18.842C32.6562 18.87 32.6702 18.906 32.6702 18.95V22.85C32.6702 22.894 32.6562 22.93 32.6282 22.958C32.6002 22.986 32.5662 23 32.5262 23H32.0582C32.0022 23 31.9622 22.986 31.9382 22.958C31.9142 22.93 31.8962 22.912 31.8842 22.904L30.1622 20.276V22.856C30.1622 22.896 30.1482 22.93 30.1202 22.958C30.0922 22.986 30.0562 23 30.0122 23H29.5082ZM33.7504 23C33.7104 23 33.6764 22.986 33.6484 22.958C33.6204 22.93 33.6064 22.896 33.6064 22.856V18.95C33.6064 18.906 33.6204 18.87 33.6484 18.842C33.6764 18.814 33.7104 18.8 33.7504 18.8H35.2144C35.6184 18.8 35.9504 18.862 36.2104 18.986C36.4744 19.11 36.6724 19.294 36.8044 19.538C36.9404 19.782 37.0104 20.08 37.0144 20.432C37.0224 20.608 37.0264 20.764 37.0264 20.9C37.0264 21.036 37.0224 21.19 37.0144 21.362C37.0064 21.734 36.9384 22.042 36.8104 22.286C36.6824 22.526 36.4884 22.706 36.2284 22.826C35.9724 22.942 35.6444 23 35.2444 23H33.7504ZM34.4404 22.31H35.2144C35.4384 22.31 35.6204 22.278 35.7604 22.214C35.9004 22.15 36.0024 22.048 36.0664 21.908C36.1344 21.764 36.1704 21.576 36.1744 21.344C36.1784 21.224 36.1804 21.12 36.1804 21.032C36.1844 20.94 36.1844 20.85 36.1804 20.762C36.1804 20.67 36.1784 20.566 36.1744 20.45C36.1664 20.122 36.0844 19.88 35.9284 19.724C35.7724 19.568 35.5244 19.49 35.1844 19.49H34.4404V22.31ZM37.9692 23C37.9292 23 37.8952 22.986 37.8672 22.958C37.8392 22.93 37.8252 22.896 37.8252 22.856V18.95C37.8252 18.906 37.8392 18.87 37.8672 18.842C37.8952 18.814 37.9292 18.8 37.9692 18.8H40.6092C40.6532 18.8 40.6892 18.814 40.7172 18.842C40.7452 18.87 40.7592 18.906 40.7592 18.95V19.346C40.7592 19.386 40.7452 19.42 40.7172 19.448C40.6892 19.476 40.6532 19.49 40.6092 19.49H38.6352V20.552H40.4772C40.5212 20.552 40.5572 20.566 40.5852 20.594C40.6132 20.618 40.6272 20.652 40.6272 20.696V21.068C40.6272 21.112 40.6132 21.148 40.5852 21.176C40.5572 21.2 40.5212 21.212 40.4772 21.212H38.6352V22.31H40.6572C40.7012 22.31 40.7372 22.324 40.7652 22.352C40.7932 22.38 40.8072 22.416 40.8072 22.46V22.856C40.8072 22.896 40.7932 22.93 40.7652 22.958C40.7372 22.986 40.7012 23 40.6572 23H37.9692ZM41.7016 23C41.6616 23 41.6276 22.986 41.5996 22.958C41.5716 22.93 41.5576 22.896 41.5576 22.856V18.95C41.5576 18.906 41.5716 18.87 41.5996 18.842C41.6276 18.814 41.6616 18.8 41.7016 18.8H43.2556C43.7396 18.8 44.1216 18.912 44.4016 19.136C44.6816 19.36 44.8216 19.686 44.8216 20.114C44.8216 20.41 44.7476 20.656 44.5996 20.852C44.4556 21.048 44.2616 21.19 44.0176 21.278L44.8936 22.808C44.9056 22.832 44.9116 22.854 44.9116 22.874C44.9116 22.91 44.8976 22.94 44.8696 22.964C44.8456 22.988 44.8176 23 44.7856 23H44.2396C44.1716 23 44.1196 22.982 44.0836 22.946C44.0476 22.91 44.0196 22.874 43.9996 22.838L43.2256 21.416H42.3916V22.856C42.3916 22.896 42.3776 22.93 42.3496 22.958C42.3256 22.986 42.2916 23 42.2476 23H41.7016ZM42.3916 20.738H43.2376C43.4816 20.738 43.6636 20.684 43.7836 20.576C43.9036 20.464 43.9636 20.308 43.9636 20.108C43.9636 19.908 43.9036 19.752 43.7836 19.64C43.6676 19.524 43.4856 19.466 43.2376 19.466H42.3916V20.738ZM22.4706 31.06C22.0986 31.06 21.7826 30.996 21.5226 30.868C21.2666 30.736 21.0706 30.55 20.9346 30.31C20.7986 30.066 20.7226 29.774 20.7066 29.434C20.7026 29.27 20.7006 29.094 20.7006 28.906C20.7006 28.718 20.7026 28.538 20.7066 28.366C20.7226 28.03 20.7986 27.74 20.9346 27.496C21.0746 27.252 21.2726 27.066 21.5286 26.938C21.7886 26.806 22.1026 26.74 22.4706 26.74C22.7426 26.74 22.9866 26.776 23.2026 26.848C23.4186 26.92 23.6026 27.02 23.7546 27.148C23.9066 27.272 24.0246 27.418 24.1086 27.586C24.1926 27.754 24.2366 27.936 24.2406 28.132C24.2446 28.168 24.2326 28.198 24.2046 28.222C24.1806 28.246 24.1506 28.258 24.1146 28.258H23.5446C23.5006 28.258 23.4646 28.248 23.4366 28.228C23.4086 28.204 23.3886 28.166 23.3766 28.114C23.3126 27.85 23.2026 27.67 23.0466 27.574C22.8906 27.478 22.6966 27.43 22.4646 27.43C22.1966 27.43 21.9826 27.506 21.8226 27.658C21.6626 27.806 21.5766 28.052 21.5646 28.396C21.5526 28.724 21.5526 29.06 21.5646 29.404C21.5766 29.748 21.6626 29.996 21.8226 30.148C21.9826 30.296 22.1966 30.37 22.4646 30.37C22.6966 30.37 22.8906 30.322 23.0466 30.226C23.2026 30.126 23.3126 29.946 23.3766 29.686C23.3886 29.63 23.4086 29.592 23.4366 29.572C23.4646 29.552 23.5006 29.542 23.5446 29.542H24.1146C24.1506 29.542 24.1806 29.554 24.2046 29.578C24.2326 29.602 24.2446 29.632 24.2406 29.668C24.2366 29.864 24.1926 30.046 24.1086 30.214C24.0246 30.382 23.9066 30.53 23.7546 30.658C23.6026 30.782 23.4186 30.88 23.2026 30.952C22.9866 31.024 22.7426 31.06 22.4706 31.06ZM25.0961 31C25.0561 31 25.0221 30.986 24.9941 30.958C24.9661 30.93 24.9521 30.896 24.9521 30.856V26.944C24.9521 26.904 24.9661 26.87 24.9941 26.842C25.0221 26.814 25.0561 26.8 25.0961 26.8H25.6601C25.7041 26.8 25.7381 26.814 25.7621 26.842C25.7901 26.87 25.8041 26.904 25.8041 26.944V30.856C25.8041 30.896 25.7901 30.93 25.7621 30.958C25.7381 30.986 25.7041 31 25.6601 31H25.0961ZM26.8891 31C26.8491 31 26.8151 30.986 26.7871 30.958C26.7591 30.93 26.7451 30.896 26.7451 30.856V26.95C26.7451 26.906 26.7591 26.87 26.7871 26.842C26.8151 26.814 26.8491 26.8 26.8891 26.8H28.4431C28.9271 26.8 29.3091 26.912 29.5891 27.136C29.8691 27.36 30.0091 27.686 30.0091 28.114C30.0091 28.41 29.9351 28.656 29.7871 28.852C29.6431 29.048 29.4491 29.19 29.2051 29.278L30.0811 30.808C30.0931 30.832 30.0991 30.854 30.0991 30.874C30.0991 30.91 30.0851 30.94 30.0571 30.964C30.0331 30.988 30.0051 31 29.9731 31H29.4271C29.3591 31 29.3071 30.982 29.2711 30.946C29.2351 30.91 29.2071 30.874 29.1871 30.838L28.4131 29.416H27.5791V30.856C27.5791 30.896 27.5651 30.93 27.5371 30.958C27.5131 30.986 27.4791 31 27.4351 31H26.8891ZM27.5791 28.738H28.4251C28.6691 28.738 28.8511 28.684 28.9711 28.576C29.0911 28.464 29.1511 28.308 29.1511 28.108C29.1511 27.908 29.0911 27.752 28.9711 27.64C28.8551 27.524 28.6731 27.466 28.4251 27.466H27.5791V28.738ZM32.3905 31.06C32.0185 31.06 31.7025 30.996 31.4425 30.868C31.1865 30.736 30.9905 30.55 30.8545 30.31C30.7185 30.066 30.6425 29.774 30.6265 29.434C30.6225 29.27 30.6205 29.094 30.6205 28.906C30.6205 28.718 30.6225 28.538 30.6265 28.366C30.6425 28.03 30.7185 27.74 30.8545 27.496C30.9945 27.252 31.1925 27.066 31.4485 26.938C31.7085 26.806 32.0225 26.74 32.3905 26.74C32.6625 26.74 32.9065 26.776 33.1225 26.848C33.3385 26.92 33.5225 27.02 33.6745 27.148C33.8265 27.272 33.9445 27.418 34.0285 27.586C34.1125 27.754 34.1565 27.936 34.1605 28.132C34.1645 28.168 34.1525 28.198 34.1245 28.222C34.1005 28.246 34.0705 28.258 34.0345 28.258H33.4645C33.4205 28.258 33.3845 28.248 33.3565 28.228C33.3285 28.204 33.3085 28.166 33.2965 28.114C33.2325 27.85 33.1225 27.67 32.9665 27.574C32.8105 27.478 32.6165 27.43 32.3845 27.43C32.1165 27.43 31.9025 27.506 31.7425 27.658C31.5825 27.806 31.4965 28.052 31.4845 28.396C31.4725 28.724 31.4725 29.06 31.4845 29.404C31.4965 29.748 31.5825 29.996 31.7425 30.148C31.9025 30.296 32.1165 30.37 32.3845 30.37C32.6165 30.37 32.8105 30.322 32.9665 30.226C33.1225 30.126 33.2325 29.946 33.2965 29.686C33.3085 29.63 33.3285 29.592 33.3565 29.572C33.3845 29.552 33.4205 29.542 33.4645 29.542H34.0345C34.0705 29.542 34.1005 29.554 34.1245 29.578C34.1525 29.602 34.1645 29.632 34.1605 29.668C34.1565 29.864 34.1125 30.046 34.0285 30.214C33.9445 30.382 33.8265 30.53 33.6745 30.658C33.5225 30.782 33.3385 30.88 33.1225 30.952C32.9065 31.024 32.6625 31.06 32.3905 31.06ZM35.0161 31C34.9761 31 34.9421 30.986 34.9141 30.958C34.8861 30.93 34.8721 30.896 34.8721 30.856V26.944C34.8721 26.904 34.8861 26.87 34.9141 26.842C34.9421 26.814 34.9761 26.8 35.0161 26.8H35.5741C35.6141 26.8 35.6481 26.814 35.6761 26.842C35.7041 26.87 35.7181 26.904 35.7181 26.944V30.286H37.6201C37.6641 30.286 37.7001 30.3 37.7281 30.328C37.7561 30.356 37.7701 30.392 37.7701 30.436V30.856C37.7701 30.896 37.7561 30.93 37.7281 30.958C37.7001 30.986 37.6641 31 37.6201 31H35.0161ZM38.4965 31C38.4565 31 38.4225 30.986 38.3945 30.958C38.3665 30.93 38.3525 30.896 38.3525 30.856V26.95C38.3525 26.906 38.3665 26.87 38.3945 26.842C38.4225 26.814 38.4565 26.8 38.4965 26.8H41.1365C41.1805 26.8 41.2165 26.814 41.2445 26.842C41.2725 26.87 41.2865 26.906 41.2865 26.95V27.346C41.2865 27.386 41.2725 27.42 41.2445 27.448C41.2165 27.476 41.1805 27.49 41.1365 27.49H39.1625V28.552H41.0045C41.0485 28.552 41.0845 28.566 41.1125 28.594C41.1405 28.618 41.1545 28.652 41.1545 28.696V29.068C41.1545 29.112 41.1405 29.148 41.1125 29.176C41.0845 29.2 41.0485 29.212 41.0045 29.212H39.1625V30.31H41.1845C41.2285 30.31 41.2645 30.324 41.2925 30.352C41.3205 30.38 41.3345 30.416 41.3345 30.46V30.856C41.3345 30.896 41.3205 30.93 41.2925 30.958C41.2645 30.986 41.2285 31 41.1845 31H38.4965Z" fill="#212B36"/>
</g>
<defs>
<filter id="filter0_d_630_81822" x="15.3408" y="18.74" width="31.5708" height="16.32" filterUnits="userSpaceOnUse" color-interpolation-filters="sRGB">
<feFlood flood-opacity="0" result="BackgroundImageFix"/>
<feColorMatrix in="SourceAlpha" type="matrix" values="0 0 0 0 0 0 0 0 0 0 0 0 0 0 0 0 0 0 127 0" result="hardAlpha"/>
<feOffset dy="2"/>
<feGaussianBlur stdDeviation="1"/>
<feComposite in2="hardAlpha" operator="out"/>
<feColorMatrix type="matrix" values="0 0 0 0 0 0 0 0 0 0 0 0 0 0 0 0 0 0 0.15 0"/>
<feBlend mode="normal" in2="BackgroundImageFix" result="effect1_dropShadow_630_81822"/>
<feBlend mode="normal" in="SourceGraphic" in2="effect1_dropShadow_630_81822" result="shape"/>
</filter>
<linearGradient id="paint0_linear_630_81822" x1="64.7456" y1="33.0234" x2="80.6605" y2="67.1054" gradientUnits="userSpaceOnUse">
<stop stop-color="#231F20"/>
<stop offset="1" stop-color="white"/>
</linearGradient>
<linearGradient id="paint1_linear_630_81822" x1="26.7815" y1="35.3361" x2="36.1468" y2="53.8502" gradientUnits="userSpaceOnUse">
<stop stop-color="white"/>
<stop offset="1" stop-color="#A1A1A1"/>
</linearGradient>
<linearGradient id="paint2_linear_630_81822" x1="-180.122" y1="229.684" x2="-156.347" y2="253.458" gradientUnits="userSpaceOnUse">
<stop stop-color="#B8B8B8"/>
<stop offset="0.164" stop-color="#E8E8E8"/>
<stop offset="0.291" stop-color="white"/>
<stop offset="0.552" stop-color="#ABABAB"/>
<stop offset="0.782" stop-color="#E8E8E8"/>
<stop offset="0.909" stop-color="#A2A2A2"/>
<stop offset="1" stop-color="#717171"/>
</linearGradient>
<linearGradient id="paint3_linear_630_81822" x1="-190.817" y1="234.163" x2="-167.043" y2="257.938" gradientUnits="userSpaceOnUse">
<stop stop-color="#B8B8B8"/>
<stop offset="0.164" stop-color="#E8E8E8"/>
<stop offset="0.291" stop-color="white"/>
<stop offset="0.552" stop-color="#ABABAB"/>
<stop offset="0.782" stop-color="#E8E8E8"/>
<stop offset="0.909" stop-color="#A2A2A2"/>
<stop offset="1" stop-color="#717171"/>
</linearGradient>
<linearGradient id="paint4_linear_630_81822" x1="-2.75104" y1="33.0235" x2="-18.666" y2="67.1055" gradientUnits="userSpaceOnUse">
<stop stop-color="#231F20"/>
<stop offset="1" stop-color="white"/>
</linearGradient>
<linearGradient id="paint5_linear_630_81822" x1="35.213" y1="35.3362" x2="25.8477" y2="53.8503" gradientUnits="userSpaceOnUse">
<stop stop-color="white"/>
<stop offset="1" stop-color="#A1A1A1"/>
</linearGradient>
<linearGradient id="paint6_linear_630_81822" x1="-206.975" y1="-144.471" x2="-183.201" y2="-168.245" gradientUnits="userSpaceOnUse">
<stop stop-color="#B8B8B8"/>
<stop offset="0.164" stop-color="#E8E8E8"/>
<stop offset="0.291" stop-color="white"/>
<stop offset="0.552" stop-color="#ABABAB"/>
<stop offset="0.782" stop-color="#E8E8E8"/>
<stop offset="0.909" stop-color="#A2A2A2"/>
<stop offset="1" stop-color="#717171"/>
</linearGradient>
<linearGradient id="paint7_linear_630_81822" x1="-196.271" y1="-139.983" x2="-172.497" y2="-163.758" gradientUnits="userSpaceOnUse">
<stop stop-color="#B8B8B8"/>
<stop offset="0.164" stop-color="#E8E8E8"/>
<stop offset="0.291" stop-color="white"/>
<stop offset="0.552" stop-color="#ABABAB"/>
<stop offset="0.782" stop-color="#E8E8E8"/>
<stop offset="0.909" stop-color="#A2A2A2"/>
<stop offset="1" stop-color="#717171"/>
</linearGradient>
<linearGradient id="paint8_linear_630_81822" x1="19.9589" y1="-6.53151e-07" x2="36.8122" y2="45.8854" gradientUnits="userSpaceOnUse">
<stop stop-color="white"/>
<stop offset="0.403279" stop-color="#D0D2D3"/>
<stop offset="0.463551" stop-color="#333333"/>
<stop offset="1"/>
</linearGradient>
<linearGradient id="paint9_linear_630_81822" x1="51.7771" y1="2.44411" x2="51.7771" y2="50.4375" gradientUnits="userSpaceOnUse">
<stop stop-color="#B8B8B8"/>
<stop offset="0.164" stop-color="#E8E8E8"/>
<stop offset="0.291" stop-color="white"/>
<stop offset="0.552" stop-color="#ABABAB"/>
<stop offset="0.782" stop-color="#E8E8E8"/>
<stop offset="0.909" stop-color="#A2A2A2"/>
<stop offset="1" stop-color="#717171"/>
</linearGradient>
<linearGradient id="paint10_linear_630_81822" x1="50.1848" y1="1.34131" x2="50.1848" y2="45.6572" gradientUnits="userSpaceOnUse">
<stop stop-color="#B8B8B8"/>
<stop offset="0.164" stop-color="#E8E8E8"/>
<stop offset="0.291" stop-color="white"/>
<stop offset="0.552" stop-color="#ABABAB"/>
<stop offset="0.782" stop-color="#E8E8E8"/>
<stop offset="0.909" stop-color="#A2A2A2"/>
<stop offset="1" stop-color="#717171"/>
</linearGradient>
</defs>
</svg>
