<svg width="62" height="64" viewBox="0 0 62 64" fill="none" xmlns="http://www.w3.org/2000/svg">
<path d="M37.8434 63.0381L43.0758 54.3983L52.9132 56.7364L40.7376 27.6803L25.6677 33.9962L37.8434 63.0381Z" fill="#F11616"/>
<path style="mix-blend-mode:soft-light" d="M37.8434 63.0381L43.0758 54.3983L52.9132 56.7364L40.7376 27.6803L25.6677 33.9962L37.8434 63.0381Z" fill="url(#paint0_linear_630_81785)"/>
<mask id="mask0_630_81785" style="mask-type:luminance" maskUnits="userSpaceOnUse" x="25" y="27" width="28" height="37">
<path d="M37.8476 63.0452L43.0785 54.4025L52.9074 56.7335L40.7318 27.6802L25.6733 33.9904L37.8476 63.0452Z" fill="white"/>
</mask>
<g mask="url(#mask0_630_81785)">
<g style="mix-blend-mode:multiply" opacity="0.4">
<path d="M26.7798 35.3362C26.8843 35.7735 26.9889 36.2059 27.0934 36.6337C28.1057 36.434 29.1037 36.2487 30.1017 35.9208C29.9734 35.5216 29.9591 35.0654 29.7025 34.6947C28.733 34.9228 27.8063 35.265 26.7798 35.3362ZM29.7025 34.6947C29.9591 35.0654 29.9734 35.5216 30.1017 35.9208C30.4439 35.8257 30.7813 35.7307 31.114 35.6356C31.0569 35.1937 30.9286 34.7945 30.7005 34.4523C30.3774 34.5378 30.0447 34.6186 29.7025 34.6947ZM30.7005 34.4523C30.9286 34.7945 31.0569 35.1937 31.114 35.6356C31.5702 35.5216 31.9979 35.3933 32.4542 35.265C32.2973 34.8658 32.3258 34.2955 31.9979 34.0959C31.5702 34.2194 31.1377 34.3382 30.7005 34.4523ZM31.9979 34.0959C32.3258 34.2955 32.2973 34.8658 32.4542 35.265C32.725 35.1937 32.9959 35.0796 33.2811 34.9941C33.0957 34.6376 33.224 33.939 32.7963 33.8392C32.5302 33.9248 32.2641 34.0103 31.9979 34.0959ZM32.7963 33.8392C33.224 33.939 33.0957 34.6376 33.2811 34.9941C33.609 34.8658 33.9226 34.7374 34.2506 34.6091C34.1508 34.1814 34.1365 33.4828 33.7373 33.5113C33.4236 33.6254 33.11 33.7347 32.7963 33.8392ZM33.7373 33.5113C34.1365 33.4828 34.1508 34.1814 34.2506 34.6091C34.664 34.4523 35.0632 34.2812 35.4624 34.0959C35.3911 33.6396 35.2913 32.9695 34.9064 33.0694C34.5167 33.2214 34.127 33.3688 33.7373 33.5113ZM34.9064 33.0694C35.2913 32.9695 35.3911 33.6396 35.4624 34.0959C35.7903 33.9533 36.1325 33.8107 36.4747 33.6682C36.3464 33.1406 36.3606 32.4991 35.8901 32.6702C35.567 32.8032 35.2391 32.9363 34.9064 33.0694ZM35.8901 32.6702C36.3606 32.4991 36.3464 33.1406 36.4747 33.6682C36.8454 33.5256 37.2018 33.326 37.5725 33.1549C37.4727 32.7985 37.5725 31.9715 36.9594 32.2139C36.6078 32.366 36.2513 32.5181 35.8901 32.6702ZM36.9594 32.2139C37.5725 31.9715 37.4727 32.7985 37.5725 33.1549C37.7721 33.0694 37.9717 32.9696 38.157 32.8698C38.0145 32.4705 38.1143 31.7577 37.5297 31.9573C37.3396 32.0428 37.1495 32.1284 36.9594 32.2139ZM37.5297 31.9573C38.1143 31.7577 38.0145 32.4705 38.157 32.8698C38.3994 32.7557 38.6275 32.6416 38.8556 32.5276C38.7131 32.1284 38.7986 31.4013 38.2141 31.6579C37.9859 31.7624 37.7578 31.8622 37.5297 31.9573ZM38.2141 31.6579C38.7986 31.4013 38.7131 32.1284 38.8556 32.5276C39.2073 32.347 39.5637 32.1664 39.9249 31.9858C39.8489 31.6816 39.7728 31.3727 39.6968 31.0591C39.5115 31.1304 39.4402 31.1304 39.2548 31.1874C38.9127 31.349 38.5657 31.5058 38.2141 31.6579ZM39.2548 31.1874C39.4402 31.1304 39.5115 31.1304 39.6968 31.0591C39.7728 31.3727 39.8489 31.6816 39.9249 31.9858C40.2956 31.7862 40.6758 31.5866 41.0655 31.387C40.9895 31.0924 40.9134 30.7977 40.8374 30.5031C40.652 30.5743 40.5665 30.5886 40.3812 30.6741C40.001 30.8452 39.6255 31.0163 39.2548 31.1874ZM40.3812 30.6741C40.5665 30.5886 40.652 30.5743 40.8374 30.5031C40.9134 30.7977 40.9895 31.0924 41.0655 31.387C41.2936 31.2634 41.5265 31.1399 41.7641 31.0163C41.6881 30.7217 41.612 30.4318 41.536 30.1466C41.3506 30.2322 41.2651 30.2607 41.0655 30.3462C40.8374 30.4508 40.6093 30.5601 40.3812 30.6741ZM41.0655 30.3462C41.2651 30.2607 41.3506 30.2322 41.536 30.1466C41.612 30.4318 41.6881 30.7217 41.7641 31.0163C42.1348 30.8025 42.5197 30.6029 42.9189 30.4033C42.8429 30.1276 42.7669 29.852 42.6908 29.5763C42.5055 29.6761 42.4057 29.7047 42.2061 29.8045C41.8259 29.985 41.4457 30.1656 41.0655 30.3462ZM42.2061 29.8045C42.4057 29.7047 42.5055 29.6761 42.6908 29.5763C42.7669 29.852 42.8429 30.1276 42.9189 30.4033C43.1043 30.3035 43.3039 30.2037 43.4892 30.1039C43.4132 29.8377 43.3419 29.5716 43.2754 29.3055C43.0758 29.391 42.976 29.4338 42.7764 29.5336C42.5863 29.6191 42.3962 29.7094 42.2061 29.8045ZM27.0934 36.6337C27.3691 37.6982 27.6685 38.7437 27.9916 39.7702C28.8471 42.3223 29.9164 44.7745 31.0284 47.1982C31.3041 47.8065 31.5797 48.4148 31.8553 49.0232C32.6395 50.8623 33.4807 52.73 34.2363 54.5835C35.3056 54.1843 35.106 54.2698 36.1468 53.8563C35.2771 51.3471 34.2506 48.9091 33.3666 46.3998C33.1385 45.782 32.9104 45.169 32.6823 44.5607C32.0122 42.7072 31.3991 40.8538 30.8859 38.9861C30.6007 37.9786 30.3393 36.9568 30.1017 35.9208C29.1037 36.2487 28.1057 36.434 27.0934 36.6337ZM30.1017 35.9208C30.3393 36.9568 30.6007 37.9786 30.8859 38.9861C31.3991 40.8538 32.0122 42.7072 32.6823 44.5607C32.9104 45.169 33.1385 45.782 33.3666 46.3998C34.2506 48.9091 35.2771 51.3471 36.1468 53.8563C36.5032 53.7138 36.7313 53.5997 36.9452 53.5142C35.9757 51.0477 35.106 48.5954 34.222 46.0862C34.0034 45.4684 33.7896 44.8506 33.5805 44.2327C32.9674 42.3936 32.3829 40.5401 31.8696 38.6724C31.6035 37.6649 31.3516 36.6527 31.114 35.6356C30.7813 35.7307 30.4439 35.8257 30.1017 35.9208ZM31.114 35.6356C31.3516 36.6527 31.6035 37.6649 31.8696 38.6724C32.3829 40.5401 32.9674 42.3936 33.5805 44.2327C33.7896 44.8506 34.0034 45.4684 34.222 46.0862C35.106 48.5954 35.9757 51.0477 36.9452 53.5142C37.2161 53.3716 37.4584 53.2575 37.9004 53.0722C36.8026 50.1637 35.9186 47.184 34.9777 44.2327C34.7686 43.5674 34.5595 42.9021 34.3504 42.2367C33.9417 40.8966 33.5615 39.5659 33.2098 38.2447C33.0767 37.7505 32.9484 37.2562 32.8248 36.762C32.6918 36.2677 32.5682 35.7687 32.4542 35.265C31.9979 35.3933 31.5702 35.5216 31.114 35.6356ZM32.4542 35.265C32.5682 35.7687 32.6918 36.2677 32.8248 36.762C32.9484 37.2562 33.0767 37.7505 33.2098 38.2447C33.5615 39.5659 33.9417 40.8966 34.3504 42.2367C34.5595 42.9021 34.7686 43.5674 34.9777 44.2327C35.9186 47.184 36.8026 50.1637 37.9004 53.0722C38.1855 52.9581 38.599 52.7871 39.0552 52.6017C38.0002 49.4936 36.9309 46.4711 35.8189 43.4058C35.6002 42.807 35.3864 42.2035 35.1773 41.5952C34.9777 40.9869 34.7828 40.3785 34.5927 39.7702C34.2933 38.7009 33.8941 37.6174 33.6375 36.4768C33.5139 35.9826 33.3951 35.4883 33.2811 34.9941C32.9959 35.0796 32.725 35.1937 32.4542 35.265ZM33.2811 34.9941C33.3951 35.4883 33.5139 35.9826 33.6375 36.4768C33.8941 37.6174 34.2933 38.7009 34.5927 39.7702C34.7828 40.3785 34.9777 40.9869 35.1773 41.5952C35.3864 42.2035 35.6002 42.807 35.8189 43.4058C36.9309 46.4711 38.0002 49.4936 39.0552 52.6017C39.6113 52.3736 40.2243 52.1027 40.7946 51.8603C39.6398 48.8236 38.4137 45.8723 37.102 42.9211C36.8454 42.3318 36.5982 41.7425 36.3606 41.1532C35.7048 39.4851 35.1202 37.817 34.6355 36.1061C34.4929 35.6119 34.3646 35.1129 34.2506 34.6091C33.9226 34.7374 33.609 34.8658 33.2811 34.9941ZM34.2506 34.6091C34.3646 35.1129 34.4929 35.6119 34.6355 36.1061C35.1202 37.817 35.7048 39.4851 36.3606 41.1532C36.5982 41.7425 36.8454 42.3318 37.102 42.9211C38.4137 45.8723 39.6398 48.8236 40.7946 51.8603C41.5217 51.5609 42.1918 51.2758 42.5768 51.1047C41.3649 48.1107 40.0532 45.2022 38.7273 42.2795C37.658 40.0554 36.7028 37.8455 35.9187 35.5644C35.7571 35.0891 35.605 34.5996 35.4624 34.0959C35.0632 34.2812 34.664 34.4523 34.2506 34.6091ZM35.4624 34.0959C35.605 34.5996 35.7571 35.0891 35.9187 35.5644C36.7028 37.8455 37.658 40.0554 38.7273 42.2795C40.0532 45.2022 41.3649 48.1107 42.5768 51.1047C42.8999 50.9621 43.2183 50.8196 43.532 50.677C42.3914 47.74 40.9657 45.0026 39.7111 42.1369C38.6418 39.87 37.6865 37.5604 36.8881 35.1509C36.7361 34.6662 36.5982 34.1719 36.4747 33.6682C36.1325 33.8107 35.7903 33.9533 35.4624 34.0959ZM36.4747 33.6682C36.5982 34.1719 36.7361 34.6662 36.8881 35.1509C37.6865 37.5604 38.6418 39.87 39.7111 42.1369C40.9657 45.0026 42.3914 47.74 43.532 50.677C43.8837 50.5249 44.2306 50.3728 44.5728 50.2208C43.5605 47.8256 42.477 45.4731 41.4647 43.1207C40.2671 40.2835 38.8414 37.5461 37.9859 34.6234C37.8339 34.1386 37.696 33.6491 37.5725 33.1549C37.2018 33.326 36.8454 33.5256 36.4747 33.6682ZM37.5725 33.1549C37.696 33.6491 37.8339 34.1386 37.9859 34.6234C38.8414 37.5461 40.2671 40.2835 41.4647 43.1207C42.477 45.4731 43.5605 47.8256 44.5728 50.2208C44.7534 50.1447 44.934 50.0687 45.1145 49.9926C44.0595 47.626 43.0615 45.2307 42.0065 42.8783C40.8231 40.0554 39.5257 37.2895 38.5847 34.3382C38.4327 33.8535 38.2901 33.364 38.157 32.8698C37.9717 32.9696 37.7721 33.0694 37.5725 33.1549ZM38.157 32.8698C38.2901 33.364 38.4327 33.8535 38.5847 34.3382C39.5257 37.2895 40.8231 40.0554 42.0065 42.8783C43.0615 45.2307 44.0595 47.626 45.1145 49.9926C45.3332 49.8976 45.547 49.8026 45.7561 49.7075C44.7724 47.3123 43.7744 44.9171 42.6908 42.5504C41.4219 39.7417 40.2386 36.8903 39.2833 33.9676C39.1313 33.4923 38.9887 33.0123 38.8556 32.5276C38.6275 32.6416 38.3994 32.7557 38.157 32.8698ZM38.8556 32.5276C38.9887 33.0123 39.1313 33.4923 39.2833 33.9676C40.2386 36.8903 41.4219 39.7417 42.6908 42.5504C43.7744 44.9171 44.7724 47.3123 45.7561 49.7075C46.0888 49.5554 46.4215 49.4081 46.7541 49.2655C45.9842 47.4834 45.2286 45.687 44.4587 43.8906C42.9617 40.4688 41.3934 37.0756 40.3384 33.4543C40.1863 32.96 40.0485 32.4705 39.9249 31.9858C39.5637 32.1664 39.2073 32.347 38.8556 32.5276ZM39.9249 31.9858C40.0485 32.4705 40.1863 32.96 40.3384 33.4543C41.3934 37.0756 42.9617 40.4688 44.4587 43.8906C45.2286 45.687 45.9842 47.4834 46.7541 49.2655C47.1058 49.1135 47.4575 48.9566 47.8092 48.795C47.0535 46.9986 46.2836 45.2022 45.5137 43.4201C44.031 39.9841 42.5768 36.4768 41.4932 32.8698C41.3411 32.3755 41.1986 31.8813 41.0655 31.387C40.6758 31.5866 40.2956 31.7862 39.9249 31.9858ZM41.0655 31.387C41.1986 31.8813 41.3411 32.3755 41.4932 32.8698C42.5768 36.4768 44.031 39.9841 45.5137 43.4201C46.2836 45.2022 47.0535 46.9986 47.8092 48.795C48.0278 48.7 48.2464 48.6049 48.465 48.5099C47.581 46.7278 46.9109 44.8886 46.1125 43.0922C44.6583 39.6134 43.3467 36.0919 42.1918 32.4706C42.0397 31.9858 41.8972 31.5011 41.7641 31.0163C41.5265 31.1399 41.2936 31.2634 41.0655 31.387ZM41.7641 31.0163C41.8972 31.5011 42.0397 31.9858 42.1918 32.4706C43.3467 36.0919 44.6583 39.6134 46.1125 43.0922C46.9109 44.8886 47.581 46.7278 48.465 48.5099C48.8167 48.3578 49.1731 48.201 49.5343 48.0394C48.9782 46.8846 48.5078 45.6299 47.966 44.4466C47.7189 43.8383 47.4765 43.23 47.2389 42.6217C45.8987 39.0431 44.473 35.5073 43.3467 31.9003C43.2041 31.406 43.0615 30.907 42.9189 30.4033C42.5197 30.6029 42.1348 30.8025 41.7641 31.0163ZM42.9189 30.4033C43.0615 30.907 43.2041 31.406 43.3467 31.9003C44.473 35.5073 45.8987 39.0431 47.2389 42.6217C47.4765 43.23 47.7189 43.8383 47.966 44.4466C48.5078 45.6299 48.9782 46.8846 49.5343 48.0394C49.7054 47.9634 49.8812 47.8873 50.0618 47.8113C49.5913 46.5852 49.0068 45.4303 48.5648 44.19C48.3177 43.5817 48.0705 42.9734 47.8234 42.365C46.4405 38.815 45.0005 35.2507 43.9169 31.6009C43.7744 31.1066 43.6318 30.6076 43.4892 30.1039C43.3039 30.2037 43.1043 30.3035 42.9189 30.4033ZM34.2363 54.5835C34.4644 55.1347 34.6878 55.6813 34.9064 56.223C36.1468 59.545 37.5155 62.7814 38.9982 65.975C39.2073 66.4217 39.4164 66.8637 39.6255 67.3009C39.8441 67.7381 40.0675 68.1753 40.2956 68.6126C41.1653 70.3519 42.0778 72.0628 43.0615 73.7166C43.8029 73.1463 44.6298 72.6758 45.3712 72.1626C43.9455 70.7084 42.8904 68.912 41.8354 67.1441C41.4742 66.5358 41.132 65.9179 40.8089 65.2906C39.1693 62.1683 37.9574 58.8179 36.7741 55.4532C36.565 54.9209 36.3559 54.3886 36.1468 53.8563C35.106 54.2698 35.3056 54.1843 34.2363 54.5835ZM36.1468 53.8563C36.3559 54.3886 36.565 54.9209 36.7741 55.4532C37.9574 58.8179 39.1693 62.1683 40.8089 65.2906C41.132 65.9179 41.4742 66.5358 41.8354 67.1441C42.8904 68.912 43.9455 70.7084 45.3712 72.1626C45.6278 72.001 45.8844 71.8394 46.1411 71.6779C44.9149 70.0098 43.8599 68.2133 42.8762 66.3884C42.515 65.7896 42.1681 65.1861 41.8354 64.5778C40.1816 61.5267 38.9269 58.2903 37.5867 55.0967C37.3681 54.574 37.1543 54.0464 36.9452 53.5142C36.7313 53.5997 36.5032 53.7138 36.1468 53.8563ZM36.9452 53.5142C37.1543 54.0464 37.3681 54.574 37.5867 55.0967C38.9269 58.2903 40.1816 61.5267 41.8354 64.5778C42.1681 65.1861 42.515 65.7896 42.8762 66.3884C43.8599 68.2133 44.9149 70.0098 46.1411 71.6779C46.4927 71.4592 46.8444 71.2454 47.1961 71.0363C46.949 70.561 46.7066 70.0858 46.469 69.6106C46.2314 69.1448 45.9937 68.6743 45.7561 68.1991C45.2999 67.2581 44.8294 66.3171 44.3447 65.3762C44.0025 64.7916 43.6746 64.1928 43.3324 63.6083C41.65 60.6713 40.0532 57.6915 38.5705 54.6405C38.3424 54.1272 38.119 53.6045 37.9004 53.0722C37.4584 53.2575 37.2161 53.3716 36.9452 53.5142ZM37.9004 53.0722C38.119 53.6045 38.3424 54.1272 38.5705 54.6405C40.0532 57.6915 41.65 60.6713 43.3324 63.6083C43.6746 64.1928 44.0025 64.7916 44.3447 65.3762C44.8294 66.3171 45.2999 67.2581 45.7561 68.1991C45.9937 68.6743 46.2314 69.1448 46.469 69.6106C46.7066 70.0858 46.949 70.561 47.1961 71.0363C47.4147 70.9032 47.6381 70.7749 47.8662 70.6513C47.5668 70.0668 47.2816 69.4822 47.0108 68.8977C46.7351 68.3084 46.4595 67.7239 46.1838 67.1441C45.6421 65.9607 45.086 64.7916 44.473 63.6653C44.1878 63.152 43.9074 62.634 43.6318 62.1113C42.2346 59.5022 40.8944 56.8646 39.7111 54.1557C39.4925 53.633 39.2738 53.115 39.0552 52.6017C38.599 52.7871 38.1855 52.9581 37.9004 53.0722ZM39.0552 52.6017C39.2738 53.115 39.4925 53.633 39.7111 54.1557C40.8944 56.8646 42.2346 59.5022 43.6318 62.1113C43.9074 62.634 44.1878 63.152 44.473 63.6653C45.086 64.7916 45.6421 65.9607 46.1838 67.1441C46.4595 67.7239 46.7351 68.3084 47.0108 68.8977C47.2816 69.4822 47.5668 70.0668 47.8662 70.6513C48.1323 70.5088 48.4032 70.3662 48.6788 70.2236C47.9945 68.8549 47.4242 67.4292 46.8254 66.032C46.6258 65.5663 46.431 65.0958 46.2409 64.6205C45.8559 63.6796 45.4567 62.7386 45.0433 61.8119C44.7296 61.118 44.4207 60.4242 44.1165 59.7303C43.2041 57.6345 42.3201 55.5244 41.4219 53.4286C41.2128 52.9059 41.0037 52.3831 40.7946 51.8603C40.2243 52.1027 39.6113 52.3736 39.0552 52.6017ZM40.7946 51.8603C41.0037 52.3831 41.2128 52.9059 41.4219 53.4286C42.3201 55.5244 43.2041 57.6345 44.1165 59.7303C44.4207 60.4242 44.7296 61.118 45.0433 61.8119C45.4567 62.7386 45.8559 63.6796 46.2409 64.6205C46.431 65.0958 46.6258 65.5663 46.8254 66.032C47.4242 67.4292 47.9945 68.8549 48.6788 70.2236C49.021 70.043 49.3727 69.8672 49.7339 69.6961C48.8642 67.8569 48.3367 65.8894 47.5525 63.9932C47.3719 63.518 47.1913 63.0427 47.0108 62.5675C46.8302 62.1018 46.6401 61.6313 46.4405 61.156C46.1648 60.4527 45.8892 59.7493 45.6135 59.046C44.8009 56.9216 44.0025 54.7831 43.1898 52.673C42.9902 52.1502 42.7859 51.6275 42.5768 51.1047C42.1918 51.2758 41.5217 51.5609 40.7946 51.8603ZM42.5768 51.1047C42.7859 51.6275 42.9902 52.1502 43.1898 52.673C44.0025 54.7831 44.8009 56.9216 45.6135 59.046C45.8892 59.7493 46.1648 60.4527 46.4405 61.156C46.6401 61.6313 46.8302 62.1018 47.0108 62.5675C47.1913 63.0427 47.3719 63.518 47.5525 63.9932C48.3367 65.8894 48.8642 67.8569 49.7339 69.6961C50.038 69.5535 50.3469 69.411 50.6606 69.2684C49.8052 67.529 49.3062 65.6043 48.6076 63.7936C48.3937 63.1948 48.1656 62.596 47.9232 61.9972C47.6666 61.3509 47.41 60.6998 47.1533 60.044C46.1553 57.4207 45.2143 54.7973 44.1593 52.2453C43.9502 51.7225 43.7411 51.1998 43.532 50.677C43.2183 50.8196 42.8999 50.9621 42.5768 51.1047ZM43.532 50.677C43.7411 51.1998 43.9502 51.7225 44.1593 52.2453C45.2143 54.7973 46.1553 57.4207 47.1533 60.044C47.41 60.6998 47.6666 61.3509 47.9232 61.9972C48.1656 62.596 48.3937 63.1948 48.6076 63.7936C49.3062 65.6043 49.8052 67.529 50.6606 69.2684C50.9933 69.1068 51.3402 68.95 51.7014 68.7979C50.7034 66.973 50.1901 64.9484 49.4772 62.9952C49.2634 62.3394 49.021 61.6978 48.7786 61.0562C48.541 60.4384 48.3034 59.8206 48.0658 59.2028C47.1248 56.7363 46.1981 54.2556 45.2001 51.7891C44.991 51.2663 44.7819 50.7435 44.5728 50.2208C44.2306 50.3728 43.8837 50.5249 43.532 50.677ZM44.5728 50.2208C44.7819 50.7435 44.991 51.2663 45.2001 51.7891C46.1981 54.2556 47.1248 56.7363 48.0658 59.2028C48.3034 59.8206 48.541 60.4384 48.7786 61.0562C49.021 61.6978 49.2634 62.3394 49.4772 62.9952C50.1901 64.9484 50.7034 66.973 51.7014 68.7979C51.8915 68.7124 52.0816 68.6268 52.2717 68.5413C51.4305 66.6023 50.9172 64.5778 50.1473 62.6103C49.8907 61.9972 49.6341 61.3842 49.3774 60.7711C48.1086 57.7058 46.9822 54.612 45.7419 51.5467C45.5328 51.0239 45.3236 50.5059 45.1145 49.9926C44.934 50.0687 44.7534 50.1447 44.5728 50.2208ZM45.1145 49.9926C45.3236 50.5059 45.5328 51.0239 45.7419 51.5467C46.9822 54.612 48.1086 57.7058 49.3774 60.7711C49.6341 61.3842 49.8907 61.9972 50.1473 62.6103C50.9172 64.5778 51.4305 66.6023 52.2717 68.5413C52.5093 68.4462 52.7421 68.3464 52.9703 68.2419C51.9295 65.8752 51.2024 63.4087 50.2471 61.0277C49.981 60.3814 49.7196 59.7303 49.463 59.0745C48.4365 56.4654 47.467 53.8421 46.3977 51.2615C46.1886 50.7388 45.9747 50.2208 45.7561 49.7075C45.547 49.8026 45.3332 49.8976 45.1145 49.9926ZM45.7561 49.7075C45.9747 50.2208 46.1886 50.7388 46.3977 51.2615C47.467 53.8421 48.4365 56.4654 49.463 59.0745C49.7196 59.7303 49.981 60.3814 50.2471 61.0277C51.2024 63.4087 51.9295 65.8752 52.9703 68.2419C53.3409 68.0898 53.7116 67.933 54.0823 67.7714C53.0701 65.5187 52.3715 63.1235 51.4162 60.8281C51.1786 60.2768 50.9457 59.7208 50.7176 59.16C49.577 56.3799 48.5078 53.5997 47.3957 50.8196C47.1866 50.3063 46.9727 49.7883 46.7541 49.2655C46.4215 49.4081 46.0888 49.5554 45.7561 49.7075ZM46.7541 49.2655C46.9727 49.7883 47.1866 50.3063 47.3957 50.8196C48.5078 53.5997 49.577 56.3799 50.7176 59.16C50.9457 59.7208 51.1786 60.2768 51.4162 60.8281C52.3715 63.1235 53.0701 65.5187 54.0823 67.7714C54.4815 67.6098 54.8855 67.4435 55.2942 67.2724C54.3675 64.9627 53.512 62.653 52.5425 60.3719C52.3049 59.8111 52.0721 59.2551 51.8439 58.7038C50.6891 55.9236 49.6626 53.115 48.465 50.3491C48.2464 49.8358 48.0278 49.3178 47.8092 48.795C47.4575 48.9566 47.1058 49.1135 46.7541 49.2655ZM47.8092 48.795C48.0278 49.3178 48.2464 49.8358 48.465 50.3491C49.6626 53.115 50.6891 55.9236 51.8439 58.7038C52.0721 59.2551 52.3049 59.8111 52.5425 60.3719C53.512 62.653 54.3675 64.9627 55.2942 67.2724C55.5508 67.1678 55.8074 67.0633 56.0641 66.9587C54.9092 64.7346 54.2249 62.3394 53.1984 60.101C52.9608 59.5497 52.7231 58.9984 52.4855 58.4472C51.3164 55.6813 50.2614 52.8583 49.1066 50.0639C48.8975 49.5507 48.6836 49.0327 48.465 48.5099C48.2464 48.6049 48.0278 48.7 47.8092 48.795ZM48.465 48.5099C48.6836 49.0327 48.8975 49.5507 49.1066 50.0639C50.2614 52.8583 51.3164 55.6813 52.4855 58.4472C52.7231 58.9984 52.9608 59.5497 53.1984 60.101C54.2249 62.3394 54.9092 64.7346 56.0641 66.9587C56.4823 66.7876 56.9005 66.6165 57.3187 66.4455C56.2637 63.8934 55.2086 61.2701 54.0538 58.7466C53.6641 57.9101 53.2887 57.069 52.9275 56.223C51.958 54.0132 51.1026 51.8176 50.1901 49.6077C49.9715 49.0849 49.7529 48.5622 49.5343 48.0394C49.1731 48.201 48.8167 48.3578 48.465 48.5099ZM49.5343 48.0394C49.7529 48.5622 49.9715 49.0849 50.1901 49.6077C51.1026 51.8176 51.958 54.0132 52.9275 56.223C53.2887 57.069 53.6641 57.9101 54.0538 58.7466C55.2086 61.2701 56.2637 63.8934 57.3187 66.4455C57.5278 66.3599 57.7369 66.2744 57.946 66.1888C56.7769 63.6938 55.7504 61.0562 54.5956 58.5327C54.2249 57.6868 53.859 56.8409 53.4978 55.9949C52.5425 53.7708 51.6586 51.5895 50.7176 49.3796C50.499 48.8568 50.2804 48.3341 50.0618 47.8113C49.8812 47.8873 49.7054 47.9634 49.5343 48.0394Z" fill="url(#paint1_linear_630_81785)" fill-opacity="0.5"/>
</g>
</g>
<path d="M49.0638 55.8239L37.7864 28.9206L39.3262 28.2648L51.0598 56.2944L49.0638 55.8239Z" fill="url(#paint2_linear_630_81785)"/>
<path d="M38.827 61.427L27.0791 33.3974L28.6189 32.7558L39.8963 59.6591L38.827 61.427Z" fill="url(#paint3_linear_630_81785)"/>
<path d="M24.1423 63.0382L18.9241 54.3983L9.08667 56.7365L21.2623 27.6803L36.3179 33.9963L24.1423 63.0382Z" fill="#F11616"/>
<path style="mix-blend-mode:soft-light" d="M24.1423 63.0382L18.9241 54.3983L9.08667 56.7365L21.2623 27.6803L36.3179 33.9963L24.1423 63.0382Z" fill="url(#paint4_linear_630_81785)"/>
<mask id="mask1_630_81785" style="mask-type:luminance" maskUnits="userSpaceOnUse" x="9" y="27" width="28" height="37">
<path d="M24.1466 63.0452L18.917 54.4025L9.08813 56.7336L21.2638 27.6803L36.3222 33.9905L24.1466 63.0452Z" fill="white"/>
</mask>
<g mask="url(#mask1_630_81785)">
<g style="mix-blend-mode:multiply" opacity="0.4">
<path d="M35.22 35.3363C35.1155 35.7735 35.0109 36.206 34.9064 36.6337C33.8941 36.4341 32.8961 36.2488 31.8981 35.9209C32.0264 35.5216 32.0264 35.0654 32.2831 34.6947C33.2668 34.9228 34.1935 35.265 35.22 35.3363ZM32.2831 34.6947C32.0264 35.0654 32.0264 35.5216 31.8981 35.9209C31.5559 35.8258 31.2138 35.7308 30.8716 35.6357C30.9429 35.1937 31.0712 34.7945 31.2993 34.4524C31.6225 34.5379 31.9504 34.6187 32.2831 34.6947ZM31.2993 34.4524C31.0712 34.7945 30.9429 35.1937 30.8716 35.6357C30.4296 35.5216 29.9877 35.3933 29.5457 35.265C29.7025 34.8658 29.6597 34.2955 30.0019 34.0959C30.4296 34.2195 30.8621 34.3383 31.2993 34.4524ZM30.0019 34.0959C29.6597 34.2955 29.7025 34.8658 29.5457 35.265C29.2748 35.1937 28.9896 35.0797 28.7188 34.9941C28.9041 34.6377 28.7758 33.9391 29.2035 33.8393C29.4696 33.9248 29.7358 34.0104 30.0019 34.0959ZM29.2035 33.8393C28.7758 33.9391 28.9041 34.6377 28.7188 34.9941C28.3908 34.8658 28.0629 34.7375 27.735 34.6092C27.8491 34.1815 27.8633 33.4829 28.2625 33.5114C28.5762 33.6254 28.8898 33.7347 29.2035 33.8393ZM28.2625 33.5114C27.8633 33.4829 27.8491 34.1815 27.735 34.6092C27.3358 34.4524 26.9366 34.2813 26.5374 34.0959C26.6087 33.6397 26.7085 32.9696 27.0792 33.0694C27.4784 33.2215 27.8728 33.3688 28.2625 33.5114ZM27.0792 33.0694C26.7085 32.9696 26.6087 33.6397 26.5374 34.0959C26.1952 33.9534 25.8673 33.8108 25.5251 33.6682C25.6392 33.1407 25.6392 32.4991 26.0954 32.6702C26.4281 32.8033 26.756 32.9363 27.0792 33.0694ZM26.0954 32.6702C25.6392 32.4991 25.6392 33.1407 25.5251 33.6682C25.1545 33.5256 24.7838 33.326 24.4131 33.155C24.5271 32.7985 24.4273 31.9716 25.0261 32.214C25.3873 32.3661 25.7438 32.5181 26.0954 32.6702ZM25.0261 32.214C24.4273 31.9716 24.5271 32.7985 24.4131 33.155C24.2277 33.0694 24.0281 32.9696 23.8285 32.8698C23.9711 32.4706 23.8856 31.7578 24.4559 31.9574C24.646 32.0429 24.8361 32.1284 25.0261 32.214ZM24.4559 31.9574C23.8856 31.7578 23.9711 32.4706 23.8285 32.8698C23.6004 32.7558 23.3723 32.6417 23.1442 32.5276C23.2868 32.1284 23.187 31.4013 23.7715 31.6579C23.9996 31.7625 24.2277 31.8623 24.4559 31.9574ZM23.7715 31.6579C23.187 31.4013 23.2868 32.1284 23.1442 32.5276C22.783 32.347 22.4266 32.1665 22.0749 31.9859C22.1509 31.6817 22.227 31.3728 22.303 31.0591C22.4741 31.1304 22.5597 31.1304 22.745 31.1875C23.0872 31.349 23.4293 31.5059 23.7715 31.6579ZM22.745 31.1875C22.5597 31.1304 22.4741 31.1304 22.303 31.0591C22.227 31.3728 22.1509 31.6817 22.0749 31.9859C21.6947 31.7863 21.3145 31.5867 20.9343 31.3871C21.0104 31.0924 21.0864 30.7978 21.1624 30.5031C21.3478 30.5744 21.4333 30.5887 21.6187 30.6742C21.9989 30.8453 22.3743 31.0164 22.745 31.1875ZM21.6187 30.6742C21.4333 30.5887 21.3478 30.5744 21.1624 30.5031C21.0864 30.7978 21.0104 31.0924 20.9343 31.3871C20.7062 31.2635 20.4733 31.1399 20.2357 31.0164C20.3118 30.7217 20.3878 30.4318 20.4638 30.1467C20.6492 30.2322 20.7347 30.2607 20.9343 30.3463C21.1624 30.4508 21.3906 30.5601 21.6187 30.6742ZM20.9343 30.3463C20.7347 30.2607 20.6492 30.2322 20.4638 30.1467C20.3878 30.4318 20.3118 30.7217 20.2357 31.0164C19.8508 30.8025 19.4658 30.6029 19.0809 30.4033C19.1569 30.1277 19.2282 29.852 19.2948 29.5764C19.4944 29.6762 19.5942 29.7047 19.7938 29.8045C20.1739 29.9851 20.5541 30.1657 20.9343 30.3463ZM19.7938 29.8045C19.5942 29.7047 19.4944 29.6762 19.2948 29.5764C19.2282 29.852 19.1569 30.1277 19.0809 30.4033C18.8956 30.3035 18.696 30.2037 18.5106 30.1039C18.5866 29.8378 18.6579 29.5716 18.7245 29.3055C18.9241 29.3911 19.0239 29.4338 19.2235 29.5336C19.4136 29.6192 19.6037 29.7095 19.7938 29.8045ZM34.9064 36.6337C34.6307 37.6982 34.3313 38.7438 34.0082 39.7703C33.1385 42.3223 32.0692 44.7746 30.9714 47.1983C30.6958 47.8066 30.4201 48.4149 30.1445 49.0232C29.3461 50.8624 28.5192 52.7301 27.7493 54.5835C26.68 54.1843 26.8938 54.2699 25.8531 53.8564C26.7228 51.3471 27.7493 48.9092 28.619 46.3999C28.8566 45.7821 29.0847 45.169 29.3033 44.5607C29.9734 42.7073 30.6007 40.8538 31.114 38.9861C31.3991 37.9786 31.6605 36.9569 31.8981 35.9209C32.8961 36.2488 33.8941 36.4341 34.9064 36.6337ZM31.8981 35.9209C31.6605 36.9569 31.3991 37.9786 31.114 38.9861C30.6007 40.8538 29.9734 42.7073 29.3033 44.5607C29.0847 45.169 28.8566 45.7821 28.619 46.3999C27.7493 48.9092 26.7228 51.3471 25.8531 53.8564C25.4824 53.7138 25.2685 53.5998 25.0547 53.5142C26.0099 51.0477 26.8938 48.5955 27.7778 46.0862C27.9964 45.4684 28.2055 44.8506 28.4051 44.2328C29.0324 42.3936 29.6027 40.5402 30.116 38.6725C30.3916 37.665 30.6435 36.6527 30.8716 35.6357C31.2138 35.7308 31.5559 35.8258 31.8981 35.9209ZM30.8716 35.6357C30.6435 36.6527 30.3916 37.665 30.116 38.6725C29.6027 40.5402 29.0324 42.3936 28.4051 44.2328C28.2055 44.8506 27.9964 45.4684 27.7778 46.0862C26.8938 48.5955 26.0099 51.0477 25.0547 53.5142C24.7838 53.3717 24.5414 53.2576 24.0852 53.0723C25.183 50.1638 26.0669 47.184 27.0079 44.2328C27.2265 43.5675 27.4356 42.9021 27.6352 42.2368C28.0439 40.8966 28.4289 39.5659 28.79 38.2448C28.9231 37.7505 29.0514 37.2563 29.175 36.762C29.2986 36.2678 29.4221 35.7688 29.5457 35.265C29.9877 35.3933 30.4296 35.5216 30.8716 35.6357ZM29.5457 35.265C29.4221 35.7688 29.2986 36.2678 29.175 36.762C29.0514 37.2563 28.9231 37.7505 28.79 38.2448C28.4289 39.5659 28.0439 40.8966 27.6352 42.2368C27.4356 42.9021 27.2265 43.5675 27.0079 44.2328C26.0669 47.184 25.183 50.1638 24.0852 53.0723C23.8143 52.9582 23.4008 52.7871 22.9303 52.6018C23.9996 49.4937 25.0547 46.4712 26.181 43.4059C26.3996 42.8071 26.6087 42.2035 26.8083 41.5952C27.0174 40.9869 27.217 40.3786 27.4071 39.7703C27.7065 38.701 28.0914 37.6175 28.3481 36.4769C28.4811 35.9826 28.6047 35.4884 28.7188 34.9941C28.9896 35.0797 29.2748 35.1937 29.5457 35.265ZM28.7188 34.9941C28.6047 35.4884 28.4811 35.9826 28.3481 36.4769C28.0914 37.6175 27.7065 38.701 27.4071 39.7703C27.217 40.3786 27.0174 40.9869 26.8083 41.5952C26.6087 42.2035 26.3996 42.8071 26.181 43.4059C25.0547 46.4712 23.9996 49.4937 22.9303 52.6018C22.3886 52.3737 21.7755 52.1028 21.191 51.8604C22.3601 48.8236 23.5862 45.8724 24.8978 42.9211C25.1545 42.3318 25.4016 41.7425 25.6392 41.1532C26.295 39.4852 26.8796 37.8171 27.3643 36.1062C27.4974 35.6119 27.621 35.1129 27.735 34.6092C28.0629 34.7375 28.3908 34.8658 28.7188 34.9941ZM27.735 34.6092C27.621 35.1129 27.4974 35.6119 27.3643 36.1062C26.8796 37.8171 26.295 39.4852 25.6392 41.1532C25.4016 41.7425 25.1545 42.3318 24.8978 42.9211C23.5862 45.8724 22.3601 48.8236 21.191 51.8604C20.4781 51.561 19.808 51.2759 19.4231 51.1048C20.6349 48.1108 21.9466 45.2023 23.2725 42.2796C24.3275 40.0554 25.2828 37.8456 26.0812 35.5644C26.2428 35.0892 26.3948 34.5997 26.5374 34.0959C26.9366 34.2813 27.3358 34.4524 27.735 34.6092ZM26.5374 34.0959C26.3948 34.5997 26.2428 35.0892 26.0812 35.5644C25.2828 37.8456 24.3275 40.0554 23.2725 42.2796C21.9466 45.2023 20.6349 48.1108 19.4231 51.1048C19.0999 50.9622 18.7767 50.8196 18.4536 50.6771C19.5942 47.7401 21.0199 45.0027 22.2745 42.137C23.3581 39.8701 24.3133 37.5604 25.0974 35.151C25.2495 34.6662 25.3921 34.172 25.5251 33.6682C25.8673 33.8108 26.1952 33.9534 26.5374 34.0959ZM25.5251 33.6682C25.3921 34.172 25.2495 34.6662 25.0974 35.151C24.3133 37.5604 23.3581 39.8701 22.2745 42.137C21.0199 45.0027 19.5942 47.7401 18.4536 50.6771C18.1114 50.525 17.7692 50.3729 17.4271 50.2208C18.4393 47.8256 19.5229 45.4732 20.5351 43.1207C21.7185 40.2836 23.1585 37.5462 24.0139 34.6234C24.166 34.1387 24.299 33.6492 24.4131 33.155C24.7838 33.326 25.1545 33.5256 25.5251 33.6682ZM24.4131 33.155C24.299 33.6492 24.166 34.1387 24.0139 34.6234C23.1585 37.5462 21.7185 40.2836 20.5351 43.1207C19.5229 45.4732 18.4393 47.8256 17.4271 50.2208C17.2465 50.1448 17.0659 50.0687 16.8853 49.9927C17.9261 47.626 18.9241 45.2308 19.9934 42.8784C21.1767 40.0554 22.4599 37.2895 23.4008 34.3383C23.5529 33.8536 23.6955 33.3641 23.8285 32.8698C24.0281 32.9696 24.2277 33.0694 24.4131 33.155ZM23.8285 32.8698C23.6955 33.3641 23.5529 33.8536 23.4008 34.3383C22.4599 37.2895 21.1767 40.0554 19.9934 42.8784C18.9241 45.2308 17.9261 47.626 16.8853 49.9927C16.6667 49.8977 16.4481 49.8026 16.2295 49.7076C17.2132 47.3124 18.2255 44.9171 19.2948 42.5504C20.5636 39.7418 21.7612 36.8903 22.7022 33.9676C22.8638 33.4924 23.0111 33.0124 23.1442 32.5276C23.3723 32.6417 23.6004 32.7558 23.8285 32.8698ZM23.1442 32.5276C23.0111 33.0124 22.8638 33.4924 22.7022 33.9676C21.7612 36.8903 20.5636 39.7418 19.2948 42.5504C18.2255 44.9171 17.2132 47.3124 16.2295 49.7076C15.8968 49.5555 15.5689 49.4082 15.2457 49.2656C16.0156 47.4834 16.7712 45.687 17.5411 43.8906C19.0381 40.4689 20.5922 37.0757 21.6614 33.4544C21.804 32.9601 21.9418 32.4706 22.0749 31.9859C22.4266 32.1665 22.783 32.347 23.1442 32.5276ZM22.0749 31.9859C21.9418 32.4706 21.804 32.9601 21.6614 33.4544C20.5922 37.0757 19.0381 40.4689 17.5411 43.8906C16.7712 45.687 16.0156 47.4834 15.2457 49.2656C14.894 49.1135 14.5424 48.9567 14.1907 48.7951C14.9463 46.9987 15.7162 45.2023 16.4861 43.4201C17.9688 39.9842 19.4231 36.4769 20.5066 32.8698C20.6587 32.3756 20.8013 31.8813 20.9343 31.3871C21.3145 31.5867 21.6947 31.7863 22.0749 31.9859ZM20.9343 31.3871C20.8013 31.8813 20.6587 32.3756 20.5066 32.8698C19.4231 36.4769 17.9688 39.9842 16.4861 43.4201C15.7162 45.2023 14.9463 46.9987 14.1907 48.7951C13.9721 48.7001 13.7535 48.605 13.5348 48.51C14.4188 46.7278 15.0889 44.8886 15.8873 43.0922C17.3415 39.6135 18.6532 36.0919 19.808 32.4706C19.9601 31.9859 20.1027 31.5011 20.2357 31.0164C20.4733 31.1399 20.7062 31.2635 20.9343 31.3871ZM20.2357 31.0164C20.1027 31.5011 19.9601 31.9859 19.808 32.4706C18.6532 36.0919 17.3415 39.6135 15.8873 43.0922C15.0889 44.8886 14.4188 46.7278 13.5348 48.51C13.1832 48.3579 12.8267 48.2011 12.4656 48.0395C13.0073 46.8846 13.4921 45.63 14.0338 44.4467C14.281 43.8384 14.5233 43.23 14.761 42.6217C16.1011 39.0432 17.5126 35.5074 18.6389 31.9003C18.791 31.4061 18.9383 30.9071 19.0809 30.4033C19.4658 30.6029 19.8508 30.8025 20.2357 31.0164ZM19.0809 30.4033C18.9383 30.9071 18.791 31.4061 18.6389 31.9003C17.5126 35.5074 16.1011 39.0432 14.761 42.6217C14.5233 43.23 14.281 43.8384 14.0338 44.4467C13.4921 45.63 13.0073 46.8846 12.4656 48.0395C12.285 47.9634 12.1091 47.8874 11.938 47.8114C12.4085 46.5852 12.9788 45.4304 13.4208 44.19C13.6679 43.5817 13.915 42.9734 14.1622 42.3651C15.5594 38.8151 16.9851 35.2508 18.0686 31.6009C18.2207 31.1067 18.368 30.6077 18.5106 30.1039C18.696 30.2037 18.8956 30.3035 19.0809 30.4033ZM27.7493 54.5835C27.5307 55.1348 27.312 55.6813 27.0934 56.2231C25.8531 59.545 24.4701 62.7814 23.0016 65.975C22.7925 66.4218 22.5787 66.8637 22.3601 67.3009C22.1509 67.7382 21.9323 68.1754 21.7042 68.6126C20.8203 70.352 19.9078 72.0629 18.9241 73.7167C18.1969 73.1464 17.3558 72.6759 16.6287 72.1627C18.0544 70.7084 19.1094 68.912 20.1644 67.1441C20.5256 66.5358 20.8678 65.918 21.191 65.2907C22.8163 62.1684 24.0281 58.8179 25.2257 55.4532C25.4253 54.9209 25.6345 54.3887 25.8531 53.8564C26.8938 54.2699 26.68 54.1843 27.7493 54.5835ZM25.8531 53.8564C25.6345 54.3887 25.4253 54.9209 25.2257 55.4532C24.0281 58.8179 22.8163 62.1684 21.191 65.2907C20.8678 65.918 20.5256 66.5358 20.1644 67.1441C19.1094 68.912 18.0544 70.7084 16.6287 72.1627C16.372 72.0011 16.1106 71.8395 15.8445 71.6779C17.0849 70.0098 18.1399 68.2134 19.1237 66.3885C19.4848 65.7897 19.827 65.1861 20.1502 64.5778C21.804 61.5268 23.0729 58.2904 24.4131 55.0968C24.6317 54.574 24.8456 54.0465 25.0547 53.5142C25.2685 53.5998 25.4824 53.7138 25.8531 53.8564ZM25.0547 53.5142C24.8456 54.0465 24.6317 54.574 24.4131 55.0968C23.0729 58.2904 21.804 61.5268 20.1502 64.5778C19.827 65.1861 19.4848 65.7897 19.1237 66.3885C18.1399 68.2134 17.0849 70.0098 15.8445 71.6779C15.5023 71.4593 15.1554 71.2454 14.8037 71.0363C15.0509 70.5611 15.2932 70.0859 15.5309 69.6106C15.7685 69.1449 16.0013 68.6744 16.2295 68.1992C16.6999 67.2582 17.1704 66.3172 17.6552 65.3762C17.9831 64.7917 18.3253 64.1929 18.6674 63.6083C20.3498 60.6713 21.9466 57.6916 23.4151 54.6406C23.6527 54.1273 23.8761 53.6045 24.0852 53.0723C24.5414 53.2576 24.7838 53.3717 25.0547 53.5142ZM24.0852 53.0723C23.8761 53.6045 23.6527 54.1273 23.4151 54.6406C21.9466 57.6916 20.3498 60.6713 18.6674 63.6083C18.3253 64.1929 17.9831 64.7917 17.6552 65.3762C17.1704 66.3172 16.6999 67.2582 16.2295 68.1992C16.0013 68.6744 15.7685 69.1449 15.5309 69.6106C15.2932 70.0859 15.0509 70.5611 14.8037 71.0363C14.5756 70.9033 14.3475 70.775 14.1194 70.6514C14.4188 70.0668 14.7039 69.4823 14.9891 68.8978C15.2647 68.3085 15.5404 67.7239 15.816 67.1441C16.3578 65.9608 16.8995 64.7917 17.5126 63.6654C17.7977 63.1521 18.0829 62.6341 18.368 62.1113C19.751 59.5023 21.1054 56.8647 22.2888 54.1558C22.5074 53.633 22.7212 53.115 22.9303 52.6018C23.4008 52.7871 23.8143 52.9582 24.0852 53.0723ZM22.9303 52.6018C22.7212 53.115 22.5074 53.633 22.2888 54.1558C21.1054 56.8647 19.751 59.5023 18.368 62.1113C18.0829 62.6341 17.7977 63.1521 17.5126 63.6654C16.8995 64.7917 16.3578 65.9608 15.816 67.1441C15.5404 67.7239 15.2647 68.3085 14.9891 68.8978C14.7039 69.4823 14.4188 70.0668 14.1194 70.6514C13.8533 70.5088 13.5871 70.3662 13.321 70.2237C14.0053 68.855 14.5614 67.4293 15.1744 66.0321C15.3645 65.5663 15.5594 65.0958 15.759 64.6206C16.1439 63.6796 16.5289 62.7386 16.9566 61.8119C17.2702 61.1181 17.5791 60.4242 17.8833 59.7304C18.7957 57.6346 19.6797 55.5245 20.5636 53.4287C20.7823 52.9059 20.9914 52.3832 21.191 51.8604C21.7755 52.1028 22.3886 52.3737 22.9303 52.6018ZM21.191 51.8604C20.9914 52.3832 20.7823 52.9059 20.5636 53.4287C19.6797 55.5245 18.7957 57.6346 17.8833 59.7304C17.5791 60.4242 17.2702 61.1181 16.9566 61.8119C16.5289 62.7386 16.1439 63.6796 15.759 64.6206C15.5594 65.0958 15.3645 65.5663 15.1744 66.0321C14.5614 67.4293 14.0053 68.855 13.321 70.2237C12.9693 70.0431 12.6176 69.8672 12.266 69.6962C13.1356 67.857 13.6632 65.8895 14.4473 63.9933C14.6184 63.518 14.799 63.0428 14.9891 62.5676C15.1697 62.1018 15.3598 61.6313 15.5594 61.1561C15.835 60.4527 16.1106 59.7494 16.3863 59.046C17.1989 56.9217 17.9831 54.7831 18.81 52.6731C19.0096 52.1503 19.214 51.6275 19.4231 51.1048C19.808 51.2759 20.4781 51.561 21.191 51.8604ZM19.4231 51.1048C19.214 51.6275 19.0096 52.1503 18.81 52.6731C17.9831 54.7831 17.1989 56.9217 16.3863 59.046C16.1106 59.7494 15.835 60.4527 15.5594 61.1561C15.3598 61.6313 15.1697 62.1018 14.9891 62.5676C14.799 63.0428 14.6184 63.518 14.4473 63.9933C13.6632 65.8895 13.1356 67.857 12.266 69.6962C11.9618 69.5536 11.6529 69.411 11.3392 69.2684C12.1804 67.5291 12.6937 65.6043 13.378 63.7937C13.5919 63.1949 13.82 62.5961 14.0766 61.9973C14.3332 61.3509 14.5851 60.6999 14.8322 60.044C15.8445 57.4207 16.7855 54.7974 17.8405 52.2453C18.0401 51.7226 18.2445 51.1998 18.4536 50.6771C18.7767 50.8196 19.0999 50.9622 19.4231 51.1048ZM18.4536 50.6771C18.2445 51.1998 18.0401 51.7226 17.8405 52.2453C16.7855 54.7974 15.8445 57.4207 14.8322 60.044C14.5851 60.6999 14.3332 61.3509 14.0766 61.9973C13.82 62.5961 13.5919 63.1949 13.378 63.7937C12.6937 65.6043 12.1804 67.5291 11.3392 69.2684C10.9971 69.1069 10.6501 68.95 10.2985 68.798C11.2965 66.973 11.7955 64.9485 12.5083 62.9953C12.7364 62.3394 12.9646 61.6979 13.2212 61.0563C13.4588 60.4385 13.6964 59.8207 13.934 59.2029C14.875 56.7364 15.7875 54.2556 16.7997 51.7891C17.0088 51.2664 17.218 50.7436 17.4271 50.2208C17.7692 50.3729 18.1114 50.525 18.4536 50.6771ZM17.4271 50.2208C17.218 50.7436 17.0088 51.2664 16.7997 51.7891C15.7875 54.2556 14.875 56.7364 13.934 59.2029C13.6964 59.8207 13.4588 60.4385 13.2212 61.0563C12.9646 61.6979 12.7364 62.3394 12.5083 62.9953C11.7955 64.9485 11.2965 66.973 10.2985 68.798C10.1084 68.7124 9.91827 68.6269 9.72817 68.5413C10.5693 66.6023 11.0684 64.5778 11.8525 62.6103C12.1091 61.9973 12.3658 61.3842 12.6224 60.7712C13.8913 57.7059 15.0176 54.612 16.2437 51.5467C16.4528 51.024 16.6667 50.506 16.8853 49.9927C17.0659 50.0687 17.2465 50.1448 17.4271 50.2208ZM16.8853 49.9927C16.6667 50.506 16.4528 51.024 16.2437 51.5467C15.0176 54.612 13.8913 57.7059 12.6224 60.7712C12.3658 61.3842 12.1091 61.9973 11.8525 62.6103C11.0684 64.5778 10.5693 66.6023 9.72817 68.5413C9.49055 68.4463 9.25293 68.3465 9.01531 68.2419C10.0561 65.8752 10.7975 63.4087 11.7527 61.0278C12.0188 60.3815 12.2802 59.7304 12.5368 59.0745C13.5491 56.4655 14.5328 53.8422 15.6021 51.2616C15.8112 50.7388 16.0203 50.2208 16.2295 49.7076C16.4481 49.8026 16.6667 49.8977 16.8853 49.9927ZM16.2295 49.7076C16.0203 50.2208 15.8112 50.7388 15.6021 51.2616C14.5328 53.8422 13.5491 56.4655 12.5368 59.0745C12.2802 59.7304 12.0188 60.3815 11.7527 61.0278C10.7975 63.4087 10.0561 65.8752 9.01531 68.2419C8.65413 68.0898 8.2882 67.933 7.91751 67.7714C8.92977 65.5188 9.61411 63.1236 10.5836 60.8282C10.8117 60.2769 11.0398 59.7209 11.268 59.1601C12.4228 56.3799 13.4921 53.5998 14.6041 50.8196C14.8132 50.3064 15.0271 49.7884 15.2457 49.2656C15.5689 49.4082 15.8968 49.5555 16.2295 49.7076ZM15.2457 49.2656C15.0271 49.7884 14.8132 50.3064 14.6041 50.8196C13.4921 53.5998 12.4228 56.3799 11.268 59.1601C11.0398 59.7209 10.8117 60.2769 10.5836 60.8282C9.61411 63.1236 8.92977 65.5188 7.91751 67.7714C7.5088 67.6099 7.10009 67.4435 6.69139 67.2724C7.63236 64.9628 8.4878 62.6531 9.45729 60.372C9.69491 59.8112 9.92777 59.2551 10.1559 58.7039C11.3107 55.9237 12.3372 53.115 13.5348 50.3491C13.7535 49.8359 13.9721 49.3179 14.1907 48.7951C14.5424 48.9567 14.894 49.1135 15.2457 49.2656ZM14.1907 48.7951C13.9721 49.3179 13.7535 49.8359 13.5348 50.3491C12.3372 53.115 11.3107 55.9237 10.1559 58.7039C9.92777 59.2551 9.69491 59.8112 9.45729 60.372C8.4878 62.6531 7.63236 64.9628 6.69139 67.2724C6.44426 67.1679 6.19239 67.0633 5.93576 66.9588C7.07633 64.7346 7.77494 62.3394 8.7872 60.1011C9.03432 59.5498 9.27194 58.9985 9.50006 58.4472C10.6691 55.6813 11.7384 52.8584 12.879 50.064C13.0976 49.5507 13.3162 49.0327 13.5348 48.51C13.7535 48.605 13.9721 48.7001 14.1907 48.7951ZM13.5348 48.51C13.3162 49.0327 13.0976 49.5507 12.879 50.064C11.7384 52.8584 10.6691 55.6813 9.50006 58.4472C9.27194 58.9985 9.03432 59.5498 8.7872 60.1011C7.77494 62.3394 7.07633 64.7346 5.93576 66.9588C5.51755 66.7877 5.09458 66.6166 4.66687 66.4455C5.7219 63.8935 6.79119 61.2702 7.94602 58.7466C8.32621 57.9102 8.70166 57.069 9.07234 56.2231C10.0276 54.0132 10.883 51.8176 11.8097 49.6078C12.0283 49.085 12.2469 48.5622 12.4656 48.0395C12.8267 48.2011 13.1832 48.3579 13.5348 48.51ZM12.4656 48.0395C12.2469 48.5622 12.0283 49.085 11.8097 49.6078C10.883 51.8176 10.0276 54.0132 9.07234 56.2231C8.70166 57.069 8.32621 57.9102 7.94602 58.7466C6.79119 61.2702 5.7219 63.8935 4.66687 66.4455C4.45776 66.36 4.24866 66.2744 4.03955 66.1889C5.2229 63.6939 6.24942 61.0563 7.38999 58.5328C7.77018 57.6868 8.14087 56.8409 8.50205 55.995C9.44303 53.7709 10.3412 51.5895 11.2822 49.3796C11.5008 48.8569 11.7194 48.3341 11.938 47.8114C12.1091 47.8874 12.285 47.9634 12.4656 48.0395Z" fill="url(#paint5_linear_630_81785)" fill-opacity="0.5"/>
</g>
</g>
<path d="M12.936 55.824L24.2135 28.9207L22.6737 28.2648L10.9258 56.2945L12.936 55.824Z" fill="url(#paint6_linear_630_81785)"/>
<path d="M23.1728 61.4271L34.9065 33.3974L33.3667 32.7559L22.1035 59.6592L23.1728 61.4271Z" fill="url(#paint7_linear_630_81785)"/>
<path d="M31.7129 0.320787L32.9675 1.74651C33.2954 2.11719 33.8514 2.18848 34.2506 1.90334L35.7904 0.791275C36.2609 0.449102 36.9167 0.591674 37.1876 1.10493L38.1001 2.77303C38.3282 3.20074 38.8557 3.38609 39.312 3.20074L41.0656 2.45937C41.5931 2.23125 42.1919 2.53065 42.3487 3.07243L42.862 4.91161C42.9903 5.38209 43.4608 5.68149 43.9455 5.59595L45.8275 5.26804C46.3835 5.16824 46.911 5.58169 46.9396 6.15198L47.0393 8.06245C47.0679 8.54719 47.4528 8.93214 47.9376 8.96065L49.848 9.06045C50.4183 9.08897 50.8318 9.61648 50.732 10.1725L50.4041 12.0545C50.3185 12.5392 50.6179 12.9954 51.0884 13.138L52.9276 13.6513C53.4694 13.8081 53.7687 14.4069 53.5406 14.9344L52.7993 16.6881C52.6139 17.1443 52.7993 17.6718 53.227 17.8999L54.8951 18.8124C55.4083 19.0833 55.5509 19.7391 55.2087 20.2096L54.0967 21.7494C53.8115 22.1486 53.8828 22.7046 54.2535 23.0325L55.6792 24.2871C56.1069 24.6721 56.1069 25.3422 55.6792 25.7129L54.2535 26.9818C53.8828 27.2954 53.8115 27.8514 54.0967 28.2506L55.2087 29.7904C55.5509 30.2609 55.4083 30.9167 54.8951 31.1876L53.227 32.1001C52.7993 32.3425 52.6139 32.8557 52.7993 33.312L53.5406 35.0656C53.7687 35.5931 53.4694 36.1919 52.9276 36.3487L51.0884 36.8763C50.6179 37.0046 50.3185 37.4751 50.4041 37.9598L50.732 39.8275C50.8318 40.3978 50.4183 40.9253 49.848 40.9538L47.9376 41.0393C47.4528 41.0679 47.0679 41.4528 47.0393 41.9518L46.9396 43.848C46.911 44.4183 46.3835 44.846 45.8275 44.7462L43.9455 44.4041C43.4608 44.3185 42.9903 44.6179 42.862 45.0884L42.3487 46.9276C42.1919 47.4836 41.5931 47.7687 41.0656 47.5406L39.312 46.7993C38.8557 46.6139 38.3282 46.7993 38.1001 47.227L37.1876 48.8951C36.9167 49.4083 36.2609 49.5509 35.7904 49.223L34.2506 48.1109C33.8514 47.8258 33.2954 47.8828 32.9675 48.2535L31.7129 49.6792C31.3279 50.1069 30.6578 50.1069 30.2871 49.6792L29.0182 48.2535C28.7046 47.8828 28.1486 47.8258 27.7494 48.1109L26.2096 49.223C25.7391 49.5509 25.0833 49.4083 24.8124 48.8951L23.8999 47.227C23.6575 46.7993 23.1443 46.6139 22.6881 46.7993L20.9344 47.5406C20.4069 47.7687 19.8081 47.4836 19.6513 46.9276L19.1238 45.0884C18.9954 44.6179 18.525 44.3185 18.0402 44.4041L16.1725 44.7462C15.6022 44.846 15.0747 44.4183 15.0462 43.848L14.9606 41.9518C14.9321 41.4528 14.5472 41.0679 14.0482 41.0393L12.152 40.9538C11.5817 40.9253 11.154 40.3978 11.2538 39.8275L11.596 37.9598C11.6815 37.4751 11.3821 37.0046 10.9116 36.8763L9.07243 36.3487C8.5164 36.1919 8.23125 35.5931 8.45937 35.0656L9.20074 33.312C9.38608 32.8557 9.20074 32.3425 8.77303 32.1001L7.10493 31.1876C6.59167 30.9167 6.4491 30.2609 6.77702 29.7904L7.88908 28.2506C8.17422 27.8514 8.11719 27.2954 7.74651 26.9818L6.32079 25.7129C5.89307 25.3422 5.89307 24.6721 6.32079 24.2871L7.74651 23.0325C8.11719 22.7046 8.17422 22.1486 7.88908 21.7494L6.77702 20.2096C6.4491 19.7391 6.59167 19.0833 7.10493 18.8124L8.77303 17.8999C9.20074 17.6718 9.38608 17.1443 9.20074 16.6881L8.45937 14.9344C8.23125 14.4069 8.5164 13.8081 9.07243 13.6513L10.9116 13.138C11.3821 12.9954 11.6815 12.5392 11.596 12.0545L11.2538 10.1725C11.154 9.61648 11.5817 9.08897 12.152 9.06045L14.0482 8.96065C14.5472 8.93214 14.9321 8.54719 14.9606 8.06245L15.0462 6.15198C15.0747 5.58169 15.6022 5.16824 16.1725 5.26804L18.0402 5.59595C18.525 5.68149 18.9954 5.38209 19.1238 4.91161L19.6513 3.07243C19.8081 2.53065 20.4069 2.23125 20.9344 2.45937L22.6881 3.20074C23.1443 3.38609 23.6575 3.20074 23.8999 2.77303L24.8124 1.10493C25.0833 0.591674 25.7391 0.449102 26.2096 0.791275L27.7494 1.90334C28.1486 2.18848 28.7046 2.11719 29.0182 1.74651L30.2871 0.320787C30.6578 -0.106929 31.3279 -0.106929 31.7129 0.320787Z" fill="#1939B7"/>
<path d="M31.7129 0.320787L32.9675 1.74651C33.2954 2.11719 33.8514 2.18848 34.2506 1.90334L35.7904 0.791275C36.2609 0.449102 36.9167 0.591674 37.1876 1.10493L38.1001 2.77303C38.3282 3.20074 38.8557 3.38609 39.312 3.20074L41.0656 2.45937C41.5931 2.23125 42.1919 2.53065 42.3487 3.07243L42.862 4.91161C42.9903 5.38209 43.4608 5.68149 43.9455 5.59595L45.8275 5.26804C46.3835 5.16824 46.911 5.58169 46.9396 6.15198L47.0393 8.06245C47.0679 8.54719 47.4528 8.93214 47.9376 8.96065L49.848 9.06045C50.4183 9.08897 50.8318 9.61648 50.732 10.1725L50.4041 12.0545C50.3185 12.5392 50.6179 12.9954 51.0884 13.138L52.9276 13.6513C53.4694 13.8081 53.7687 14.4069 53.5406 14.9344L52.7993 16.6881C52.6139 17.1443 52.7993 17.6718 53.227 17.8999L54.8951 18.8124C55.4083 19.0833 55.5509 19.7391 55.2087 20.2096L54.0967 21.7494C53.8115 22.1486 53.8828 22.7046 54.2535 23.0325L55.6792 24.2871C56.1069 24.6721 56.1069 25.3422 55.6792 25.7129L54.2535 26.9818C53.8828 27.2954 53.8115 27.8514 54.0967 28.2506L55.2087 29.7904C55.5509 30.2609 55.4083 30.9167 54.8951 31.1876L53.227 32.1001C52.7993 32.3425 52.6139 32.8557 52.7993 33.312L53.5406 35.0656C53.7687 35.5931 53.4694 36.1919 52.9276 36.3487L51.0884 36.8763C50.6179 37.0046 50.3185 37.4751 50.4041 37.9598L50.732 39.8275C50.8318 40.3978 50.4183 40.9253 49.848 40.9538L47.9376 41.0393C47.4528 41.0679 47.0679 41.4528 47.0393 41.9518L46.9396 43.848C46.911 44.4183 46.3835 44.846 45.8275 44.7462L43.9455 44.4041C43.4608 44.3185 42.9903 44.6179 42.862 45.0884L42.3487 46.9276C42.1919 47.4836 41.5931 47.7687 41.0656 47.5406L39.312 46.7993C38.8557 46.6139 38.3282 46.7993 38.1001 47.227L37.1876 48.8951C36.9167 49.4083 36.2609 49.5509 35.7904 49.223L34.2506 48.1109C33.8514 47.8258 33.2954 47.8828 32.9675 48.2535L31.7129 49.6792C31.3279 50.1069 30.6578 50.1069 30.2871 49.6792L29.0182 48.2535C28.7046 47.8828 28.1486 47.8258 27.7494 48.1109L26.2096 49.223C25.7391 49.5509 25.0833 49.4083 24.8124 48.8951L23.8999 47.227C23.6575 46.7993 23.1443 46.6139 22.6881 46.7993L20.9344 47.5406C20.4069 47.7687 19.8081 47.4836 19.6513 46.9276L19.1238 45.0884C18.9954 44.6179 18.525 44.3185 18.0402 44.4041L16.1725 44.7462C15.6022 44.846 15.0747 44.4183 15.0462 43.848L14.9606 41.9518C14.9321 41.4528 14.5472 41.0679 14.0482 41.0393L12.152 40.9538C11.5817 40.9253 11.154 40.3978 11.2538 39.8275L11.596 37.9598C11.6815 37.4751 11.3821 37.0046 10.9116 36.8763L9.07243 36.3487C8.5164 36.1919 8.23125 35.5931 8.45937 35.0656L9.20074 33.312C9.38608 32.8557 9.20074 32.3425 8.77303 32.1001L7.10493 31.1876C6.59167 30.9167 6.4491 30.2609 6.77702 29.7904L7.88908 28.2506C8.17422 27.8514 8.11719 27.2954 7.74651 26.9818L6.32079 25.7129C5.89307 25.3422 5.89307 24.6721 6.32079 24.2871L7.74651 23.0325C8.11719 22.7046 8.17422 22.1486 7.88908 21.7494L6.77702 20.2096C6.4491 19.7391 6.59167 19.0833 7.10493 18.8124L8.77303 17.8999C9.20074 17.6718 9.38608 17.1443 9.20074 16.6881L8.45937 14.9344C8.23125 14.4069 8.5164 13.8081 9.07243 13.6513L10.9116 13.138C11.3821 12.9954 11.6815 12.5392 11.596 12.0545L11.2538 10.1725C11.154 9.61648 11.5817 9.08897 12.152 9.06045L14.0482 8.96065C14.5472 8.93214 14.9321 8.54719 14.9606 8.06245L15.0462 6.15198C15.0747 5.58169 15.6022 5.16824 16.1725 5.26804L18.0402 5.59595C18.525 5.68149 18.9954 5.38209 19.1238 4.91161L19.6513 3.07243C19.8081 2.53065 20.4069 2.23125 20.9344 2.45937L22.6881 3.20074C23.1443 3.38609 23.6575 3.20074 23.8999 2.77303L24.8124 1.10493C25.0833 0.591674 25.7391 0.449102 26.2096 0.791275L27.7494 1.90334C28.1486 2.18848 28.7046 2.11719 29.0182 1.74651L30.2871 0.320787C30.6578 -0.106929 31.3279 -0.106929 31.7129 0.320787Z" fill="url(#paint8_linear_630_81785)" fill-opacity="0.1"/>
<path d="M30.9999 4.4126C42.4769 4.4126 51.7726 13.7083 51.7726 25.1853C51.7726 36.6624 42.4769 45.9723 30.9999 45.9723C19.5228 45.9723 10.2129 36.6624 10.2129 25.1853C10.2129 13.7083 19.5228 4.4126 30.9999 4.4126Z" fill="url(#paint9_linear_630_81785)"/>
<path d="M31 6.0094C41.5931 6.0094 50.1902 14.5922 50.1902 25.1853C50.1902 35.7927 41.5931 44.3755 31 44.3755C20.4069 44.3755 11.8098 35.7927 11.8098 25.1853C11.8098 14.5922 20.4069 6.0094 31 6.0094Z" fill="url(#paint10_linear_630_81785)"/>
<path d="M31 7.05017C41.0228 7.05017 49.1352 15.1768 49.1352 25.1853C49.1352 35.2081 41.0228 43.3347 31 43.3347C20.9772 43.3347 12.8506 35.2081 12.8506 25.1853C12.8506 15.1768 20.9772 7.05017 31 7.05017Z" fill="#F1F2F2"/>
<g filter="url(#filter0_d_630_81785)">
<path d="M21.4252 23.06C21.0572 23.06 20.7432 22.996 20.4832 22.868C20.2272 22.74 20.0272 22.556 19.8832 22.316C19.7432 22.072 19.6672 21.782 19.6552 21.446C19.6512 21.274 19.6492 21.09 19.6492 20.894C19.6492 20.694 19.6512 20.506 19.6552 20.33C19.6672 19.998 19.7432 19.714 19.8832 19.478C20.0272 19.242 20.2292 19.06 20.4892 18.932C20.7532 18.804 21.0652 18.74 21.4252 18.74C21.7172 18.74 21.9732 18.78 22.1932 18.86C22.4132 18.936 22.5952 19.036 22.7392 19.16C22.8872 19.28 22.9972 19.41 23.0692 19.55C23.1452 19.69 23.1852 19.82 23.1892 19.94C23.1932 19.976 23.1832 20.006 23.1592 20.03C23.1352 20.054 23.1032 20.066 23.0632 20.066H22.4452C22.4052 20.066 22.3752 20.058 22.3552 20.042C22.3352 20.026 22.3172 20.002 22.3012 19.97C22.2692 19.886 22.2192 19.804 22.1512 19.724C22.0832 19.64 21.9912 19.57 21.8752 19.514C21.7592 19.458 21.6092 19.43 21.4252 19.43C21.1532 19.43 20.9352 19.502 20.7712 19.646C20.6112 19.79 20.5252 20.028 20.5132 20.36C20.5012 20.708 20.5012 21.06 20.5132 21.416C20.5252 21.756 20.6132 22 20.7772 22.148C20.9452 22.296 21.1652 22.37 21.4372 22.37C21.6172 22.37 21.7772 22.338 21.9172 22.274C22.0612 22.21 22.1732 22.11 22.2532 21.974C22.3372 21.838 22.3792 21.664 22.3792 21.452V21.266H21.6472C21.6072 21.266 21.5732 21.252 21.5452 21.224C21.5172 21.196 21.5032 21.16 21.5032 21.116V20.798C21.5032 20.754 21.5172 20.718 21.5452 20.69C21.5732 20.662 21.6072 20.648 21.6472 20.648H23.0812C23.1252 20.648 23.1592 20.662 23.1832 20.69C23.2112 20.718 23.2252 20.754 23.2252 20.798V21.428C23.2252 21.764 23.1512 22.054 23.0032 22.298C22.8592 22.542 22.6512 22.73 22.3792 22.862C22.1112 22.994 21.7932 23.06 21.4252 23.06ZM24.1384 23C24.0984 23 24.0644 22.986 24.0364 22.958C24.0084 22.93 23.9944 22.896 23.9944 22.856V18.944C23.9944 18.904 24.0084 18.87 24.0364 18.842C24.0644 18.814 24.0984 18.8 24.1384 18.8H24.6964C24.7364 18.8 24.7704 18.814 24.7984 18.842C24.8264 18.87 24.8404 18.904 24.8404 18.944V22.286H26.7424C26.7864 22.286 26.8224 22.3 26.8504 22.328C26.8784 22.356 26.8924 22.392 26.8924 22.436V22.856C26.8924 22.896 26.8784 22.93 26.8504 22.958C26.8224 22.986 26.7864 23 26.7424 23H24.1384ZM29.0361 23.06C28.6801 23.06 28.3741 23.002 28.1181 22.886C27.8621 22.766 27.6621 22.584 27.5181 22.34C27.3741 22.092 27.2961 21.784 27.2841 21.416C27.2801 21.244 27.2781 21.074 27.2781 20.906C27.2781 20.738 27.2801 20.566 27.2841 20.39C27.2961 20.026 27.3761 19.722 27.5241 19.478C27.6721 19.234 27.8741 19.05 28.1301 18.926C28.3901 18.802 28.6921 18.74 29.0361 18.74C29.3801 18.74 29.6821 18.802 29.9421 18.926C30.2021 19.05 30.4061 19.234 30.5541 19.478C30.7021 19.722 30.7821 20.026 30.7941 20.39C30.8021 20.566 30.8061 20.738 30.8061 20.906C30.8061 21.074 30.8021 21.244 30.7941 21.416C30.7821 21.784 30.7041 22.092 30.5601 22.34C30.4161 22.584 30.2141 22.766 29.9541 22.886C29.6981 23.002 29.3921 23.06 29.0361 23.06ZM29.0361 22.37C29.2961 22.37 29.5081 22.294 29.6721 22.142C29.8361 21.986 29.9241 21.734 29.9361 21.386C29.9441 21.21 29.9481 21.048 29.9481 20.9C29.9481 20.748 29.9441 20.586 29.9361 20.414C29.9281 20.182 29.8841 19.994 29.8041 19.85C29.7281 19.702 29.6241 19.596 29.4921 19.532C29.3601 19.464 29.2081 19.43 29.0361 19.43C28.8681 19.43 28.7181 19.464 28.5861 19.532C28.4541 19.596 28.3481 19.702 28.2681 19.85C28.1921 19.994 28.1501 20.182 28.1421 20.414C28.1381 20.586 28.1361 20.748 28.1361 20.9C28.1361 21.048 28.1381 21.21 28.1421 21.386C28.1541 21.734 28.2421 21.986 28.4061 22.142C28.5701 22.294 28.7801 22.37 29.0361 22.37ZM31.738 23C31.698 23 31.664 22.986 31.636 22.958C31.608 22.93 31.594 22.896 31.594 22.856V18.95C31.594 18.906 31.608 18.87 31.636 18.842C31.664 18.814 31.698 18.8 31.738 18.8H33.478C33.802 18.8 34.066 18.85 34.27 18.95C34.474 19.046 34.624 19.18 34.72 19.352C34.82 19.524 34.87 19.724 34.87 19.952C34.87 20.104 34.842 20.238 34.786 20.354C34.734 20.466 34.668 20.558 34.588 20.63C34.512 20.702 34.436 20.758 34.36 20.798C34.516 20.87 34.654 20.99 34.774 21.158C34.894 21.326 34.954 21.526 34.954 21.758C34.954 21.998 34.9 22.212 34.792 22.4C34.684 22.588 34.524 22.736 34.312 22.844C34.1 22.948 33.838 23 33.526 23H31.738ZM32.428 22.364H33.43C33.646 22.364 33.81 22.306 33.922 22.19C34.034 22.07 34.09 21.926 34.09 21.758C34.09 21.582 34.032 21.436 33.916 21.32C33.804 21.204 33.642 21.146 33.43 21.146H32.428V22.364ZM32.428 20.522H33.37C33.582 20.522 33.74 20.472 33.844 20.372C33.952 20.268 34.006 20.134 34.006 19.97C34.006 19.802 33.952 19.672 33.844 19.58C33.74 19.484 33.582 19.436 33.37 19.436H32.428V20.522ZM35.3965 23C35.3645 23 35.3345 22.988 35.3065 22.964C35.2825 22.94 35.2705 22.91 35.2705 22.874C35.2705 22.858 35.2745 22.84 35.2825 22.82L36.7285 18.95C36.7405 18.91 36.7625 18.876 36.7945 18.848C36.8305 18.816 36.8785 18.8 36.9385 18.8H37.5925C37.6525 18.8 37.6985 18.816 37.7305 18.848C37.7625 18.876 37.7865 18.91 37.8025 18.95L39.2485 22.82C39.2525 22.84 39.2545 22.858 39.2545 22.874C39.2545 22.91 39.2425 22.94 39.2185 22.964C39.1945 22.988 39.1665 23 39.1345 23H38.6125C38.5565 23 38.5145 22.988 38.4865 22.964C38.4625 22.936 38.4465 22.91 38.4385 22.886L38.1565 22.154H36.3745L36.0925 22.886C36.0845 22.91 36.0665 22.936 36.0385 22.964C36.0145 22.988 35.9745 23 35.9185 23H35.3965ZM36.5845 21.464H37.9465L37.2625 19.61L36.5845 21.464ZM39.9587 23C39.9187 23 39.8847 22.986 39.8567 22.958C39.8287 22.93 39.8147 22.896 39.8147 22.856V18.944C39.8147 18.904 39.8287 18.87 39.8567 18.842C39.8847 18.814 39.9187 18.8 39.9587 18.8H40.5167C40.5567 18.8 40.5907 18.814 40.6187 18.842C40.6467 18.87 40.6607 18.904 40.6607 18.944V22.286H42.5627C42.6067 22.286 42.6427 22.3 42.6707 22.328C42.6987 22.356 42.7127 22.392 42.7127 22.436V22.856C42.7127 22.896 42.6987 22.93 42.6707 22.958C42.6427 22.986 42.6067 23 42.5627 23H39.9587ZM16.8054 31C16.7654 31 16.7314 30.986 16.7034 30.958C16.6754 30.93 16.6614 30.896 16.6614 30.856V26.95C16.6614 26.906 16.6754 26.87 16.7034 26.842C16.7314 26.814 16.7654 26.8 16.8054 26.8H18.2694C18.6734 26.8 19.0054 26.862 19.2654 26.986C19.5294 27.11 19.7274 27.294 19.8594 27.538C19.9954 27.782 20.0654 28.08 20.0694 28.432C20.0774 28.608 20.0814 28.764 20.0814 28.9C20.0814 29.036 20.0774 29.19 20.0694 29.362C20.0614 29.734 19.9934 30.042 19.8654 30.286C19.7374 30.526 19.5434 30.706 19.2834 30.826C19.0274 30.942 18.6994 31 18.2994 31H16.8054ZM17.4954 30.31H18.2694C18.4934 30.31 18.6754 30.278 18.8154 30.214C18.9554 30.15 19.0574 30.048 19.1214 29.908C19.1894 29.764 19.2254 29.576 19.2294 29.344C19.2334 29.224 19.2354 29.12 19.2354 29.032C19.2394 28.94 19.2394 28.85 19.2354 28.762C19.2354 28.67 19.2334 28.566 19.2294 28.45C19.2214 28.122 19.1394 27.88 18.9834 27.724C18.8274 27.568 18.5794 27.49 18.2394 27.49H17.4954V30.31ZM21.0241 31C20.9841 31 20.9501 30.986 20.9221 30.958C20.8941 30.93 20.8801 30.896 20.8801 30.856V26.944C20.8801 26.904 20.8941 26.87 20.9221 26.842C20.9501 26.814 20.9841 26.8 21.0241 26.8H21.5881C21.6321 26.8 21.6661 26.814 21.6901 26.842C21.7181 26.87 21.7321 26.904 21.7321 26.944V30.856C21.7321 30.896 21.7181 30.93 21.6901 30.958C21.6661 30.986 21.6321 31 21.5881 31H21.0241ZM22.8171 31C22.7771 31 22.7431 30.986 22.7151 30.958C22.6871 30.93 22.6731 30.896 22.6731 30.856V26.95C22.6731 26.906 22.6871 26.87 22.7151 26.842C22.7431 26.814 22.7771 26.8 22.8171 26.8H24.3711C24.8551 26.8 25.2371 26.912 25.5171 27.136C25.7971 27.36 25.9371 27.686 25.9371 28.114C25.9371 28.41 25.8631 28.656 25.7151 28.852C25.5711 29.048 25.3771 29.19 25.1331 29.278L26.0091 30.808C26.0211 30.832 26.0271 30.854 26.0271 30.874C26.0271 30.91 26.0131 30.94 25.9851 30.964C25.9611 30.988 25.9331 31 25.9011 31H25.3551C25.2871 31 25.2351 30.982 25.1991 30.946C25.1631 30.91 25.1351 30.874 25.1151 30.838L24.3411 29.416H23.5071V30.856C23.5071 30.896 23.4931 30.93 23.4651 30.958C23.4411 30.986 23.4071 31 23.3631 31H22.8171ZM23.5071 28.738H24.3531C24.5971 28.738 24.7791 28.684 24.8991 28.576C25.0191 28.464 25.0791 28.308 25.0791 28.108C25.0791 27.908 25.0191 27.752 24.8991 27.64C24.7831 27.524 24.6011 27.466 24.3531 27.466H23.5071V28.738ZM26.8542 31C26.8142 31 26.7802 30.986 26.7522 30.958C26.7242 30.93 26.7102 30.896 26.7102 30.856V26.95C26.7102 26.906 26.7242 26.87 26.7522 26.842C26.7802 26.814 26.8142 26.8 26.8542 26.8H29.4942C29.5382 26.8 29.5742 26.814 29.6022 26.842C29.6302 26.87 29.6442 26.906 29.6442 26.95V27.346C29.6442 27.386 29.6302 27.42 29.6022 27.448C29.5742 27.476 29.5382 27.49 29.4942 27.49H27.5202V28.552H29.3622C29.4062 28.552 29.4422 28.566 29.4702 28.594C29.4982 28.618 29.5122 28.652 29.5122 28.696V29.068C29.5122 29.112 29.4982 29.148 29.4702 29.176C29.4422 29.2 29.4062 29.212 29.3622 29.212H27.5202V30.31H29.5422C29.5862 30.31 29.6222 30.324 29.6502 30.352C29.6782 30.38 29.6922 30.416 29.6922 30.46V30.856C29.6922 30.896 29.6782 30.93 29.6502 30.958C29.6222 30.986 29.5862 31 29.5422 31H26.8542ZM32.0275 31.06C31.6555 31.06 31.3395 30.996 31.0795 30.868C30.8235 30.736 30.6275 30.55 30.4915 30.31C30.3555 30.066 30.2795 29.774 30.2635 29.434C30.2595 29.27 30.2575 29.094 30.2575 28.906C30.2575 28.718 30.2595 28.538 30.2635 28.366C30.2795 28.03 30.3555 27.74 30.4915 27.496C30.6315 27.252 30.8295 27.066 31.0855 26.938C31.3455 26.806 31.6595 26.74 32.0275 26.74C32.2995 26.74 32.5435 26.776 32.7595 26.848C32.9755 26.92 33.1595 27.02 33.3115 27.148C33.4635 27.272 33.5815 27.418 33.6655 27.586C33.7495 27.754 33.7935 27.936 33.7975 28.132C33.8015 28.168 33.7895 28.198 33.7615 28.222C33.7375 28.246 33.7075 28.258 33.6715 28.258H33.1015C33.0575 28.258 33.0215 28.248 32.9935 28.228C32.9655 28.204 32.9455 28.166 32.9335 28.114C32.8695 27.85 32.7595 27.67 32.6035 27.574C32.4475 27.478 32.2535 27.43 32.0215 27.43C31.7535 27.43 31.5395 27.506 31.3795 27.658C31.2195 27.806 31.1335 28.052 31.1215 28.396C31.1095 28.724 31.1095 29.06 31.1215 29.404C31.1335 29.748 31.2195 29.996 31.3795 30.148C31.5395 30.296 31.7535 30.37 32.0215 30.37C32.2535 30.37 32.4475 30.322 32.6035 30.226C32.7595 30.126 32.8695 29.946 32.9335 29.686C32.9455 29.63 32.9655 29.592 32.9935 29.572C33.0215 29.552 33.0575 29.542 33.1015 29.542H33.6715C33.7075 29.542 33.7375 29.554 33.7615 29.578C33.7895 29.602 33.8015 29.632 33.7975 29.668C33.7935 29.864 33.7495 30.046 33.6655 30.214C33.5815 30.382 33.4635 30.53 33.3115 30.658C33.1595 30.782 32.9755 30.88 32.7595 30.952C32.5435 31.024 32.2995 31.06 32.0275 31.06ZM35.577 31C35.537 31 35.503 30.986 35.475 30.958C35.447 30.93 35.433 30.896 35.433 30.856V27.538H34.323C34.283 27.538 34.249 27.524 34.221 27.496C34.193 27.468 34.179 27.434 34.179 27.394V26.95C34.179 26.906 34.193 26.87 34.221 26.842C34.249 26.814 34.283 26.8 34.323 26.8H37.383C37.427 26.8 37.463 26.814 37.491 26.842C37.519 26.87 37.533 26.906 37.533 26.95V27.394C37.533 27.434 37.519 27.468 37.491 27.496C37.463 27.524 37.427 27.538 37.383 27.538H36.279V30.856C36.279 30.896 36.265 30.93 36.237 30.958C36.209 30.986 36.173 31 36.129 31H35.577ZM39.6797 31.06C39.3237 31.06 39.0177 31.002 38.7617 30.886C38.5057 30.766 38.3057 30.584 38.1617 30.34C38.0177 30.092 37.9397 29.784 37.9277 29.416C37.9237 29.244 37.9217 29.074 37.9217 28.906C37.9217 28.738 37.9237 28.566 37.9277 28.39C37.9397 28.026 38.0197 27.722 38.1677 27.478C38.3157 27.234 38.5177 27.05 38.7737 26.926C39.0337 26.802 39.3357 26.74 39.6797 26.74C40.0237 26.74 40.3257 26.802 40.5857 26.926C40.8457 27.05 41.0497 27.234 41.1977 27.478C41.3457 27.722 41.4257 28.026 41.4377 28.39C41.4457 28.566 41.4497 28.738 41.4497 28.906C41.4497 29.074 41.4457 29.244 41.4377 29.416C41.4257 29.784 41.3477 30.092 41.2037 30.34C41.0597 30.584 40.8577 30.766 40.5977 30.886C40.3417 31.002 40.0357 31.06 39.6797 31.06ZM39.6797 30.37C39.9397 30.37 40.1517 30.294 40.3157 30.142C40.4797 29.986 40.5677 29.734 40.5797 29.386C40.5877 29.21 40.5917 29.048 40.5917 28.9C40.5917 28.748 40.5877 28.586 40.5797 28.414C40.5717 28.182 40.5277 27.994 40.4477 27.85C40.3717 27.702 40.2677 27.596 40.1357 27.532C40.0037 27.464 39.8517 27.43 39.6797 27.43C39.5117 27.43 39.3617 27.464 39.2297 27.532C39.0977 27.596 38.9917 27.702 38.9117 27.85C38.8357 27.994 38.7937 28.182 38.7857 28.414C38.7817 28.586 38.7797 28.748 38.7797 28.9C38.7797 29.048 38.7817 29.21 38.7857 29.386C38.7977 29.734 38.8857 29.986 39.0497 30.142C39.2137 30.294 39.4237 30.37 39.6797 30.37ZM42.3815 31C42.3415 31 42.3075 30.986 42.2795 30.958C42.2515 30.93 42.2375 30.896 42.2375 30.856V26.95C42.2375 26.906 42.2515 26.87 42.2795 26.842C42.3075 26.814 42.3415 26.8 42.3815 26.8H43.9355C44.4195 26.8 44.8015 26.912 45.0815 27.136C45.3615 27.36 45.5015 27.686 45.5015 28.114C45.5015 28.41 45.4275 28.656 45.2795 28.852C45.1355 29.048 44.9415 29.19 44.6975 29.278L45.5735 30.808C45.5855 30.832 45.5915 30.854 45.5915 30.874C45.5915 30.91 45.5775 30.94 45.5495 30.964C45.5255 30.988 45.4975 31 45.4655 31H44.9195C44.8515 31 44.7995 30.982 44.7635 30.946C44.7275 30.91 44.6995 30.874 44.6795 30.838L43.9055 29.416H43.0715V30.856C43.0715 30.896 43.0575 30.93 43.0295 30.958C43.0055 30.986 42.9715 31 42.9275 31H42.3815ZM43.0715 28.738H43.9175C44.1615 28.738 44.3435 28.684 44.4635 28.576C44.5835 28.464 44.6435 28.308 44.6435 28.108C44.6435 27.908 44.5835 27.752 44.4635 27.64C44.3475 27.524 44.1655 27.466 43.9175 27.466H43.0715V28.738Z" fill="#212B36"/>
</g>
<defs>
<filter id="filter0_d_630_81785" x="14.6614" y="18.74" width="32.9302" height="16.32" filterUnits="userSpaceOnUse" color-interpolation-filters="sRGB">
<feFlood flood-opacity="0" result="BackgroundImageFix"/>
<feColorMatrix in="SourceAlpha" type="matrix" values="0 0 0 0 0 0 0 0 0 0 0 0 0 0 0 0 0 0 127 0" result="hardAlpha"/>
<feOffset dy="2"/>
<feGaussianBlur stdDeviation="1"/>
<feComposite in2="hardAlpha" operator="out"/>
<feColorMatrix type="matrix" values="0 0 0 0 0 0 0 0 0 0 0 0 0 0 0 0 0 0 0.15 0"/>
<feBlend mode="normal" in2="BackgroundImageFix" result="effect1_dropShadow_630_81785"/>
<feBlend mode="normal" in="SourceGraphic" in2="effect1_dropShadow_630_81785" result="shape"/>
</filter>
<linearGradient id="paint0_linear_630_81785" x1="64.7459" y1="33.0234" x2="80.6608" y2="67.1054" gradientUnits="userSpaceOnUse">
<stop stop-color="#231F20"/>
<stop offset="1" stop-color="white"/>
</linearGradient>
<linearGradient id="paint1_linear_630_81785" x1="26.7818" y1="35.3361" x2="36.147" y2="53.8502" gradientUnits="userSpaceOnUse">
<stop stop-color="white"/>
<stop offset="1" stop-color="#A1A1A1"/>
</linearGradient>
<linearGradient id="paint2_linear_630_81785" x1="-180.121" y1="229.684" x2="-156.347" y2="253.458" gradientUnits="userSpaceOnUse">
<stop stop-color="#B8B8B8"/>
<stop offset="0.164" stop-color="#E8E8E8"/>
<stop offset="0.291" stop-color="white"/>
<stop offset="0.552" stop-color="#ABABAB"/>
<stop offset="0.782" stop-color="#E8E8E8"/>
<stop offset="0.909" stop-color="#A2A2A2"/>
<stop offset="1" stop-color="#717171"/>
</linearGradient>
<linearGradient id="paint3_linear_630_81785" x1="-190.817" y1="234.163" x2="-167.042" y2="257.938" gradientUnits="userSpaceOnUse">
<stop stop-color="#B8B8B8"/>
<stop offset="0.164" stop-color="#E8E8E8"/>
<stop offset="0.291" stop-color="white"/>
<stop offset="0.552" stop-color="#ABABAB"/>
<stop offset="0.782" stop-color="#E8E8E8"/>
<stop offset="0.909" stop-color="#A2A2A2"/>
<stop offset="1" stop-color="#717171"/>
</linearGradient>
<linearGradient id="paint4_linear_630_81785" x1="-2.7508" y1="33.0235" x2="-18.6657" y2="67.1055" gradientUnits="userSpaceOnUse">
<stop stop-color="#231F20"/>
<stop offset="1" stop-color="white"/>
</linearGradient>
<linearGradient id="paint5_linear_630_81785" x1="35.2132" y1="35.3362" x2="25.848" y2="53.8503" gradientUnits="userSpaceOnUse">
<stop stop-color="white"/>
<stop offset="1" stop-color="#A1A1A1"/>
</linearGradient>
<linearGradient id="paint6_linear_630_81785" x1="-206.975" y1="-144.471" x2="-183.201" y2="-168.245" gradientUnits="userSpaceOnUse">
<stop stop-color="#B8B8B8"/>
<stop offset="0.164" stop-color="#E8E8E8"/>
<stop offset="0.291" stop-color="white"/>
<stop offset="0.552" stop-color="#ABABAB"/>
<stop offset="0.782" stop-color="#E8E8E8"/>
<stop offset="0.909" stop-color="#A2A2A2"/>
<stop offset="1" stop-color="#717171"/>
</linearGradient>
<linearGradient id="paint7_linear_630_81785" x1="-196.271" y1="-139.983" x2="-172.497" y2="-163.758" gradientUnits="userSpaceOnUse">
<stop stop-color="#B8B8B8"/>
<stop offset="0.164" stop-color="#E8E8E8"/>
<stop offset="0.291" stop-color="white"/>
<stop offset="0.552" stop-color="#ABABAB"/>
<stop offset="0.782" stop-color="#E8E8E8"/>
<stop offset="0.909" stop-color="#A2A2A2"/>
<stop offset="1" stop-color="#717171"/>
</linearGradient>
<linearGradient id="paint8_linear_630_81785" x1="19.9591" y1="-6.53151e-07" x2="36.8124" y2="45.8854" gradientUnits="userSpaceOnUse">
<stop stop-color="white"/>
<stop offset="0.403279" stop-color="#D0D2D3"/>
<stop offset="0.463551" stop-color="#333333"/>
<stop offset="1"/>
</linearGradient>
<linearGradient id="paint9_linear_630_81785" x1="51.7773" y1="2.44411" x2="51.7773" y2="50.4375" gradientUnits="userSpaceOnUse">
<stop stop-color="#B8B8B8"/>
<stop offset="0.164" stop-color="#E8E8E8"/>
<stop offset="0.291" stop-color="white"/>
<stop offset="0.552" stop-color="#ABABAB"/>
<stop offset="0.782" stop-color="#E8E8E8"/>
<stop offset="0.909" stop-color="#A2A2A2"/>
<stop offset="1" stop-color="#717171"/>
</linearGradient>
<linearGradient id="paint10_linear_630_81785" x1="50.1851" y1="1.34131" x2="50.1851" y2="45.6572" gradientUnits="userSpaceOnUse">
<stop stop-color="#B8B8B8"/>
<stop offset="0.164" stop-color="#E8E8E8"/>
<stop offset="0.291" stop-color="white"/>
<stop offset="0.552" stop-color="#ABABAB"/>
<stop offset="0.782" stop-color="#E8E8E8"/>
<stop offset="0.909" stop-color="#A2A2A2"/>
<stop offset="1" stop-color="#717171"/>
</linearGradient>
</defs>
</svg>
