<svg width="70" height="89" viewBox="0 0 70 89" fill="none" xmlns="http://www.w3.org/2000/svg">
<path d="M44.5808 88.2534L51.9062 76.1576L65.6786 79.431L48.6327 38.7524L27.5349 47.5947L44.5808 88.2534Z" fill="#F11616"/>
<path style="mix-blend-mode:soft-light" d="M44.5808 88.2534L51.9062 76.1576L65.6786 79.431L48.6327 38.7524L27.5349 47.5947L44.5808 88.2534Z" fill="url(#paint0_linear_298_2176)"/>
<mask id="mask0_298_2176" style="mask-type:luminance" maskUnits="userSpaceOnUse" x="27" y="38" width="39" height="51">
<path d="M44.5869 88.2633L51.9102 76.1635L65.6707 79.427L48.6248 38.7523L27.543 47.5866L44.5869 88.2633Z" fill="white"/>
</mask>
<g mask="url(#mask0_298_2176)">
<g style="mix-blend-mode:multiply" opacity="0.4">
<path d="M29.0918 49.4708C29.2382 50.0829 29.3845 50.6884 29.5309 51.2872C30.9481 51.0077 32.3453 50.7482 33.7425 50.2892C33.5629 49.7303 33.5429 49.0915 33.1836 48.5726C31.8263 48.8919 30.5289 49.371 29.0918 49.4708ZM33.1836 48.5726C33.5429 49.0915 33.5629 49.7303 33.7425 50.2892C34.2215 50.1561 34.6939 50.023 35.1597 49.89C35.0798 49.2712 34.9002 48.7123 34.5808 48.2333C34.1284 48.353 33.6627 48.4661 33.1836 48.5726ZM34.5808 48.2333C34.9002 48.7123 35.0798 49.2712 35.1597 49.89C35.7984 49.7303 36.3972 49.5506 37.0359 49.371C36.8164 48.8121 36.8563 48.0137 36.3972 47.7343C35.7984 47.9073 35.1929 48.0736 34.5808 48.2333ZM36.3972 47.7343C36.8563 48.0137 36.8164 48.8121 37.0359 49.371C37.4152 49.2712 37.7944 49.1115 38.1936 48.9918C37.9341 48.4927 38.1138 47.5147 37.515 47.375C37.1424 47.4947 36.7698 47.6145 36.3972 47.7343ZM37.515 47.375C38.1138 47.5147 37.9341 48.4927 38.1936 48.9918C38.6527 48.8121 39.0918 48.6325 39.5509 48.4528C39.4112 47.854 39.3912 46.876 38.8323 46.9159C38.3932 47.0756 37.9541 47.2286 37.515 47.375ZM38.8323 46.9159C39.3912 46.876 39.4112 47.854 39.5509 48.4528C40.1297 48.2333 40.6886 47.9937 41.2475 47.7343C41.1477 47.0955 41.008 46.1574 40.469 46.2971C39.9235 46.51 39.3779 46.7163 38.8323 46.9159ZM40.469 46.2971C41.008 46.1574 41.1477 47.0955 41.2475 47.7343C41.7066 47.5347 42.1856 47.3351 42.6646 47.1355C42.485 46.3969 42.505 45.4987 41.8463 45.7383C41.3939 45.9246 40.9348 46.1108 40.469 46.2971ZM41.8463 45.7383C42.505 45.4987 42.485 46.3969 42.6646 47.1355C43.1836 46.9359 43.6826 46.6564 44.2016 46.4169C44.0619 45.9179 44.2016 44.7602 43.3433 45.0995C42.8509 45.3124 42.3519 45.5254 41.8463 45.7383ZM43.3433 45.0995C44.2016 44.7602 44.0619 45.9179 44.2016 46.4169C44.481 46.2971 44.7605 46.1574 45.0199 46.0177C44.8203 45.4588 44.9601 44.4608 44.1417 44.7403C43.8756 44.86 43.6094 44.9798 43.3433 45.0995ZM44.1417 44.7403C44.9601 44.4608 44.8203 45.4588 45.0199 46.0177C45.3593 45.858 45.6786 45.6983 45.998 45.5387C45.7984 44.9798 45.9181 43.9618 45.0998 44.3211C44.7804 44.4675 44.4611 44.6072 44.1417 44.7403ZM45.0998 44.3211C45.9181 43.9618 45.7984 44.9798 45.998 45.5387C46.4903 45.2858 46.9893 45.033 47.495 44.7802C47.3885 44.3544 47.2821 43.9219 47.1756 43.4828C46.9161 43.5826 46.8163 43.5826 46.5569 43.6624C46.0778 43.8886 45.5921 44.1082 45.0998 44.3211ZM46.5569 43.6624C46.8163 43.5826 46.9161 43.5826 47.1756 43.4828C47.2821 43.9219 47.3885 44.3544 47.495 44.7802C48.014 44.5007 48.5462 44.2213 49.0918 43.9419C48.9853 43.5293 48.8789 43.1168 48.7724 42.7043C48.513 42.8041 48.3932 42.8241 48.1337 42.9438C47.6014 43.1834 47.0758 43.4229 46.5569 43.6624ZM48.1337 42.9438C48.3932 42.8241 48.513 42.8041 48.7724 42.7043C48.8789 43.1168 48.9853 43.5293 49.0918 43.9419C49.4112 43.7689 49.7372 43.5959 50.0698 43.4229C49.9634 43.0104 49.8569 42.6045 49.7505 42.2053C49.491 42.3251 49.3712 42.365 49.0918 42.4848C48.7724 42.6311 48.4531 42.7842 48.1337 42.9438ZM49.0918 42.4848C49.3712 42.365 49.491 42.3251 49.7505 42.2053C49.8569 42.6045 49.9634 43.0104 50.0698 43.4229C50.5888 43.1235 51.1277 42.844 51.6866 42.5646C51.5802 42.1787 51.4737 41.7928 51.3672 41.4069C51.1078 41.5466 50.968 41.5866 50.6886 41.7263C50.1563 41.9791 49.6241 42.2319 49.0918 42.4848ZM50.6886 41.7263C50.968 41.5866 51.1078 41.5466 51.3672 41.4069C51.4737 41.7928 51.5802 42.1787 51.6866 42.5646C51.9461 42.4249 52.2255 42.2852 52.485 42.1454C52.3786 41.7729 52.2788 41.4003 52.1856 41.0277C51.9062 41.1474 51.7664 41.2073 51.487 41.347C51.2209 41.4668 50.9547 41.5932 50.6886 41.7263ZM29.5309 51.2872C29.9168 52.7775 30.336 54.2413 30.7884 55.6784C31.986 59.2512 33.483 62.6844 35.0399 66.0776C35.4258 66.9292 35.8117 67.7808 36.1976 68.6325C37.2954 71.2073 38.473 73.8221 39.5309 76.4169C41.0279 75.858 40.7485 75.9778 42.2056 75.3989C40.988 71.886 39.5509 68.4728 38.3134 64.9598C37.994 64.0949 37.6746 63.2366 37.3553 62.385C36.4172 59.7902 35.5589 57.1953 34.8403 54.5806C34.4411 53.1701 34.0752 51.7396 33.7425 50.2892C32.3453 50.7482 30.9481 51.0077 29.5309 51.2872ZM33.7425 50.2892C34.0752 51.7396 34.4411 53.1701 34.8403 54.5806C35.5589 57.1953 36.4172 59.7902 37.3553 62.385C37.6746 63.2366 37.994 64.0949 38.3134 64.9598C39.5509 68.4728 40.988 71.886 42.2056 75.3989C42.7046 75.1993 43.0239 75.0397 43.3233 74.9199C41.9661 71.4668 40.7485 68.0337 39.511 64.5207C39.2049 63.6558 38.9055 62.7908 38.6128 61.9259C37.7545 59.351 36.9361 56.7562 36.2175 54.1415C35.845 52.7309 35.4923 51.3138 35.1597 49.89C34.6939 50.023 34.2215 50.1561 33.7425 50.2892ZM35.1597 49.89C35.4923 51.3138 35.845 52.7309 36.2175 54.1415C36.9361 56.7562 37.7545 59.351 38.6128 61.9259C38.9055 62.7908 39.2049 63.6558 39.511 64.5207C40.7485 68.0337 41.9661 71.4668 43.3233 74.9199C43.7026 74.7203 44.0419 74.5606 44.6607 74.3011C43.1237 70.2293 41.8862 66.0576 40.5688 61.9259C40.2761 60.9944 39.9833 60.0629 39.6906 59.1315C39.1184 57.2552 38.5861 55.3923 38.0938 53.5427C37.9075 52.8507 37.7279 52.1587 37.5549 51.4668C37.3686 50.7748 37.1956 50.0762 37.0359 49.371C36.3972 49.5506 35.7984 49.7303 35.1597 49.89ZM37.0359 49.371C37.1956 50.0762 37.3686 50.7748 37.5549 51.4668C37.7279 52.1587 37.9075 52.8507 38.0938 53.5427C38.5861 55.3923 39.1184 57.2552 39.6906 59.1315C39.9833 60.0629 40.2761 60.9944 40.5688 61.9259C41.8862 66.0576 43.1237 70.2293 44.6607 74.3011C45.0599 74.1415 45.6387 73.9019 46.2774 73.6424C44.8004 69.2912 43.3034 65.0596 41.7465 60.7682C41.4404 59.9299 41.141 59.0849 40.8483 58.2333C40.5688 57.3816 40.2961 56.53 40.0299 55.6784C39.6108 54.1814 39.0519 52.6644 38.6926 51.0676C38.5196 50.3756 38.3533 49.6837 38.1936 48.9918C37.7944 49.1115 37.4152 49.2712 37.0359 49.371ZM38.1936 48.9918C38.3533 49.6837 38.5196 50.3756 38.6926 51.0676C39.0519 52.6644 39.6108 54.1814 40.0299 55.6784C40.2961 56.53 40.5688 57.3816 40.8483 58.2333C41.141 59.0849 41.4404 59.9299 41.7465 60.7682C43.3034 65.0596 44.8004 69.2912 46.2774 73.6424C47.0559 73.3231 47.9142 72.9438 48.7126 72.6045C47.0958 68.353 45.3792 64.2213 43.5429 60.0896C43.1836 59.2645 42.8376 58.4395 42.505 57.6145C41.5868 55.2792 40.7684 52.9438 40.0898 50.5486C39.8902 49.8567 39.7106 49.1581 39.5509 48.4528C39.0918 48.6325 38.6527 48.8121 38.1936 48.9918ZM39.5509 48.4528C39.7106 49.1581 39.8902 49.8567 40.0898 50.5486C40.7684 52.9438 41.5868 55.2792 42.505 57.6145C42.8376 58.4395 43.1836 59.2645 43.5429 60.0896C45.3792 64.2213 47.0958 68.353 48.7126 72.6045C49.7305 72.1854 50.6686 71.7862 51.2076 71.5466C49.511 67.355 47.6746 63.2832 45.8183 59.1914C44.3213 56.0776 42.984 52.9838 41.8862 49.7902C41.66 49.1248 41.4471 48.4395 41.2475 47.7343C40.6886 47.9937 40.1297 48.2333 39.5509 48.4528ZM41.2475 47.7343C41.4471 48.4395 41.66 49.1248 41.8862 49.7902C42.984 52.9838 44.3213 56.0776 45.8183 59.1914C47.6746 63.2832 49.511 67.355 51.2076 71.5466C51.66 71.347 52.1058 71.1474 52.5449 70.9478C50.9481 66.8361 48.9521 63.0037 47.1956 58.9918C45.6986 55.8181 44.3613 52.5846 43.2435 49.2113C43.0306 48.5327 42.8376 47.8407 42.6646 47.1355C42.1856 47.3351 41.7066 47.5347 41.2475 47.7343ZM42.6646 47.1355C42.8376 47.8407 43.0306 48.5327 43.2435 49.2113C44.3613 52.5846 45.6986 55.8181 47.1956 58.9918C48.9521 63.0037 50.9481 66.8361 52.5449 70.9478C53.0372 70.7349 53.5229 70.522 54.002 70.3091C52.5848 66.9558 51.0678 63.6624 49.6507 60.369C47.974 56.3969 45.978 52.5646 44.7804 48.4728C44.5675 47.7941 44.3746 47.1089 44.2016 46.4169C43.6826 46.6564 43.1836 46.9359 42.6646 47.1355ZM44.2016 46.4169C44.3746 47.1089 44.5675 47.7941 44.7804 48.4728C45.978 52.5646 47.974 56.3969 49.6507 60.369C51.0678 63.6624 52.5848 66.9558 54.002 70.3091C54.2548 70.2027 54.5076 70.0962 54.7605 69.9898C53.2834 66.6764 51.8862 63.3231 50.4092 60.0297C48.7525 56.0776 46.9361 52.2053 45.6187 48.0736C45.4058 47.3949 45.2062 46.7096 45.0199 46.0177C44.7605 46.1574 44.481 46.2971 44.2016 46.4169ZM45.0199 46.0177C45.2062 46.7096 45.4058 47.3949 45.6187 48.0736C46.9361 52.2053 48.7525 56.0776 50.4092 60.0297C51.8862 63.3231 53.2834 66.6764 54.7605 69.9898C55.0665 69.8567 55.3659 69.7236 55.6587 69.5906C54.2814 66.2373 52.8842 62.884 51.3672 59.5706C49.5908 55.6385 47.9341 51.6464 46.5968 47.5546C46.3839 46.8893 46.1843 46.2173 45.998 45.5387C45.6786 45.6983 45.3593 45.858 45.0199 46.0177ZM45.998 45.5387C46.1843 46.2173 46.3839 46.8893 46.5968 47.5546C47.9341 51.6464 49.5908 55.6385 51.3672 59.5706C52.8842 62.884 54.2814 66.2373 55.6587 69.5906C56.1244 69.3776 56.5901 69.1714 57.0559 68.9718C55.978 66.4768 54.9201 63.9618 53.8423 61.4468C51.7465 56.6564 49.5509 51.9059 48.0738 46.8361C47.8609 46.1441 47.668 45.4588 47.495 44.7802C46.9893 45.033 46.4903 45.2858 45.998 45.5387ZM47.495 44.7802C47.668 45.4588 47.8609 46.1441 48.0738 46.8361C49.5509 51.9059 51.7465 56.6564 53.8423 61.4468C54.9201 63.9618 55.978 66.4768 57.0559 68.9718C57.5482 68.7589 58.0406 68.5393 58.5329 68.3131C57.475 65.7981 56.3972 63.2832 55.3193 60.7882C53.2435 55.9778 51.2076 51.0676 49.6906 46.0177C49.4777 45.3257 49.2781 44.6338 49.0918 43.9419C48.5462 44.2213 48.014 44.5007 47.495 44.7802ZM49.0918 43.9419C49.2781 44.6338 49.4777 45.3257 49.6906 46.0177C51.2076 51.0676 53.2435 55.9778 55.3193 60.7882C56.3972 63.2832 57.475 65.7981 58.5329 68.3131C58.839 68.18 59.145 68.047 59.4511 67.9139C58.2136 65.4189 57.2754 62.844 56.1577 60.3291C54.1217 55.4588 52.2854 50.5287 50.6686 45.4588C50.4557 44.7802 50.2561 44.1015 50.0698 43.4229C49.7372 43.5959 49.4112 43.7689 49.0918 43.9419ZM50.0698 43.4229C50.2561 44.1015 50.4557 44.7802 50.6686 45.4588C52.2854 50.5287 54.1217 55.4588 56.1577 60.3291C57.2754 62.844 58.2136 65.4189 59.4511 67.9139C59.9434 67.701 60.4424 67.4814 60.9481 67.2552C60.1696 65.6385 59.511 63.882 58.7525 62.2253C58.4065 61.3737 58.0672 60.522 57.7345 59.6704C55.8583 54.6604 53.8623 49.7103 52.2854 44.6604C52.0858 43.9685 51.8862 43.2699 51.6866 42.5646C51.1277 42.844 50.5888 43.1235 50.0698 43.4229ZM51.6866 42.5646C51.8862 43.2699 52.0858 43.9685 52.2854 44.6604C53.8623 49.7103 55.8583 54.6604 57.7345 59.6704C58.0672 60.522 58.4065 61.3737 58.7525 62.2253C59.511 63.882 60.1696 65.6385 60.9481 67.2552C61.1876 67.1488 61.4338 67.0423 61.6866 66.9359C61.0279 65.2193 60.2096 63.6025 59.5908 61.866C59.2448 61.0144 58.8988 60.1627 58.5529 59.3111C56.6167 54.3411 54.6008 49.351 53.0838 44.2413C52.8842 43.5493 52.6846 42.8507 52.485 42.1454C52.2255 42.2852 51.9461 42.4249 51.6866 42.5646ZM39.5309 76.4169C39.8503 77.1887 40.163 77.9538 40.469 78.7123C42.2056 83.363 44.1217 87.894 46.1976 92.365C46.4903 92.9904 46.7831 93.6092 47.0758 94.2213C47.3819 94.8334 47.6946 95.4455 48.014 96.0576C49.2315 98.4928 50.509 100.888 51.8862 103.203C52.9241 102.405 54.0818 101.746 55.1197 101.028C53.1237 98.9917 51.6467 96.4768 50.1696 94.0017C49.664 93.1501 49.1849 92.2852 48.7325 91.4069C46.4371 87.0357 44.7405 82.345 43.0838 77.6345C42.7911 76.8893 42.4983 76.1441 42.2056 75.3989C40.7485 75.9778 41.0279 75.858 39.5309 76.4169ZM42.2056 75.3989C42.4983 76.1441 42.7911 76.8893 43.0838 77.6345C44.7405 82.345 46.4371 87.0357 48.7325 91.4069C49.1849 92.2852 49.664 93.1501 50.1696 94.0017C51.6467 96.4768 53.1237 98.9917 55.1197 101.028C55.479 100.801 55.8383 100.575 56.1976 100.349C54.481 98.0137 53.004 95.4987 51.6267 92.9438C51.1211 92.1055 50.6354 91.2606 50.1696 90.4089C47.8543 86.1375 46.0978 81.6065 44.2215 77.1355C43.9155 76.4036 43.6161 75.6651 43.3233 74.9199C43.0239 75.0397 42.7046 75.1993 42.2056 75.3989ZM43.3233 74.9199C43.6161 75.6651 43.9155 76.4036 44.2215 77.1355C46.0978 81.6065 47.8543 86.1375 50.1696 90.4089C50.6354 91.2606 51.1211 92.1055 51.6267 92.9438C53.004 95.4987 54.481 98.0137 56.1976 100.349C56.6899 100.043 57.1823 99.7436 57.6746 99.4508C57.3287 98.7855 56.9893 98.1202 56.6567 97.4548C56.324 96.8028 55.9913 96.1441 55.6587 95.4788C55.0199 94.1614 54.3613 92.844 53.6826 91.5267C53.2036 90.7083 52.7445 89.87 52.2654 89.0516C49.9102 84.9398 47.6746 80.7682 45.5988 76.4967C45.2794 75.7782 44.9667 75.0463 44.6607 74.3011C44.0419 74.5606 43.7026 74.7203 43.3233 74.9199ZM44.6607 74.3011C44.9667 75.0463 45.2794 75.7782 45.5988 76.4967C47.6746 80.7682 49.9102 84.9398 52.2654 89.0516C52.7445 89.87 53.2036 90.7083 53.6826 91.5267C54.3613 92.844 55.0199 94.1614 55.6587 95.4788C55.9913 96.1441 56.324 96.8028 56.6567 97.4548C56.9893 98.1202 57.3287 98.7855 57.6746 99.4508C57.9807 99.2645 58.2934 99.0849 58.6128 98.9119C58.1936 98.0935 57.7944 97.2752 57.4152 96.4568C57.0293 95.6318 56.6434 94.8134 56.2575 94.0017C55.499 92.3451 54.7205 90.7083 53.8623 89.1315C53.4631 88.4129 53.0705 87.6877 52.6846 86.9558C50.7285 83.3031 48.8523 79.6105 47.1956 75.8181C46.8895 75.0862 46.5835 74.361 46.2774 73.6424C45.6387 73.9019 45.0599 74.1415 44.6607 74.3011ZM46.2774 73.6424C46.5835 74.361 46.8895 75.0862 47.1956 75.8181C48.8523 79.6105 50.7285 83.3031 52.6846 86.9558C53.0705 87.6877 53.4631 88.4129 53.8623 89.1315C54.7205 90.7083 55.499 92.3451 56.2575 94.0017C56.6434 94.8134 57.0293 95.6318 57.4152 96.4568C57.7944 97.2752 58.1936 98.0935 58.6128 98.9119C58.9853 98.7123 59.3646 98.5127 59.7505 98.3131C58.7924 96.3969 57.994 94.4009 57.1557 92.4448C56.8762 91.7928 56.6034 91.1341 56.3373 90.4688C55.7984 89.1514 55.2395 87.8341 54.6607 86.5367C54.2215 85.5653 53.7891 84.5939 53.3633 83.6225C52.0858 80.6884 50.8483 77.7343 49.5908 74.8001C49.2981 74.0683 49.0053 73.3364 48.7126 72.6045C47.9142 72.9438 47.0559 73.3231 46.2774 73.6424ZM48.7126 72.6045C49.0053 73.3364 49.2981 74.0683 49.5908 74.8001C50.8483 77.7343 52.0858 80.6884 53.3633 83.6225C53.7891 84.5939 54.2215 85.5653 54.6607 86.5367C55.2395 87.8341 55.7984 89.1514 56.3373 90.4688C56.6034 91.1341 56.8762 91.7928 57.1557 92.4448C57.994 94.4009 58.7924 96.3969 59.7505 98.3131C60.2295 98.0603 60.7219 97.8141 61.2275 97.5746C60.01 94.9997 59.2714 92.2452 58.1736 89.5906C57.9208 88.9252 57.668 88.2599 57.4152 87.5945C57.1623 86.9425 56.8962 86.2838 56.6168 85.6185C56.2309 84.6338 55.845 83.6491 55.4591 82.6644C54.3213 79.6904 53.2036 76.6963 52.0658 73.7422C51.7864 73.0104 51.5003 72.2785 51.2076 71.5466C50.6686 71.7862 49.7305 72.1854 48.7126 72.6045ZM51.2076 71.5466C51.5003 72.2785 51.7864 73.0104 52.0658 73.7422C53.2036 76.6963 54.3213 79.6904 55.4591 82.6644C55.845 83.6491 56.2309 84.6338 56.6168 85.6185C56.8962 86.2838 57.1623 86.9425 57.4152 87.5945C57.668 88.2599 57.9208 88.9252 58.1736 89.5906C59.2714 92.2452 60.01 94.9997 61.2275 97.5746C61.6533 97.375 62.0858 97.1754 62.5249 96.9758C61.3273 94.5407 60.6287 91.846 59.6507 89.3111C59.3513 88.4728 59.0319 87.6345 58.6926 86.7961C58.3333 85.8913 57.974 84.9798 57.6148 84.0616C56.2175 80.389 54.9002 76.7163 53.4231 73.1434C53.1304 72.4116 52.8376 71.6797 52.5449 70.9478C52.1058 71.1474 51.66 71.347 51.2076 71.5466ZM52.5449 70.9478C52.8376 71.6797 53.1304 72.4116 53.4231 73.1434C54.9002 76.7163 56.2175 80.389 57.6148 84.0616C57.974 84.9798 58.3333 85.8913 58.6926 86.7961C59.0319 87.6345 59.3513 88.4728 59.6507 89.3111C60.6287 91.846 61.3273 94.5407 62.5249 96.9758C62.9907 96.7496 63.4764 96.53 63.982 96.3171C62.5848 93.7622 61.8662 90.9279 60.8682 88.1933C60.5688 87.2752 60.2295 86.377 59.8902 85.4788C59.5575 84.6138 59.2249 83.7489 58.8922 82.884C57.5748 79.4309 56.2774 75.9578 54.8802 72.5047C54.5875 71.7729 54.2947 71.041 54.002 70.3091C53.5229 70.522 53.0372 70.7349 52.5449 70.9478ZM54.002 70.3091C54.2947 71.041 54.5875 71.7729 54.8802 72.5047C56.2774 75.9578 57.5748 79.4309 58.8922 82.884C59.2249 83.7489 59.5575 84.6138 59.8902 85.4788C60.2295 86.377 60.5688 87.2752 60.8682 88.1933C61.8662 90.9279 62.5848 93.7622 63.982 96.3171C64.2482 96.1973 64.5143 96.0776 64.7804 95.9578C63.6028 93.2433 62.8842 90.4089 61.8064 87.6544C61.4471 86.7961 61.0878 85.9379 60.7285 85.0796C58.9521 80.7882 57.3752 76.4568 55.6387 72.1654C55.346 71.4335 55.0532 70.7083 54.7605 69.9898C54.5076 70.0962 54.2548 70.2027 54.002 70.3091ZM54.7605 69.9898C55.0532 70.7083 55.346 71.4335 55.6387 72.1654C57.3752 76.4568 58.9521 80.7882 60.7285 85.0796C61.0878 85.9379 61.4471 86.7961 61.8064 87.6544C62.8842 90.4089 63.6028 93.2433 64.7804 95.9578C65.1131 95.8248 65.4391 95.685 65.7585 95.5387C64.3014 92.2253 63.2834 88.7722 61.9461 85.4389C61.5735 84.534 61.2076 83.6225 60.8483 82.7043C59.4112 79.0516 58.0539 75.379 56.5569 71.7662C56.2641 71.0343 55.9647 70.3091 55.6587 69.5906C55.3659 69.7236 55.0665 69.8567 54.7605 69.9898ZM55.6587 69.5906C55.9647 70.3091 56.2641 71.0343 56.5569 71.7662C58.0539 75.379 59.4112 79.0516 60.8483 82.7043C61.2076 83.6225 61.5735 84.534 61.9461 85.4389C63.2834 88.7722 64.3014 92.2253 65.7585 95.5387C66.2774 95.3257 66.7964 95.1062 67.3153 94.88C65.8982 91.7263 64.9201 88.373 63.5828 85.1594C63.2501 84.3876 62.9241 83.6092 62.6048 82.8241C61.008 78.9319 59.511 75.0397 57.9541 71.1474C57.6613 70.4289 57.3619 69.7037 57.0559 68.9718C56.5901 69.1714 56.1244 69.3776 55.6587 69.5906ZM57.0559 68.9718C57.3619 69.7037 57.6613 70.4289 57.9541 71.1474C59.511 75.0397 61.008 78.9319 62.6048 82.8241C62.9241 83.6092 63.2501 84.3876 63.5828 85.1594C64.9201 88.373 65.8982 91.7263 67.3153 94.88C67.8742 94.6538 68.4398 94.4209 69.012 94.1814C67.7146 90.9478 66.5169 87.7143 65.1597 84.5207C64.827 83.7356 64.501 82.9572 64.1816 82.1854C62.5649 78.2932 61.1277 74.361 59.4511 70.4888C59.145 69.7702 58.839 69.045 58.5329 68.3131C58.0406 68.5393 57.5482 68.7589 57.0559 68.9718ZM58.5329 68.3131C58.839 69.045 59.145 69.7702 59.4511 70.4888C61.1277 74.361 62.5649 78.2932 64.1816 82.1854C64.501 82.9572 64.827 83.7356 65.1597 84.5207C66.5169 87.7143 67.7146 90.9478 69.012 94.1814C69.3712 94.035 69.7305 93.8886 70.0898 93.7422C68.473 90.6285 67.515 87.2752 66.0778 84.1415C65.7452 83.3697 65.4125 82.5979 65.0798 81.8261C63.4431 77.9538 61.966 74.0017 60.3493 70.0896C60.0565 69.371 59.7571 68.6458 59.4511 67.9139C59.145 68.047 58.839 68.18 58.5329 68.3131ZM59.4511 67.9139C59.7571 68.6458 60.0565 69.371 60.3493 70.0896C61.966 74.0017 63.4431 77.9538 65.0798 81.8261C65.4125 82.5979 65.7452 83.3697 66.0778 84.1415C67.515 87.2752 68.473 90.6285 70.0898 93.7422C70.6753 93.5027 71.2608 93.2632 71.8463 93.0237C70.3692 89.4508 68.8922 85.7782 67.2754 82.2452C66.7299 81.0743 66.2042 79.8966 65.6986 78.7123C64.3413 75.6185 63.1437 72.5446 61.8662 69.4508C61.5602 68.719 61.2541 67.9871 60.9481 67.2552C60.4424 67.4814 59.9434 67.701 59.4511 67.9139ZM60.9481 67.2552C61.2541 67.9871 61.5602 68.719 61.8662 69.4508C63.1437 72.5446 64.3413 75.6185 65.6986 78.7123C66.2042 79.8966 66.7299 81.0743 67.2754 82.2452C68.8922 85.7782 70.3692 89.4508 71.8463 93.0237C72.139 92.9039 72.4318 92.7842 72.7245 92.6644C71.0878 89.1714 69.6507 85.4788 68.0339 81.9458C67.5149 80.7615 67.0026 79.5773 66.497 78.393C65.1597 75.2792 63.9221 72.2253 62.6048 69.1315C62.2987 68.3996 61.9927 67.6677 61.6866 66.9359C61.4338 67.0423 61.1876 67.1488 60.9481 67.2552Z" fill="url(#paint1_linear_298_2176)" fill-opacity="0.5"/>
</g>
</g>
<path d="M60.2894 78.1535L44.501 40.4889L46.6567 39.5707L63.0838 78.8122L60.2894 78.1535Z" fill="url(#paint2_linear_298_2176)"/>
<path d="M45.9581 85.9978L29.511 46.7563L31.6667 45.8581L47.4551 83.5228L45.9581 85.9978Z" fill="url(#paint3_linear_298_2176)"/>
<path d="M25.3991 88.2535L18.0937 76.1577L4.32129 79.4311L21.3672 38.7525L42.445 47.5948L25.3991 88.2535Z" fill="#F11616"/>
<path style="mix-blend-mode:soft-light" d="M25.3991 88.2535L18.0937 76.1577L4.32129 79.4311L21.3672 38.7525L42.445 47.5948L25.3991 88.2535Z" fill="url(#paint4_linear_298_2176)"/>
<mask id="mask1_298_2176" style="mask-type:luminance" maskUnits="userSpaceOnUse" x="4" y="38" width="39" height="51">
<path d="M25.4051 88.2634L18.0837 76.1636L4.32324 79.427L21.3692 38.7524L42.451 47.5867L25.4051 88.2634Z" fill="white"/>
</mask>
<g mask="url(#mask1_298_2176)">
<g style="mix-blend-mode:multiply" opacity="0.4">
<path d="M40.9081 49.4709C40.7617 50.083 40.6153 50.6884 40.4689 51.2872C39.0518 51.0078 37.6546 50.7483 36.2574 50.2892C36.437 49.7303 36.437 49.0916 36.7963 48.5726C38.1735 48.892 39.4709 49.3711 40.9081 49.4709ZM36.7963 48.5726C36.437 49.0916 36.437 49.7303 36.2574 50.2892C35.7783 50.1561 35.2993 50.0231 34.8202 49.89C34.92 49.2713 35.0997 48.7124 35.419 48.2333C35.8715 48.3531 36.3306 48.4662 36.7963 48.5726ZM35.419 48.2333C35.0997 48.7124 34.92 49.2713 34.8202 49.89C34.2015 49.7303 33.5827 49.5507 32.964 49.3711C33.1835 48.8122 33.1236 48.0138 33.6027 47.7343C34.2015 47.9073 34.8069 48.0736 35.419 48.2333ZM33.6027 47.7343C33.1236 48.0138 33.1835 48.8122 32.964 49.3711C32.5847 49.2713 32.1855 49.1116 31.8063 48.9918C32.0657 48.4928 31.8861 47.5148 32.4849 47.375C32.8575 47.4948 33.2301 47.6146 33.6027 47.7343ZM32.4849 47.375C31.8861 47.5148 32.0657 48.4928 31.8063 48.9918C31.3472 48.8122 30.8881 48.6325 30.429 48.4529C30.5887 47.8541 30.6087 46.876 31.1675 46.916C31.6067 47.0756 32.0458 47.2287 32.4849 47.375ZM31.1675 46.916C30.6087 46.876 30.5887 47.8541 30.429 48.4529C29.8701 48.2333 29.3113 47.9938 28.7524 47.7343C28.8522 47.0956 28.9919 46.1575 29.5109 46.2972C30.0697 46.5101 30.622 46.7164 31.1675 46.916ZM29.5109 46.2972C28.9919 46.1575 28.8522 47.0956 28.7524 47.7343C28.2733 47.5347 27.8143 47.3351 27.3352 47.1355C27.4949 46.397 27.4949 45.4988 28.1336 45.7383C28.5993 45.9246 29.0584 46.1109 29.5109 46.2972ZM28.1336 45.7383C27.4949 45.4988 27.4949 46.397 27.3352 47.1355C26.8162 46.9359 26.2973 46.6565 25.7783 46.417C25.938 45.918 25.7983 44.7603 26.6366 45.0996C27.1423 45.3125 27.6413 45.5254 28.1336 45.7383ZM26.6366 45.0996C25.7983 44.7603 25.938 45.918 25.7783 46.417C25.5188 46.2972 25.2394 46.1575 24.96 46.0178C25.1596 45.4589 25.0398 44.4609 25.8382 44.7403C26.1043 44.8601 26.3705 44.9798 26.6366 45.0996ZM25.8382 44.7403C25.0398 44.4609 25.1596 45.4589 24.96 46.0178C24.6406 45.8581 24.3212 45.6984 24.0019 45.5387C24.2015 44.9798 24.0618 43.9619 24.8801 44.3212C25.1995 44.4675 25.5188 44.6072 25.8382 44.7403ZM24.8801 44.3212C24.0618 43.9619 24.2015 44.9798 24.0019 45.5387C23.4962 45.2859 22.9972 45.0331 22.5049 44.7802C22.6113 44.3544 22.7178 43.9219 22.8242 43.4828C23.0638 43.5826 23.1835 43.5826 23.443 43.6625C23.922 43.8887 24.4011 44.1082 24.8801 44.3212ZM23.443 43.6625C23.1835 43.5826 23.0638 43.5826 22.8242 43.4828C22.7178 43.9219 22.6113 44.3544 22.5049 44.7802C21.9726 44.5008 21.4403 44.2214 20.9081 43.9419C21.0145 43.5294 21.121 43.1169 21.2274 42.7044C21.4869 42.8042 21.6067 42.8241 21.8661 42.9439C22.3984 43.1834 22.924 43.423 23.443 43.6625ZM21.8661 42.9439C21.6067 42.8241 21.4869 42.8042 21.2274 42.7044C21.121 43.1169 21.0145 43.5294 20.9081 43.9419C20.5887 43.7689 20.2627 43.5959 19.93 43.423C20.0365 43.0104 20.1429 42.6046 20.2494 42.2054C20.5089 42.3251 20.6286 42.3651 20.9081 42.4848C21.2274 42.6312 21.5468 42.7842 21.8661 42.9439ZM20.9081 42.4848C20.6286 42.3651 20.5089 42.3251 20.2494 42.2054C20.1429 42.6046 20.0365 43.0104 19.93 43.423C19.3911 43.1235 18.8522 42.8441 18.3133 42.5647C18.4197 42.1788 18.5195 41.7929 18.6127 41.407C18.8921 41.5467 19.0318 41.5866 19.3113 41.7263C19.8435 41.9792 20.3758 42.232 20.9081 42.4848ZM19.3113 41.7263C19.0318 41.5866 18.8921 41.5467 18.6127 41.407C18.5195 41.7929 18.4197 42.1788 18.3133 42.5647C18.0538 42.4249 17.7743 42.2852 17.5149 42.1455C17.6213 41.7729 17.7211 41.4003 17.8143 41.0277C18.0937 41.1475 18.2334 41.2074 18.5129 41.3471C18.779 41.4669 19.0451 41.5933 19.3113 41.7263ZM40.4689 51.2872C40.083 52.7776 39.6639 54.2413 39.2115 55.6784C37.9939 59.2513 36.4969 62.6844 34.96 66.0776C34.5741 66.9293 34.1882 67.7809 33.8023 68.6325C32.6845 71.2074 31.5268 73.8222 30.449 76.417C28.952 75.8581 29.2514 75.9778 27.7943 75.399C29.0119 71.886 30.449 68.4728 31.6665 64.9599C31.9992 64.0949 32.3186 63.2367 32.6246 62.385C33.5628 59.7902 34.441 57.1954 35.1596 54.5806C35.5588 53.1701 35.9247 51.7396 36.2574 50.2892C37.6546 50.7483 39.0518 51.0078 40.4689 51.2872ZM36.2574 50.2892C35.9247 51.7396 35.5588 53.1701 35.1596 54.5806C34.441 57.1954 33.5628 59.7902 32.6246 62.385C32.3186 63.2367 31.9992 64.0949 31.6665 64.9599C30.449 68.4728 29.0119 71.886 27.7943 75.399C27.2753 75.1994 26.9759 75.0397 26.6765 74.92C28.0139 71.4669 29.2514 68.0337 30.4889 64.5208C30.795 63.6558 31.0877 62.7909 31.3671 61.9259C32.2454 59.3511 33.0438 56.7563 33.7624 54.1415C34.1483 52.731 34.5009 51.3138 34.8202 49.89C35.2993 50.0231 35.7783 50.1561 36.2574 50.2892ZM34.8202 49.89C34.5009 51.3138 34.1483 52.731 33.7624 54.1415C33.0438 56.7563 32.2454 59.3511 31.3671 61.9259C31.0877 62.7909 30.795 63.6558 30.4889 64.5208C29.2514 68.0337 28.0139 71.4669 26.6765 74.92C26.2973 74.7204 25.958 74.5607 25.3192 74.3012C26.8562 70.2293 28.0937 66.0577 29.4111 61.9259C29.7171 60.9945 30.0099 60.063 30.2893 59.1315C30.8615 57.2553 31.4004 55.3923 31.9061 53.5427C32.0924 52.8508 32.272 52.1588 32.445 51.4669C32.618 50.7749 32.791 50.0763 32.964 49.3711C33.5827 49.5507 34.2015 49.7303 34.8202 49.89ZM32.964 49.3711C32.791 50.0763 32.618 50.7749 32.445 51.4669C32.272 52.1588 32.0924 52.8508 31.9061 53.5427C31.4004 55.3923 30.8615 57.2553 30.2893 59.1315C30.0099 60.063 29.7171 60.9945 29.4111 61.9259C28.0937 66.0577 26.8562 70.2293 25.3192 74.3012C24.94 74.1415 24.3612 73.902 23.7025 73.6425C25.1995 69.2912 26.6765 65.0597 28.2534 60.7683C28.5594 59.9299 28.8522 59.085 29.1316 58.2333C29.4244 57.3817 29.7038 56.5301 29.9699 55.6784C30.3891 54.1814 30.928 52.6645 31.2873 51.0677C31.4736 50.3757 31.6466 49.6838 31.8063 48.9918C32.1855 49.1116 32.5847 49.2713 32.964 49.3711ZM31.8063 48.9918C31.6466 49.6838 31.4736 50.3757 31.2873 51.0677C30.928 52.6645 30.3891 54.1814 29.9699 55.6784C29.7038 56.5301 29.4244 57.3817 29.1316 58.2333C28.8522 59.085 28.5594 59.9299 28.2534 60.7683C26.6765 65.0597 25.1995 69.2912 23.7025 73.6425C22.944 73.3232 22.0857 72.9439 21.2673 72.6046C22.9041 68.3531 24.6206 64.2214 26.457 60.0896C26.8162 59.2646 27.1622 58.4396 27.4949 57.6146C28.4131 55.2792 29.2314 52.9439 29.9101 50.5487C30.0964 49.8568 30.2693 49.1581 30.429 48.4529C30.8881 48.6325 31.3472 48.8122 31.8063 48.9918ZM30.429 48.4529C30.2693 49.1581 30.0964 49.8568 29.9101 50.5487C29.2314 52.9439 28.4131 55.2792 27.4949 57.6146C27.1622 58.4396 26.8162 59.2646 26.457 60.0896C24.6206 64.2214 22.9041 68.3531 21.2673 72.6046C20.2693 72.1854 19.3312 71.7862 18.7923 71.5467C20.4889 67.3551 22.3252 63.2832 24.1815 59.1914C25.6586 56.0776 26.9959 52.9838 28.1137 49.7902C28.3399 49.1249 28.5528 48.4396 28.7524 47.7343C29.3113 47.9938 29.8701 48.2333 30.429 48.4529ZM28.7524 47.7343C28.5528 48.4396 28.3399 49.1249 28.1137 49.7902C26.9959 52.9838 25.6586 56.0776 24.1815 59.1914C22.3252 63.2832 20.4889 67.3551 18.7923 71.5467C18.3399 71.3471 17.8874 71.1475 17.435 70.9479C19.0318 66.8361 21.0278 63.0038 22.7843 58.9918C24.3013 55.8182 25.6386 52.5846 26.7364 49.2114C26.9493 48.5327 27.1489 47.8408 27.3352 47.1355C27.8143 47.3351 28.2733 47.5347 28.7524 47.7343ZM27.3352 47.1355C27.1489 47.8408 26.9493 48.5327 26.7364 49.2114C25.6386 52.5846 24.3013 55.8182 22.7843 58.9918C21.0278 63.0038 19.0318 66.8361 17.435 70.9479C16.956 70.735 16.4769 70.5221 15.9979 70.3092C17.415 66.9559 18.932 63.6625 20.3492 60.3691C22.0059 56.397 24.0218 52.5647 25.2194 48.4728C25.4323 47.7942 25.6186 47.1089 25.7783 46.417C26.2973 46.6565 26.8162 46.9359 27.3352 47.1355ZM25.7783 46.417C25.6186 47.1089 25.4323 47.7942 25.2194 48.4728C24.0218 52.5647 22.0059 56.397 20.3492 60.3691C18.932 63.6625 17.415 66.9559 15.9979 70.3092C15.7451 70.2027 15.4922 70.0963 15.2394 69.9898C16.6965 66.6764 18.0937 63.3232 19.5907 60.0297C21.2474 56.0776 23.0438 52.2054 24.3612 48.0736C24.5741 47.395 24.7737 46.7097 24.96 46.0178C25.2394 46.1575 25.5188 46.2972 25.7783 46.417ZM24.96 46.0178C24.7737 46.7097 24.5741 47.395 24.3612 48.0736C23.0438 52.2054 21.2474 56.0776 19.5907 60.0297C18.0937 63.3232 16.6965 66.6764 15.2394 69.9898C14.9333 69.8568 14.6273 69.7237 14.3212 69.5906C15.6985 66.2373 17.1157 62.884 18.6127 59.5707C20.3891 55.6385 22.0657 51.6465 23.3831 47.5547C23.6093 46.8894 23.8156 46.2174 24.0019 45.5387C24.3212 45.6984 24.6406 45.8581 24.96 46.0178ZM24.0019 45.5387C23.8156 46.2174 23.6093 46.8894 23.3831 47.5547C22.0657 51.6465 20.3891 55.6385 18.6127 59.5707C17.1157 62.884 15.6985 66.2373 14.3212 69.5906C13.8555 69.3777 13.3964 69.1715 12.944 68.9719C14.0218 66.4768 15.0797 63.9619 16.1576 61.4469C18.2534 56.6565 20.429 51.906 21.926 46.8361C22.1256 46.1442 22.3186 45.4589 22.5049 44.7802C22.9972 45.0331 23.4962 45.2859 24.0019 45.5387ZM22.5049 44.7802C22.3186 45.4589 22.1256 46.1442 21.926 46.8361C20.429 51.906 18.2534 56.6565 16.1576 61.4469C15.0797 63.9619 14.0218 66.4768 12.944 68.9719C12.4516 68.7589 11.9593 68.5394 11.4669 68.3132C12.5248 65.7982 13.6027 63.2832 14.6805 60.7882C16.7564 55.9778 18.7923 51.0677 20.3093 46.0178C20.5222 45.3258 20.7218 44.6339 20.9081 43.9419C21.4403 44.2214 21.9726 44.5008 22.5049 44.7802ZM20.9081 43.9419C20.7218 44.6339 20.5222 45.3258 20.3093 46.0178C18.7923 51.0677 16.7564 55.9778 14.6805 60.7882C13.6027 63.2832 12.5248 65.7982 11.4669 68.3132C11.1609 68.1801 10.8548 68.047 10.5488 67.914C11.7863 65.419 12.7244 62.8441 13.8422 60.3291C15.8781 55.4589 17.7144 50.5287 19.3312 45.4589C19.5441 44.7802 19.7437 44.1016 19.93 43.423C20.2627 43.5959 20.5887 43.7689 20.9081 43.9419ZM19.93 43.423C19.7437 44.1016 19.5441 44.7802 19.3312 45.4589C17.7144 50.5287 15.8781 55.4589 13.8422 60.3291C12.7244 62.8441 11.7863 65.419 10.5488 67.914C10.0564 67.7011 9.55743 67.4815 9.05178 67.2553C9.81026 65.6385 10.4889 63.882 11.2474 62.2253C11.5934 61.3737 11.9327 60.5221 12.2653 59.6705C14.1416 54.6605 16.1176 49.7104 17.6945 44.6605C17.9074 43.9685 18.1137 43.2699 18.3133 42.5647C18.8522 42.8441 19.3911 43.1235 19.93 43.423ZM18.3133 42.5647C18.1137 43.2699 17.9074 43.9685 17.6945 44.6605C16.1176 49.7104 14.1416 54.6605 12.2653 59.6705C11.9327 60.5221 11.5934 61.3737 11.2474 62.2253C10.4889 63.882 9.81026 65.6385 9.05178 67.2553C8.79895 67.1488 8.55277 67.0424 8.31325 66.9359C8.97194 65.2194 9.77034 63.6026 10.3891 61.8661C10.7351 61.0144 11.0811 60.1628 11.427 59.3112C13.3831 54.3411 15.3791 49.3511 16.8961 44.2413C17.109 43.5494 17.3153 42.8508 17.5149 42.1455C17.7743 42.2852 18.0538 42.4249 18.3133 42.5647ZM30.449 76.417C30.1429 77.1888 29.8369 77.9539 29.5308 78.7124C27.7943 83.3631 25.8582 87.894 23.8023 92.3651C23.5095 92.9905 23.2101 93.6092 22.9041 94.2214C22.6113 94.8335 22.3053 95.4456 21.9859 96.0577C20.7484 98.4928 19.4709 100.888 18.0937 103.203C17.0757 102.405 15.8981 101.746 14.8801 101.028C16.8761 98.9918 18.3532 96.4768 19.8302 94.0018C20.3359 93.1502 20.8149 92.2852 21.2673 91.407C23.5428 87.0357 25.2394 82.3451 26.916 77.6345C27.1955 76.8894 27.4882 76.1442 27.7943 75.399C29.2514 75.9778 28.952 75.8581 30.449 76.417ZM27.7943 75.399C27.4882 76.1442 27.1955 76.8894 26.916 77.6345C25.2394 82.3451 23.5428 87.0357 21.2673 91.407C20.8149 92.2852 20.3359 93.1502 19.8302 94.0018C18.3532 96.4768 16.8761 98.9918 14.8801 101.028C14.5208 100.802 14.1549 100.575 13.7823 100.349C15.5188 98.0138 16.9959 95.4988 18.3731 92.9439C18.8788 92.1056 19.3578 91.2606 19.8103 90.409C22.1256 86.1375 23.9021 81.6066 25.7783 77.1355C26.0844 76.4037 26.3838 75.6651 26.6765 74.92C26.9759 75.0397 27.2753 75.1994 27.7943 75.399ZM26.6765 74.92C26.3838 75.6651 26.0844 76.4037 25.7783 77.1355C23.9021 81.6066 22.1256 86.1375 19.8103 90.409C19.3578 91.2606 18.8788 92.1056 18.3731 92.9439C16.9959 95.4988 15.5188 98.0138 13.7823 100.349C13.3033 100.043 12.8176 99.7436 12.3252 99.4509C12.6712 98.7856 13.0105 98.1202 13.3432 97.4549C13.6759 96.8029 14.0019 96.1442 14.3212 95.4788C14.9799 94.1615 15.6386 92.8441 16.3172 91.5267C16.7763 90.7084 17.2554 89.8701 17.7344 89.0517C20.0897 84.9399 22.3252 80.7683 24.3811 76.4968C24.7138 75.7782 25.0265 75.0464 25.3192 74.3012C25.958 74.5607 26.2973 74.7204 26.6765 74.92ZM25.3192 74.3012C25.0265 75.0464 24.7138 75.7782 24.3811 76.4968C22.3252 80.7683 20.0897 84.9399 17.7344 89.0517C17.2554 89.8701 16.7763 90.7084 16.3172 91.5267C15.6386 92.8441 14.9799 94.1615 14.3212 95.4788C14.0019 96.1442 13.6759 96.8029 13.3432 97.4549C13.0105 98.1202 12.6712 98.7856 12.3252 99.4509C12.0059 99.2646 11.6865 99.085 11.3671 98.912C11.7863 98.0936 12.1855 97.2752 12.5847 96.4569C12.9706 95.6319 13.3565 94.8135 13.7424 94.0018C14.5009 92.3451 15.2594 90.7084 16.1176 89.1315C16.5168 88.413 16.916 87.6877 17.3153 86.9559C19.2514 83.3032 21.1476 79.6106 22.8043 75.8182C23.1103 75.0863 23.4097 74.3611 23.7025 73.6425C24.3612 73.902 24.94 74.1415 25.3192 74.3012ZM23.7025 73.6425C23.4097 74.3611 23.1103 75.0863 22.8043 75.8182C21.1476 79.6106 19.2514 83.3032 17.3153 86.9559C16.916 87.6877 16.5168 88.413 16.1176 89.1315C15.2594 90.7084 14.5009 92.3451 13.7424 94.0018C13.3565 94.8135 12.9706 95.6319 12.5847 96.4569C12.1855 97.2752 11.7863 98.0936 11.3671 98.912C10.9946 98.7124 10.622 98.5128 10.2494 98.3132C11.2075 96.397 11.9859 94.401 12.8442 92.4449C13.1103 91.7929 13.3831 91.1342 13.6626 90.4689C14.2015 89.1515 14.7404 87.8341 15.3392 86.5367C15.7783 85.5653 16.2108 84.5939 16.6366 83.6226C17.9141 80.6884 19.1516 77.7343 20.3891 74.8002C20.6952 74.0683 20.9879 73.3365 21.2673 72.6046C22.0857 72.9439 22.944 73.3232 23.7025 73.6425ZM21.2673 72.6046C20.9879 73.3365 20.6952 74.0683 20.3891 74.8002C19.1516 77.7343 17.9141 80.6884 16.6366 83.6226C16.2108 84.5939 15.7783 85.5653 15.3392 86.5367C14.7404 87.8341 14.2015 89.1515 13.6626 90.4689C13.3831 91.1342 13.1103 91.7929 12.8442 92.4449C11.9859 94.401 11.2075 96.397 10.2494 98.3132C9.75703 98.0603 9.26468 97.8142 8.77234 97.5746C9.9899 94.9998 10.7284 92.2453 11.8262 89.5906C12.0657 88.9253 12.3186 88.2599 12.5847 87.5946C12.8375 86.9426 13.1037 86.2839 13.3831 85.6186C13.769 84.6339 14.1549 83.6492 14.5408 82.6645C15.6785 79.6904 16.7763 76.6964 17.934 73.7423C18.2135 73.0104 18.4995 72.2786 18.7923 71.5467C19.3312 71.7862 20.2693 72.1854 21.2673 72.6046ZM18.7923 71.5467C18.4995 72.2786 18.2135 73.0104 17.934 73.7423C16.7763 76.6964 15.6785 79.6904 14.5408 82.6645C14.1549 83.6492 13.769 84.6339 13.3831 85.6186C13.1037 86.2839 12.8375 86.9426 12.5847 87.5946C12.3186 88.2599 12.0657 88.9253 11.8262 89.5906C10.7284 92.2453 9.9899 94.9998 8.77234 97.5746C8.34652 97.375 7.91405 97.1754 7.47493 96.9758C8.65258 94.5407 9.37114 91.8461 10.3292 89.3112C10.6286 88.4729 10.948 87.6345 11.3073 86.7962C11.6665 85.8913 12.0192 84.9798 12.3652 84.0617C13.7823 80.389 15.0997 76.7164 16.5767 73.1435C16.8562 72.4116 17.1423 71.6798 17.435 70.9479C17.8874 71.1475 18.3399 71.3471 18.7923 71.5467ZM17.435 70.9479C17.1423 71.6798 16.8562 72.4116 16.5767 73.1435C15.0997 76.7164 13.7823 80.389 12.3652 84.0617C12.0192 84.9798 11.6665 85.8913 11.3073 86.7962C10.948 87.6345 10.6286 88.4729 10.3292 89.3112C9.37114 91.8461 8.65258 94.5407 7.47493 96.9758C6.99589 96.7496 6.51019 96.5301 6.01784 96.3172C7.41505 93.7623 8.11365 90.9279 9.11166 88.1934C9.43102 87.2752 9.75038 86.377 10.1097 85.4788C10.4423 84.6139 10.775 83.749 11.1077 82.884C12.425 79.4309 13.7025 75.9579 15.1196 72.5048C15.4124 71.7729 15.7051 71.041 15.9979 70.3092C16.4769 70.5221 16.956 70.735 17.435 70.9479ZM15.9979 70.3092C15.7051 71.041 15.4124 71.7729 15.1196 72.5048C13.7025 75.9579 12.425 79.4309 11.1077 82.884C10.775 83.749 10.4423 84.6139 10.1097 85.4788C9.75038 86.377 9.43102 87.2752 9.11166 88.1934C8.11365 90.9279 7.41505 93.7623 6.01784 96.3172C5.75171 96.1974 5.48558 96.0776 5.21944 95.9579C6.39709 93.2433 7.09569 90.409 8.19349 87.6545C8.55278 86.7962 8.91206 85.9379 9.27134 85.0796C11.0478 80.7882 12.6246 76.4569 14.3412 72.1655C14.6339 71.4336 14.9333 70.7084 15.2394 69.9898C15.4922 70.0963 15.7451 70.2027 15.9979 70.3092ZM15.2394 69.9898C14.9333 70.7084 14.6339 71.4336 14.3412 72.1655C12.6246 76.4569 11.0478 80.7882 9.27134 85.0796C8.91206 85.9379 8.55278 86.7962 8.19349 87.6545C7.09569 90.409 6.39709 93.2433 5.21944 95.9579C4.88677 95.8248 4.55411 95.6851 4.22144 95.5387C5.67852 92.2253 6.71645 88.7723 8.05377 85.4389C8.42636 84.5341 8.79229 83.6225 9.15158 82.7044C10.5687 79.0517 11.946 75.379 13.443 71.7663C13.7357 71.0344 14.0285 70.3092 14.3212 69.5906C14.6273 69.7237 14.9333 69.8568 15.2394 69.9898ZM14.3212 69.5906C14.0285 70.3092 13.7357 71.0344 13.443 71.7663C11.946 75.379 10.5687 79.0517 9.15158 82.7044C8.79229 83.6225 8.42636 84.5341 8.05377 85.4389C6.71645 88.7723 5.67852 92.2253 4.22144 95.5387C3.71578 95.3258 3.20347 95.1062 2.68451 94.88C4.10168 91.7263 5.05976 88.3731 6.41705 85.1595C6.73641 84.3877 7.05577 83.6092 7.37513 82.8241C8.9919 78.9319 10.4889 75.0397 12.0458 71.1475C12.3385 70.4289 12.6379 69.7037 12.944 68.9719C13.3964 69.1715 13.8555 69.3777 14.3212 69.5906ZM12.944 68.9719C12.6379 69.7037 12.3385 70.4289 12.0458 71.1475C10.4889 75.0397 8.9919 78.9319 7.37513 82.8241C7.05577 83.6092 6.73641 84.3877 6.41705 85.1595C5.05976 88.3731 4.10168 91.7263 2.68451 94.88C2.11232 94.6538 1.54013 94.421 0.967944 94.1814C2.28531 90.9479 3.48292 87.7144 4.8402 84.5208C5.17287 83.7357 5.49888 82.9572 5.81824 82.1854C7.43501 78.2932 8.87214 74.3611 10.5488 70.4888C10.8548 69.7703 11.1609 69.045 11.4669 68.3132C11.9593 68.5394 12.4516 68.7589 12.944 68.9719ZM11.4669 68.3132C11.1609 69.045 10.8548 69.7703 10.5488 70.4888C8.87214 74.3611 7.43501 78.2932 5.81824 82.1854C5.49888 82.9572 5.17287 83.7357 4.8402 84.5208C3.48292 87.7144 2.28531 90.9479 0.967944 94.1814C0.621969 94.0351 0.269344 93.8887 -0.0899379 93.7423C1.50687 90.6285 2.48491 87.2752 3.90208 84.1415C4.24805 83.3697 4.58072 82.5979 4.90008 81.8261C6.53681 77.9539 8.03381 74.0018 9.63062 70.0896C9.93667 69.3711 10.2427 68.6458 10.5488 67.914C10.8548 68.047 11.1609 68.1801 11.4669 68.3132ZM10.5488 67.914C10.2427 68.6458 9.93667 69.3711 9.63062 70.0896C8.03381 74.0018 6.53681 77.9539 4.90008 81.8261C4.58072 82.5979 4.24805 83.3697 3.90208 84.1415C2.48491 87.2752 1.50687 90.6285 -0.0899379 93.7423C-0.675433 93.5028 -1.26758 93.2633 -1.86639 93.0238C-0.389341 89.4509 1.10767 85.7782 2.72443 82.2453C3.2567 81.0743 3.78232 79.8967 4.30128 78.7124C5.63861 75.6186 6.83621 72.5447 8.13361 69.4509C8.43967 68.719 8.74572 67.9872 9.05178 67.2553C9.55743 67.4815 10.0564 67.7011 10.5488 67.914ZM9.05178 67.2553C8.74572 67.9872 8.43967 68.719 8.13361 69.4509C6.83621 72.5447 5.63861 75.6186 4.30128 78.7124C3.78232 79.8967 3.2567 81.0743 2.72443 82.2453C1.10767 85.7782 -0.389341 89.4509 -1.86639 93.0238C-2.15913 92.904 -2.45188 92.7842 -2.74463 92.6645C-1.08794 89.1715 0.349183 85.4788 1.94599 81.9459C2.47826 80.7616 2.99722 79.5773 3.50288 78.393C4.82024 75.2792 6.07773 72.2253 7.39509 69.1315C7.70115 68.3997 8.0072 67.6678 8.31325 66.9359C8.55277 67.0424 8.79895 67.1488 9.05178 67.2553Z" fill="url(#paint5_linear_298_2176)" fill-opacity="0.5"/>
</g>
</g>
<path d="M9.71061 78.1536L25.499 40.4889L23.3433 39.5708L6.89624 78.8123L9.71061 78.1536Z" fill="url(#paint6_linear_298_2176)"/>
<path d="M24.0419 85.9979L40.4691 46.7564L38.3134 45.8582L22.5449 83.5229L24.0419 85.9979Z" fill="url(#paint7_linear_298_2176)"/>
<path d="M35.998 0.449102L37.7545 2.44511C38.2136 2.96407 38.992 3.06387 39.5509 2.66467L41.7066 1.10778C42.3653 0.628743 43.2834 0.828343 43.6627 1.54691L44.9401 3.88224C45.2595 4.48104 45.998 4.74052 46.6367 4.48104L49.0918 3.44311C49.8303 3.12375 50.6687 3.54291 50.8882 4.3014L51.6068 6.87625C51.7864 7.53493 52.4451 7.95409 53.1238 7.83433L55.7585 7.37525C56.5369 7.23553 57.2755 7.81437 57.3154 8.61277L57.4551 11.2874C57.495 11.9661 58.0339 12.505 58.7126 12.5449L61.3872 12.6846C62.1856 12.7246 62.7645 13.4631 62.6247 14.2415L62.1657 16.8762C62.0459 17.5549 62.4651 18.1936 63.1237 18.3932L65.6986 19.1118C66.4571 19.3313 66.8762 20.1697 66.5569 20.9082L65.519 23.3633C65.2595 24.002 65.519 24.7405 66.1178 25.0599L68.4531 26.3373C69.1717 26.7166 69.3713 27.6347 68.8922 28.2934L67.3353 30.4491C66.9361 31.008 67.0359 31.7864 67.5549 32.2455L69.5509 34.002C70.1497 34.5409 70.1497 35.479 69.5509 35.998L67.5549 37.7745C67.0359 38.2136 66.9361 38.992 67.3353 39.5509L68.8922 41.7066C69.3713 42.3653 69.1717 43.2834 68.4531 43.6627L66.1178 44.9401C65.519 45.2794 65.2595 45.998 65.519 46.6367L66.5569 49.0918C66.8762 49.8303 66.4571 50.6687 65.6986 50.8882L63.1237 51.6267C62.4651 51.8064 62.0459 52.4651 62.1657 53.1437L62.6247 55.7585C62.7645 56.5569 62.1856 57.2954 61.3872 57.3353L58.7126 57.4551C58.0339 57.495 57.495 58.0339 57.4551 58.7325L57.3154 61.3872C57.2755 62.1856 56.5369 62.7844 55.7585 62.6447L53.1238 62.1657C52.4451 62.0459 51.7864 62.4651 51.6068 63.1237L50.8882 65.6986C50.6687 66.477 49.8303 66.8762 49.0918 66.5569L46.6367 65.519C45.998 65.2595 45.2595 65.519 44.9401 66.1178L43.6627 68.4531C43.2834 69.1717 42.3653 69.3713 41.7066 68.9122L39.5509 67.3553C38.992 66.9561 38.2136 67.0359 37.7545 67.5549L35.998 69.5509C35.4591 70.1497 34.521 70.1497 34.002 69.5509L32.2255 67.5549C31.7864 67.0359 31.008 66.9561 30.4491 67.3553L28.2934 68.9122C27.6347 69.3713 26.7166 69.1717 26.3373 68.4531L25.0599 66.1178C24.7206 65.519 24.002 65.2595 23.3633 65.519L20.9082 66.5569C20.1697 66.8762 19.3313 66.477 19.1118 65.6986L18.3733 63.1237C18.1936 62.4651 17.5349 62.0459 16.8563 62.1657L14.2415 62.6447C13.4431 62.7844 12.7046 62.1856 12.6647 61.3872L12.5449 58.7325C12.505 58.0339 11.9661 57.495 11.2675 57.4551L8.61277 57.3353C7.81437 57.2954 7.21557 56.5569 7.35529 55.7585L7.83433 53.1437C7.95409 52.4651 7.53493 51.8064 6.87625 51.6267L4.3014 50.8882C3.52295 50.6687 3.12375 49.8303 3.44311 49.0918L4.48104 46.6367C4.74052 45.998 4.48104 45.2794 3.88223 44.9401L1.54691 43.6627C0.828343 43.2834 0.628742 42.3653 1.08782 41.7066L2.64471 39.5509C3.04391 38.992 2.96407 38.2136 2.44511 37.7745L0.449102 35.998C-0.149701 35.479 -0.149701 34.5409 0.449102 34.002L2.44511 32.2455C2.96407 31.7864 3.04391 31.008 2.64471 30.4491L1.08782 28.2934C0.628742 27.6347 0.828343 26.7166 1.54691 26.3373L3.88223 25.0599C4.48104 24.7405 4.74052 24.002 4.48104 23.3633L3.44311 20.9082C3.12375 20.1697 3.52295 19.3313 4.3014 19.1118L6.87625 18.3932C7.53493 18.1936 7.95409 17.5549 7.83433 16.8762L7.35529 14.2415C7.21557 13.4631 7.81437 12.7246 8.61277 12.6846L11.2675 12.5449C11.9661 12.505 12.505 11.9661 12.5449 11.2874L12.6647 8.61277C12.7046 7.81437 13.4431 7.23553 14.2415 7.37525L16.8563 7.83433C17.5349 7.95409 18.1936 7.53493 18.3733 6.87625L19.1118 4.3014C19.3313 3.54291 20.1697 3.12375 20.9082 3.44311L23.3633 4.48104C24.002 4.74052 24.7206 4.48104 25.0599 3.88224L26.3373 1.54691C26.7166 0.828343 27.6347 0.628743 28.2934 1.10778L30.4491 2.66467C31.008 3.06387 31.7864 2.96407 32.2255 2.44511L34.002 0.449102C34.521 -0.149701 35.4591 -0.149701 35.998 0.449102Z" fill="#1939B7"/>
<path d="M35.998 0.449102L37.7545 2.44511C38.2136 2.96407 38.992 3.06387 39.5509 2.66467L41.7066 1.10778C42.3653 0.628743 43.2834 0.828343 43.6627 1.54691L44.9401 3.88224C45.2595 4.48104 45.998 4.74052 46.6367 4.48104L49.0918 3.44311C49.8303 3.12375 50.6687 3.54291 50.8882 4.3014L51.6068 6.87625C51.7864 7.53493 52.4451 7.95409 53.1238 7.83433L55.7585 7.37525C56.5369 7.23553 57.2755 7.81437 57.3154 8.61277L57.4551 11.2874C57.495 11.9661 58.0339 12.505 58.7126 12.5449L61.3872 12.6846C62.1856 12.7246 62.7645 13.4631 62.6247 14.2415L62.1657 16.8762C62.0459 17.5549 62.4651 18.1936 63.1237 18.3932L65.6986 19.1118C66.4571 19.3313 66.8762 20.1697 66.5569 20.9082L65.519 23.3633C65.2595 24.002 65.519 24.7405 66.1178 25.0599L68.4531 26.3373C69.1717 26.7166 69.3713 27.6347 68.8922 28.2934L67.3353 30.4491C66.9361 31.008 67.0359 31.7864 67.5549 32.2455L69.5509 34.002C70.1497 34.5409 70.1497 35.479 69.5509 35.998L67.5549 37.7745C67.0359 38.2136 66.9361 38.992 67.3353 39.5509L68.8922 41.7066C69.3713 42.3653 69.1717 43.2834 68.4531 43.6627L66.1178 44.9401C65.519 45.2794 65.2595 45.998 65.519 46.6367L66.5569 49.0918C66.8762 49.8303 66.4571 50.6687 65.6986 50.8882L63.1237 51.6267C62.4651 51.8064 62.0459 52.4651 62.1657 53.1437L62.6247 55.7585C62.7645 56.5569 62.1856 57.2954 61.3872 57.3353L58.7126 57.4551C58.0339 57.495 57.495 58.0339 57.4551 58.7325L57.3154 61.3872C57.2755 62.1856 56.5369 62.7844 55.7585 62.6447L53.1238 62.1657C52.4451 62.0459 51.7864 62.4651 51.6068 63.1237L50.8882 65.6986C50.6687 66.477 49.8303 66.8762 49.0918 66.5569L46.6367 65.519C45.998 65.2595 45.2595 65.519 44.9401 66.1178L43.6627 68.4531C43.2834 69.1717 42.3653 69.3713 41.7066 68.9122L39.5509 67.3553C38.992 66.9561 38.2136 67.0359 37.7545 67.5549L35.998 69.5509C35.4591 70.1497 34.521 70.1497 34.002 69.5509L32.2255 67.5549C31.7864 67.0359 31.008 66.9561 30.4491 67.3553L28.2934 68.9122C27.6347 69.3713 26.7166 69.1717 26.3373 68.4531L25.0599 66.1178C24.7206 65.519 24.002 65.2595 23.3633 65.519L20.9082 66.5569C20.1697 66.8762 19.3313 66.477 19.1118 65.6986L18.3733 63.1237C18.1936 62.4651 17.5349 62.0459 16.8563 62.1657L14.2415 62.6447C13.4431 62.7844 12.7046 62.1856 12.6647 61.3872L12.5449 58.7325C12.505 58.0339 11.9661 57.495 11.2675 57.4551L8.61277 57.3353C7.81437 57.2954 7.21557 56.5569 7.35529 55.7585L7.83433 53.1437C7.95409 52.4651 7.53493 51.8064 6.87625 51.6267L4.3014 50.8882C3.52295 50.6687 3.12375 49.8303 3.44311 49.0918L4.48104 46.6367C4.74052 45.998 4.48104 45.2794 3.88223 44.9401L1.54691 43.6627C0.828343 43.2834 0.628742 42.3653 1.08782 41.7066L2.64471 39.5509C3.04391 38.992 2.96407 38.2136 2.44511 37.7745L0.449102 35.998C-0.149701 35.479 -0.149701 34.5409 0.449102 34.002L2.44511 32.2455C2.96407 31.7864 3.04391 31.008 2.64471 30.4491L1.08782 28.2934C0.628742 27.6347 0.828343 26.7166 1.54691 26.3373L3.88223 25.0599C4.48104 24.7405 4.74052 24.002 4.48104 23.3633L3.44311 20.9082C3.12375 20.1697 3.52295 19.3313 4.3014 19.1118L6.87625 18.3932C7.53493 18.1936 7.95409 17.5549 7.83433 16.8762L7.35529 14.2415C7.21557 13.4631 7.81437 12.7246 8.61277 12.6846L11.2675 12.5449C11.9661 12.505 12.505 11.9661 12.5449 11.2874L12.6647 8.61277C12.7046 7.81437 13.4431 7.23553 14.2415 7.37525L16.8563 7.83433C17.5349 7.95409 18.1936 7.53493 18.3733 6.87625L19.1118 4.3014C19.3313 3.54291 20.1697 3.12375 20.9082 3.44311L23.3633 4.48104C24.002 4.74052 24.7206 4.48104 25.0599 3.88224L26.3373 1.54691C26.7166 0.828343 27.6347 0.628743 28.2934 1.10778L30.4491 2.66467C31.008 3.06387 31.7864 2.96407 32.2255 2.44511L34.002 0.449102C34.521 -0.149701 35.4591 -0.149701 35.998 0.449102Z" fill="url(#paint8_linear_298_2176)" fill-opacity="0.1"/>
<path d="M35 6.17763C51.0678 6.17763 64.0818 19.1916 64.0818 35.2595C64.0818 51.3273 51.0678 64.3613 35 64.3613C18.9321 64.3613 5.89819 51.3273 5.89819 35.2595C5.89819 19.1916 18.9321 6.17763 35 6.17763Z" fill="url(#paint9_linear_298_2176)"/>
<path d="M35.0001 8.41315C49.8304 8.41315 61.8663 20.4291 61.8663 35.2595C61.8663 50.1098 49.8304 62.1257 35.0001 62.1257C20.1697 62.1257 8.13379 50.1098 8.13379 35.2595C8.13379 20.4291 20.1697 8.41315 35.0001 8.41315Z" fill="url(#paint10_linear_298_2176)"/>
<path d="M35 9.87025C49.0319 9.87025 60.3892 21.2475 60.3892 35.2595C60.3892 49.2914 49.0319 60.6687 35 60.6687C20.9681 60.6687 9.59082 49.2914 9.59082 35.2595C9.59082 21.2475 20.9681 9.87025 35 9.87025Z" fill="#F1F2F2"/>
<g filter="url(#filter0_d_298_2176)">
<path d="M22.5568 32.2117C22.0662 32.2117 21.6475 32.1264 21.3008 31.9557C20.9595 31.7851 20.6928 31.5397 20.5008 31.2197C20.3142 30.8944 20.2128 30.5077 20.1968 30.0597C20.1915 29.8304 20.1888 29.5851 20.1888 29.3237C20.1888 29.0571 20.1915 28.8064 20.1968 28.5717C20.2128 28.1291 20.3142 27.7504 20.5008 27.4357C20.6928 27.1211 20.9622 26.8784 21.3088 26.7077C21.6608 26.5371 22.0768 26.4517 22.5568 26.4517C22.9462 26.4517 23.2875 26.5051 23.5808 26.6117C23.8742 26.7131 24.1168 26.8464 24.3088 27.0117C24.5062 27.1717 24.6528 27.3451 24.7488 27.5317C24.8502 27.7184 24.9035 27.8917 24.9088 28.0517C24.9142 28.0997 24.9008 28.1397 24.8688 28.1717C24.8368 28.2037 24.7942 28.2197 24.7408 28.2197H23.9168C23.8635 28.2197 23.8235 28.2091 23.7968 28.1877C23.7702 28.1664 23.7462 28.1344 23.7248 28.0917C23.6822 27.9797 23.6155 27.8704 23.5248 27.7637C23.4342 27.6517 23.3115 27.5584 23.1568 27.4837C23.0022 27.4091 22.8022 27.3717 22.5568 27.3717C22.1942 27.3717 21.9035 27.4677 21.6848 27.6597C21.4715 27.8517 21.3568 28.1691 21.3408 28.6117C21.3248 29.0757 21.3248 29.5451 21.3408 30.0197C21.3568 30.4731 21.4742 30.7984 21.6928 30.9957C21.9168 31.1931 22.2102 31.2917 22.5728 31.2917C22.8128 31.2917 23.0262 31.2491 23.2128 31.1637C23.4048 31.0784 23.5542 30.9451 23.6608 30.7637C23.7728 30.5824 23.8288 30.3504 23.8288 30.0677V29.8197H22.8528C22.7995 29.8197 22.7542 29.8011 22.7168 29.7637C22.6795 29.7264 22.6608 29.6784 22.6608 29.6197V29.1957C22.6608 29.1371 22.6795 29.0891 22.7168 29.0517C22.7542 29.0144 22.7995 28.9957 22.8528 28.9957H24.7648C24.8235 28.9957 24.8688 29.0144 24.9008 29.0517C24.9382 29.0891 24.9568 29.1371 24.9568 29.1957V30.0357C24.9568 30.4837 24.8582 30.8704 24.6608 31.1957C24.4688 31.5211 24.1915 31.7717 23.8288 31.9477C23.4715 32.1237 23.0475 32.2117 22.5568 32.2117ZM26.1744 32.1317C26.1211 32.1317 26.0757 32.1131 26.0384 32.0757C26.0011 32.0384 25.9824 31.9931 25.9824 31.9397V26.7237C25.9824 26.6704 26.0011 26.6251 26.0384 26.5877C26.0757 26.5504 26.1211 26.5317 26.1744 26.5317H26.9184C26.9717 26.5317 27.0171 26.5504 27.0544 26.5877C27.0917 26.6251 27.1104 26.6704 27.1104 26.7237V31.1797H29.6464C29.7051 31.1797 29.7531 31.1984 29.7904 31.2357C29.8277 31.2731 29.8464 31.3211 29.8464 31.3797V31.9397C29.8464 31.9931 29.8277 32.0384 29.7904 32.0757C29.7531 32.1131 29.7051 32.1317 29.6464 32.1317H26.1744ZM32.7047 32.2117C32.23 32.2117 31.822 32.1344 31.4807 31.9797C31.1394 31.8197 30.8727 31.5771 30.6807 31.2517C30.4887 30.9211 30.3847 30.5104 30.3687 30.0197C30.3634 29.7904 30.3607 29.5637 30.3607 29.3397C30.3607 29.1157 30.3634 28.8864 30.3687 28.6517C30.3847 28.1664 30.4914 27.7611 30.6887 27.4357C30.886 27.1104 31.1554 26.8651 31.4967 26.6997C31.8434 26.5344 32.246 26.4517 32.7047 26.4517C33.1634 26.4517 33.566 26.5344 33.9127 26.6997C34.2594 26.8651 34.5314 27.1104 34.7287 27.4357C34.926 27.7611 35.0327 28.1664 35.0487 28.6517C35.0594 28.8864 35.0647 29.1157 35.0647 29.3397C35.0647 29.5637 35.0594 29.7904 35.0487 30.0197C35.0327 30.5104 34.9287 30.9211 34.7367 31.2517C34.5447 31.5771 34.2754 31.8197 33.9287 31.9797C33.5874 32.1344 33.1794 32.2117 32.7047 32.2117ZM32.7047 31.2917C33.0514 31.2917 33.334 31.1904 33.5527 30.9877C33.7714 30.7797 33.8887 30.4437 33.9047 29.9797C33.9154 29.7451 33.9207 29.5291 33.9207 29.3317C33.9207 29.1291 33.9154 28.9131 33.9047 28.6837C33.894 28.3744 33.8354 28.1237 33.7287 27.9317C33.6274 27.7344 33.4887 27.5931 33.3127 27.5077C33.1367 27.4171 32.934 27.3717 32.7047 27.3717C32.4807 27.3717 32.2807 27.4171 32.1047 27.5077C31.9287 27.5931 31.7874 27.7344 31.6807 27.9317C31.5794 28.1237 31.5234 28.3744 31.5127 28.6837C31.5074 28.9131 31.5047 29.1291 31.5047 29.3317C31.5047 29.5291 31.5074 29.7451 31.5127 29.9797C31.5287 30.4437 31.646 30.7797 31.8647 30.9877C32.0834 31.1904 32.3634 31.2917 32.7047 31.2917ZM36.3072 32.1317C36.2539 32.1317 36.2085 32.1131 36.1712 32.0757C36.1339 32.0384 36.1152 31.9931 36.1152 31.9397V26.7317C36.1152 26.6731 36.1339 26.6251 36.1712 26.5877C36.2085 26.5504 36.2539 26.5317 36.3072 26.5317H38.6272C39.0592 26.5317 39.4112 26.5984 39.6832 26.7317C39.9552 26.8597 40.1552 27.0384 40.2832 27.2677C40.4165 27.4971 40.4832 27.7637 40.4832 28.0677C40.4832 28.2704 40.4459 28.4491 40.3712 28.6037C40.3019 28.7531 40.2139 28.8757 40.1072 28.9717C40.0059 29.0677 39.9045 29.1424 39.8032 29.1957C40.0112 29.2917 40.1952 29.4517 40.3552 29.6757C40.5152 29.8997 40.5952 30.1664 40.5952 30.4757C40.5952 30.7957 40.5232 31.0811 40.3792 31.3317C40.2352 31.5824 40.0219 31.7797 39.7392 31.9237C39.4565 32.0624 39.1072 32.1317 38.6912 32.1317H36.3072ZM37.2272 31.2837H38.5632C38.8512 31.2837 39.0699 31.2064 39.2192 31.0517C39.3685 30.8917 39.4432 30.6997 39.4432 30.4757C39.4432 30.2411 39.3659 30.0464 39.2112 29.8917C39.0619 29.7371 38.8459 29.6597 38.5632 29.6597H37.2272V31.2837ZM37.2272 28.8277H38.4832C38.7659 28.8277 38.9765 28.7611 39.1152 28.6277C39.2592 28.4891 39.3312 28.3104 39.3312 28.0917C39.3312 27.8677 39.2592 27.6944 39.1152 27.5717C38.9765 27.4437 38.7659 27.3797 38.4832 27.3797H37.2272V28.8277ZM41.1853 32.1317C41.1426 32.1317 41.1026 32.1157 41.0653 32.0837C41.0333 32.0517 41.0173 32.0117 41.0173 31.9637C41.0173 31.9424 41.0226 31.9184 41.0333 31.8917L42.9613 26.7317C42.9773 26.6784 43.0066 26.6331 43.0493 26.5957C43.0973 26.5531 43.1613 26.5317 43.2413 26.5317H44.1133C44.1933 26.5317 44.2546 26.5531 44.2973 26.5957C44.3399 26.6331 44.3719 26.6784 44.3933 26.7317L46.3213 31.8917C46.3266 31.9184 46.3293 31.9424 46.3293 31.9637C46.3293 32.0117 46.3133 32.0517 46.2813 32.0837C46.2493 32.1157 46.2119 32.1317 46.1693 32.1317H45.4733C45.3986 32.1317 45.3426 32.1157 45.3053 32.0837C45.2733 32.0464 45.2519 32.0117 45.2413 31.9797L44.8653 31.0037H42.4893L42.1133 31.9797C42.1026 32.0117 42.0786 32.0464 42.0413 32.0837C42.0093 32.1157 41.9559 32.1317 41.8813 32.1317H41.1853ZM42.7693 30.0837H44.5853L43.6733 27.6117L42.7693 30.0837ZM47.2681 32.1317C47.2148 32.1317 47.1695 32.1131 47.1321 32.0757C47.0948 32.0384 47.0761 31.9931 47.0761 31.9397V26.7237C47.0761 26.6704 47.0948 26.6251 47.1321 26.5877C47.1695 26.5504 47.2148 26.5317 47.2681 26.5317H48.0121C48.0655 26.5317 48.1108 26.5504 48.1481 26.5877C48.1855 26.6251 48.2041 26.6704 48.2041 26.7237V31.1797H50.7401C50.7988 31.1797 50.8468 31.1984 50.8841 31.2357C50.9215 31.2731 50.9401 31.3211 50.9401 31.3797V31.9397C50.9401 31.9931 50.9215 32.0384 50.8841 32.0757C50.8468 32.1131 50.7988 32.1317 50.7401 32.1317H47.2681ZM16.3971 42.1317C16.3437 42.1317 16.2984 42.1131 16.2611 42.0757C16.2237 42.0384 16.2051 41.9931 16.2051 41.9397V36.7317C16.2051 36.6731 16.2237 36.6251 16.2611 36.5877C16.2984 36.5504 16.3437 36.5317 16.3971 36.5317H18.3491C18.8877 36.5317 19.3304 36.6144 19.6771 36.7797C20.0291 36.9451 20.2931 37.1904 20.4691 37.5157C20.6504 37.8411 20.7437 38.2384 20.7491 38.7077C20.7597 38.9424 20.7651 39.1504 20.7651 39.3317C20.7651 39.5131 20.7597 39.7184 20.7491 39.9477C20.7384 40.4437 20.6477 40.8544 20.4771 41.1797C20.3064 41.4997 20.0477 41.7397 19.7011 41.8997C19.3597 42.0544 18.9224 42.1317 18.3891 42.1317H16.3971ZM17.3171 41.2117H18.3491C18.6477 41.2117 18.8904 41.1691 19.0771 41.0837C19.2637 40.9984 19.3997 40.8624 19.4851 40.6757C19.5757 40.4837 19.6237 40.2331 19.6291 39.9237C19.6344 39.7637 19.6371 39.6251 19.6371 39.5077C19.6424 39.3851 19.6424 39.2651 19.6371 39.1477C19.6371 39.0251 19.6344 38.8864 19.6291 38.7317C19.6184 38.2944 19.5091 37.9717 19.3011 37.7637C19.0931 37.5557 18.7624 37.4517 18.3091 37.4517H17.3171V41.2117ZM22.0221 42.1317C21.9687 42.1317 21.9234 42.1131 21.8861 42.0757C21.8487 42.0384 21.8301 41.9931 21.8301 41.9397V36.7237C21.8301 36.6704 21.8487 36.6251 21.8861 36.5877C21.9234 36.5504 21.9687 36.5317 22.0221 36.5317H22.7741C22.8327 36.5317 22.8781 36.5504 22.9101 36.5877C22.9474 36.6251 22.9661 36.6704 22.9661 36.7237V41.9397C22.9661 41.9931 22.9474 42.0384 22.9101 42.0757C22.8781 42.1131 22.8327 42.1317 22.7741 42.1317H22.0221ZM24.4127 42.1317C24.3593 42.1317 24.314 42.1131 24.2767 42.0757C24.2393 42.0384 24.2207 41.9931 24.2207 41.9397V36.7317C24.2207 36.6731 24.2393 36.6251 24.2767 36.5877C24.314 36.5504 24.3593 36.5317 24.4127 36.5317H26.4847C27.13 36.5317 27.6393 36.6811 28.0127 36.9797C28.386 37.2784 28.5727 37.7131 28.5727 38.2837C28.5727 38.6784 28.474 39.0064 28.2767 39.2677C28.0847 39.5291 27.826 39.7184 27.5007 39.8357L28.6687 41.8757C28.6847 41.9077 28.6927 41.9371 28.6927 41.9637C28.6927 42.0117 28.674 42.0517 28.6367 42.0837C28.6047 42.1157 28.5673 42.1317 28.5247 42.1317H27.7967C27.706 42.1317 27.6367 42.1077 27.5887 42.0597C27.5407 42.0117 27.5033 41.9637 27.4767 41.9157L26.4447 40.0197H25.3327V41.9397C25.3327 41.9931 25.314 42.0384 25.2767 42.0757C25.2447 42.1131 25.1993 42.1317 25.1407 42.1317H24.4127ZM25.3327 39.1157H26.4607C26.786 39.1157 27.0287 39.0437 27.1887 38.8997C27.3487 38.7504 27.4287 38.5424 27.4287 38.2757C27.4287 38.0091 27.3487 37.8011 27.1887 37.6517C27.034 37.4971 26.7913 37.4197 26.4607 37.4197H25.3327V39.1157ZM29.7955 42.1317C29.7422 42.1317 29.6968 42.1131 29.6595 42.0757C29.6222 42.0384 29.6035 41.9931 29.6035 41.9397V36.7317C29.6035 36.6731 29.6222 36.6251 29.6595 36.5877C29.6968 36.5504 29.7422 36.5317 29.7955 36.5317H33.3155C33.3742 36.5317 33.4222 36.5504 33.4595 36.5877C33.4968 36.6251 33.5155 36.6731 33.5155 36.7317V37.2597C33.5155 37.3131 33.4968 37.3584 33.4595 37.3957C33.4222 37.4331 33.3742 37.4517 33.3155 37.4517H30.6835V38.8677H33.1395C33.1982 38.8677 33.2462 38.8864 33.2835 38.9237C33.3208 38.9557 33.3395 39.0011 33.3395 39.0597V39.5557C33.3395 39.6144 33.3208 39.6624 33.2835 39.6997C33.2462 39.7317 33.1982 39.7477 33.1395 39.7477H30.6835V41.2117H33.3795C33.4382 41.2117 33.4862 41.2304 33.5235 41.2677C33.5608 41.3051 33.5795 41.3531 33.5795 41.4117V41.9397C33.5795 41.9931 33.5608 42.0384 33.5235 42.0757C33.4862 42.1131 33.4382 42.1317 33.3795 42.1317H29.7955ZM36.6932 42.2117C36.1972 42.2117 35.7758 42.1264 35.4292 41.9557C35.0878 41.7797 34.8265 41.5317 34.6452 41.2117C34.4638 40.8864 34.3625 40.4971 34.3412 40.0437C34.3358 39.8251 34.3332 39.5904 34.3332 39.3397C34.3332 39.0891 34.3358 38.8491 34.3412 38.6197C34.3625 38.1717 34.4638 37.7851 34.6452 37.4597C34.8318 37.1344 35.0958 36.8864 35.4372 36.7157C35.7838 36.5397 36.2025 36.4517 36.6932 36.4517C37.0558 36.4517 37.3812 36.4997 37.6692 36.5957C37.9572 36.6917 38.2025 36.8251 38.4052 36.9957C38.6078 37.1611 38.7652 37.3557 38.8772 37.5797C38.9892 37.8037 39.0478 38.0464 39.0532 38.3077C39.0585 38.3557 39.0425 38.3957 39.0052 38.4277C38.9732 38.4597 38.9332 38.4757 38.8852 38.4757H38.1252C38.0665 38.4757 38.0185 38.4624 37.9812 38.4357C37.9438 38.4037 37.9172 38.3531 37.9012 38.2837C37.8158 37.9317 37.6692 37.6917 37.4612 37.5637C37.2532 37.4357 36.9945 37.3717 36.6852 37.3717C36.3278 37.3717 36.0425 37.4731 35.8292 37.6757C35.6158 37.8731 35.5012 38.2011 35.4852 38.6597C35.4692 39.0971 35.4692 39.5451 35.4852 40.0037C35.5012 40.4624 35.6158 40.7931 35.8292 40.9957C36.0425 41.1931 36.3278 41.2917 36.6852 41.2917C36.9945 41.2917 37.2532 41.2277 37.4612 41.0997C37.6692 40.9664 37.8158 40.7264 37.9012 40.3797C37.9172 40.3051 37.9438 40.2544 37.9812 40.2277C38.0185 40.2011 38.0665 40.1877 38.1252 40.1877H38.8852C38.9332 40.1877 38.9732 40.2037 39.0052 40.2357C39.0425 40.2677 39.0585 40.3077 39.0532 40.3557C39.0478 40.6171 38.9892 40.8597 38.8772 41.0837C38.7652 41.3077 38.6078 41.5051 38.4052 41.6757C38.2025 41.8411 37.9572 41.9717 37.6692 42.0677C37.3812 42.1637 37.0558 42.2117 36.6932 42.2117ZM41.4259 42.1317C41.3726 42.1317 41.3273 42.1131 41.2899 42.0757C41.2526 42.0384 41.2339 41.9931 41.2339 41.9397V37.5157H39.7539C39.7006 37.5157 39.6553 37.4971 39.6179 37.4597C39.5806 37.4224 39.5619 37.3771 39.5619 37.3237V36.7317C39.5619 36.6731 39.5806 36.6251 39.6179 36.5877C39.6553 36.5504 39.7006 36.5317 39.7539 36.5317H43.8339C43.8926 36.5317 43.9406 36.5504 43.9779 36.5877C44.0153 36.6251 44.0339 36.6731 44.0339 36.7317V37.3237C44.0339 37.3771 44.0153 37.4224 43.9779 37.4597C43.9406 37.4971 43.8926 37.5157 43.8339 37.5157H42.3619V41.9397C42.3619 41.9931 42.3433 42.0384 42.3059 42.0757C42.2686 42.1131 42.2206 42.1317 42.1619 42.1317H41.4259ZM46.8961 42.2117C46.4215 42.2117 46.0135 42.1344 45.6721 41.9797C45.3308 41.8197 45.0641 41.5771 44.8721 41.2517C44.6801 40.9211 44.5761 40.5104 44.5601 40.0197C44.5548 39.7904 44.5521 39.5637 44.5521 39.3397C44.5521 39.1157 44.5548 38.8864 44.5601 38.6517C44.5761 38.1664 44.6828 37.7611 44.8801 37.4357C45.0775 37.1104 45.3468 36.8651 45.6881 36.6997C46.0348 36.5344 46.4375 36.4517 46.8961 36.4517C47.3548 36.4517 47.7575 36.5344 48.1041 36.6997C48.4508 36.8651 48.7228 37.1104 48.9201 37.4357C49.1175 37.7611 49.2241 38.1664 49.2401 38.6517C49.2508 38.8864 49.2561 39.1157 49.2561 39.3397C49.2561 39.5637 49.2508 39.7904 49.2401 40.0197C49.2241 40.5104 49.1201 40.9211 48.9281 41.2517C48.7361 41.5771 48.4668 41.8197 48.1201 41.9797C47.7788 42.1344 47.3708 42.2117 46.8961 42.2117ZM46.8961 41.2917C47.2428 41.2917 47.5255 41.1904 47.7441 40.9877C47.9628 40.7797 48.0801 40.4437 48.0961 39.9797C48.1068 39.7451 48.1121 39.5291 48.1121 39.3317C48.1121 39.1291 48.1068 38.9131 48.0961 38.6837C48.0855 38.3744 48.0268 38.1237 47.9201 37.9317C47.8188 37.7344 47.6801 37.5931 47.5041 37.5077C47.3281 37.4171 47.1255 37.3717 46.8961 37.3717C46.6721 37.3717 46.4721 37.4171 46.2961 37.5077C46.1201 37.5931 45.9788 37.7344 45.8721 37.9317C45.7708 38.1237 45.7148 38.3744 45.7041 38.6837C45.6988 38.9131 45.6961 39.1291 45.6961 39.3317C45.6961 39.5291 45.6988 39.7451 45.7041 39.9797C45.7201 40.4437 45.8375 40.7797 46.0561 40.9877C46.2748 41.1904 46.5548 41.2917 46.8961 41.2917ZM50.4986 42.1317C50.4453 42.1317 50.4 42.1131 50.3626 42.0757C50.3253 42.0384 50.3066 41.9931 50.3066 41.9397V36.7317C50.3066 36.6731 50.3253 36.6251 50.3626 36.5877C50.4 36.5504 50.4453 36.5317 50.4986 36.5317H52.5706C53.216 36.5317 53.7253 36.6811 54.0986 36.9797C54.472 37.2784 54.6586 37.7131 54.6586 38.2837C54.6586 38.6784 54.56 39.0064 54.3626 39.2677C54.1706 39.5291 53.912 39.7184 53.5866 39.8357L54.7546 41.8757C54.7706 41.9077 54.7786 41.9371 54.7786 41.9637C54.7786 42.0117 54.76 42.0517 54.7226 42.0837C54.6906 42.1157 54.6533 42.1317 54.6106 42.1317H53.8826C53.792 42.1317 53.7226 42.1077 53.6746 42.0597C53.6266 42.0117 53.5893 41.9637 53.5626 41.9157L52.5306 40.0197H51.4186V41.9397C51.4186 41.9931 51.4 42.0384 51.3626 42.0757C51.3306 42.1131 51.2853 42.1317 51.2266 42.1317H50.4986ZM51.4186 39.1157H52.5466C52.872 39.1157 53.1146 39.0437 53.2746 38.8997C53.4346 38.7504 53.5146 38.5424 53.5146 38.2757C53.5146 38.0091 53.4346 37.8011 53.2746 37.6517C53.12 37.4971 52.8773 37.4197 52.5466 37.4197H51.4186V39.1157Z" fill="#212B36"/>
</g>
<defs>
<filter id="filter0_d_298_2176" x="14.2051" y="26.4518" width="42.5735" height="19.76" filterUnits="userSpaceOnUse" color-interpolation-filters="sRGB">
<feFlood flood-opacity="0" result="BackgroundImageFix"/>
<feColorMatrix in="SourceAlpha" type="matrix" values="0 0 0 0 0 0 0 0 0 0 0 0 0 0 0 0 0 0 127 0" result="hardAlpha"/>
<feOffset dy="2"/>
<feGaussianBlur stdDeviation="1"/>
<feComposite in2="hardAlpha" operator="out"/>
<feColorMatrix type="matrix" values="0 0 0 0 0 0 0 0 0 0 0 0 0 0 0 0 0 0 0.15 0"/>
<feBlend mode="normal" in2="BackgroundImageFix" result="effect1_dropShadow_298_2176"/>
<feBlend mode="normal" in="SourceGraphic" in2="effect1_dropShadow_298_2176" result="shape"/>
</filter>
<linearGradient id="paint0_linear_298_2176" x1="82.2443" y1="46.2328" x2="104.525" y2="93.9476" gradientUnits="userSpaceOnUse">
<stop stop-color="#231F20"/>
<stop offset="1" stop-color="white"/>
</linearGradient>
<linearGradient id="paint1_linear_298_2176" x1="29.0946" y1="49.4706" x2="42.2059" y2="75.3904" gradientUnits="userSpaceOnUse">
<stop stop-color="white"/>
<stop offset="1" stop-color="#A1A1A1"/>
</linearGradient>
<linearGradient id="paint2_linear_298_2176" x1="-260.57" y1="321.557" x2="-227.286" y2="354.841" gradientUnits="userSpaceOnUse">
<stop stop-color="#B8B8B8"/>
<stop offset="0.164" stop-color="#E8E8E8"/>
<stop offset="0.291" stop-color="white"/>
<stop offset="0.552" stop-color="#ABABAB"/>
<stop offset="0.782" stop-color="#E8E8E8"/>
<stop offset="0.909" stop-color="#A2A2A2"/>
<stop offset="1" stop-color="#717171"/>
</linearGradient>
<linearGradient id="paint3_linear_298_2176" x1="-275.543" y1="327.829" x2="-242.259" y2="361.113" gradientUnits="userSpaceOnUse">
<stop stop-color="#B8B8B8"/>
<stop offset="0.164" stop-color="#E8E8E8"/>
<stop offset="0.291" stop-color="white"/>
<stop offset="0.552" stop-color="#ABABAB"/>
<stop offset="0.782" stop-color="#E8E8E8"/>
<stop offset="0.909" stop-color="#A2A2A2"/>
<stop offset="1" stop-color="#717171"/>
</linearGradient>
<linearGradient id="paint4_linear_298_2176" x1="-12.2512" y1="46.2329" x2="-34.5321" y2="93.9476" gradientUnits="userSpaceOnUse">
<stop stop-color="#231F20"/>
<stop offset="1" stop-color="white"/>
</linearGradient>
<linearGradient id="paint5_linear_298_2176" x1="40.8985" y1="49.4707" x2="27.7872" y2="75.3905" gradientUnits="userSpaceOnUse">
<stop stop-color="white"/>
<stop offset="1" stop-color="#A1A1A1"/>
</linearGradient>
<linearGradient id="paint6_linear_298_2176" x1="-298.165" y1="-202.259" x2="-264.881" y2="-235.544" gradientUnits="userSpaceOnUse">
<stop stop-color="#B8B8B8"/>
<stop offset="0.164" stop-color="#E8E8E8"/>
<stop offset="0.291" stop-color="white"/>
<stop offset="0.552" stop-color="#ABABAB"/>
<stop offset="0.782" stop-color="#E8E8E8"/>
<stop offset="0.909" stop-color="#A2A2A2"/>
<stop offset="1" stop-color="#717171"/>
</linearGradient>
<linearGradient id="paint7_linear_298_2176" x1="-283.18" y1="-195.977" x2="-249.895" y2="-229.261" gradientUnits="userSpaceOnUse">
<stop stop-color="#B8B8B8"/>
<stop offset="0.164" stop-color="#E8E8E8"/>
<stop offset="0.291" stop-color="white"/>
<stop offset="0.552" stop-color="#ABABAB"/>
<stop offset="0.782" stop-color="#E8E8E8"/>
<stop offset="0.909" stop-color="#A2A2A2"/>
<stop offset="1" stop-color="#717171"/>
</linearGradient>
<linearGradient id="paint8_linear_298_2176" x1="19.5428" y1="-9.14411e-07" x2="43.1374" y2="64.2395" gradientUnits="userSpaceOnUse">
<stop stop-color="white"/>
<stop offset="0.403279" stop-color="#D0D2D3"/>
<stop offset="0.463551" stop-color="#333333"/>
<stop offset="1"/>
</linearGradient>
<linearGradient id="paint9_linear_298_2176" x1="64.0884" y1="3.42174" x2="64.0884" y2="70.6126" gradientUnits="userSpaceOnUse">
<stop stop-color="#B8B8B8"/>
<stop offset="0.164" stop-color="#E8E8E8"/>
<stop offset="0.291" stop-color="white"/>
<stop offset="0.552" stop-color="#ABABAB"/>
<stop offset="0.782" stop-color="#E8E8E8"/>
<stop offset="0.909" stop-color="#A2A2A2"/>
<stop offset="1" stop-color="#717171"/>
</linearGradient>
<linearGradient id="paint10_linear_298_2176" x1="61.8591" y1="1.87782" x2="61.8591" y2="63.9201" gradientUnits="userSpaceOnUse">
<stop stop-color="#B8B8B8"/>
<stop offset="0.164" stop-color="#E8E8E8"/>
<stop offset="0.291" stop-color="white"/>
<stop offset="0.552" stop-color="#ABABAB"/>
<stop offset="0.782" stop-color="#E8E8E8"/>
<stop offset="0.909" stop-color="#A2A2A2"/>
<stop offset="1" stop-color="#717171"/>
</linearGradient>
</defs>
</svg>
