<svg width="62" height="64" viewBox="0 0 62 64" fill="none" xmlns="http://www.w3.org/2000/svg">
<path d="M37.8435 63.4517L43.0759 54.8118L52.9134 57.15L40.7377 28.0938L25.6678 34.4097L37.8435 63.4517Z" fill="#F11616"/>
<path style="mix-blend-mode:soft-light" d="M37.8435 63.4517L43.0759 54.8118L52.9134 57.15L40.7377 28.0938L25.6678 34.4097L37.8435 63.4517Z" fill="url(#paint0_linear_630_81672)"/>
<mask id="mask0_630_81672" style="mask-type:luminance" maskUnits="userSpaceOnUse" x="25" y="28" width="28" height="36">
<path d="M37.8478 63.4587L43.0788 54.816L52.9077 57.1471L40.732 28.0938L25.6736 34.404L37.8478 63.4587Z" fill="white"/>
</mask>
<g mask="url(#mask0_630_81672)">
<g style="mix-blend-mode:multiply" opacity="0.4">
<path d="M26.7799 35.7498C26.8845 36.187 26.989 36.6195 27.0936 37.0472C28.1058 36.8476 29.1038 36.6622 30.1018 36.3343C29.9735 35.9351 29.9593 35.4789 29.7026 35.1082C28.7331 35.3363 27.8064 35.6785 26.7799 35.7498ZM29.7026 35.1082C29.9593 35.4789 29.9735 35.9351 30.1018 36.3343C30.444 36.2393 30.7814 36.1442 31.1141 36.0492C31.0571 35.6072 30.9288 35.208 30.7006 34.8658C30.3775 34.9514 30.0448 35.0322 29.7026 35.1082ZM30.7006 34.8658C30.9288 35.208 31.0571 35.6072 31.1141 36.0492C31.5703 35.9351 31.998 35.8068 32.4543 35.6785C32.2974 35.2793 32.326 34.709 31.998 34.5094C31.5703 34.633 31.1379 34.7518 30.7006 34.8658ZM31.998 34.5094C32.326 34.709 32.2974 35.2793 32.4543 35.6785C32.7252 35.6072 32.996 35.4932 33.2812 35.4076C33.0958 35.0512 33.2242 34.3526 32.7964 34.2528C32.5303 34.3383 32.2642 34.4239 31.998 34.5094ZM32.7964 34.2528C33.2242 34.3526 33.0958 35.0512 33.2812 35.4076C33.6091 35.2793 33.9228 35.151 34.2507 35.0227C34.1509 34.595 34.1366 33.8964 33.7374 33.9249C33.4238 34.0389 33.1101 34.1482 32.7964 34.2528ZM33.7374 33.9249C34.1366 33.8964 34.1509 34.595 34.2507 35.0227C34.6641 34.8658 35.0633 34.6948 35.4625 34.5094C35.3913 34.0532 35.2915 33.3831 34.9065 33.4829C34.5168 33.635 34.1271 33.7823 33.7374 33.9249ZM34.9065 33.4829C35.2915 33.3831 35.3913 34.0532 35.4625 34.5094C35.7905 34.3668 36.1326 34.2243 36.4748 34.0817C36.3465 33.5542 36.3607 32.9126 35.8903 33.0837C35.5671 33.2168 35.2392 33.3498 34.9065 33.4829ZM35.8903 33.0837C36.3607 32.9126 36.3465 33.5542 36.4748 34.0817C36.8455 33.9391 37.2019 33.7395 37.5726 33.5684C37.4728 33.212 37.5726 32.3851 36.9596 32.6275C36.6079 32.7795 36.2514 32.9316 35.8903 33.0837ZM36.9596 32.6275C37.5726 32.3851 37.4728 33.212 37.5726 33.5684C37.7722 33.4829 37.9718 33.3831 38.1572 33.2833C38.0146 32.8841 38.1144 32.1712 37.5298 32.3708C37.3397 32.4564 37.1496 32.5419 36.9596 32.6275ZM37.5298 32.3708C38.1144 32.1712 38.0146 32.8841 38.1572 33.2833C38.3995 33.1692 38.6276 33.0552 38.8558 32.9411C38.7132 32.5419 38.7987 31.8148 38.2142 32.0714C37.9861 32.176 37.758 32.2758 37.5298 32.3708ZM38.2142 32.0714C38.7987 31.8148 38.7132 32.5419 38.8558 32.9411C39.2074 32.7605 39.5639 32.5799 39.925 32.3993C39.849 32.0952 39.773 31.7863 39.6969 31.4726C39.5116 31.5439 39.4403 31.5439 39.255 31.6009C38.9128 31.7625 38.5659 31.9194 38.2142 32.0714ZM39.255 31.6009C39.4403 31.5439 39.5116 31.5439 39.6969 31.4726C39.773 31.7863 39.849 32.0952 39.925 32.3993C40.2957 32.1997 40.6759 32.0001 41.0656 31.8005C40.9896 31.5059 40.9135 31.2112 40.8375 30.9166C40.6522 30.9879 40.5666 31.0021 40.3813 31.0877C40.0011 31.2588 39.6256 31.4299 39.255 31.6009ZM40.3813 31.0877C40.5666 31.0021 40.6522 30.9879 40.8375 30.9166C40.9135 31.2112 40.9896 31.5059 41.0656 31.8005C41.2937 31.677 41.5266 31.5534 41.7642 31.4299C41.6882 31.1352 41.6121 30.8453 41.5361 30.5602C41.3508 30.6457 41.2652 30.6742 41.0656 30.7598C40.8375 30.8643 40.6094 30.9736 40.3813 31.0877ZM41.0656 30.7598C41.2652 30.6742 41.3508 30.6457 41.5361 30.5602C41.6121 30.8453 41.6882 31.1352 41.7642 31.4299C42.1349 31.216 42.5199 31.0164 42.9191 30.8168C42.843 30.5412 42.767 30.2655 42.6909 29.9899C42.5056 30.0897 42.4058 30.1182 42.2062 30.218C41.826 30.3986 41.4458 30.5792 41.0656 30.7598ZM42.2062 30.218C42.4058 30.1182 42.5056 30.0897 42.6909 29.9899C42.767 30.2655 42.843 30.5412 42.9191 30.8168C43.1044 30.717 43.304 30.6172 43.4893 30.5174C43.4133 30.2513 43.342 29.9851 43.2755 29.719C43.0759 29.8045 42.9761 29.8473 42.7765 29.9471C42.5864 30.0327 42.3963 30.1229 42.2062 30.218ZM27.0936 37.0472C27.3692 38.1117 27.6686 39.1573 27.9918 40.1838C28.8472 42.7358 29.9165 45.1881 31.0286 47.6118C31.3042 48.2201 31.5798 48.8284 31.8555 49.4367C32.6396 51.2759 33.4808 53.1436 34.2364 54.997C35.3057 54.5978 35.1061 54.6834 36.1469 54.2699C35.2772 51.7606 34.2507 49.3226 33.3667 46.8134C33.1386 46.1956 32.9105 45.5825 32.6824 44.9742C32.0123 43.1208 31.3992 41.2673 30.886 39.3996C30.6008 38.3921 30.3395 37.3704 30.1018 36.3343C29.1038 36.6622 28.1058 36.8476 27.0936 37.0472ZM30.1018 36.3343C30.3395 37.3704 30.6008 38.3921 30.886 39.3996C31.3992 41.2673 32.0123 43.1208 32.6824 44.9742C32.9105 45.5825 33.1386 46.1956 33.3667 46.8134C34.2507 49.3226 35.2772 51.7606 36.1469 54.2699C36.5033 54.1273 36.7314 54.0133 36.9453 53.9277C35.9758 51.4612 35.1061 49.009 34.2222 46.4997C34.0036 45.8819 33.7897 45.2641 33.5806 44.6463C32.9675 42.8071 32.383 40.9537 31.8697 39.086C31.6036 38.0785 31.3517 37.0662 31.1141 36.0492C30.7814 36.1442 30.444 36.2393 30.1018 36.3343ZM31.1141 36.0492C31.3517 37.0662 31.6036 38.0785 31.8697 39.086C32.383 40.9537 32.9675 42.8071 33.5806 44.6463C33.7897 45.2641 34.0036 45.8819 34.2222 46.4997C35.1061 49.009 35.9758 51.4612 36.9453 53.9277C37.2162 53.7851 37.4585 53.6711 37.9005 53.4857C36.8027 50.5773 35.9188 47.5975 34.9778 44.6463C34.7687 43.9809 34.5596 43.3156 34.3505 42.6503C33.9418 41.3101 33.5616 39.9794 33.2099 38.6583C33.0768 38.164 32.9485 37.6698 32.825 37.1755C32.6919 36.6813 32.5683 36.1823 32.4543 35.6785C31.998 35.8068 31.5703 35.9351 31.1141 36.0492ZM32.4543 35.6785C32.5683 36.1823 32.6919 36.6813 32.825 37.1755C32.9485 37.6698 33.0768 38.164 33.2099 38.6583C33.5616 39.9794 33.9418 41.3101 34.3505 42.6503C34.5596 43.3156 34.7687 43.9809 34.9778 44.6463C35.9188 47.5975 36.8027 50.5773 37.9005 53.4857C38.1857 53.3717 38.5991 53.2006 39.0554 53.0153C38.0003 49.9072 36.931 46.8847 35.819 43.8194C35.6004 43.2206 35.3865 42.617 35.1774 42.0087C34.9778 41.4004 34.783 40.7921 34.5929 40.1838C34.2935 39.1145 33.8943 38.0309 33.6376 36.8904C33.5141 36.3961 33.3952 35.9019 33.2812 35.4076C32.996 35.4932 32.7252 35.6072 32.4543 35.6785ZM33.2812 35.4076C33.3952 35.9019 33.5141 36.3961 33.6376 36.8904C33.8943 38.0309 34.2935 39.1145 34.5929 40.1838C34.783 40.7921 34.9778 41.4004 35.1774 42.0087C35.3865 42.617 35.6004 43.2206 35.819 43.8194C36.931 46.8847 38.0003 49.9072 39.0554 53.0153C39.6114 52.7871 40.2244 52.5163 40.7947 52.2739C39.6399 49.2371 38.4138 46.2859 37.1021 43.3346C36.8455 42.7453 36.5984 42.156 36.3607 41.5667C35.7049 39.8986 35.1204 38.2305 34.6356 36.5197C34.4931 36.0254 34.3647 35.5264 34.2507 35.0227C33.9228 35.151 33.6091 35.2793 33.2812 35.4076ZM34.2507 35.0227C34.3647 35.5264 34.4931 36.0254 34.6356 36.5197C35.1204 38.2305 35.7049 39.8986 36.3607 41.5667C36.5984 42.156 36.8455 42.7453 37.1021 43.3346C38.4138 46.2859 39.6399 49.2371 40.7947 52.2739C41.5219 51.9745 42.1919 51.6893 42.5769 51.5183C41.365 48.5242 40.0534 45.6158 38.7274 42.693C37.6582 40.4689 36.7029 38.2591 35.9188 35.9779C35.7572 35.5027 35.6051 35.0132 35.4625 34.5094C35.0633 34.6948 34.6641 34.8658 34.2507 35.0227ZM35.4625 34.5094C35.6051 35.0132 35.7572 35.5027 35.9188 35.9779C36.7029 38.2591 37.6582 40.4689 38.7274 42.693C40.0534 45.6158 41.365 48.5242 42.5769 51.5183C42.9 51.3757 43.2185 51.2331 43.5321 51.0905C42.3915 48.1536 40.9658 45.4162 39.7112 42.5505C38.6419 40.2836 37.6867 37.9739 36.8883 35.5644C36.7362 35.0797 36.5984 34.5855 36.4748 34.0817C36.1326 34.2243 35.7905 34.3668 35.4625 34.5094ZM36.4748 34.0817C36.5984 34.5855 36.7362 35.0797 36.8883 35.5644C37.6867 37.9739 38.6419 40.2836 39.7112 42.5505C40.9658 45.4162 42.3915 48.1536 43.5321 51.0905C43.8838 50.9385 44.2307 50.7864 44.5729 50.6343C43.5606 48.2391 42.4771 45.8867 41.4648 43.5342C40.2672 40.697 38.8415 37.9597 37.9861 35.0369C37.834 34.5522 37.6962 34.0627 37.5726 33.5684C37.2019 33.7395 36.8455 33.9391 36.4748 34.0817ZM37.5726 33.5684C37.6962 34.0627 37.834 34.5522 37.9861 35.0369C38.8415 37.9597 40.2672 40.697 41.4648 43.5342C42.4771 45.8867 43.5606 48.2391 44.5729 50.6343C44.7535 50.5583 44.9341 50.4822 45.1147 50.4062C44.0596 48.0395 43.0616 45.6443 42.0066 43.2919C40.8233 40.4689 39.5258 37.703 38.5849 34.7518C38.4328 34.267 38.2902 33.7775 38.1572 33.2833C37.9718 33.3831 37.7722 33.4829 37.5726 33.5684ZM38.1572 33.2833C38.2902 33.7775 38.4328 34.267 38.5849 34.7518C39.5258 37.703 40.8233 40.4689 42.0066 43.2919C43.0616 45.6443 44.0596 48.0395 45.1147 50.4062C45.3333 50.3111 45.5471 50.2161 45.7562 50.121C44.7725 47.7258 43.7745 45.3306 42.6909 42.9639C41.4221 40.1553 40.2387 37.3038 39.2835 34.3811C39.1314 33.9059 38.9888 33.4259 38.8558 32.9411C38.6276 33.0552 38.3995 33.1692 38.1572 33.2833ZM38.8558 32.9411C38.9888 33.4259 39.1314 33.9059 39.2835 34.3811C40.2387 37.3038 41.4221 40.1553 42.6909 42.9639C43.7745 45.3306 44.7725 47.7258 45.7562 50.121C46.0889 49.969 46.4216 49.8216 46.7542 49.6791C45.9844 47.8969 45.2287 46.1005 44.4588 44.3041C42.9618 40.8824 41.3935 37.4892 40.3385 33.8678C40.1864 33.3736 40.0486 32.8841 39.925 32.3993C39.5639 32.5799 39.2074 32.7605 38.8558 32.9411ZM39.925 32.3993C40.0486 32.8841 40.1864 33.3736 40.3385 33.8678C41.3935 37.4892 42.9618 40.8824 44.4588 44.3041C45.2287 46.1005 45.9844 47.8969 46.7542 49.6791C47.1059 49.527 47.4576 49.3702 47.8093 49.2086C47.0536 47.4122 46.2838 45.6158 45.5139 43.8336C44.0311 40.3976 42.5769 36.8904 41.4933 33.2833C41.3413 32.789 41.1987 32.2948 41.0656 31.8005C40.6759 32.0001 40.2957 32.1997 39.925 32.3993ZM41.0656 31.8005C41.1987 32.2948 41.3413 32.789 41.4933 33.2833C42.5769 36.8904 44.0311 40.3976 45.5139 43.8336C46.2838 45.6158 47.0536 47.4122 47.8093 49.2086C48.0279 49.1135 48.2465 49.0185 48.4651 48.9234C47.5812 47.1413 46.9111 45.3021 46.1127 43.5057C44.6584 40.027 43.3468 36.5054 42.1919 32.8841C42.0399 32.3993 41.8973 31.9146 41.7642 31.4299C41.5266 31.5534 41.2937 31.677 41.0656 31.8005ZM41.7642 31.4299C41.8973 31.9146 42.0399 32.3993 42.1919 32.8841C43.3468 36.5054 44.6584 40.027 46.1127 43.5057C46.9111 45.3021 47.5812 47.1413 48.4651 48.9234C48.8168 48.7714 49.1732 48.6145 49.5344 48.453C48.9784 47.2981 48.5079 46.0435 47.9661 44.8601C47.719 44.2518 47.4766 43.6435 47.239 43.0352C45.8988 39.4567 44.4731 35.9209 43.3468 32.3138C43.2042 31.8196 43.0616 31.3206 42.9191 30.8168C42.5199 31.0164 42.1349 31.216 41.7642 31.4299ZM42.9191 30.8168C43.0616 31.3206 43.2042 31.8196 43.3468 32.3138C44.4731 35.9209 45.8988 39.4567 47.239 43.0352C47.4766 43.6435 47.719 44.2518 47.9661 44.8601C48.5079 46.0435 48.9784 47.2981 49.5344 48.453C49.7055 48.3769 49.8813 48.3009 50.0619 48.2248C49.5914 46.9987 49.0069 45.8439 48.5649 44.6035C48.3178 43.9952 48.0707 43.3869 47.8235 42.7786C46.4406 39.2285 45.0006 35.6642 43.9171 32.0144C43.7745 31.5202 43.6319 31.0212 43.4893 30.5174C43.304 30.6172 43.1044 30.717 42.9191 30.8168ZM34.2364 54.997C34.4645 55.5483 34.6879 56.0948 34.9065 56.6366C36.1469 59.9585 37.5156 63.1949 38.9983 66.3885C39.2074 66.8352 39.4165 67.2772 39.6256 67.7144C39.8443 68.1517 40.0676 68.5889 40.2957 69.0261C41.1654 70.7655 42.0779 72.4763 43.0616 74.1302C43.803 73.5599 44.6299 73.0894 45.3713 72.5761C43.9456 71.1219 42.8905 69.3255 41.8355 67.5576C41.4743 66.9493 41.1322 66.3315 40.809 65.7042C39.1694 62.5818 37.9576 59.2314 36.7742 55.8667C36.5651 55.3344 36.356 54.8022 36.1469 54.2699C35.1061 54.6834 35.3057 54.5978 34.2364 54.997ZM36.1469 54.2699C36.356 54.8022 36.5651 55.3344 36.7742 55.8667C37.9576 59.2314 39.1694 62.5818 40.809 65.7042C41.1322 66.3315 41.4743 66.9493 41.8355 67.5576C42.8905 69.3255 43.9456 71.1219 45.3713 72.5761C45.6279 72.4146 45.8846 72.253 46.1412 72.0914C44.9151 70.4233 43.86 68.6269 42.8763 66.802C42.5151 66.2032 42.1682 65.5996 41.8355 64.9913C40.1817 61.9403 38.927 58.7039 37.5869 55.5103C37.3683 54.9875 37.1544 54.46 36.9453 53.9277C36.7314 54.0133 36.5033 54.1273 36.1469 54.2699ZM36.9453 53.9277C37.1544 54.46 37.3683 54.9875 37.5869 55.5103C38.927 58.7039 40.1817 61.9403 41.8355 64.9913C42.1682 65.5996 42.5151 66.2032 42.8763 66.802C43.86 68.6269 44.9151 70.4233 46.1412 72.0914C46.4929 71.8728 46.8445 71.6589 47.1962 71.4498C46.9491 70.9746 46.7067 70.4993 46.4691 70.0241C46.2315 69.5584 45.9939 69.0879 45.7562 68.6126C45.3 67.6717 44.8295 66.7307 44.3448 65.7897C44.0026 65.2052 43.6747 64.6064 43.3325 64.0218C41.6502 61.0848 40.0534 58.1051 38.5706 55.054C38.3425 54.5408 38.1191 54.018 37.9005 53.4857C37.4585 53.6711 37.2162 53.7851 36.9453 53.9277ZM37.9005 53.4857C38.1191 54.018 38.3425 54.5408 38.5706 55.054C40.0534 58.1051 41.6502 61.0848 43.3325 64.0218C43.6747 64.6064 44.0026 65.2052 44.3448 65.7897C44.8295 66.7307 45.3 67.6717 45.7562 68.6126C45.9939 69.0879 46.2315 69.5584 46.4691 70.0241C46.7067 70.4993 46.9491 70.9746 47.1962 71.4498C47.4148 71.3168 47.6382 71.1884 47.8663 71.0649C47.5669 70.4803 47.2818 69.8958 47.0109 69.3112C46.7352 68.7219 46.4596 68.1374 46.184 67.5576C45.6422 66.3743 45.0862 65.2052 44.4731 64.0788C44.1879 63.5656 43.9076 63.0476 43.6319 62.5248C42.2347 59.9157 40.8945 57.2782 39.7112 54.5693C39.4926 54.0465 39.274 53.5285 39.0554 53.0153C38.5991 53.2006 38.1857 53.3717 37.9005 53.4857ZM39.0554 53.0153C39.274 53.5285 39.4926 54.0465 39.7112 54.5693C40.8945 57.2782 42.2347 59.9157 43.6319 62.5248C43.9076 63.0476 44.1879 63.5656 44.4731 64.0788C45.0862 65.2052 45.6422 66.3743 46.184 67.5576C46.4596 68.1374 46.7352 68.7219 47.0109 69.3112C47.2818 69.8958 47.5669 70.4803 47.8663 71.0649C48.1324 70.9223 48.4033 70.7797 48.679 70.6372C47.9946 69.2685 47.4243 67.8427 46.8255 66.4455C46.6259 65.9798 46.4311 65.5093 46.241 65.0341C45.856 64.0931 45.4568 63.1521 45.0434 62.2254C44.7297 61.5316 44.4208 60.8377 44.1167 60.1439C43.2042 58.048 42.3203 55.938 41.4221 53.8422C41.2129 53.3194 41.0038 52.7966 40.7947 52.2739C40.2244 52.5163 39.6114 52.7871 39.0554 53.0153ZM40.7947 52.2739C41.0038 52.7966 41.2129 53.3194 41.4221 53.8422C42.3203 55.938 43.2042 58.048 44.1167 60.1439C44.4208 60.8377 44.7297 61.5316 45.0434 62.2254C45.4568 63.1521 45.856 64.0931 46.241 65.0341C46.4311 65.5093 46.6259 65.9798 46.8255 66.4455C47.4243 67.8427 47.9946 69.2685 48.679 70.6372C49.0211 70.4566 49.3728 70.2807 49.734 70.1096C48.8643 68.2705 48.3368 66.303 47.5526 64.4068C47.3721 63.9315 47.1915 63.4563 47.0109 62.981C46.8303 62.5153 46.6402 62.0448 46.4406 61.5696C46.1649 60.8662 45.8893 60.1629 45.6137 59.4595C44.801 57.3352 44.0026 55.1966 43.1899 53.0865C42.9903 52.5638 42.786 52.041 42.5769 51.5183C42.1919 51.6893 41.5219 51.9745 40.7947 52.2739ZM42.5769 51.5183C42.786 52.041 42.9903 52.5638 43.1899 53.0865C44.0026 55.1966 44.801 57.3352 45.6137 59.4595C45.8893 60.1629 46.1649 60.8662 46.4406 61.5696C46.6402 62.0448 46.8303 62.5153 47.0109 62.981C47.1915 63.4563 47.3721 63.9315 47.5526 64.4068C48.3368 66.303 48.8643 68.2705 49.734 70.1096C50.0382 69.9671 50.3471 69.8245 50.6607 69.6819C49.8053 67.9425 49.3063 66.0178 48.6077 64.2072C48.3938 63.6084 48.1657 63.0096 47.9233 62.4108C47.6667 61.7644 47.4101 61.1133 47.1534 60.4575C46.1554 57.8342 45.2145 55.2109 44.1594 52.6588C43.9503 52.1361 43.7412 51.6133 43.5321 51.0905C43.2185 51.2331 42.9 51.3757 42.5769 51.5183ZM43.5321 51.0905C43.7412 51.6133 43.9503 52.1361 44.1594 52.6588C45.2145 55.2109 46.1554 57.8342 47.1534 60.4575C47.4101 61.1133 47.6667 61.7644 47.9233 62.4108C48.1657 63.0096 48.3938 63.6084 48.6077 64.2072C49.3063 66.0178 49.8053 67.9425 50.6607 69.6819C50.9934 69.5203 51.3403 69.3635 51.7015 69.2114C50.7035 67.3865 50.1902 65.362 49.4774 63.4088C49.2635 62.7529 49.0211 62.1114 48.7788 61.4698C48.5411 60.852 48.3035 60.2342 48.0659 59.6163C47.1249 57.1498 46.1982 54.6691 45.2002 52.2026C44.9911 51.6798 44.782 51.1571 44.5729 50.6343C44.2307 50.7864 43.8838 50.9385 43.5321 51.0905ZM44.5729 50.6343C44.782 51.1571 44.9911 51.6798 45.2002 52.2026C46.1982 54.6691 47.1249 57.1498 48.0659 59.6163C48.3035 60.2342 48.5411 60.852 48.7788 61.4698C49.0211 62.1114 49.2635 62.7529 49.4774 63.4088C50.1902 65.362 50.7035 67.3865 51.7015 69.2114C51.8916 69.1259 52.0817 69.0404 52.2718 68.9548C51.4306 67.0158 50.9173 64.9913 50.1475 63.0238C49.8908 62.4108 49.6342 61.7977 49.3776 61.1846C48.1087 58.1193 46.9824 55.0255 45.742 51.9602C45.5329 51.4375 45.3238 50.9195 45.1147 50.4062C44.9341 50.4822 44.7535 50.5583 44.5729 50.6343ZM45.1147 50.4062C45.3238 50.9195 45.5329 51.4375 45.742 51.9602C46.9824 55.0255 48.1087 58.1193 49.3776 61.1846C49.6342 61.7977 49.8908 62.4108 50.1475 63.0238C50.9173 64.9913 51.4306 67.0158 52.2718 68.9548C52.5094 68.8598 52.7423 68.76 52.9704 68.6554C51.9296 66.2887 51.2025 63.8222 50.2473 61.4413C49.9811 60.7949 49.7197 60.1439 49.4631 59.488C48.4366 56.879 47.4671 54.2556 46.3978 51.6751C46.1887 51.1523 45.9748 50.6343 45.7562 50.121C45.5471 50.2161 45.3333 50.3111 45.1147 50.4062ZM45.7562 50.121C45.9748 50.6343 46.1887 51.1523 46.3978 51.6751C47.4671 54.2556 48.4366 56.879 49.4631 59.488C49.7197 60.1439 49.9811 60.7949 50.2473 61.4413C51.2025 63.8222 51.9296 66.2887 52.9704 68.6554C53.3411 68.5033 53.7118 68.3465 54.0824 68.1849C53.0702 65.9323 52.3716 63.5371 51.4163 61.2417C51.1787 60.6904 50.9459 60.1344 50.7177 59.5736C49.5772 56.7934 48.5079 54.0133 47.3958 51.2331C47.1867 50.7198 46.9729 50.2018 46.7542 49.6791C46.4216 49.8216 46.0889 49.969 45.7562 50.121ZM46.7542 49.6791C46.9729 50.2018 47.1867 50.7198 47.3958 51.2331C48.5079 54.0133 49.5772 56.7934 50.7177 59.5736C50.9459 60.1344 51.1787 60.6904 51.4163 61.2417C52.3716 63.5371 53.0702 65.9323 54.0824 68.1849C54.4816 68.0233 54.8856 67.857 55.2943 67.6859C54.3676 65.3763 53.5122 63.0666 52.5427 60.7854C52.305 60.2246 52.0722 59.6686 51.8441 59.1173C50.6892 56.3372 49.6627 53.5285 48.4651 50.7626C48.2465 50.2494 48.0279 49.7314 47.8093 49.2086C47.4576 49.3702 47.1059 49.527 46.7542 49.6791ZM47.8093 49.2086C48.0279 49.7314 48.2465 50.2494 48.4651 50.7626C49.6627 53.5285 50.6892 56.3372 51.8441 59.1173C52.0722 59.6686 52.305 60.2246 52.5427 60.7854C53.5122 63.0666 54.3676 65.3763 55.2943 67.6859C55.5509 67.5814 55.8076 67.4768 56.0642 67.3723C54.9094 65.1481 54.225 62.7529 53.1985 60.5145C52.9609 59.9633 52.7233 59.412 52.4856 58.8607C51.3165 56.0948 50.2615 53.2719 49.1067 50.4775C48.8976 49.9642 48.6837 49.4462 48.4651 48.9234C48.2465 49.0185 48.0279 49.1135 47.8093 49.2086ZM48.4651 48.9234C48.6837 49.4462 48.8976 49.9642 49.1067 50.4775C50.2615 53.2719 51.3165 56.0948 52.4856 58.8607C52.7233 59.412 52.9609 59.9633 53.1985 60.5145C54.225 62.7529 54.9094 65.1481 56.0642 67.3723C56.4824 67.2012 56.9006 67.0301 57.3188 66.859C56.2638 64.307 55.2088 61.6836 54.0539 59.1601C53.6642 58.3237 53.2888 57.4825 52.9276 56.6366C51.9581 54.4267 51.1027 52.2311 50.1902 50.0212C49.9716 49.4985 49.753 48.9757 49.5344 48.453C49.1732 48.6145 48.8168 48.7714 48.4651 48.9234ZM49.5344 48.453C49.753 48.9757 49.9716 49.4985 50.1902 50.0212C51.1027 52.2311 51.9581 54.4267 52.9276 56.6366C53.2888 57.4825 53.6642 58.3237 54.0539 59.1601C55.2088 61.6836 56.2638 64.307 57.3188 66.859C57.5279 66.7735 57.737 66.6879 57.9461 66.6024C56.7771 64.1074 55.7505 61.4698 54.5957 58.9463C54.225 58.1003 53.8591 57.2544 53.4979 56.4085C52.5427 54.1844 51.6587 52.003 50.7177 49.7931C50.4991 49.2704 50.2805 48.7476 50.0619 48.2248C49.8813 48.3009 49.7055 48.3769 49.5344 48.453Z" fill="url(#paint1_linear_630_81672)" fill-opacity="0.5"/>
</g>
</g>
<path d="M49.0639 56.2375L37.7865 29.3341L39.3263 28.6783L51.06 56.708L49.0639 56.2375Z" fill="url(#paint2_linear_630_81672)"/>
<path d="M38.8273 61.8406L27.0793 33.8109L28.6191 33.1693L39.8966 60.0727L38.8273 61.8406Z" fill="url(#paint3_linear_630_81672)"/>
<path d="M24.1423 63.4517L18.9241 54.8119L9.08667 57.15L21.2623 28.0939L36.3179 34.4098L24.1423 63.4517Z" fill="#F11616"/>
<path style="mix-blend-mode:soft-light" d="M24.1423 63.4517L18.9241 54.8119L9.08667 57.15L21.2623 28.0939L36.3179 34.4098L24.1423 63.4517Z" fill="url(#paint4_linear_630_81672)"/>
<mask id="mask1_630_81672" style="mask-type:luminance" maskUnits="userSpaceOnUse" x="9" y="28" width="28" height="36">
<path d="M24.1466 63.4588L18.917 54.8161L9.08813 57.1471L21.2638 28.0938L36.3222 34.404L24.1466 63.4588Z" fill="white"/>
</mask>
<g mask="url(#mask1_630_81672)">
<g style="mix-blend-mode:multiply" opacity="0.4">
<path d="M35.2202 35.7498C35.1156 36.1871 35.0111 36.6195 34.9065 37.0473C33.8942 36.8477 32.8962 36.6623 31.8982 36.3344C32.0266 35.9352 32.0266 35.479 32.2832 35.1083C33.2669 35.3364 34.1936 35.6786 35.2202 35.7498ZM32.2832 35.1083C32.0266 35.479 32.0266 35.9352 31.8982 36.3344C31.5561 36.2393 31.2139 36.1443 30.8717 36.0493C30.943 35.6073 31.0713 35.2081 31.2994 34.8659C31.6226 34.9514 31.9505 35.0322 32.2832 35.1083ZM31.2994 34.8659C31.0713 35.2081 30.943 35.6073 30.8717 36.0493C30.4297 35.9352 29.9878 35.8069 29.5458 35.6786C29.7026 35.2794 29.6599 34.7091 30.002 34.5095C30.4297 34.633 30.8622 34.7518 31.2994 34.8659ZM30.002 34.5095C29.6599 34.7091 29.7026 35.2794 29.5458 35.6786C29.2749 35.6073 28.9898 35.4932 28.7189 35.4077C28.9042 35.0512 28.7759 34.3526 29.2036 34.2528C29.4698 34.3384 29.7359 34.4239 30.002 34.5095ZM29.2036 34.2528C28.7759 34.3526 28.9042 35.0512 28.7189 35.4077C28.391 35.2794 28.0631 35.1511 27.7351 35.0227C27.8492 34.595 27.8635 33.8964 28.2627 33.9249C28.5763 34.039 28.89 34.1483 29.2036 34.2528ZM28.2627 33.9249C27.8635 33.8964 27.8492 34.595 27.7351 35.0227C27.3359 34.8659 26.9367 34.6948 26.5375 34.5095C26.6088 34.0532 26.7086 33.3832 27.0793 33.483C27.4785 33.635 27.873 33.7824 28.2627 33.9249ZM27.0793 33.483C26.7086 33.3832 26.6088 34.0532 26.5375 34.5095C26.1954 34.3669 25.8674 34.2243 25.5253 34.0818C25.6393 33.5542 25.6393 32.9127 26.0956 33.0838C26.4282 33.2168 26.7561 33.3499 27.0793 33.483ZM26.0956 33.0838C25.6393 32.9127 25.6393 33.5542 25.5253 34.0818C25.1546 33.9392 24.7839 33.7396 24.4132 33.5685C24.5273 33.2121 24.4275 32.3852 25.0263 32.6275C25.3875 32.7796 25.7439 32.9317 26.0956 33.0838ZM25.0263 32.6275C24.4275 32.3852 24.5273 33.2121 24.4132 33.5685C24.2279 33.483 24.0283 33.3832 23.8287 33.2834C23.9712 32.8842 23.8857 32.1713 24.456 32.3709C24.6461 32.4564 24.8362 32.542 25.0263 32.6275ZM24.456 32.3709C23.8857 32.1713 23.9712 32.8842 23.8287 33.2834C23.6005 33.1693 23.3724 33.0552 23.1443 32.9412C23.2869 32.542 23.1871 31.8149 23.7716 32.0715C23.9998 32.176 24.2279 32.2758 24.456 32.3709ZM23.7716 32.0715C23.1871 31.8149 23.2869 32.542 23.1443 32.9412C22.7831 32.7606 22.4267 32.58 22.075 32.3994C22.1511 32.0953 22.2271 31.7863 22.3031 31.4727C22.4742 31.544 22.5598 31.544 22.7451 31.601C23.0873 31.7626 23.4295 31.9194 23.7716 32.0715ZM22.7451 31.601C22.5598 31.544 22.4742 31.544 22.3031 31.4727C22.2271 31.7863 22.1511 32.0953 22.075 32.3994C21.6948 32.1998 21.3146 32.0002 20.9345 31.8006C21.0105 31.506 21.0865 31.2113 21.1626 30.9167C21.3479 30.9879 21.4335 31.0022 21.6188 31.0877C21.999 31.2588 22.3744 31.4299 22.7451 31.601ZM21.6188 31.0877C21.4335 31.0022 21.3479 30.9879 21.1626 30.9167C21.0865 31.2113 21.0105 31.506 20.9345 31.8006C20.7063 31.677 20.4735 31.5535 20.2358 31.4299C20.3119 31.1353 20.3879 30.8454 20.464 30.5602C20.6493 30.6458 20.7349 30.6743 20.9345 30.7598C21.1626 30.8644 21.3907 30.9737 21.6188 31.0877ZM20.9345 30.7598C20.7349 30.6743 20.6493 30.6458 20.464 30.5602C20.3879 30.8454 20.3119 31.1353 20.2358 31.4299C19.8509 31.2161 19.466 31.0165 19.081 30.8169C19.1571 30.5412 19.2283 30.2656 19.2949 29.9899C19.4945 30.0897 19.5943 30.1183 19.7939 30.2181C20.1741 30.3986 20.5543 30.5792 20.9345 30.7598ZM19.7939 30.2181C19.5943 30.1183 19.4945 30.0897 19.2949 29.9899C19.2283 30.2656 19.1571 30.5412 19.081 30.8169C18.8957 30.7171 18.6961 30.6173 18.5107 30.5175C18.5868 30.2513 18.6581 29.9852 18.7246 29.7191C18.9242 29.8046 19.024 29.8474 19.2236 29.9472C19.4137 30.0327 19.6038 30.123 19.7939 30.2181ZM34.9065 37.0473C34.6309 38.1118 34.3315 39.1573 34.0083 40.1838C33.1386 42.7359 32.0693 45.1881 30.9715 47.6118C30.6959 48.2201 30.4202 48.8285 30.1446 49.4368C29.3462 51.2759 28.5193 53.1436 27.7494 54.9971C26.6801 54.5979 26.894 54.6834 25.8532 54.27C26.7229 51.7607 27.7494 49.3227 28.6191 46.8134C28.8567 46.1956 29.0848 45.5826 29.3034 44.9743C29.9735 43.1208 30.6008 41.2674 31.1141 39.3997C31.3992 38.3922 31.6606 37.3704 31.8982 36.3344C32.8962 36.6623 33.8942 36.8477 34.9065 37.0473ZM31.8982 36.3344C31.6606 37.3704 31.3992 38.3922 31.1141 39.3997C30.6008 41.2674 29.9735 43.1208 29.3034 44.9743C29.0848 45.5826 28.8567 46.1956 28.6191 46.8134C27.7494 49.3227 26.7229 51.7607 25.8532 54.27C25.4825 54.1274 25.2686 54.0133 25.0548 53.9278C26.01 51.4613 26.894 49.009 27.7779 46.4998C27.9965 45.882 28.2056 45.2642 28.4052 44.6463C29.0325 42.8072 29.6028 40.9537 30.1161 39.086C30.3917 38.0785 30.6436 37.0663 30.8717 36.0493C31.2139 36.1443 31.5561 36.2393 31.8982 36.3344ZM30.8717 36.0493C30.6436 37.0663 30.3917 38.0785 30.1161 39.086C29.6028 40.9537 29.0325 42.8072 28.4052 44.6463C28.2056 45.2642 27.9965 45.882 27.7779 46.4998C26.894 49.009 26.01 51.4613 25.0548 53.9278C24.7839 53.7852 24.5415 53.6712 24.0853 53.4858C25.1831 50.5773 26.067 47.5976 27.008 44.6463C27.2266 43.981 27.4357 43.3157 27.6353 42.6503C28.044 41.3102 28.429 39.9795 28.7902 38.6583C28.9232 38.1641 29.0516 37.6698 29.1751 37.1756C29.2987 36.6813 29.4222 36.1823 29.5458 35.6786C29.9878 35.8069 30.4297 35.9352 30.8717 36.0493ZM29.5458 35.6786C29.4222 36.1823 29.2987 36.6813 29.1751 37.1756C29.0516 37.6698 28.9232 38.1641 28.7902 38.6583C28.429 39.9795 28.044 41.3102 27.6353 42.6503C27.4357 43.3157 27.2266 43.981 27.008 44.6463C26.067 47.5976 25.1831 50.5773 24.0853 53.4858C23.8144 53.3718 23.4009 53.2007 22.9305 53.0153C23.9998 49.9072 25.0548 46.8847 26.1811 43.8194C26.3997 43.2206 26.6088 42.6171 26.8084 42.0088C27.0175 41.4005 27.2171 40.7921 27.4072 40.1838C27.7066 39.1145 28.0916 38.031 28.3482 36.8904C28.4813 36.3962 28.6048 35.9019 28.7189 35.4077C28.9898 35.4932 29.2749 35.6073 29.5458 35.6786ZM28.7189 35.4077C28.6048 35.9019 28.4813 36.3962 28.3482 36.8904C28.0916 38.031 27.7066 39.1145 27.4072 40.1838C27.2171 40.7921 27.0175 41.4005 26.8084 42.0088C26.6088 42.6171 26.3997 43.2206 26.1811 43.8194C25.0548 46.8847 23.9998 49.9072 22.9305 53.0153C22.3887 52.7872 21.7756 52.5163 21.1911 52.2739C22.3602 49.2372 23.5863 46.2859 24.898 43.3347C25.1546 42.7454 25.4017 42.1561 25.6393 41.5668C26.2952 39.8987 26.8797 38.2306 27.3644 36.5197C27.4975 36.0255 27.6211 35.5265 27.7351 35.0227C28.0631 35.1511 28.391 35.2794 28.7189 35.4077ZM27.7351 35.0227C27.6211 35.5265 27.4975 36.0255 27.3644 36.5197C26.8797 38.2306 26.2952 39.8987 25.6393 41.5668C25.4017 42.1561 25.1546 42.7454 24.898 43.3347C23.5863 46.2859 22.3602 49.2372 21.1911 52.2739C20.4782 51.9745 19.8081 51.6894 19.4232 51.5183C20.6351 48.5243 21.9467 45.6158 23.2726 42.6931C24.3277 40.469 25.2829 38.2591 26.0813 35.978C26.2429 35.5027 26.395 35.0132 26.5375 34.5095C26.9367 34.6948 27.3359 34.8659 27.7351 35.0227ZM26.5375 34.5095C26.395 35.0132 26.2429 35.5027 26.0813 35.978C25.2829 38.2591 24.3277 40.469 23.2726 42.6931C21.9467 45.6158 20.6351 48.5243 19.4232 51.5183C19.1 51.3757 18.7769 51.2332 18.4537 51.0906C19.5943 48.1536 21.02 45.4162 22.2746 42.5505C23.3582 40.2836 24.3134 37.974 25.0976 35.5645C25.2496 35.0798 25.3922 34.5855 25.5253 34.0818C25.8674 34.2243 26.1954 34.3669 26.5375 34.5095ZM25.5253 34.0818C25.3922 34.5855 25.2496 35.0798 25.0976 35.5645C24.3134 37.974 23.3582 40.2836 22.2746 42.5505C21.02 45.4162 19.5943 48.1536 18.4537 51.0906C18.1115 50.9385 17.7694 50.7864 17.4272 50.6344C18.4394 48.2392 19.523 45.8867 20.5353 43.5343C21.7186 40.6971 23.1586 37.9597 24.014 35.037C24.1661 34.5522 24.2992 34.0627 24.4132 33.5685C24.7839 33.7396 25.1546 33.9392 25.5253 34.0818ZM24.4132 33.5685C24.2992 34.0627 24.1661 34.5522 24.014 35.037C23.1586 37.9597 21.7186 40.6971 20.5353 43.5343C19.523 45.8867 18.4394 48.2392 17.4272 50.6344C17.2466 50.5583 17.066 50.4823 16.8854 50.4063C17.9262 48.0396 18.9242 45.6443 19.9935 43.2919C21.1768 40.469 22.46 37.7031 23.4009 34.7518C23.553 34.2671 23.6956 33.7776 23.8287 33.2834C24.0283 33.3832 24.2279 33.483 24.4132 33.5685ZM23.8287 33.2834C23.6956 33.7776 23.553 34.2671 23.4009 34.7518C22.46 37.7031 21.1768 40.469 19.9935 43.2919C18.9242 45.6443 17.9262 48.0396 16.8854 50.4063C16.6668 50.3112 16.4482 50.2162 16.2296 50.1211C17.2133 47.7259 18.2256 45.3307 19.2949 42.964C20.5638 40.1553 21.7614 37.3039 22.7023 34.3812C22.8639 33.9059 23.0113 33.4259 23.1443 32.9412C23.3724 33.0552 23.6005 33.1693 23.8287 33.2834ZM23.1443 32.9412C23.0113 33.4259 22.8639 33.9059 22.7023 34.3812C21.7614 37.3039 20.5638 40.1553 19.2949 42.964C18.2256 45.3307 17.2133 47.7259 16.2296 50.1211C15.8969 49.969 15.569 49.8217 15.2458 49.6791C16.0157 47.897 16.7714 46.1006 17.5412 44.3042C19.0382 40.8824 20.5923 37.4892 21.6616 33.8679C21.8041 33.3737 21.942 32.8842 22.075 32.3994C22.4267 32.58 22.7831 32.7606 23.1443 32.9412ZM22.075 32.3994C21.942 32.8842 21.8041 33.3737 21.6616 33.8679C20.5923 37.4892 19.0382 40.8824 17.5412 44.3042C16.7714 46.1006 16.0157 47.897 15.2458 49.6791C14.8942 49.5271 14.5425 49.3702 14.1908 49.2086C14.9464 47.4122 15.7163 45.6158 16.4862 43.8337C17.969 40.3977 19.4232 36.8904 20.5067 33.2834C20.6588 32.7891 20.8014 32.2949 20.9345 31.8006C21.3146 32.0002 21.6948 32.1998 22.075 32.3994ZM20.9345 31.8006C20.8014 32.2949 20.6588 32.7891 20.5067 33.2834C19.4232 36.8904 17.969 40.3977 16.4862 43.8337C15.7163 45.6158 14.9464 47.4122 14.1908 49.2086C13.9722 49.1136 13.7536 49.0186 13.535 48.9235C14.4189 47.1414 15.089 45.3022 15.8874 43.5058C17.3416 40.027 18.6533 36.5055 19.8081 32.8842C19.9602 32.3994 20.1028 31.9147 20.2358 31.4299C20.4735 31.5535 20.7063 31.677 20.9345 31.8006ZM20.2358 31.4299C20.1028 31.9147 19.9602 32.3994 19.8081 32.8842C18.6533 36.5055 17.3416 40.027 15.8874 43.5058C15.089 45.3022 14.4189 47.1414 13.535 48.9235C13.1833 48.7714 12.8269 48.6146 12.4657 48.453C13.0074 47.2982 13.4922 46.0436 14.034 44.8602C14.2811 44.2519 14.5235 43.6436 14.7611 43.0353C16.1013 39.4567 17.5127 35.9209 18.639 32.3139C18.7911 31.8196 18.9384 31.3206 19.081 30.8169C19.466 31.0165 19.8509 31.2161 20.2358 31.4299ZM19.081 30.8169C18.9384 31.3206 18.7911 31.8196 18.639 32.3139C17.5127 35.9209 16.1013 39.4567 14.7611 43.0353C14.5235 43.6436 14.2811 44.2519 14.034 44.8602C13.4922 46.0436 13.0074 47.2982 12.4657 48.453C12.2851 48.377 12.1092 48.3009 11.9382 48.2249C12.4086 46.9988 12.9789 45.8439 13.4209 44.6036C13.668 43.9953 13.9152 43.387 14.1623 42.7787C15.5595 39.2286 16.9852 35.6643 18.0688 32.0145C18.2208 31.5202 18.3682 31.0212 18.5107 30.5175C18.6961 30.6173 18.8957 30.7171 19.081 30.8169ZM27.7494 54.9971C27.5308 55.5483 27.3122 56.0949 27.0936 56.6366C25.8532 59.9586 24.4702 63.195 23.0017 66.3886C22.7926 66.8353 22.5788 67.2773 22.3602 67.7145C22.1511 68.1517 21.9325 68.5889 21.7043 69.0262C20.8204 70.7655 19.9079 72.4764 18.9242 74.1302C18.1971 73.5599 17.3559 73.0895 16.6288 72.5762C18.0545 71.122 19.1095 69.3256 20.1646 67.5577C20.5257 66.9494 20.8679 66.3315 21.1911 65.7042C22.8164 62.5819 24.0283 59.2315 25.2259 55.8668C25.4255 55.3345 25.6346 54.8022 25.8532 54.27C26.894 54.6834 26.6801 54.5979 27.7494 54.9971ZM25.8532 54.27C25.6346 54.8022 25.4255 55.3345 25.2259 55.8668C24.0283 59.2315 22.8164 62.5819 21.1911 65.7042C20.8679 66.3315 20.5257 66.9494 20.1646 67.5577C19.1095 69.3256 18.0545 71.122 16.6288 72.5762C16.3722 72.4146 16.1108 72.253 15.8446 72.0915C17.085 70.4234 18.14 68.6269 19.1238 66.802C19.485 66.2032 19.8271 65.5997 20.1503 64.9914C21.8041 61.9403 23.073 58.7039 24.4132 55.5103C24.6318 54.9876 24.8457 54.46 25.0548 53.9278C25.2686 54.0133 25.4825 54.1274 25.8532 54.27ZM25.0548 53.9278C24.8457 54.46 24.6318 54.9876 24.4132 55.5103C23.073 58.7039 21.8041 61.9403 20.1503 64.9914C19.8271 65.5997 19.485 66.2032 19.1238 66.802C18.14 68.6269 17.085 70.4234 15.8446 72.0915C15.5025 71.8728 15.1555 71.659 14.8039 71.4499C15.051 70.9746 15.2934 70.4994 15.531 70.0242C15.7686 69.5584 16.0015 69.0879 16.2296 68.6127C16.7001 67.6717 17.1706 66.7307 17.6553 65.7898C17.9832 65.2052 18.3254 64.6064 18.6676 64.0219C20.3499 61.0849 21.9467 58.1051 23.4152 55.0541C23.6528 54.5408 23.8762 54.0181 24.0853 53.4858C24.5415 53.6712 24.7839 53.7852 25.0548 53.9278ZM24.0853 53.4858C23.8762 54.0181 23.6528 54.5408 23.4152 55.0541C21.9467 58.1051 20.3499 61.0849 18.6676 64.0219C18.3254 64.6064 17.9832 65.2052 17.6553 65.7898C17.1706 66.7307 16.7001 67.6717 16.2296 68.6127C16.0015 69.0879 15.7686 69.5584 15.531 70.0242C15.2934 70.4994 15.051 70.9746 14.8039 71.4499C14.5757 71.3168 14.3476 71.1885 14.1195 71.0649C14.4189 70.4804 14.7041 69.8958 14.9892 69.3113C15.2648 68.722 15.5405 68.1375 15.8161 67.5577C16.3579 66.3743 16.8997 65.2052 17.5127 64.0789C17.7979 63.5656 18.083 63.0476 18.3682 62.5249C19.7511 59.9158 21.1055 57.2782 22.2889 54.5694C22.5075 54.0466 22.7214 53.5286 22.9305 53.0153C23.4009 53.2007 23.8144 53.3718 24.0853 53.4858ZM22.9305 53.0153C22.7214 53.5286 22.5075 54.0466 22.2889 54.5694C21.1055 57.2782 19.7511 59.9158 18.3682 62.5249C18.083 63.0476 17.7979 63.5656 17.5127 64.0789C16.8997 65.2052 16.3579 66.3743 15.8161 67.5577C15.5405 68.1375 15.2648 68.722 14.9892 69.3113C14.7041 69.8958 14.4189 70.4804 14.1195 71.0649C13.8534 70.9224 13.5872 70.7798 13.3211 70.6372C14.0055 69.2685 14.5615 67.8428 15.1745 66.4456C15.3646 65.9799 15.5595 65.5094 15.7591 65.0341C16.144 64.0932 16.529 63.1522 16.9567 62.2255C17.2704 61.5316 17.5793 60.8378 17.8834 60.1439C18.7959 58.0481 19.6798 55.938 20.5638 53.8422C20.7824 53.3195 20.9915 52.7967 21.1911 52.2739C21.7756 52.5163 22.3887 52.7872 22.9305 53.0153ZM21.1911 52.2739C20.9915 52.7967 20.7824 53.3195 20.5638 53.8422C19.6798 55.938 18.7959 58.0481 17.8834 60.1439C17.5793 60.8378 17.2704 61.5316 16.9567 62.2255C16.529 63.1522 16.144 64.0932 15.7591 65.0341C15.5595 65.5094 15.3646 65.9799 15.1745 66.4456C14.5615 67.8428 14.0055 69.2685 13.3211 70.6372C12.9694 70.4566 12.6178 70.2808 12.2661 70.1097C13.1358 68.2705 13.6633 66.303 14.4474 64.4068C14.6185 63.9316 14.7991 63.4563 14.9892 62.9811C15.1698 62.5154 15.3599 62.0449 15.5595 61.5696C15.8351 60.8663 16.1108 60.1629 16.3864 59.4596C17.1991 57.3353 17.9832 55.1967 18.8101 53.0866C19.0097 52.5638 19.2141 52.0411 19.4232 51.5183C19.8081 51.6894 20.4782 51.9745 21.1911 52.2739ZM19.4232 51.5183C19.2141 52.0411 19.0097 52.5638 18.8101 53.0866C17.9832 55.1967 17.1991 57.3353 16.3864 59.4596C16.1108 60.1629 15.8351 60.8663 15.5595 61.5696C15.3599 62.0449 15.1698 62.5154 14.9892 62.9811C14.7991 63.4563 14.6185 63.9316 14.4474 64.4068C13.6633 66.303 13.1358 68.2705 12.2661 70.1097C11.9619 69.9671 11.653 69.8246 11.3394 69.682C12.1805 67.9426 12.6938 66.0179 13.3781 64.2072C13.592 63.6084 13.8201 63.0096 14.0767 62.4108C14.3334 61.7645 14.5852 61.1134 14.8324 60.4576C15.8446 57.8343 16.7856 55.2109 17.8406 52.6589C18.0402 52.1361 18.2446 51.6134 18.4537 51.0906C18.7769 51.2332 19.1 51.3757 19.4232 51.5183ZM18.4537 51.0906C18.2446 51.6134 18.0402 52.1361 17.8406 52.6589C16.7856 55.2109 15.8446 57.8343 14.8324 60.4576C14.5852 61.1134 14.3334 61.7645 14.0767 62.4108C13.8201 63.0096 13.592 63.6084 13.3781 64.2072C12.6938 66.0179 12.1805 67.9426 11.3394 69.682C10.9972 69.5204 10.6503 69.3636 10.2986 69.2115C11.2966 67.3866 11.7956 65.3621 12.5084 63.4088C12.7366 62.753 12.9647 62.1114 13.2213 61.4698C13.4589 60.852 13.6965 60.2342 13.9342 59.6164C14.8751 57.1499 15.7876 54.6692 16.7999 52.2027C17.009 51.6799 17.2181 51.1571 17.4272 50.6344C17.7694 50.7864 18.1115 50.9385 18.4537 51.0906ZM17.4272 50.6344C17.2181 51.1571 17.009 51.6799 16.7999 52.2027C15.7876 54.6692 14.8751 57.1499 13.9342 59.6164C13.6965 60.2342 13.4589 60.852 13.2213 61.4698C12.9647 62.1114 12.7366 62.753 12.5084 63.4088C11.7956 65.3621 11.2966 67.3866 10.2986 69.2115C10.1085 69.126 9.91839 69.0404 9.72829 68.9549C10.5695 67.0159 11.0685 64.9914 11.8526 63.0239C12.1092 62.4108 12.3659 61.7978 12.6225 61.1847C13.8914 58.1194 15.0177 55.0256 16.2438 51.9603C16.4529 51.4375 16.6668 50.9195 16.8854 50.4063C17.066 50.4823 17.2466 50.5583 17.4272 50.6344ZM16.8854 50.4063C16.6668 50.9195 16.4529 51.4375 16.2438 51.9603C15.0177 55.0256 13.8914 58.1194 12.6225 61.1847C12.3659 61.7978 12.1092 62.4108 11.8526 63.0239C11.0685 64.9914 10.5695 67.0159 9.72829 68.9549C9.49067 68.8598 9.25305 68.76 9.01543 68.6555C10.0562 66.2888 10.7976 63.8223 11.7528 61.4413C12.019 60.795 12.2803 60.1439 12.537 59.4881C13.5492 56.879 14.533 54.2557 15.6023 51.6751C15.8114 51.1524 16.0205 50.6344 16.2296 50.1211C16.4482 50.2162 16.6668 50.3112 16.8854 50.4063ZM16.2296 50.1211C16.0205 50.6344 15.8114 51.1524 15.6023 51.6751C14.533 54.2557 13.5492 56.879 12.537 59.4881C12.2803 60.1439 12.019 60.795 11.7528 61.4413C10.7976 63.8223 10.0562 66.2888 9.01543 68.6555C8.65425 68.5034 8.28832 68.3466 7.91763 68.185C8.92989 65.9323 9.61424 63.5371 10.5837 61.2417C10.8118 60.6904 11.04 60.1344 11.2681 59.5736C12.4229 56.7935 13.4922 54.0133 14.6043 51.2332C14.8134 50.7199 15.0272 50.2019 15.2458 49.6791C15.569 49.8217 15.8969 49.969 16.2296 50.1211ZM15.2458 49.6791C15.0272 50.2019 14.8134 50.7199 14.6043 51.2332C13.4922 54.0133 12.4229 56.7935 11.2681 59.5736C11.04 60.1344 10.8118 60.6904 10.5837 61.2417C9.61424 63.5371 8.92989 65.9323 7.91763 68.185C7.50892 68.0234 7.10022 67.8571 6.69151 67.686C7.63249 65.3763 8.48792 63.0666 9.45741 60.7855C9.69503 60.2247 9.9279 59.6687 10.156 59.1174C11.3108 56.3372 12.3374 53.5286 13.535 50.7627C13.7536 50.2494 13.9722 49.7314 14.1908 49.2086C14.5425 49.3702 14.8942 49.5271 15.2458 49.6791ZM14.1908 49.2086C13.9722 49.7314 13.7536 50.2494 13.535 50.7627C12.3374 53.5286 11.3108 56.3372 10.156 59.1174C9.9279 59.6687 9.69503 60.2247 9.45741 60.7855C8.48792 63.0666 7.63249 65.3763 6.69151 67.686C6.44439 67.5814 6.19251 67.4769 5.93588 67.3723C7.07646 65.1482 7.77506 62.753 8.78732 60.5146C9.03445 59.9633 9.27207 59.4121 9.50018 58.8608C10.6693 56.0949 11.7386 53.2719 12.8791 50.4775C13.0977 49.9643 13.3164 49.4463 13.535 48.9235C13.7536 49.0186 13.9722 49.1136 14.1908 49.2086ZM13.535 48.9235C13.3164 49.4463 13.0977 49.9643 12.8791 50.4775C11.7386 53.2719 10.6693 56.0949 9.50018 58.8608C9.27207 59.4121 9.03445 59.9633 8.78732 60.5146C7.77506 62.753 7.07646 65.1482 5.93588 67.3723C5.51767 67.2012 5.0947 67.0301 4.66699 66.8591C5.72202 64.307 6.79131 61.6837 7.94614 59.1602C8.32634 58.3238 8.70178 57.4826 9.07246 56.6366C10.0277 54.4268 10.8831 52.2312 11.8098 50.0213C12.0285 49.4985 12.2471 48.9758 12.4657 48.453C12.8269 48.6146 13.1833 48.7714 13.535 48.9235ZM12.4657 48.453C12.2471 48.9758 12.0285 49.4985 11.8098 50.0213C10.8831 52.2312 10.0277 54.4268 9.07246 56.6366C8.70178 57.4826 8.32634 58.3238 7.94614 59.1602C6.79131 61.6837 5.72202 64.307 4.66699 66.8591C4.45788 66.7735 4.24878 66.688 4.03967 66.6024C5.22302 64.1074 6.24954 61.4698 7.39011 58.9463C7.77031 58.1004 8.14099 57.2545 8.50218 56.4085C9.44315 54.1844 10.3414 52.0031 11.2823 49.7932C11.5009 49.2704 11.7195 48.7477 11.9382 48.2249C12.1092 48.3009 12.2851 48.377 12.4657 48.453Z" fill="url(#paint5_linear_630_81672)" fill-opacity="0.5"/>
</g>
</g>
<path d="M12.9362 56.2375L24.2136 29.3342L22.6738 28.6784L10.9259 56.708L12.9362 56.2375Z" fill="url(#paint6_linear_630_81672)"/>
<path d="M23.1728 61.8406L34.9065 33.811L33.3667 33.1694L22.1035 60.0727L23.1728 61.8406Z" fill="url(#paint7_linear_630_81672)"/>
<path d="M31.7129 0.734315L32.9675 2.16004C33.2954 2.53072 33.8514 2.60201 34.2506 2.31687L35.7904 1.2048C36.2609 0.862631 36.9167 1.0052 37.1876 1.51846L38.1001 3.18655C38.3282 3.61427 38.8557 3.79961 39.312 3.61427L41.0656 2.8729C41.5931 2.64478 42.1919 2.94418 42.3487 3.48596L42.862 5.32513C42.9903 5.79562 43.4608 6.09502 43.9455 6.00948L45.8275 5.68156C46.3835 5.58176 46.911 5.99522 46.9396 6.56551L47.0393 8.47598C47.0679 8.96072 47.4528 9.34566 47.9376 9.37418L49.848 9.47398C50.4183 9.50249 50.8318 10.03 50.732 10.586L50.4041 12.468C50.3185 12.9527 50.6179 13.409 51.0884 13.5515L52.9276 14.0648C53.4694 14.2216 53.7687 14.8204 53.5406 15.3479L52.7993 17.1016C52.6139 17.5578 52.7993 18.0853 53.227 18.3134L54.8951 19.2259C55.4083 19.4968 55.5509 20.1526 55.2087 20.6231L54.0967 22.1629C53.8115 22.5621 53.8828 23.1181 54.2535 23.446L55.6792 24.7007C56.1069 25.0856 56.1069 25.7557 55.6792 26.1264L54.2535 27.3953C53.8828 27.7089 53.8115 28.265 54.0967 28.6642L55.2087 30.2039C55.5509 30.6744 55.4083 31.3303 54.8951 31.6012L53.227 32.5136C52.7993 32.756 52.6139 33.2692 52.7993 33.7255L53.5406 35.4791C53.7687 36.0066 53.4694 36.6054 52.9276 36.7623L51.0884 37.2898C50.6179 37.4181 50.3185 37.8886 50.4041 38.3733L50.732 40.241C50.8318 40.8113 50.4183 41.3388 49.848 41.3673L47.9376 41.4529C47.4528 41.4814 47.0679 41.8663 47.0393 42.3653L46.9396 44.2615C46.911 44.8318 46.3835 45.2595 45.8275 45.1597L43.9455 44.8176C43.4608 44.732 42.9903 45.0314 42.862 45.5019L42.3487 47.3411C42.1919 47.8971 41.5931 48.1823 41.0656 47.9542L39.312 47.2128C38.8557 47.0274 38.3282 47.2128 38.1001 47.6405L37.1876 49.3086C36.9167 49.8219 36.2609 49.9644 35.7904 49.6365L34.2506 48.5245C33.8514 48.2393 33.2954 48.2963 32.9675 48.667L31.7129 50.0927C31.3279 50.5205 30.6578 50.5205 30.2871 50.0927L29.0182 48.667C28.7046 48.2963 28.1486 48.2393 27.7494 48.5245L26.2096 49.6365C25.7391 49.9644 25.0833 49.8219 24.8124 49.3086L23.8999 47.6405C23.6575 47.2128 23.1443 47.0274 22.6881 47.2128L20.9344 47.9542C20.4069 48.1823 19.8081 47.8971 19.6513 47.3411L19.1238 45.5019C18.9954 45.0314 18.525 44.732 18.0402 44.8176L16.1725 45.1597C15.6022 45.2595 15.0747 44.8318 15.0462 44.2615L14.9606 42.3653C14.9321 41.8663 14.5472 41.4814 14.0482 41.4529L12.152 41.3673C11.5817 41.3388 11.154 40.8113 11.2538 40.241L11.596 38.3733C11.6815 37.8886 11.3821 37.4181 10.9116 37.2898L9.07243 36.7623C8.5164 36.6054 8.23125 36.0066 8.45937 35.4791L9.20074 33.7255C9.38608 33.2692 9.20074 32.756 8.77303 32.5136L7.10493 31.6012C6.59167 31.3303 6.4491 30.6744 6.77702 30.2039L7.88908 28.6642C8.17422 28.265 8.11719 27.7089 7.74651 27.3953L6.32079 26.1264C5.89307 25.7557 5.89307 25.0856 6.32079 24.7007L7.74651 23.446C8.11719 23.1181 8.17422 22.5621 7.88908 22.1629L6.77702 20.6231C6.4491 20.1526 6.59167 19.4968 7.10493 19.2259L8.77303 18.3134C9.20074 18.0853 9.38608 17.5578 9.20074 17.1016L8.45937 15.3479C8.23125 14.8204 8.5164 14.2216 9.07243 14.0648L10.9116 13.5515C11.3821 13.409 11.6815 12.9527 11.596 12.468L11.2538 10.586C11.154 10.03 11.5817 9.50249 12.152 9.47398L14.0482 9.37418C14.5472 9.34566 14.9321 8.96072 14.9606 8.47598L15.0462 6.56551C15.0747 5.99522 15.6022 5.58176 16.1725 5.68156L18.0402 6.00948C18.525 6.09502 18.9954 5.79562 19.1238 5.32513L19.6513 3.48596C19.8081 2.94418 20.4069 2.64478 20.9344 2.8729L22.6881 3.61427C23.1443 3.79961 23.6575 3.61427 23.8999 3.18655L24.8124 1.51846C25.0833 1.0052 25.7391 0.862631 26.2096 1.2048L27.7494 2.31687C28.1486 2.60201 28.7046 2.53072 29.0182 2.16004L30.2871 0.734315C30.6578 0.306599 31.3279 0.306599 31.7129 0.734315Z" fill="#B78103"/>
<path d="M31.7129 0.734315L32.9675 2.16004C33.2954 2.53072 33.8514 2.60201 34.2506 2.31687L35.7904 1.2048C36.2609 0.862631 36.9167 1.0052 37.1876 1.51846L38.1001 3.18655C38.3282 3.61427 38.8557 3.79961 39.312 3.61427L41.0656 2.8729C41.5931 2.64478 42.1919 2.94418 42.3487 3.48596L42.862 5.32513C42.9903 5.79562 43.4608 6.09502 43.9455 6.00948L45.8275 5.68156C46.3835 5.58176 46.911 5.99522 46.9396 6.56551L47.0393 8.47598C47.0679 8.96072 47.4528 9.34566 47.9376 9.37418L49.848 9.47398C50.4183 9.50249 50.8318 10.03 50.732 10.586L50.4041 12.468C50.3185 12.9527 50.6179 13.409 51.0884 13.5515L52.9276 14.0648C53.4694 14.2216 53.7687 14.8204 53.5406 15.3479L52.7993 17.1016C52.6139 17.5578 52.7993 18.0853 53.227 18.3134L54.8951 19.2259C55.4083 19.4968 55.5509 20.1526 55.2087 20.6231L54.0967 22.1629C53.8115 22.5621 53.8828 23.1181 54.2535 23.446L55.6792 24.7007C56.1069 25.0856 56.1069 25.7557 55.6792 26.1264L54.2535 27.3953C53.8828 27.7089 53.8115 28.265 54.0967 28.6642L55.2087 30.2039C55.5509 30.6744 55.4083 31.3303 54.8951 31.6012L53.227 32.5136C52.7993 32.756 52.6139 33.2692 52.7993 33.7255L53.5406 35.4791C53.7687 36.0066 53.4694 36.6054 52.9276 36.7623L51.0884 37.2898C50.6179 37.4181 50.3185 37.8886 50.4041 38.3733L50.732 40.241C50.8318 40.8113 50.4183 41.3388 49.848 41.3673L47.9376 41.4529C47.4528 41.4814 47.0679 41.8663 47.0393 42.3653L46.9396 44.2615C46.911 44.8318 46.3835 45.2595 45.8275 45.1597L43.9455 44.8176C43.4608 44.732 42.9903 45.0314 42.862 45.5019L42.3487 47.3411C42.1919 47.8971 41.5931 48.1823 41.0656 47.9542L39.312 47.2128C38.8557 47.0274 38.3282 47.2128 38.1001 47.6405L37.1876 49.3086C36.9167 49.8219 36.2609 49.9644 35.7904 49.6365L34.2506 48.5245C33.8514 48.2393 33.2954 48.2963 32.9675 48.667L31.7129 50.0927C31.3279 50.5205 30.6578 50.5205 30.2871 50.0927L29.0182 48.667C28.7046 48.2963 28.1486 48.2393 27.7494 48.5245L26.2096 49.6365C25.7391 49.9644 25.0833 49.8219 24.8124 49.3086L23.8999 47.6405C23.6575 47.2128 23.1443 47.0274 22.6881 47.2128L20.9344 47.9542C20.4069 48.1823 19.8081 47.8971 19.6513 47.3411L19.1238 45.5019C18.9954 45.0314 18.525 44.732 18.0402 44.8176L16.1725 45.1597C15.6022 45.2595 15.0747 44.8318 15.0462 44.2615L14.9606 42.3653C14.9321 41.8663 14.5472 41.4814 14.0482 41.4529L12.152 41.3673C11.5817 41.3388 11.154 40.8113 11.2538 40.241L11.596 38.3733C11.6815 37.8886 11.3821 37.4181 10.9116 37.2898L9.07243 36.7623C8.5164 36.6054 8.23125 36.0066 8.45937 35.4791L9.20074 33.7255C9.38608 33.2692 9.20074 32.756 8.77303 32.5136L7.10493 31.6012C6.59167 31.3303 6.4491 30.6744 6.77702 30.2039L7.88908 28.6642C8.17422 28.265 8.11719 27.7089 7.74651 27.3953L6.32079 26.1264C5.89307 25.7557 5.89307 25.0856 6.32079 24.7007L7.74651 23.446C8.11719 23.1181 8.17422 22.5621 7.88908 22.1629L6.77702 20.6231C6.4491 20.1526 6.59167 19.4968 7.10493 19.2259L8.77303 18.3134C9.20074 18.0853 9.38608 17.5578 9.20074 17.1016L8.45937 15.3479C8.23125 14.8204 8.5164 14.2216 9.07243 14.0648L10.9116 13.5515C11.3821 13.409 11.6815 12.9527 11.596 12.468L11.2538 10.586C11.154 10.03 11.5817 9.50249 12.152 9.47398L14.0482 9.37418C14.5472 9.34566 14.9321 8.96072 14.9606 8.47598L15.0462 6.56551C15.0747 5.99522 15.6022 5.58176 16.1725 5.68156L18.0402 6.00948C18.525 6.09502 18.9954 5.79562 19.1238 5.32513L19.6513 3.48596C19.8081 2.94418 20.4069 2.64478 20.9344 2.8729L22.6881 3.61427C23.1443 3.79961 23.6575 3.61427 23.8999 3.18655L24.8124 1.51846C25.0833 1.0052 25.7391 0.862631 26.2096 1.2048L27.7494 2.31687C28.1486 2.60201 28.7046 2.53072 29.0182 2.16004L30.2871 0.734315C30.6578 0.306599 31.3279 0.306599 31.7129 0.734315Z" fill="url(#paint8_linear_630_81672)" fill-opacity="0.1"/>
<path d="M31 4.82611C42.4771 4.82611 51.7728 14.1218 51.7728 25.5989C51.7728 37.0759 42.4771 46.3858 31 46.3858C19.523 46.3858 10.213 37.0759 10.213 25.5989C10.213 14.1218 19.523 4.82611 31 4.82611Z" fill="url(#paint9_linear_630_81672)"/>
<path d="M31 6.42291C41.5931 6.42291 50.1902 15.0057 50.1902 25.5988C50.1902 36.2062 41.5931 44.789 31 44.789C20.4069 44.789 11.8098 36.2062 11.8098 25.5988C11.8098 15.0057 20.4069 6.42291 31 6.42291Z" fill="url(#paint10_linear_630_81672)"/>
<path d="M31 7.46371C41.0228 7.46371 49.1352 15.5903 49.1352 25.5989C49.1352 35.6217 41.0228 43.7483 31 43.7483C20.9772 43.7483 12.8506 35.6217 12.8506 25.5989C12.8506 15.5903 20.9772 7.46371 31 7.46371Z" fill="#F1F2F2"/>
<g filter="url(#filter0_d_630_81672)">
<path d="M16.9608 27.4135C16.9168 27.4135 16.8808 27.3995 16.8528 27.3715C16.8248 27.3435 16.8108 27.3095 16.8108 27.2695V23.3635C16.8108 23.3195 16.8248 23.2835 16.8528 23.2555C16.8808 23.2275 16.9168 23.2135 16.9608 23.2135H17.4348C17.4908 23.2135 17.5328 23.2295 17.5608 23.2615C17.5888 23.2895 17.6068 23.3115 17.6148 23.3275L18.7728 25.4875L19.9428 23.3275C19.9508 23.3115 19.9688 23.2895 19.9968 23.2615C20.0248 23.2295 20.0668 23.2135 20.1228 23.2135H20.5908C20.6348 23.2135 20.6708 23.2275 20.6988 23.2555C20.7268 23.2835 20.7408 23.3195 20.7408 23.3635V27.2695C20.7408 27.3095 20.7268 27.3435 20.6988 27.3715C20.6708 27.3995 20.6348 27.4135 20.5908 27.4135H20.0868C20.0428 27.4135 20.0068 27.3995 19.9788 27.3715C19.9548 27.3435 19.9428 27.3095 19.9428 27.2695V24.6715L19.1028 26.2735C19.0828 26.3095 19.0568 26.3415 19.0248 26.3695C18.9928 26.3935 18.9508 26.4055 18.8988 26.4055H18.6528C18.5968 26.4055 18.5528 26.3935 18.5208 26.3695C18.4928 26.3415 18.4688 26.3095 18.4488 26.2735L17.6088 24.6715V27.2695C17.6088 27.3095 17.5948 27.3435 17.5668 27.3715C17.5388 27.3995 17.5048 27.4135 17.4648 27.4135H16.9608ZM21.4161 27.4135C21.3841 27.4135 21.3541 27.4015 21.3261 27.3775C21.3021 27.3535 21.2901 27.3235 21.2901 27.2875C21.2901 27.2715 21.2941 27.2535 21.3021 27.2335L22.7481 23.3635C22.7601 23.3235 22.7821 23.2895 22.8141 23.2615C22.8501 23.2295 22.8981 23.2135 22.9581 23.2135H23.6121C23.6721 23.2135 23.7181 23.2295 23.7501 23.2615C23.7821 23.2895 23.8061 23.3235 23.8221 23.3635L25.2681 27.2335C25.2721 27.2535 25.2741 27.2715 25.2741 27.2875C25.2741 27.3235 25.2621 27.3535 25.2381 27.3775C25.2141 27.4015 25.1861 27.4135 25.1541 27.4135H24.6321C24.5761 27.4135 24.5341 27.4015 24.5061 27.3775C24.4821 27.3495 24.4661 27.3235 24.4581 27.2995L24.1761 26.5675H22.3941L22.1121 27.2995C22.1041 27.3235 22.0861 27.3495 22.0581 27.3775C22.0341 27.4015 21.9941 27.4135 21.9381 27.4135H21.4161ZM22.6041 25.8775H23.9661L23.2821 24.0235L22.6041 25.8775ZM25.9782 27.4135C25.9382 27.4135 25.9042 27.3995 25.8762 27.3715C25.8482 27.3435 25.8342 27.3095 25.8342 27.2695V23.3635C25.8342 23.3195 25.8482 23.2835 25.8762 23.2555C25.9042 23.2275 25.9382 23.2135 25.9782 23.2135H26.4402C26.4962 23.2135 26.5362 23.2275 26.5602 23.2555C26.5882 23.2795 26.6062 23.2975 26.6142 23.3095L28.3422 25.9975V23.3635C28.3422 23.3195 28.3542 23.2835 28.3782 23.2555C28.4062 23.2275 28.4422 23.2135 28.4862 23.2135H28.9902C29.0342 23.2135 29.0702 23.2275 29.0982 23.2555C29.1262 23.2835 29.1402 23.3195 29.1402 23.3635V27.2635C29.1402 27.3075 29.1262 27.3435 29.0982 27.3715C29.0702 27.3995 29.0362 27.4135 28.9962 27.4135H28.5282C28.4722 27.4135 28.4322 27.3995 28.4082 27.3715C28.3842 27.3435 28.3662 27.3255 28.3542 27.3175L26.6322 24.6895V27.2695C26.6322 27.3095 26.6182 27.3435 26.5902 27.3715C26.5622 27.3995 26.5262 27.4135 26.4822 27.4135H25.9782ZM29.8184 27.4135C29.7864 27.4135 29.7564 27.4015 29.7284 27.3775C29.7044 27.3535 29.6924 27.3235 29.6924 27.2875C29.6924 27.2715 29.6964 27.2535 29.7044 27.2335L31.1504 23.3635C31.1624 23.3235 31.1844 23.2895 31.2164 23.2615C31.2524 23.2295 31.3004 23.2135 31.3604 23.2135H32.0144C32.0744 23.2135 32.1204 23.2295 32.1524 23.2615C32.1844 23.2895 32.2084 23.3235 32.2244 23.3635L33.6704 27.2335C33.6744 27.2535 33.6764 27.2715 33.6764 27.2875C33.6764 27.3235 33.6644 27.3535 33.6404 27.3775C33.6164 27.4015 33.5884 27.4135 33.5564 27.4135H33.0344C32.9784 27.4135 32.9364 27.4015 32.9084 27.3775C32.8844 27.3495 32.8684 27.3235 32.8604 27.2995L32.5784 26.5675H30.7964L30.5144 27.2995C30.5064 27.3235 30.4884 27.3495 30.4604 27.3775C30.4364 27.4015 30.3964 27.4135 30.3404 27.4135H29.8184ZM31.0064 25.8775H32.3684L31.6844 24.0235L31.0064 25.8775ZM35.7865 27.4735C35.4185 27.4735 35.1045 27.4095 34.8445 27.2815C34.5885 27.1535 34.3885 26.9695 34.2445 26.7295C34.1045 26.4855 34.0285 26.1955 34.0165 25.8595C34.0125 25.6875 34.0105 25.5035 34.0105 25.3075C34.0105 25.1075 34.0125 24.9195 34.0165 24.7435C34.0285 24.4115 34.1045 24.1275 34.2445 23.8915C34.3885 23.6555 34.5905 23.4735 34.8505 23.3455C35.1145 23.2175 35.4265 23.1535 35.7865 23.1535C36.0785 23.1535 36.3345 23.1935 36.5545 23.2735C36.7745 23.3495 36.9565 23.4495 37.1005 23.5735C37.2485 23.6935 37.3585 23.8235 37.4305 23.9635C37.5065 24.1035 37.5465 24.2335 37.5505 24.3535C37.5545 24.3895 37.5445 24.4195 37.5205 24.4435C37.4965 24.4675 37.4645 24.4795 37.4245 24.4795H36.8065C36.7665 24.4795 36.7365 24.4715 36.7165 24.4555C36.6965 24.4395 36.6785 24.4155 36.6625 24.3835C36.6305 24.2995 36.5805 24.2175 36.5125 24.1375C36.4445 24.0535 36.3525 23.9835 36.2365 23.9275C36.1205 23.8715 35.9705 23.8435 35.7865 23.8435C35.5145 23.8435 35.2965 23.9155 35.1325 24.0595C34.9725 24.2035 34.8865 24.4415 34.8745 24.7735C34.8625 25.1215 34.8625 25.4735 34.8745 25.8295C34.8865 26.1695 34.9745 26.4135 35.1385 26.5615C35.3065 26.7095 35.5265 26.7835 35.7985 26.7835C35.9785 26.7835 36.1385 26.7515 36.2785 26.6875C36.4225 26.6235 36.5345 26.5235 36.6145 26.3875C36.6985 26.2515 36.7405 26.0775 36.7405 25.8655V25.6795H36.0085C35.9685 25.6795 35.9345 25.6655 35.9065 25.6375C35.8785 25.6095 35.8645 25.5735 35.8645 25.5295V25.2115C35.8645 25.1675 35.8785 25.1315 35.9065 25.1035C35.9345 25.0755 35.9685 25.0615 36.0085 25.0615H37.4425C37.4865 25.0615 37.5205 25.0755 37.5445 25.1035C37.5725 25.1315 37.5865 25.1675 37.5865 25.2115V25.8415C37.5865 26.1775 37.5125 26.4675 37.3645 26.7115C37.2205 26.9555 37.0125 27.1435 36.7405 27.2755C36.4725 27.4075 36.1545 27.4735 35.7865 27.4735ZM38.4997 27.4135C38.4597 27.4135 38.4257 27.3995 38.3977 27.3715C38.3697 27.3435 38.3557 27.3095 38.3557 27.2695V23.3635C38.3557 23.3195 38.3697 23.2835 38.3977 23.2555C38.4257 23.2275 38.4597 23.2135 38.4997 23.2135H41.1397C41.1837 23.2135 41.2197 23.2275 41.2477 23.2555C41.2757 23.2835 41.2897 23.3195 41.2897 23.3635V23.7595C41.2897 23.7995 41.2757 23.8335 41.2477 23.8615C41.2197 23.8895 41.1837 23.9035 41.1397 23.9035H39.1657V24.9655H41.0077C41.0517 24.9655 41.0877 24.9795 41.1157 25.0075C41.1437 25.0315 41.1577 25.0655 41.1577 25.1095V25.4815C41.1577 25.5255 41.1437 25.5615 41.1157 25.5895C41.0877 25.6135 41.0517 25.6255 41.0077 25.6255H39.1657V26.7235H41.1877C41.2317 26.7235 41.2677 26.7375 41.2957 26.7655C41.3237 26.7935 41.3377 26.8295 41.3377 26.8735V27.2695C41.3377 27.3095 41.3237 27.3435 41.2957 27.3715C41.2677 27.3995 41.2317 27.4135 41.1877 27.4135H38.4997ZM42.2321 27.4135C42.1921 27.4135 42.1581 27.3995 42.1301 27.3715C42.1021 27.3435 42.0881 27.3095 42.0881 27.2695V23.3635C42.0881 23.3195 42.1021 23.2835 42.1301 23.2555C42.1581 23.2275 42.1921 23.2135 42.2321 23.2135H43.7861C44.2701 23.2135 44.6521 23.3255 44.9321 23.5495C45.2121 23.7735 45.3521 24.0995 45.3521 24.5275C45.3521 24.8235 45.2781 25.0695 45.1301 25.2655C44.9861 25.4615 44.7921 25.6035 44.5481 25.6915L45.4241 27.2215C45.4361 27.2455 45.4421 27.2675 45.4421 27.2875C45.4421 27.3235 45.4281 27.3535 45.4001 27.3775C45.3761 27.4015 45.3481 27.4135 45.3161 27.4135H44.7701C44.7021 27.4135 44.6501 27.3955 44.6141 27.3595C44.5781 27.3235 44.5501 27.2875 44.5301 27.2515L43.7561 25.8295H42.9221V27.2695C42.9221 27.3095 42.9081 27.3435 42.8801 27.3715C42.8561 27.3995 42.8221 27.4135 42.7781 27.4135H42.2321ZM42.9221 25.1515H43.7681C44.0121 25.1515 44.1941 25.0975 44.3141 24.9895C44.4341 24.8775 44.4941 24.7215 44.4941 24.5215C44.4941 24.3215 44.4341 24.1655 44.3141 24.0535C44.1981 23.9375 44.0161 23.8795 43.7681 23.8795H42.9221V25.1515Z" fill="#212B36"/>
</g>
<defs>
<filter id="filter0_d_630_81672" x="14.8108" y="23.1535" width="32.6313" height="8.32001" filterUnits="userSpaceOnUse" color-interpolation-filters="sRGB">
<feFlood flood-opacity="0" result="BackgroundImageFix"/>
<feColorMatrix in="SourceAlpha" type="matrix" values="0 0 0 0 0 0 0 0 0 0 0 0 0 0 0 0 0 0 127 0" result="hardAlpha"/>
<feOffset dy="2"/>
<feGaussianBlur stdDeviation="1"/>
<feComposite in2="hardAlpha" operator="out"/>
<feColorMatrix type="matrix" values="0 0 0 0 0 0 0 0 0 0 0 0 0 0 0 0 0 0 0.15 0"/>
<feBlend mode="normal" in2="BackgroundImageFix" result="effect1_dropShadow_630_81672"/>
<feBlend mode="normal" in="SourceGraphic" in2="effect1_dropShadow_630_81672" result="shape"/>
</filter>
<linearGradient id="paint0_linear_630_81672" x1="64.746" y1="33.437" x2="80.6609" y2="67.5189" gradientUnits="userSpaceOnUse">
<stop stop-color="#231F20"/>
<stop offset="1" stop-color="white"/>
</linearGradient>
<linearGradient id="paint1_linear_630_81672" x1="26.7819" y1="35.7496" x2="36.1471" y2="54.2638" gradientUnits="userSpaceOnUse">
<stop stop-color="white"/>
<stop offset="1" stop-color="#A1A1A1"/>
</linearGradient>
<linearGradient id="paint2_linear_630_81672" x1="-180.121" y1="230.097" x2="-156.347" y2="253.872" gradientUnits="userSpaceOnUse">
<stop stop-color="#B8B8B8"/>
<stop offset="0.164" stop-color="#E8E8E8"/>
<stop offset="0.291" stop-color="white"/>
<stop offset="0.552" stop-color="#ABABAB"/>
<stop offset="0.782" stop-color="#E8E8E8"/>
<stop offset="0.909" stop-color="#A2A2A2"/>
<stop offset="1" stop-color="#717171"/>
</linearGradient>
<linearGradient id="paint3_linear_630_81672" x1="-190.817" y1="234.577" x2="-167.042" y2="258.351" gradientUnits="userSpaceOnUse">
<stop stop-color="#B8B8B8"/>
<stop offset="0.164" stop-color="#E8E8E8"/>
<stop offset="0.291" stop-color="white"/>
<stop offset="0.552" stop-color="#ABABAB"/>
<stop offset="0.782" stop-color="#E8E8E8"/>
<stop offset="0.909" stop-color="#A2A2A2"/>
<stop offset="1" stop-color="#717171"/>
</linearGradient>
<linearGradient id="paint4_linear_630_81672" x1="-2.7508" y1="33.437" x2="-18.6657" y2="67.519" gradientUnits="userSpaceOnUse">
<stop stop-color="#231F20"/>
<stop offset="1" stop-color="white"/>
</linearGradient>
<linearGradient id="paint5_linear_630_81672" x1="35.2133" y1="35.7497" x2="25.8481" y2="54.2638" gradientUnits="userSpaceOnUse">
<stop stop-color="white"/>
<stop offset="1" stop-color="#A1A1A1"/>
</linearGradient>
<linearGradient id="paint6_linear_630_81672" x1="-206.975" y1="-144.057" x2="-183.201" y2="-167.832" gradientUnits="userSpaceOnUse">
<stop stop-color="#B8B8B8"/>
<stop offset="0.164" stop-color="#E8E8E8"/>
<stop offset="0.291" stop-color="white"/>
<stop offset="0.552" stop-color="#ABABAB"/>
<stop offset="0.782" stop-color="#E8E8E8"/>
<stop offset="0.909" stop-color="#A2A2A2"/>
<stop offset="1" stop-color="#717171"/>
</linearGradient>
<linearGradient id="paint7_linear_630_81672" x1="-196.271" y1="-139.57" x2="-172.497" y2="-163.344" gradientUnits="userSpaceOnUse">
<stop stop-color="#B8B8B8"/>
<stop offset="0.164" stop-color="#E8E8E8"/>
<stop offset="0.291" stop-color="white"/>
<stop offset="0.552" stop-color="#ABABAB"/>
<stop offset="0.782" stop-color="#E8E8E8"/>
<stop offset="0.909" stop-color="#A2A2A2"/>
<stop offset="1" stop-color="#717171"/>
</linearGradient>
<linearGradient id="paint8_linear_630_81672" x1="19.9591" y1="0.413528" x2="36.8124" y2="46.2989" gradientUnits="userSpaceOnUse">
<stop stop-color="white"/>
<stop offset="0.403279" stop-color="#D0D2D3"/>
<stop offset="0.463551" stop-color="#333333"/>
<stop offset="1"/>
</linearGradient>
<linearGradient id="paint9_linear_630_81672" x1="51.7775" y1="2.85762" x2="51.7775" y2="50.8511" gradientUnits="userSpaceOnUse">
<stop stop-color="#B8B8B8"/>
<stop offset="0.164" stop-color="#E8E8E8"/>
<stop offset="0.291" stop-color="white"/>
<stop offset="0.552" stop-color="#ABABAB"/>
<stop offset="0.782" stop-color="#E8E8E8"/>
<stop offset="0.909" stop-color="#A2A2A2"/>
<stop offset="1" stop-color="#717171"/>
</linearGradient>
<linearGradient id="paint10_linear_630_81672" x1="50.1851" y1="1.75482" x2="50.1851" y2="46.0708" gradientUnits="userSpaceOnUse">
<stop stop-color="#B8B8B8"/>
<stop offset="0.164" stop-color="#E8E8E8"/>
<stop offset="0.291" stop-color="white"/>
<stop offset="0.552" stop-color="#ABABAB"/>
<stop offset="0.782" stop-color="#E8E8E8"/>
<stop offset="0.909" stop-color="#A2A2A2"/>
<stop offset="1" stop-color="#717171"/>
</linearGradient>
</defs>
</svg>
