<svg width="70" height="89" viewBox="0 0 70 89" fill="none" xmlns="http://www.w3.org/2000/svg">
<path d="M44.5809 88.2534L51.9063 76.1576L65.6787 79.431L48.6328 38.7524L27.535 47.5947L44.5809 88.2534Z" fill="#F11616"/>
<path style="mix-blend-mode:soft-light" d="M44.5809 88.2534L51.9063 76.1576L65.6787 79.431L48.6328 38.7524L27.535 47.5947L44.5809 88.2534Z" fill="url(#paint0_linear_298_2065)"/>
<mask id="mask0_298_2065" style="mask-type:luminance" maskUnits="userSpaceOnUse" x="27" y="38" width="39" height="51">
<path d="M44.5869 88.2633L51.9102 76.1635L65.6707 79.427L48.6248 38.7523L27.543 47.5866L44.5869 88.2633Z" fill="white"/>
</mask>
<g mask="url(#mask0_298_2065)">
<g style="mix-blend-mode:multiply" opacity="0.4">
<path d="M29.0919 49.4708C29.2383 50.0829 29.3847 50.6884 29.531 51.2872C30.9482 51.0077 32.3454 50.7482 33.7426 50.2892C33.563 49.7303 33.543 49.0915 33.1837 48.5726C31.8264 48.8919 30.529 49.371 29.0919 49.4708ZM33.1837 48.5726C33.543 49.0915 33.563 49.7303 33.7426 50.2892C34.2217 50.1561 34.6941 50.023 35.1598 49.89C35.0799 49.2712 34.9003 48.7123 34.5809 48.2333C34.1285 48.353 33.6628 48.4661 33.1837 48.5726ZM34.5809 48.2333C34.9003 48.7123 35.0799 49.2712 35.1598 49.89C35.7985 49.7303 36.3973 49.5506 37.036 49.371C36.8165 48.8121 36.8564 48.0137 36.3973 47.7343C35.7985 47.9073 35.193 48.0736 34.5809 48.2333ZM36.3973 47.7343C36.8564 48.0137 36.8165 48.8121 37.036 49.371C37.4153 49.2712 37.7945 49.1115 38.1937 48.9918C37.9342 48.4927 38.1139 47.5147 37.5151 47.375C37.1425 47.4947 36.7699 47.6145 36.3973 47.7343ZM37.5151 47.375C38.1139 47.5147 37.9342 48.4927 38.1937 48.9918C38.6528 48.8121 39.0919 48.6325 39.551 48.4528C39.4113 47.854 39.3913 46.876 38.8324 46.9159C38.3933 47.0756 37.9542 47.2286 37.5151 47.375ZM38.8324 46.9159C39.3913 46.876 39.4113 47.854 39.551 48.4528C40.1298 48.2333 40.6887 47.9937 41.2476 47.7343C41.1478 47.0955 41.0081 46.1574 40.4692 46.2971C39.9236 46.51 39.378 46.7163 38.8324 46.9159ZM40.4692 46.2971C41.0081 46.1574 41.1478 47.0955 41.2476 47.7343C41.7067 47.5347 42.1857 47.3351 42.6648 47.1355C42.4851 46.3969 42.5051 45.4987 41.8464 45.7383C41.394 45.9246 40.9349 46.1108 40.4692 46.2971ZM41.8464 45.7383C42.5051 45.4987 42.4851 46.3969 42.6648 47.1355C43.1837 46.9359 43.6827 46.6564 44.2017 46.4169C44.062 45.9179 44.2017 44.7602 43.3434 45.0995C42.8511 45.3124 42.3521 45.5254 41.8464 45.7383ZM43.3434 45.0995C44.2017 44.7602 44.062 45.9179 44.2017 46.4169C44.4811 46.2971 44.7606 46.1574 45.0201 46.0177C44.8205 45.4588 44.9602 44.4608 44.1418 44.7403C43.8757 44.86 43.6096 44.9798 43.3434 45.0995ZM44.1418 44.7403C44.9602 44.4608 44.8205 45.4588 45.0201 46.0177C45.3594 45.858 45.6787 45.6983 45.9981 45.5387C45.7985 44.9798 45.9183 43.9618 45.0999 44.3211C44.7805 44.4675 44.4612 44.6072 44.1418 44.7403ZM45.0999 44.3211C45.9183 43.9618 45.7985 44.9798 45.9981 45.5387C46.4905 45.2858 46.9895 45.033 47.4951 44.7802C47.3887 44.3544 47.2822 43.9219 47.1758 43.4828C46.9163 43.5826 46.8165 43.5826 46.557 43.6624C46.0779 43.8886 45.5923 44.1082 45.0999 44.3211ZM46.557 43.6624C46.8165 43.5826 46.9163 43.5826 47.1758 43.4828C47.2822 43.9219 47.3887 44.3544 47.4951 44.7802C48.0141 44.5007 48.5463 44.2213 49.0919 43.9419C48.9855 43.5293 48.879 43.1168 48.7726 42.7043C48.5131 42.8041 48.3933 42.8241 48.1338 42.9438C47.6016 43.1834 47.076 43.4229 46.557 43.6624ZM48.1338 42.9438C48.3933 42.8241 48.5131 42.8041 48.7726 42.7043C48.879 43.1168 48.9855 43.5293 49.0919 43.9419C49.4113 43.7689 49.7373 43.5959 50.07 43.4229C49.9635 43.0104 49.8571 42.6045 49.7506 42.2053C49.4911 42.3251 49.3714 42.365 49.0919 42.4848C48.7726 42.6311 48.4532 42.7842 48.1338 42.9438ZM49.0919 42.4848C49.3714 42.365 49.4911 42.3251 49.7506 42.2053C49.8571 42.6045 49.9635 43.0104 50.07 43.4229C50.5889 43.1235 51.1278 42.844 51.6867 42.5646C51.5803 42.1787 51.4738 41.7928 51.3674 41.4069C51.1079 41.5466 50.9682 41.5866 50.6887 41.7263C50.1565 41.9791 49.6242 42.2319 49.0919 42.4848ZM50.6887 41.7263C50.9682 41.5866 51.1079 41.5466 51.3674 41.4069C51.4738 41.7928 51.5803 42.1787 51.6867 42.5646C51.9462 42.4249 52.2257 42.2852 52.4851 42.1454C52.3787 41.7729 52.2789 41.4003 52.1857 41.0277C51.9063 41.1474 51.7666 41.2073 51.4871 41.347C51.221 41.4668 50.9549 41.5932 50.6887 41.7263ZM29.531 51.2872C29.9169 52.7775 30.3361 54.2413 30.7885 55.6784C31.9861 59.2512 33.4831 62.6844 35.04 66.0776C35.4259 66.9292 35.8118 67.7808 36.1977 68.6325C37.2955 71.2073 38.4732 73.8221 39.531 76.4169C41.028 75.858 40.7486 75.9778 42.2057 75.3989C40.9881 71.886 39.551 68.4728 38.3135 64.9598C37.9941 64.0949 37.6748 63.2366 37.3554 62.385C36.4173 59.7902 35.559 57.1953 34.8404 54.5806C34.4412 53.1701 34.0753 51.7396 33.7426 50.2892C32.3454 50.7482 30.9482 51.0077 29.531 51.2872ZM33.7426 50.2892C34.0753 51.7396 34.4412 53.1701 34.8404 54.5806C35.559 57.1953 36.4173 59.7902 37.3554 62.385C37.6748 63.2366 37.9941 64.0949 38.3135 64.9598C39.551 68.4728 40.9881 71.886 42.2057 75.3989C42.7047 75.1993 43.0241 75.0397 43.3235 74.9199C41.9662 71.4668 40.7486 68.0337 39.5111 64.5207C39.205 63.6558 38.9056 62.7908 38.6129 61.9259C37.7546 59.351 36.9362 56.7562 36.2177 54.1415C35.8451 52.7309 35.4925 51.3138 35.1598 49.89C34.6941 50.023 34.2217 50.1561 33.7426 50.2892ZM35.1598 49.89C35.4925 51.3138 35.8451 52.7309 36.2177 54.1415C36.9362 56.7562 37.7546 59.351 38.6129 61.9259C38.9056 62.7908 39.205 63.6558 39.5111 64.5207C40.7486 68.0337 41.9662 71.4668 43.3235 74.9199C43.7027 74.7203 44.042 74.5606 44.6608 74.3011C43.1239 70.2293 41.8863 66.0576 40.569 61.9259C40.2762 60.9944 39.9835 60.0629 39.6907 59.1315C39.1185 57.2552 38.5863 55.3923 38.0939 53.5427C37.9076 52.8507 37.728 52.1587 37.555 51.4668C37.3687 50.7748 37.1957 50.0762 37.036 49.371C36.3973 49.5506 35.7985 49.7303 35.1598 49.89ZM37.036 49.371C37.1957 50.0762 37.3687 50.7748 37.555 51.4668C37.728 52.1587 37.9076 52.8507 38.0939 53.5427C38.5863 55.3923 39.1185 57.2552 39.6907 59.1315C39.9835 60.0629 40.2762 60.9944 40.569 61.9259C41.8863 66.0576 43.1239 70.2293 44.6608 74.3011C45.06 74.1415 45.6388 73.9019 46.2775 73.6424C44.8005 69.2912 43.3035 65.0596 41.7466 60.7682C41.4406 59.9299 41.1412 59.0849 40.8484 58.2333C40.569 57.3816 40.2962 56.53 40.03 55.6784C39.6109 54.1814 39.052 52.6644 38.6927 51.0676C38.5197 50.3756 38.3534 49.6837 38.1937 48.9918C37.7945 49.1115 37.4153 49.2712 37.036 49.371ZM38.1937 48.9918C38.3534 49.6837 38.5197 50.3756 38.6927 51.0676C39.052 52.6644 39.6109 54.1814 40.03 55.6784C40.2962 56.53 40.569 57.3816 40.8484 58.2333C41.1412 59.0849 41.4406 59.9299 41.7466 60.7682C43.3035 65.0596 44.8005 69.2912 46.2775 73.6424C47.056 73.3231 47.9143 72.9438 48.7127 72.6045C47.0959 68.353 45.3793 64.2213 43.543 60.0896C43.1837 59.2645 42.8378 58.4395 42.5051 57.6145C41.5869 55.2792 40.7686 52.9438 40.0899 50.5486C39.8903 49.8567 39.7107 49.1581 39.551 48.4528C39.0919 48.6325 38.6528 48.8121 38.1937 48.9918ZM39.551 48.4528C39.7107 49.1581 39.8903 49.8567 40.0899 50.5486C40.7686 52.9438 41.5869 55.2792 42.5051 57.6145C42.8378 58.4395 43.1837 59.2645 43.543 60.0896C45.3793 64.2213 47.0959 68.353 48.7127 72.6045C49.7306 72.1854 50.6688 71.7862 51.2077 71.5466C49.5111 67.355 47.6748 63.2832 45.8185 59.1914C44.3215 56.0776 42.9841 52.9838 41.8863 49.7902C41.6601 49.1248 41.4472 48.4395 41.2476 47.7343C40.6887 47.9937 40.1298 48.2333 39.551 48.4528ZM41.2476 47.7343C41.4472 48.4395 41.6601 49.1248 41.8863 49.7902C42.9841 52.9838 44.3215 56.0776 45.8185 59.1914C47.6748 63.2832 49.5111 67.355 51.2077 71.5466C51.6601 71.347 52.1059 71.1474 52.545 70.9478C50.9482 66.8361 48.9522 63.0037 47.1957 58.9918C45.6987 55.8181 44.3614 52.5846 43.2436 49.2113C43.0307 48.5327 42.8378 47.8407 42.6648 47.1355C42.1857 47.3351 41.7067 47.5347 41.2476 47.7343ZM42.6648 47.1355C42.8378 47.8407 43.0307 48.5327 43.2436 49.2113C44.3614 52.5846 45.6987 55.8181 47.1957 58.9918C48.9522 63.0037 50.9482 66.8361 52.545 70.9478C53.0374 70.7349 53.5231 70.522 54.0021 70.3091C52.5849 66.9558 51.068 63.6624 49.6508 60.369C47.9742 56.3969 45.9781 52.5646 44.7805 48.4728C44.5676 47.7941 44.3747 47.1089 44.2017 46.4169C43.6827 46.6564 43.1837 46.9359 42.6648 47.1355ZM44.2017 46.4169C44.3747 47.1089 44.5676 47.7941 44.7805 48.4728C45.9781 52.5646 47.9742 56.3969 49.6508 60.369C51.068 63.6624 52.5849 66.9558 54.0021 70.3091C54.2549 70.2027 54.5078 70.0962 54.7606 69.9898C53.2835 66.6764 51.8863 63.3231 50.4093 60.0297C48.7526 56.0776 46.9362 52.2053 45.6189 48.0736C45.406 47.3949 45.2064 46.7096 45.0201 46.0177C44.7606 46.1574 44.4811 46.2971 44.2017 46.4169ZM45.0201 46.0177C45.2064 46.7096 45.406 47.3949 45.6189 48.0736C46.9362 52.2053 48.7526 56.0776 50.4093 60.0297C51.8863 63.3231 53.2835 66.6764 54.7606 69.9898C55.0666 69.8567 55.366 69.7236 55.6588 69.5906C54.2815 66.2373 52.8843 62.884 51.3674 59.5706C49.5909 55.6385 47.9342 51.6464 46.5969 47.5546C46.384 46.8893 46.1844 46.2173 45.9981 45.5387C45.6787 45.6983 45.3594 45.858 45.0201 46.0177ZM45.9981 45.5387C46.1844 46.2173 46.384 46.8893 46.5969 47.5546C47.9342 51.6464 49.5909 55.6385 51.3674 59.5706C52.8843 62.884 54.2815 66.2373 55.6588 69.5906C56.1245 69.3776 56.5903 69.1714 57.056 68.9718C55.9781 66.4768 54.9203 63.9618 53.8424 61.4468C51.7466 56.6564 49.551 51.9059 48.074 46.8361C47.861 46.1441 47.6681 45.4588 47.4951 44.7802C46.9895 45.033 46.4905 45.2858 45.9981 45.5387ZM47.4951 44.7802C47.6681 45.4588 47.861 46.1441 48.074 46.8361C49.551 51.9059 51.7466 56.6564 53.8424 61.4468C54.9203 63.9618 55.9781 66.4768 57.056 68.9718C57.5483 68.7589 58.0407 68.5393 58.533 68.3131C57.4752 65.7981 56.3973 63.2832 55.3195 60.7882C53.2436 55.9778 51.2077 51.0676 49.6907 46.0177C49.4778 45.3257 49.2782 44.6338 49.0919 43.9419C48.5463 44.2213 48.0141 44.5007 47.4951 44.7802ZM49.0919 43.9419C49.2782 44.6338 49.4778 45.3257 49.6907 46.0177C51.2077 51.0676 53.2436 55.9778 55.3195 60.7882C56.3973 63.2832 57.4752 65.7981 58.533 68.3131C58.8391 68.18 59.1451 68.047 59.4512 67.9139C58.2137 65.4189 57.2756 62.844 56.1578 60.3291C54.1219 55.4588 52.2855 50.5287 50.6688 45.4588C50.4559 44.7802 50.2563 44.1015 50.07 43.4229C49.7373 43.5959 49.4113 43.7689 49.0919 43.9419ZM50.07 43.4229C50.2563 44.1015 50.4559 44.7802 50.6688 45.4588C52.2855 50.5287 54.1219 55.4588 56.1578 60.3291C57.2756 62.844 58.2137 65.4189 59.4512 67.9139C59.9435 67.701 60.4426 67.4814 60.9482 67.2552C60.1698 65.6385 59.5111 63.882 58.7526 62.2253C58.4066 61.3737 58.0673 60.522 57.7346 59.6704C55.8584 54.6604 53.8624 49.7103 52.2855 44.6604C52.0859 43.9685 51.8863 43.2699 51.6867 42.5646C51.1278 42.844 50.5889 43.1235 50.07 43.4229ZM51.6867 42.5646C51.8863 43.2699 52.0859 43.9685 52.2855 44.6604C53.8624 49.7103 55.8584 54.6604 57.7346 59.6704C58.0673 60.522 58.4066 61.3737 58.7526 62.2253C59.5111 63.882 60.1698 65.6385 60.9482 67.2552C61.1877 67.1488 61.4339 67.0423 61.6867 66.9359C61.028 65.2193 60.2097 63.6025 59.5909 61.866C59.2449 61.0144 58.899 60.1627 58.553 59.3111C56.6169 54.3411 54.6009 49.351 53.0839 44.2413C52.8843 43.5493 52.6847 42.8507 52.4851 42.1454C52.2257 42.2852 51.9462 42.4249 51.6867 42.5646ZM39.531 76.4169C39.8504 77.1887 40.1631 77.9538 40.4692 78.7123C42.2057 83.363 44.1219 87.894 46.1977 92.365C46.4905 92.9904 46.7832 93.6092 47.076 94.2213C47.382 94.8334 47.6947 95.4455 48.0141 96.0576C49.2316 98.4928 50.5091 100.888 51.8863 103.203C52.9243 102.405 54.0819 101.746 55.1199 101.028C53.1239 98.9917 51.6468 96.4768 50.1698 94.0017C49.6641 93.1501 49.1851 92.2852 48.7326 91.4069C46.4372 87.0357 44.7406 82.345 43.0839 77.6345C42.7912 76.8893 42.4984 76.1441 42.2057 75.3989C40.7486 75.9778 41.028 75.858 39.531 76.4169ZM42.2057 75.3989C42.4984 76.1441 42.7912 76.8893 43.0839 77.6345C44.7406 82.345 46.4372 87.0357 48.7326 91.4069C49.1851 92.2852 49.6641 93.1501 50.1698 94.0017C51.6468 96.4768 53.1239 98.9917 55.1199 101.028C55.4791 100.801 55.8384 100.575 56.1977 100.349C54.4811 98.0137 53.0041 95.4987 51.6269 92.9438C51.1212 92.1055 50.6355 91.2606 50.1698 90.4089C47.8544 86.1375 46.0979 81.6065 44.2217 77.1355C43.9156 76.4036 43.6162 75.6651 43.3235 74.9199C43.0241 75.0397 42.7047 75.1993 42.2057 75.3989ZM43.3235 74.9199C43.6162 75.6651 43.9156 76.4036 44.2217 77.1355C46.0979 81.6065 47.8544 86.1375 50.1698 90.4089C50.6355 91.2606 51.1212 92.1055 51.6269 92.9438C53.0041 95.4987 54.4811 98.0137 56.1977 100.349C56.6901 100.043 57.1824 99.7436 57.6748 99.4508C57.3288 98.7855 56.9895 98.1202 56.6568 97.4548C56.3241 96.8028 55.9915 96.1441 55.6588 95.4788C55.0201 94.1614 54.3614 92.844 53.6827 91.5267C53.2037 90.7083 52.7446 89.87 52.2656 89.0516C49.9103 84.9398 47.6748 80.7682 45.5989 76.4967C45.2795 75.7782 44.9668 75.0463 44.6608 74.3011C44.042 74.5606 43.7027 74.7203 43.3235 74.9199ZM44.6608 74.3011C44.9668 75.0463 45.2795 75.7782 45.5989 76.4967C47.6748 80.7682 49.9103 84.9398 52.2656 89.0516C52.7446 89.87 53.2037 90.7083 53.6827 91.5267C54.3614 92.844 55.0201 94.1614 55.6588 95.4788C55.9915 96.1441 56.3241 96.8028 56.6568 97.4548C56.9895 98.1202 57.3288 98.7855 57.6748 99.4508C57.9808 99.2645 58.2935 99.0849 58.6129 98.9119C58.1937 98.0935 57.7945 97.2752 57.4153 96.4568C57.0294 95.6318 56.6435 94.8134 56.2576 94.0017C55.4991 92.3451 54.7207 90.7083 53.8624 89.1315C53.4632 88.4129 53.0706 87.6877 52.6847 86.9558C50.7286 83.3031 48.8524 79.6105 47.1957 75.8181C46.8897 75.0862 46.5836 74.361 46.2775 73.6424C45.6388 73.9019 45.06 74.1415 44.6608 74.3011ZM46.2775 73.6424C46.5836 74.361 46.8897 75.0862 47.1957 75.8181C48.8524 79.6105 50.7286 83.3031 52.6847 86.9558C53.0706 87.6877 53.4632 88.4129 53.8624 89.1315C54.7207 90.7083 55.4991 92.3451 56.2576 94.0017C56.6435 94.8134 57.0294 95.6318 57.4153 96.4568C57.7945 97.2752 58.1937 98.0935 58.6129 98.9119C58.9855 98.7123 59.3647 98.5127 59.7506 98.3131C58.7925 96.3969 57.9941 94.4009 57.1558 92.4448C56.8764 91.7928 56.6036 91.1341 56.3374 90.4688C55.7985 89.1514 55.2396 87.8341 54.6608 86.5367C54.2217 85.5653 53.7892 84.5939 53.3634 83.6225C52.0859 80.6884 50.8484 77.7343 49.5909 74.8001C49.2982 74.0683 49.0054 73.3364 48.7127 72.6045C47.9143 72.9438 47.056 73.3231 46.2775 73.6424ZM48.7127 72.6045C49.0054 73.3364 49.2982 74.0683 49.5909 74.8001C50.8484 77.7343 52.0859 80.6884 53.3634 83.6225C53.7892 84.5939 54.2217 85.5653 54.6608 86.5367C55.2396 87.8341 55.7985 89.1514 56.3374 90.4688C56.6036 91.1341 56.8764 91.7928 57.1558 92.4448C57.9941 94.4009 58.7925 96.3969 59.7506 98.3131C60.2296 98.0603 60.722 97.8141 61.2276 97.5746C60.0101 94.9997 59.2716 92.2452 58.1738 89.5906C57.9209 88.9252 57.6681 88.2599 57.4153 87.5945C57.1624 86.9425 56.8963 86.2838 56.6169 85.6185C56.231 84.6338 55.8451 83.6491 55.4592 82.6644C54.3215 79.6904 53.2037 76.6963 52.066 73.7422C51.7865 73.0104 51.5004 72.2785 51.2077 71.5466C50.6688 71.7862 49.7306 72.1854 48.7127 72.6045ZM51.2077 71.5466C51.5004 72.2785 51.7865 73.0104 52.066 73.7422C53.2037 76.6963 54.3215 79.6904 55.4592 82.6644C55.8451 83.6491 56.231 84.6338 56.6169 85.6185C56.8963 86.2838 57.1624 86.9425 57.4153 87.5945C57.6681 88.2599 57.9209 88.9252 58.1738 89.5906C59.2716 92.2452 60.0101 94.9997 61.2276 97.5746C61.6535 97.375 62.0859 97.1754 62.5251 96.9758C61.3274 94.5407 60.6288 91.846 59.6508 89.3111C59.3514 88.4728 59.032 87.6345 58.6927 86.7961C58.3334 85.8913 57.9742 84.9798 57.6149 84.0616C56.2177 80.389 54.9003 76.7163 53.4233 73.1434C53.1305 72.4116 52.8378 71.6797 52.545 70.9478C52.1059 71.1474 51.6601 71.347 51.2077 71.5466ZM52.545 70.9478C52.8378 71.6797 53.1305 72.4116 53.4233 73.1434C54.9003 76.7163 56.2177 80.389 57.6149 84.0616C57.9742 84.9798 58.3334 85.8913 58.6927 86.7961C59.032 87.6345 59.3514 88.4728 59.6508 89.3111C60.6288 91.846 61.3274 94.5407 62.5251 96.9758C62.9908 96.7496 63.4765 96.53 63.9821 96.3171C62.5849 93.7622 61.8664 90.9279 60.8684 88.1933C60.569 87.2752 60.2296 86.377 59.8903 85.4788C59.5577 84.6138 59.225 83.7489 58.8923 82.884C57.575 79.4309 56.2775 75.9578 54.8803 72.5047C54.5876 71.7729 54.2948 71.041 54.0021 70.3091C53.5231 70.522 53.0374 70.7349 52.545 70.9478ZM54.0021 70.3091C54.2948 71.041 54.5876 71.7729 54.8803 72.5047C56.2775 75.9578 57.575 79.4309 58.8923 82.884C59.225 83.7489 59.5577 84.6138 59.8903 85.4788C60.2296 86.377 60.569 87.2752 60.8684 88.1933C61.8664 90.9279 62.5849 93.7622 63.9821 96.3171C64.2483 96.1973 64.5144 96.0776 64.7805 95.9578C63.6029 93.2433 62.8843 90.4089 61.8065 87.6544C61.4472 86.7961 61.0879 85.9379 60.7286 85.0796C58.9522 80.7882 57.3754 76.4568 55.6388 72.1654C55.3461 71.4335 55.0533 70.7083 54.7606 69.9898C54.5078 70.0962 54.2549 70.2027 54.0021 70.3091ZM54.7606 69.9898C55.0533 70.7083 55.3461 71.4335 55.6388 72.1654C57.3754 76.4568 58.9522 80.7882 60.7286 85.0796C61.0879 85.9379 61.4472 86.7961 61.8065 87.6544C62.8843 90.4089 63.6029 93.2433 64.7805 95.9578C65.1132 95.8248 65.4392 95.685 65.7586 95.5387C64.3015 92.2253 63.2835 88.7722 61.9462 85.4389C61.5736 84.534 61.2077 83.6225 60.8484 82.7043C59.4113 79.0516 58.054 75.379 56.557 71.7662C56.2642 71.0343 55.9648 70.3091 55.6588 69.5906C55.366 69.7236 55.0666 69.8567 54.7606 69.9898ZM55.6588 69.5906C55.9648 70.3091 56.2642 71.0343 56.557 71.7662C58.054 75.379 59.4113 79.0516 60.8484 82.7043C61.2077 83.6225 61.5736 84.534 61.9462 85.4389C63.2835 88.7722 64.3015 92.2253 65.7586 95.5387C66.2775 95.3257 66.7965 95.1062 67.3155 94.88C65.8983 91.7263 64.9203 88.373 63.5829 85.1594C63.2503 84.3876 62.9243 83.6092 62.6049 82.8241C61.0081 78.9319 59.5111 75.0397 57.9542 71.1474C57.6614 70.4289 57.362 69.7037 57.056 68.9718C56.5903 69.1714 56.1245 69.3776 55.6588 69.5906ZM57.056 68.9718C57.362 69.7037 57.6614 70.4289 57.9542 71.1474C59.5111 75.0397 61.0081 78.9319 62.6049 82.8241C62.9243 83.6092 63.2503 84.3876 63.5829 85.1594C64.9203 88.373 65.8983 91.7263 67.3155 94.88C67.8744 94.6538 68.4399 94.4209 69.0121 94.1814C67.7147 90.9478 66.5171 87.7143 65.1598 84.5207C64.8271 83.7356 64.5011 82.9572 64.1817 82.1854C62.565 78.2932 61.1278 74.361 59.4512 70.4888C59.1451 69.7702 58.8391 69.045 58.533 68.3131C58.0407 68.5393 57.5483 68.7589 57.056 68.9718ZM58.533 68.3131C58.8391 69.045 59.1451 69.7702 59.4512 70.4888C61.1278 74.361 62.565 78.2932 64.1817 82.1854C64.5011 82.9572 64.8271 83.7356 65.1598 84.5207C66.5171 87.7143 67.7147 90.9478 69.0121 94.1814C69.3714 94.035 69.7306 93.8886 70.0899 93.7422C68.4732 90.6285 67.5151 87.2752 66.0779 84.1415C65.7453 83.3697 65.4126 82.5979 65.0799 81.8261C63.4432 77.9538 61.9662 74.0017 60.3494 70.0896C60.0567 69.371 59.7573 68.6458 59.4512 67.9139C59.1451 68.047 58.8391 68.18 58.533 68.3131ZM59.4512 67.9139C59.7573 68.6458 60.0567 69.371 60.3494 70.0896C61.9662 74.0017 63.4432 77.9538 65.0799 81.8261C65.4126 82.5979 65.7453 83.3697 66.0779 84.1415C67.5151 87.2752 68.4732 90.6285 70.0899 93.7422C70.6754 93.5027 71.2609 93.2632 71.8464 93.0237C70.3694 89.4508 68.8923 85.7782 67.2756 82.2452C66.73 81.0743 66.2044 79.8966 65.6987 78.7123C64.3414 75.6185 63.1438 72.5446 61.8664 69.4508C61.5603 68.719 61.2543 67.9871 60.9482 67.2552C60.4426 67.4814 59.9435 67.701 59.4512 67.9139ZM60.9482 67.2552C61.2543 67.9871 61.5603 68.719 61.8664 69.4508C63.1438 72.5446 64.3414 75.6185 65.6987 78.7123C66.2044 79.8966 66.73 81.0743 67.2756 82.2452C68.8923 85.7782 70.3694 89.4508 71.8464 93.0237C72.1392 92.9039 72.4319 92.7842 72.7247 92.6644C71.0879 89.1714 69.6508 85.4788 68.034 81.9458C67.5151 80.7615 67.0028 79.5773 66.4971 78.393C65.1598 75.2792 63.9223 72.2253 62.6049 69.1315C62.2988 68.3996 61.9928 67.6677 61.6867 66.9359C61.4339 67.0423 61.1877 67.1488 60.9482 67.2552Z" fill="url(#paint1_linear_298_2065)" fill-opacity="0.5"/>
</g>
</g>
<path d="M60.2895 78.1535L44.5011 40.4889L46.6568 39.5707L63.0839 78.8122L60.2895 78.1535Z" fill="url(#paint2_linear_298_2065)"/>
<path d="M45.9582 85.9978L29.5111 46.7563L31.6668 45.8581L47.4552 83.5228L45.9582 85.9978Z" fill="url(#paint3_linear_298_2065)"/>
<path d="M25.3993 88.2535L18.0939 76.1577L4.32141 79.4311L21.3673 38.7525L42.4452 47.5948L25.3993 88.2535Z" fill="#F11616"/>
<path style="mix-blend-mode:soft-light" d="M25.3993 88.2535L18.0939 76.1577L4.32141 79.4311L21.3673 38.7525L42.4452 47.5948L25.3993 88.2535Z" fill="url(#paint4_linear_298_2065)"/>
<mask id="mask1_298_2065" style="mask-type:luminance" maskUnits="userSpaceOnUse" x="4" y="38" width="39" height="51">
<path d="M25.4052 88.2634L18.0838 76.1636L4.32336 79.427L21.3693 38.7524L42.4511 47.5867L25.4052 88.2634Z" fill="white"/>
</mask>
<g mask="url(#mask1_298_2065)">
<g style="mix-blend-mode:multiply" opacity="0.4">
<path d="M40.9082 49.4709C40.7618 50.083 40.6154 50.6884 40.4691 51.2872C39.0519 51.0078 37.6547 50.7483 36.2575 50.2892C36.4371 49.7303 36.4371 49.0916 36.7964 48.5726C38.1737 48.892 39.4711 49.3711 40.9082 49.4709ZM36.7964 48.5726C36.4371 49.0916 36.4371 49.7303 36.2575 50.2892C35.7784 50.1561 35.2994 50.0231 34.8204 49.89C34.9202 49.2713 35.0998 48.7124 35.4192 48.2333C35.8716 48.3531 36.3307 48.4662 36.7964 48.5726ZM35.4192 48.2333C35.0998 48.7124 34.9202 49.2713 34.8204 49.89C34.2016 49.7303 33.5828 49.5507 32.9641 49.3711C33.1836 48.8122 33.1238 48.0138 33.6028 47.7343C34.2016 47.9073 34.8071 48.0736 35.4192 48.2333ZM33.6028 47.7343C33.1238 48.0138 33.1836 48.8122 32.9641 49.3711C32.5848 49.2713 32.1856 49.1116 31.8064 48.9918C32.0659 48.4928 31.8862 47.5148 32.485 47.375C32.8576 47.4948 33.2302 47.6146 33.6028 47.7343ZM32.485 47.375C31.8862 47.5148 32.0659 48.4928 31.8064 48.9918C31.3473 48.8122 30.8882 48.6325 30.4291 48.4529C30.5888 47.8541 30.6088 46.876 31.1677 46.916C31.6068 47.0756 32.0459 47.2287 32.485 47.375ZM31.1677 46.916C30.6088 46.876 30.5888 47.8541 30.4291 48.4529C29.8703 48.2333 29.3114 47.9938 28.7525 47.7343C28.8523 47.0956 28.992 46.1575 29.511 46.2972C30.0699 46.5101 30.6221 46.7164 31.1677 46.916ZM29.511 46.2972C28.992 46.1575 28.8523 47.0956 28.7525 47.7343C28.2735 47.5347 27.8144 47.3351 27.3353 47.1355C27.495 46.397 27.495 45.4988 28.1337 45.7383C28.5995 45.9246 29.0585 46.1109 29.511 46.2972ZM28.1337 45.7383C27.495 45.4988 27.495 46.397 27.3353 47.1355C26.8164 46.9359 26.2974 46.6565 25.7784 46.417C25.9381 45.918 25.7984 44.7603 26.6367 45.0996C27.1424 45.3125 27.6414 45.5254 28.1337 45.7383ZM26.6367 45.0996C25.7984 44.7603 25.9381 45.918 25.7784 46.417C25.519 46.2972 25.2395 46.1575 24.9601 46.0178C25.1597 45.4589 25.0399 44.4609 25.8383 44.7403C26.1045 44.8601 26.3706 44.9798 26.6367 45.0996ZM25.8383 44.7403C25.0399 44.4609 25.1597 45.4589 24.9601 46.0178C24.6407 45.8581 24.3214 45.6984 24.002 45.5387C24.2016 44.9798 24.0619 43.9619 24.8802 44.3212C25.1996 44.4675 25.519 44.6072 25.8383 44.7403ZM24.8802 44.3212C24.0619 43.9619 24.2016 44.9798 24.002 45.5387C23.4963 45.2859 22.9973 45.0331 22.505 44.7802C22.6114 44.3544 22.7179 43.9219 22.8244 43.4828C23.0639 43.5826 23.1836 43.5826 23.4431 43.6625C23.9222 43.8887 24.4012 44.1082 24.8802 44.3212ZM23.4431 43.6625C23.1836 43.5826 23.0639 43.5826 22.8244 43.4828C22.7179 43.9219 22.6114 44.3544 22.505 44.7802C21.9727 44.5008 21.4405 44.2214 20.9082 43.9419C21.0146 43.5294 21.1211 43.1169 21.2275 42.7044C21.487 42.8042 21.6068 42.8241 21.8663 42.9439C22.3985 43.1834 22.9242 43.423 23.4431 43.6625ZM21.8663 42.9439C21.6068 42.8241 21.487 42.8042 21.2275 42.7044C21.1211 43.1169 21.0146 43.5294 20.9082 43.9419C20.5888 43.7689 20.2628 43.5959 19.9301 43.423C20.0366 43.0104 20.143 42.6046 20.2495 42.2054C20.509 42.3251 20.6287 42.3651 20.9082 42.4848C21.2275 42.6312 21.5469 42.7842 21.8663 42.9439ZM20.9082 42.4848C20.6287 42.3651 20.509 42.3251 20.2495 42.2054C20.143 42.6046 20.0366 43.0104 19.9301 43.423C19.3912 43.1235 18.8523 42.8441 18.3134 42.5647C18.4198 42.1788 18.5196 41.7929 18.6128 41.407C18.8922 41.5467 19.0319 41.5866 19.3114 41.7263C19.8436 41.9792 20.3759 42.232 20.9082 42.4848ZM19.3114 41.7263C19.0319 41.5866 18.8922 41.5467 18.6128 41.407C18.5196 41.7929 18.4198 42.1788 18.3134 42.5647C18.0539 42.4249 17.7745 42.2852 17.515 42.1455C17.6214 41.7729 17.7212 41.4003 17.8144 41.0277C18.0938 41.1475 18.2335 41.2074 18.513 41.3471C18.7791 41.4669 19.0452 41.5933 19.3114 41.7263ZM40.4691 51.2872C40.0832 52.7776 39.664 54.2413 39.2116 55.6784C37.994 59.2513 36.497 62.6844 34.9601 66.0776C34.5742 66.9293 34.1883 67.7809 33.8024 68.6325C32.6846 71.2074 31.5269 73.8222 30.4491 76.417C28.9521 75.8581 29.2515 75.9778 27.7944 75.399C29.012 71.886 30.4491 68.4728 31.6667 64.9599C31.9993 64.0949 32.3187 63.2367 32.6248 62.385C33.5629 59.7902 34.4411 57.1954 35.1597 54.5806C35.5589 53.1701 35.9248 51.7396 36.2575 50.2892C37.6547 50.7483 39.0519 51.0078 40.4691 51.2872ZM36.2575 50.2892C35.9248 51.7396 35.5589 53.1701 35.1597 54.5806C34.4411 57.1954 33.5629 59.7902 32.6248 62.385C32.3187 63.2367 31.9993 64.0949 31.6667 64.9599C30.4491 68.4728 29.012 71.886 27.7944 75.399C27.2754 75.1994 26.9761 75.0397 26.6767 74.92C28.014 71.4669 29.2515 68.0337 30.489 64.5208C30.7951 63.6558 31.0878 62.7909 31.3673 61.9259C32.2455 59.3511 33.0439 56.7563 33.7625 54.1415C34.1484 52.731 34.501 51.3138 34.8204 49.89C35.2994 50.0231 35.7784 50.1561 36.2575 50.2892ZM34.8204 49.89C34.501 51.3138 34.1484 52.731 33.7625 54.1415C33.0439 56.7563 32.2455 59.3511 31.3673 61.9259C31.0878 62.7909 30.7951 63.6558 30.489 64.5208C29.2515 68.0337 28.014 71.4669 26.6767 74.92C26.2974 74.7204 25.9581 74.5607 25.3194 74.3012C26.8563 70.2293 28.0938 66.0577 29.4112 61.9259C29.7172 60.9945 30.01 60.063 30.2894 59.1315C30.8616 57.2553 31.4005 55.3923 31.9062 53.5427C32.0925 52.8508 32.2721 52.1588 32.4451 51.4669C32.6181 50.7749 32.7911 50.0763 32.9641 49.3711C33.5828 49.5507 34.2016 49.7303 34.8204 49.89ZM32.9641 49.3711C32.7911 50.0763 32.6181 50.7749 32.4451 51.4669C32.2721 52.1588 32.0925 52.8508 31.9062 53.5427C31.4005 55.3923 30.8616 57.2553 30.2894 59.1315C30.01 60.063 29.7172 60.9945 29.4112 61.9259C28.0938 66.0577 26.8563 70.2293 25.3194 74.3012C24.9401 74.1415 24.3613 73.902 23.7026 73.6425C25.1996 69.2912 26.6766 65.0597 28.2535 60.7683C28.5596 59.9299 28.8523 59.085 29.1317 58.2333C29.4245 57.3817 29.7039 56.5301 29.9701 55.6784C30.3892 54.1814 30.9281 52.6645 31.2874 51.0677C31.4737 50.3757 31.6467 49.6838 31.8064 48.9918C32.1856 49.1116 32.5848 49.2713 32.9641 49.3711ZM31.8064 48.9918C31.6467 49.6838 31.4737 50.3757 31.2874 51.0677C30.9281 52.6645 30.3892 54.1814 29.9701 55.6784C29.7039 56.5301 29.4245 57.3817 29.1317 58.2333C28.8523 59.085 28.5596 59.9299 28.2535 60.7683C26.6766 65.0597 25.1996 69.2912 23.7026 73.6425C22.9441 73.3232 22.0858 72.9439 21.2675 72.6046C22.9042 68.3531 24.6208 64.2214 26.4571 60.0896C26.8164 59.2646 27.1623 58.4396 27.495 57.6146C28.4132 55.2792 29.2315 52.9439 29.9102 50.5487C30.0965 49.8568 30.2695 49.1581 30.4291 48.4529C30.8882 48.6325 31.3473 48.8122 31.8064 48.9918ZM30.4291 48.4529C30.2695 49.1581 30.0965 49.8568 29.9102 50.5487C29.2315 52.9439 28.4132 55.2792 27.495 57.6146C27.1623 58.4396 26.8164 59.2646 26.4571 60.0896C24.6208 64.2214 22.9042 68.3531 21.2675 72.6046C20.2695 72.1854 19.3313 71.7862 18.7924 71.5467C20.489 67.3551 22.3253 63.2832 24.1816 59.1914C25.6587 56.0776 26.996 52.9838 28.1138 49.7902C28.34 49.1249 28.5529 48.4396 28.7525 47.7343C29.3114 47.9938 29.8703 48.2333 30.4291 48.4529ZM28.7525 47.7343C28.5529 48.4396 28.34 49.1249 28.1138 49.7902C26.996 52.9838 25.6587 56.0776 24.1816 59.1914C22.3253 63.2832 20.489 67.3551 18.7924 71.5467C18.34 71.3471 17.8876 71.1475 17.4351 70.9479C19.0319 66.8361 21.0279 63.0038 22.7844 58.9918C24.3014 55.8182 25.6387 52.5846 26.7365 49.2114C26.9494 48.5327 27.149 47.8408 27.3353 47.1355C27.8144 47.3351 28.2735 47.5347 28.7525 47.7343ZM27.3353 47.1355C27.149 47.8408 26.9494 48.5327 26.7365 49.2114C25.6387 52.5846 24.3014 55.8182 22.7844 58.9918C21.0279 63.0038 19.0319 66.8361 17.4351 70.9479C16.9561 70.735 16.477 70.5221 15.998 70.3092C17.4152 66.9559 18.9321 63.6625 20.3493 60.3691C22.006 56.397 24.022 52.5647 25.2196 48.4728C25.4325 47.7942 25.6188 47.1089 25.7784 46.417C26.2974 46.6565 26.8164 46.9359 27.3353 47.1355ZM25.7784 46.417C25.6188 47.1089 25.4325 47.7942 25.2196 48.4728C24.022 52.5647 22.006 56.397 20.3493 60.3691C18.9321 63.6625 17.4152 66.9559 15.998 70.3092C15.7452 70.2027 15.4923 70.0963 15.2395 69.9898C16.6966 66.6764 18.0938 63.3232 19.5908 60.0297C21.2475 56.0776 23.0439 52.2054 24.3613 48.0736C24.5742 47.395 24.7738 46.7097 24.9601 46.0178C25.2395 46.1575 25.519 46.2972 25.7784 46.417ZM24.9601 46.0178C24.7738 46.7097 24.5742 47.395 24.3613 48.0736C23.0439 52.2054 21.2475 56.0776 19.5908 60.0297C18.0938 63.3232 16.6966 66.6764 15.2395 69.9898C14.9335 69.8568 14.6274 69.7237 14.3214 69.5906C15.6986 66.2373 17.1158 62.884 18.6128 59.5707C20.3892 55.6385 22.0659 51.6465 23.3832 47.5547C23.6094 46.8894 23.8157 46.2174 24.002 45.5387C24.3214 45.6984 24.6407 45.8581 24.9601 46.0178ZM24.002 45.5387C23.8157 46.2174 23.6094 46.8894 23.3832 47.5547C22.0659 51.6465 20.3892 55.6385 18.6128 59.5707C17.1158 62.884 15.6986 66.2373 14.3214 69.5906C13.8556 69.3777 13.3965 69.1715 12.9441 68.9719C14.022 66.4768 15.0798 63.9619 16.1577 61.4469C18.2535 56.6565 20.4291 51.906 21.9261 46.8361C22.1257 46.1442 22.3187 45.4589 22.505 44.7802C22.9973 45.0331 23.4963 45.2859 24.002 45.5387ZM22.505 44.7802C22.3187 45.4589 22.1257 46.1442 21.9261 46.8361C20.4291 51.906 18.2535 56.6565 16.1577 61.4469C15.0798 63.9619 14.022 66.4768 12.9441 68.9719C12.4518 68.7589 11.9594 68.5394 11.4671 68.3132C12.525 65.7982 13.6028 63.2832 14.6806 60.7882C16.7565 55.9778 18.7924 51.0677 20.3094 46.0178C20.5223 45.3258 20.7219 44.6339 20.9082 43.9419C21.4405 44.2214 21.9727 44.5008 22.505 44.7802ZM20.9082 43.9419C20.7219 44.6339 20.5223 45.3258 20.3094 46.0178C18.7924 51.0677 16.7565 55.9778 14.6806 60.7882C13.6028 63.2832 12.525 65.7982 11.4671 68.3132C11.161 68.1801 10.855 68.047 10.5489 67.914C11.7864 65.419 12.7246 62.8441 13.8423 60.3291C15.8782 55.4589 17.7146 50.5287 19.3313 45.4589C19.5442 44.7802 19.7438 44.1016 19.9301 43.423C20.2628 43.5959 20.5888 43.7689 20.9082 43.9419ZM19.9301 43.423C19.7438 44.1016 19.5442 44.7802 19.3313 45.4589C17.7146 50.5287 15.8782 55.4589 13.8423 60.3291C12.7246 62.8441 11.7864 65.419 10.5489 67.914C10.0566 67.7011 9.55755 67.4815 9.0519 67.2553C9.81038 65.6385 10.489 63.882 11.2475 62.2253C11.5935 61.3737 11.9328 60.5221 12.2655 59.6705C14.1417 54.6605 16.1178 49.7104 17.6946 44.6605C17.9075 43.9685 18.1138 43.2699 18.3134 42.5647C18.8523 42.8441 19.3912 43.1235 19.9301 43.423ZM18.3134 42.5647C18.1138 43.2699 17.9075 43.9685 17.6946 44.6605C16.1178 49.7104 14.1417 54.6605 12.2655 59.6705C11.9328 60.5221 11.5935 61.3737 11.2475 62.2253C10.489 63.882 9.81038 65.6385 9.0519 67.2553C8.79907 67.1488 8.5529 67.0424 8.31338 66.9359C8.97206 65.2194 9.77046 63.6026 10.3892 61.8661C10.7352 61.0144 11.0812 60.1628 11.4271 59.3112C13.3832 54.3411 15.3792 49.3511 16.8962 44.2413C17.1091 43.5494 17.3154 42.8508 17.515 42.1455C17.7745 42.2852 18.0539 42.4249 18.3134 42.5647ZM30.4491 76.417C30.1431 77.1888 29.837 77.9539 29.5309 78.7124C27.7944 83.3631 25.8583 87.894 23.8024 92.3651C23.5096 92.9905 23.2102 93.6092 22.9042 94.2214C22.6114 94.8335 22.3054 95.4456 21.986 96.0577C20.7485 98.4928 19.4711 100.888 18.0938 103.203C17.0758 102.405 15.8982 101.746 14.8802 101.028C16.8763 98.9918 18.3533 96.4768 19.8303 94.0018C20.336 93.1502 20.815 92.2852 21.2675 91.407C23.5429 87.0357 25.2395 82.3451 26.9162 77.6345C27.1956 76.8894 27.4884 76.1442 27.7944 75.399C29.2515 75.9778 28.9521 75.8581 30.4491 76.417ZM27.7944 75.399C27.4884 76.1442 27.1956 76.8894 26.9162 77.6345C25.2395 82.3451 23.5429 87.0357 21.2675 91.407C20.815 92.2852 20.336 93.1502 19.8303 94.0018C18.3533 96.4768 16.8763 98.9918 14.8802 101.028C14.521 100.802 14.155 100.575 13.7824 100.349C15.519 98.0138 16.996 95.4988 18.3733 92.9439C18.8789 92.1056 19.358 91.2606 19.8104 90.409C22.1258 86.1375 23.9022 81.6066 25.7784 77.1355C26.0845 76.4037 26.3839 75.6651 26.6767 74.92C26.9761 75.0397 27.2754 75.1994 27.7944 75.399ZM26.6767 74.92C26.3839 75.6651 26.0845 76.4037 25.7784 77.1355C23.9022 81.6066 22.1258 86.1375 19.8104 90.409C19.358 91.2606 18.8789 92.1056 18.3733 92.9439C16.996 95.4988 15.519 98.0138 13.7824 100.349C13.3034 100.043 12.8177 99.7436 12.3254 99.4509C12.6713 98.7856 13.0106 98.1202 13.3433 97.4549C13.676 96.8029 14.002 96.1442 14.3214 95.4788C14.98 94.1615 15.6387 92.8441 16.3174 91.5267C16.7764 90.7084 17.2555 89.8701 17.7345 89.0517C20.0898 84.9399 22.3253 80.7683 24.3812 76.4968C24.7139 75.7782 25.0266 75.0464 25.3194 74.3012C25.9581 74.5607 26.2974 74.7204 26.6767 74.92ZM25.3194 74.3012C25.0266 75.0464 24.7139 75.7782 24.3812 76.4968C22.3253 80.7683 20.0898 84.9399 17.7345 89.0517C17.2555 89.8701 16.7764 90.7084 16.3174 91.5267C15.6387 92.8441 14.98 94.1615 14.3214 95.4788C14.002 96.1442 13.676 96.8029 13.3433 97.4549C13.0106 98.1202 12.6713 98.7856 12.3254 99.4509C12.006 99.2646 11.6866 99.085 11.3673 98.912C11.7864 98.0936 12.1856 97.2752 12.5848 96.4569C12.9707 95.6319 13.3566 94.8135 13.7425 94.0018C14.501 92.3451 15.2595 90.7084 16.1178 89.1315C16.517 88.413 16.9162 87.6877 17.3154 86.9559C19.2515 83.3032 21.1477 79.6106 22.8044 75.8182C23.1104 75.0863 23.4098 74.3611 23.7026 73.6425C24.3613 73.902 24.9401 74.1415 25.3194 74.3012ZM23.7026 73.6425C23.4098 74.3611 23.1104 75.0863 22.8044 75.8182C21.1477 79.6106 19.2515 83.3032 17.3154 86.9559C16.9162 87.6877 16.517 88.413 16.1178 89.1315C15.2595 90.7084 14.501 92.3451 13.7425 94.0018C13.3566 94.8135 12.9707 95.6319 12.5848 96.4569C12.1856 97.2752 11.7864 98.0936 11.3673 98.912C10.9947 98.7124 10.6221 98.5128 10.2495 98.3132C11.2076 96.397 11.986 94.401 12.8443 92.4449C13.1104 91.7929 13.3832 91.1342 13.6627 90.4689C14.2016 89.1515 14.7405 87.8341 15.3393 86.5367C15.7784 85.5653 16.2109 84.5939 16.6367 83.6226C17.9142 80.6884 19.1517 77.7343 20.3892 74.8002C20.6953 74.0683 20.988 73.3365 21.2675 72.6046C22.0858 72.9439 22.9441 73.3232 23.7026 73.6425ZM21.2675 72.6046C20.988 73.3365 20.6953 74.0683 20.3892 74.8002C19.1517 77.7343 17.9142 80.6884 16.6367 83.6226C16.2109 84.5939 15.7784 85.5653 15.3393 86.5367C14.7405 87.8341 14.2016 89.1515 13.6627 90.4689C13.3832 91.1342 13.1104 91.7929 12.8443 92.4449C11.986 94.401 11.2076 96.397 10.2495 98.3132C9.75715 98.0603 9.26481 97.8142 8.77246 97.5746C9.99002 94.9998 10.7285 92.2453 11.8264 89.5906C12.0659 88.9253 12.3187 88.2599 12.5848 87.5946C12.8377 86.9426 13.1038 86.2839 13.3832 85.6186C13.7691 84.6339 14.155 83.6492 14.5409 82.6645C15.6786 79.6904 16.7764 76.6964 17.9341 73.7423C18.2136 73.0104 18.4997 72.2786 18.7924 71.5467C19.3313 71.7862 20.2695 72.1854 21.2675 72.6046ZM18.7924 71.5467C18.4997 72.2786 18.2136 73.0104 17.9341 73.7423C16.7764 76.6964 15.6786 79.6904 14.5409 82.6645C14.155 83.6492 13.7691 84.6339 13.3832 85.6186C13.1038 86.2839 12.8377 86.9426 12.5848 87.5946C12.3187 88.2599 12.0659 88.9253 11.8264 89.5906C10.7285 92.2453 9.99002 94.9998 8.77246 97.5746C8.34664 97.375 7.91417 97.1754 7.47505 96.9758C8.6527 94.5407 9.37126 91.8461 10.3293 89.3112C10.6287 88.4729 10.9481 87.6345 11.3074 86.7962C11.6667 85.8913 12.0193 84.9798 12.3653 84.0617C13.7824 80.389 15.0998 76.7164 16.5768 73.1435C16.8563 72.4116 17.1424 71.6798 17.4351 70.9479C17.8876 71.1475 18.34 71.3471 18.7924 71.5467ZM17.4351 70.9479C17.1424 71.6798 16.8563 72.4116 16.5768 73.1435C15.0998 76.7164 13.7824 80.389 12.3653 84.0617C12.0193 84.9798 11.6667 85.8913 11.3074 86.7962C10.9481 87.6345 10.6287 88.4729 10.3293 89.3112C9.37126 91.8461 8.6527 94.5407 7.47505 96.9758C6.99601 96.7496 6.51031 96.5301 6.01797 96.3172C7.41517 93.7623 8.11377 90.9279 9.11178 88.1934C9.43114 87.2752 9.7505 86.377 10.1098 85.4788C10.4425 84.6139 10.7751 83.749 11.1078 82.884C12.4252 79.4309 13.7026 75.9579 15.1198 72.5048C15.4125 71.7729 15.7053 71.041 15.998 70.3092C16.477 70.5221 16.9561 70.735 17.4351 70.9479ZM15.998 70.3092C15.7053 71.041 15.4125 71.7729 15.1198 72.5048C13.7026 75.9579 12.4252 79.4309 11.1078 82.884C10.7751 83.749 10.4425 84.6139 10.1098 85.4788C9.7505 86.377 9.43114 87.2752 9.11178 88.1934C8.11377 90.9279 7.41517 93.7623 6.01797 96.3172C5.75183 96.1974 5.4857 96.0776 5.21956 95.9579C6.39721 93.2433 7.09581 90.409 8.19362 87.6545C8.5529 86.7962 8.91218 85.9379 9.27146 85.0796C11.0479 80.7882 12.6248 76.4569 14.3413 72.1655C14.6341 71.4336 14.9335 70.7084 15.2395 69.9898C15.4923 70.0963 15.7452 70.2027 15.998 70.3092ZM15.2395 69.9898C14.9335 70.7084 14.6341 71.4336 14.3413 72.1655C12.6248 76.4569 11.0479 80.7882 9.27146 85.0796C8.91218 85.9379 8.5529 86.7962 8.19362 87.6545C7.09581 90.409 6.39721 93.2433 5.21956 95.9579C4.8869 95.8248 4.55423 95.6851 4.22156 95.5387C5.67865 92.2253 6.71657 88.7723 8.05389 85.4389C8.42648 84.5341 8.79242 83.6225 9.1517 82.7044C10.5689 79.0517 11.9461 75.379 13.4431 71.7663C13.7359 71.0344 14.0286 70.3092 14.3214 69.5906C14.6274 69.7237 14.9335 69.8568 15.2395 69.9898ZM14.3214 69.5906C14.0286 70.3092 13.7359 71.0344 13.4431 71.7663C11.9461 75.379 10.5689 79.0517 9.1517 82.7044C8.79242 83.6225 8.42648 84.5341 8.05389 85.4389C6.71657 88.7723 5.67865 92.2253 4.22156 95.5387C3.7159 95.3258 3.2036 95.1062 2.68463 94.88C4.1018 91.7263 5.05988 88.3731 6.41717 85.1595C6.73653 84.3877 7.05589 83.6092 7.37525 82.8241C8.99202 78.9319 10.489 75.0397 12.0459 71.1475C12.3387 70.4289 12.6381 69.7037 12.9441 68.9719C13.3965 69.1715 13.8556 69.3777 14.3214 69.5906ZM12.9441 68.9719C12.6381 69.7037 12.3387 70.4289 12.0459 71.1475C10.489 75.0397 8.99202 78.9319 7.37525 82.8241C7.05589 83.6092 6.73653 84.3877 6.41717 85.1595C5.05988 88.3731 4.1018 91.7263 2.68463 94.88C2.11244 94.6538 1.54026 94.421 0.968066 94.1814C2.28543 90.9479 3.48304 87.7144 4.84032 84.5208C5.17299 83.7357 5.499 82.9572 5.81837 82.1854C7.43513 78.2932 8.87226 74.3611 10.5489 70.4888C10.855 69.7703 11.161 69.045 11.4671 68.3132C11.9594 68.5394 12.4518 68.7589 12.9441 68.9719ZM11.4671 68.3132C11.161 69.045 10.855 69.7703 10.5489 70.4888C8.87226 74.3611 7.43513 78.2932 5.81837 82.1854C5.499 82.9572 5.17299 83.7357 4.84032 84.5208C3.48304 87.7144 2.28543 90.9479 0.968066 94.1814C0.622091 94.0351 0.269466 93.8887 -0.0898159 93.7423C1.50699 90.6285 2.48503 87.2752 3.9022 84.1415C4.24817 83.3697 4.58084 82.5979 4.9002 81.8261C6.53693 77.9539 8.03394 74.0018 9.63074 70.0896C9.9368 69.3711 10.2428 68.6458 10.5489 67.914C10.855 68.047 11.161 68.1801 11.4671 68.3132ZM10.5489 67.914C10.2428 68.6458 9.9368 69.3711 9.63074 70.0896C8.03394 74.0018 6.53693 77.9539 4.9002 81.8261C4.58084 82.5979 4.24817 83.3697 3.9022 84.1415C2.48503 87.2752 1.50699 90.6285 -0.0898159 93.7423C-0.675311 93.5028 -1.26746 93.2633 -1.86626 93.0238C-0.389219 89.4509 1.10779 85.7782 2.72455 82.2453C3.25682 81.0743 3.78244 79.8967 4.3014 78.7124C5.63873 75.6186 6.83633 72.5447 8.13374 69.4509C8.43979 68.719 8.74584 67.9872 9.0519 67.2553C9.55755 67.4815 10.0566 67.7011 10.5489 67.914ZM9.0519 67.2553C8.74584 67.9872 8.43979 68.719 8.13374 69.4509C6.83633 72.5447 5.63873 75.6186 4.3014 78.7124C3.78244 79.8967 3.25682 81.0743 2.72455 82.2453C1.10779 85.7782 -0.389219 89.4509 -1.86626 93.0238C-2.15901 92.904 -2.45176 92.7842 -2.74451 92.6645C-1.08782 89.1715 0.349305 85.4788 1.94611 81.9459C2.47838 80.7616 2.99734 79.5773 3.503 78.393C4.82036 75.2792 6.07785 72.2253 7.39521 69.1315C7.70127 68.3997 8.00732 67.6678 8.31338 66.9359C8.5529 67.0424 8.79907 67.1488 9.0519 67.2553Z" fill="url(#paint5_linear_298_2065)" fill-opacity="0.5"/>
</g>
</g>
<path d="M9.71061 78.1536L25.499 40.4889L23.3433 39.5708L6.89624 78.8123L9.71061 78.1536Z" fill="url(#paint6_linear_298_2065)"/>
<path d="M24.0419 85.9979L40.4691 46.7564L38.3134 45.8582L22.5449 83.5229L24.0419 85.9979Z" fill="url(#paint7_linear_298_2065)"/>
<path d="M35.998 0.449102L37.7545 2.44511C38.2136 2.96407 38.992 3.06387 39.5509 2.66467L41.7066 1.10778C42.3653 0.628743 43.2834 0.828343 43.6627 1.54691L44.9401 3.88224C45.2595 4.48104 45.998 4.74052 46.6367 4.48104L49.0918 3.44311C49.8303 3.12375 50.6687 3.54291 50.8882 4.3014L51.6068 6.87625C51.7864 7.53493 52.4451 7.95409 53.1238 7.83433L55.7585 7.37525C56.5369 7.23553 57.2755 7.81437 57.3154 8.61277L57.4551 11.2874C57.495 11.9661 58.0339 12.505 58.7126 12.5449L61.3872 12.6846C62.1856 12.7246 62.7645 13.4631 62.6247 14.2415L62.1657 16.8762C62.0459 17.5549 62.4651 18.1936 63.1237 18.3932L65.6986 19.1118C66.4571 19.3313 66.8762 20.1697 66.5569 20.9082L65.519 23.3633C65.2595 24.002 65.519 24.7405 66.1178 25.0599L68.4531 26.3373C69.1717 26.7166 69.3713 27.6347 68.8922 28.2934L67.3353 30.4491C66.9361 31.008 67.0359 31.7864 67.5549 32.2455L69.5509 34.002C70.1497 34.5409 70.1497 35.479 69.5509 35.998L67.5549 37.7745C67.0359 38.2136 66.9361 38.992 67.3353 39.5509L68.8922 41.7066C69.3713 42.3653 69.1717 43.2834 68.4531 43.6627L66.1178 44.9401C65.519 45.2794 65.2595 45.998 65.519 46.6367L66.5569 49.0918C66.8762 49.8303 66.4571 50.6687 65.6986 50.8882L63.1237 51.6267C62.4651 51.8064 62.0459 52.4651 62.1657 53.1437L62.6247 55.7585C62.7645 56.5569 62.1856 57.2954 61.3872 57.3353L58.7126 57.4551C58.0339 57.495 57.495 58.0339 57.4551 58.7325L57.3154 61.3872C57.2755 62.1856 56.5369 62.7844 55.7585 62.6447L53.1238 62.1657C52.4451 62.0459 51.7864 62.4651 51.6068 63.1237L50.8882 65.6986C50.6687 66.477 49.8303 66.8762 49.0918 66.5569L46.6367 65.519C45.998 65.2595 45.2595 65.519 44.9401 66.1178L43.6627 68.4531C43.2834 69.1717 42.3653 69.3713 41.7066 68.9122L39.5509 67.3553C38.992 66.9561 38.2136 67.0359 37.7545 67.5549L35.998 69.5509C35.4591 70.1497 34.521 70.1497 34.002 69.5509L32.2255 67.5549C31.7864 67.0359 31.008 66.9561 30.4491 67.3553L28.2934 68.9122C27.6347 69.3713 26.7166 69.1717 26.3373 68.4531L25.0599 66.1178C24.7206 65.519 24.002 65.2595 23.3633 65.519L20.9082 66.5569C20.1697 66.8762 19.3313 66.477 19.1118 65.6986L18.3733 63.1237C18.1936 62.4651 17.5349 62.0459 16.8563 62.1657L14.2415 62.6447C13.4431 62.7844 12.7046 62.1856 12.6647 61.3872L12.5449 58.7325C12.505 58.0339 11.9661 57.495 11.2675 57.4551L8.61277 57.3353C7.81437 57.2954 7.21557 56.5569 7.35529 55.7585L7.83433 53.1437C7.95409 52.4651 7.53493 51.8064 6.87625 51.6267L4.3014 50.8882C3.52295 50.6687 3.12375 49.8303 3.44311 49.0918L4.48104 46.6367C4.74052 45.998 4.48104 45.2794 3.88223 44.9401L1.54691 43.6627C0.828343 43.2834 0.628742 42.3653 1.08782 41.7066L2.64471 39.5509C3.04391 38.992 2.96407 38.2136 2.44511 37.7745L0.449102 35.998C-0.149701 35.479 -0.149701 34.5409 0.449102 34.002L2.44511 32.2455C2.96407 31.7864 3.04391 31.008 2.64471 30.4491L1.08782 28.2934C0.628742 27.6347 0.828343 26.7166 1.54691 26.3373L3.88223 25.0599C4.48104 24.7405 4.74052 24.002 4.48104 23.3633L3.44311 20.9082C3.12375 20.1697 3.52295 19.3313 4.3014 19.1118L6.87625 18.3932C7.53493 18.1936 7.95409 17.5549 7.83433 16.8762L7.35529 14.2415C7.21557 13.4631 7.81437 12.7246 8.61277 12.6846L11.2675 12.5449C11.9661 12.505 12.505 11.9661 12.5449 11.2874L12.6647 8.61277C12.7046 7.81437 13.4431 7.23553 14.2415 7.37525L16.8563 7.83433C17.5349 7.95409 18.1936 7.53493 18.3733 6.87625L19.1118 4.3014C19.3313 3.54291 20.1697 3.12375 20.9082 3.44311L23.3633 4.48104C24.002 4.74052 24.7206 4.48104 25.0599 3.88224L26.3373 1.54691C26.7166 0.828343 27.6347 0.628743 28.2934 1.10778L30.4491 2.66467C31.008 3.06387 31.7864 2.96407 32.2255 2.44511L34.002 0.449102C34.521 -0.149701 35.4591 -0.149701 35.998 0.449102Z" fill="#B78103"/>
<path d="M35.998 0.449102L37.7545 2.44511C38.2136 2.96407 38.992 3.06387 39.5509 2.66467L41.7066 1.10778C42.3653 0.628743 43.2834 0.828343 43.6627 1.54691L44.9401 3.88224C45.2595 4.48104 45.998 4.74052 46.6367 4.48104L49.0918 3.44311C49.8303 3.12375 50.6687 3.54291 50.8882 4.3014L51.6068 6.87625C51.7864 7.53493 52.4451 7.95409 53.1238 7.83433L55.7585 7.37525C56.5369 7.23553 57.2755 7.81437 57.3154 8.61277L57.4551 11.2874C57.495 11.9661 58.0339 12.505 58.7126 12.5449L61.3872 12.6846C62.1856 12.7246 62.7645 13.4631 62.6247 14.2415L62.1657 16.8762C62.0459 17.5549 62.4651 18.1936 63.1237 18.3932L65.6986 19.1118C66.4571 19.3313 66.8762 20.1697 66.5569 20.9082L65.519 23.3633C65.2595 24.002 65.519 24.7405 66.1178 25.0599L68.4531 26.3373C69.1717 26.7166 69.3713 27.6347 68.8922 28.2934L67.3353 30.4491C66.9361 31.008 67.0359 31.7864 67.5549 32.2455L69.5509 34.002C70.1497 34.5409 70.1497 35.479 69.5509 35.998L67.5549 37.7745C67.0359 38.2136 66.9361 38.992 67.3353 39.5509L68.8922 41.7066C69.3713 42.3653 69.1717 43.2834 68.4531 43.6627L66.1178 44.9401C65.519 45.2794 65.2595 45.998 65.519 46.6367L66.5569 49.0918C66.8762 49.8303 66.4571 50.6687 65.6986 50.8882L63.1237 51.6267C62.4651 51.8064 62.0459 52.4651 62.1657 53.1437L62.6247 55.7585C62.7645 56.5569 62.1856 57.2954 61.3872 57.3353L58.7126 57.4551C58.0339 57.495 57.495 58.0339 57.4551 58.7325L57.3154 61.3872C57.2755 62.1856 56.5369 62.7844 55.7585 62.6447L53.1238 62.1657C52.4451 62.0459 51.7864 62.4651 51.6068 63.1237L50.8882 65.6986C50.6687 66.477 49.8303 66.8762 49.0918 66.5569L46.6367 65.519C45.998 65.2595 45.2595 65.519 44.9401 66.1178L43.6627 68.4531C43.2834 69.1717 42.3653 69.3713 41.7066 68.9122L39.5509 67.3553C38.992 66.9561 38.2136 67.0359 37.7545 67.5549L35.998 69.5509C35.4591 70.1497 34.521 70.1497 34.002 69.5509L32.2255 67.5549C31.7864 67.0359 31.008 66.9561 30.4491 67.3553L28.2934 68.9122C27.6347 69.3713 26.7166 69.1717 26.3373 68.4531L25.0599 66.1178C24.7206 65.519 24.002 65.2595 23.3633 65.519L20.9082 66.5569C20.1697 66.8762 19.3313 66.477 19.1118 65.6986L18.3733 63.1237C18.1936 62.4651 17.5349 62.0459 16.8563 62.1657L14.2415 62.6447C13.4431 62.7844 12.7046 62.1856 12.6647 61.3872L12.5449 58.7325C12.505 58.0339 11.9661 57.495 11.2675 57.4551L8.61277 57.3353C7.81437 57.2954 7.21557 56.5569 7.35529 55.7585L7.83433 53.1437C7.95409 52.4651 7.53493 51.8064 6.87625 51.6267L4.3014 50.8882C3.52295 50.6687 3.12375 49.8303 3.44311 49.0918L4.48104 46.6367C4.74052 45.998 4.48104 45.2794 3.88223 44.9401L1.54691 43.6627C0.828343 43.2834 0.628742 42.3653 1.08782 41.7066L2.64471 39.5509C3.04391 38.992 2.96407 38.2136 2.44511 37.7745L0.449102 35.998C-0.149701 35.479 -0.149701 34.5409 0.449102 34.002L2.44511 32.2455C2.96407 31.7864 3.04391 31.008 2.64471 30.4491L1.08782 28.2934C0.628742 27.6347 0.828343 26.7166 1.54691 26.3373L3.88223 25.0599C4.48104 24.7405 4.74052 24.002 4.48104 23.3633L3.44311 20.9082C3.12375 20.1697 3.52295 19.3313 4.3014 19.1118L6.87625 18.3932C7.53493 18.1936 7.95409 17.5549 7.83433 16.8762L7.35529 14.2415C7.21557 13.4631 7.81437 12.7246 8.61277 12.6846L11.2675 12.5449C11.9661 12.505 12.505 11.9661 12.5449 11.2874L12.6647 8.61277C12.7046 7.81437 13.4431 7.23553 14.2415 7.37525L16.8563 7.83433C17.5349 7.95409 18.1936 7.53493 18.3733 6.87625L19.1118 4.3014C19.3313 3.54291 20.1697 3.12375 20.9082 3.44311L23.3633 4.48104C24.002 4.74052 24.7206 4.48104 25.0599 3.88224L26.3373 1.54691C26.7166 0.828343 27.6347 0.628743 28.2934 1.10778L30.4491 2.66467C31.008 3.06387 31.7864 2.96407 32.2255 2.44511L34.002 0.449102C34.521 -0.149701 35.4591 -0.149701 35.998 0.449102Z" fill="url(#paint8_linear_298_2065)" fill-opacity="0.1"/>
<path d="M35 6.17763C51.0678 6.17763 64.0818 19.1916 64.0818 35.2595C64.0818 51.3273 51.0678 64.3613 35 64.3613C18.9321 64.3613 5.89819 51.3273 5.89819 35.2595C5.89819 19.1916 18.9321 6.17763 35 6.17763Z" fill="url(#paint9_linear_298_2065)"/>
<path d="M35.0001 8.41315C49.8304 8.41315 61.8663 20.4291 61.8663 35.2595C61.8663 50.1098 49.8304 62.1257 35.0001 62.1257C20.1697 62.1257 8.13379 50.1098 8.13379 35.2595C8.13379 20.4291 20.1697 8.41315 35.0001 8.41315Z" fill="url(#paint10_linear_298_2065)"/>
<path d="M35 9.87025C49.0319 9.87025 60.3892 21.2475 60.3892 35.2595C60.3892 49.2914 49.0319 60.6687 35 60.6687C20.9681 60.6687 9.59082 49.2914 9.59082 35.2595C9.59082 21.2475 20.9681 9.87025 35 9.87025Z" fill="#F1F2F2"/>
<g filter="url(#filter0_d_298_2065)">
<path d="M16.6044 37.1317C16.5457 37.1317 16.4977 37.113 16.4604 37.0757C16.4231 37.0384 16.4044 36.993 16.4044 36.9397V31.7317C16.4044 31.673 16.4231 31.625 16.4604 31.5877C16.4977 31.5504 16.5457 31.5317 16.6044 31.5317H17.2364C17.3111 31.5317 17.3671 31.553 17.4044 31.5957C17.4417 31.633 17.4657 31.6624 17.4764 31.6837L19.0204 34.5637L20.5804 31.6837C20.5911 31.6624 20.6151 31.633 20.6524 31.5957C20.6897 31.553 20.7457 31.5317 20.8204 31.5317H21.4444C21.5031 31.5317 21.5511 31.5504 21.5884 31.5877C21.6257 31.625 21.6444 31.673 21.6444 31.7317V36.9397C21.6444 36.993 21.6257 37.0384 21.5884 37.0757C21.5511 37.113 21.5031 37.1317 21.4444 37.1317H20.7724C20.7137 37.1317 20.6657 37.113 20.6284 37.0757C20.5964 37.0384 20.5804 36.993 20.5804 36.9397V33.4757L19.4604 35.6117C19.4337 35.6597 19.3991 35.7024 19.3564 35.7397C19.3137 35.7717 19.2577 35.7877 19.1884 35.7877H18.8604C18.7857 35.7877 18.7271 35.7717 18.6844 35.7397C18.6471 35.7024 18.6151 35.6597 18.5884 35.6117L17.4684 33.4757V36.9397C17.4684 36.993 17.4497 37.0384 17.4124 37.0757C17.3751 37.113 17.3297 37.1317 17.2764 37.1317H16.6044ZM22.5448 37.1317C22.5021 37.1317 22.4621 37.1157 22.4248 37.0837C22.3928 37.0517 22.3768 37.0117 22.3768 36.9637C22.3768 36.9424 22.3821 36.9184 22.3928 36.8917L24.3208 31.7317C24.3368 31.6784 24.3661 31.633 24.4088 31.5957C24.4568 31.553 24.5208 31.5317 24.6008 31.5317H25.4728C25.5528 31.5317 25.6141 31.553 25.6568 31.5957C25.6994 31.633 25.7314 31.6784 25.7528 31.7317L27.6808 36.8917C27.6861 36.9184 27.6888 36.9424 27.6888 36.9637C27.6888 37.0117 27.6728 37.0517 27.6408 37.0837C27.6088 37.1157 27.5714 37.1317 27.5288 37.1317H26.8328C26.7581 37.1317 26.7021 37.1157 26.6648 37.0837C26.6328 37.0464 26.6114 37.0117 26.6008 36.9797L26.2248 36.0037H23.8488L23.4728 36.9797C23.4621 37.0117 23.4381 37.0464 23.4008 37.0837C23.3688 37.1157 23.3154 37.1317 23.2408 37.1317H22.5448ZM24.1288 35.0837H25.9448L25.0328 32.6117L24.1288 35.0837ZM28.6276 37.1317C28.5743 37.1317 28.529 37.113 28.4916 37.0757C28.4543 37.0384 28.4356 36.993 28.4356 36.9397V31.7317C28.4356 31.673 28.4543 31.625 28.4916 31.5877C28.529 31.5504 28.5743 31.5317 28.6276 31.5317H29.2436C29.3183 31.5317 29.3716 31.5504 29.4036 31.5877C29.441 31.6197 29.465 31.6437 29.4756 31.6597L31.7796 35.2437V31.7317C31.7796 31.673 31.7956 31.625 31.8276 31.5877C31.865 31.5504 31.913 31.5317 31.9716 31.5317H32.6436C32.7023 31.5317 32.7503 31.5504 32.7876 31.5877C32.825 31.625 32.8436 31.673 32.8436 31.7317V36.9317C32.8436 36.9904 32.825 37.0384 32.7876 37.0757C32.7503 37.113 32.705 37.1317 32.6516 37.1317H32.0276C31.953 37.1317 31.8996 37.113 31.8676 37.0757C31.8356 37.0384 31.8116 37.0144 31.7956 37.0037L29.4996 33.4997V36.9397C29.4996 36.993 29.481 37.0384 29.4436 37.0757C29.4063 37.113 29.3583 37.1317 29.2996 37.1317H28.6276ZM33.7479 37.1317C33.7052 37.1317 33.6652 37.1157 33.6279 37.0837C33.5959 37.0517 33.5799 37.0117 33.5799 36.9637C33.5799 36.9424 33.5852 36.9184 33.5959 36.8917L35.5239 31.7317C35.5399 31.6784 35.5692 31.633 35.6119 31.5957C35.6599 31.553 35.7239 31.5317 35.8039 31.5317H36.6759C36.7559 31.5317 36.8172 31.553 36.8599 31.5957C36.9026 31.633 36.9346 31.6784 36.9559 31.7317L38.8839 36.8917C38.8892 36.9184 38.8919 36.9424 38.8919 36.9637C38.8919 37.0117 38.8759 37.0517 38.8439 37.0837C38.8119 37.1157 38.7746 37.1317 38.7319 37.1317H38.0359C37.9612 37.1317 37.9052 37.1157 37.8679 37.0837C37.8359 37.0464 37.8146 37.0117 37.8039 36.9797L37.4279 36.0037H35.0519L34.6759 36.9797C34.6652 37.0117 34.6412 37.0464 34.6039 37.0837C34.5719 37.1157 34.5186 37.1317 34.4439 37.1317H33.7479ZM35.3319 35.0837H37.1479L36.2359 32.6117L35.3319 35.0837ZM41.7054 37.2117C41.2147 37.2117 40.7961 37.1264 40.4494 36.9557C40.1081 36.785 39.8414 36.5397 39.6494 36.2197C39.4627 35.8944 39.3614 35.5077 39.3454 35.0597C39.3401 34.8304 39.3374 34.585 39.3374 34.3237C39.3374 34.057 39.3401 33.8064 39.3454 33.5717C39.3614 33.129 39.4627 32.7504 39.6494 32.4357C39.8414 32.121 40.1107 31.8784 40.4574 31.7077C40.8094 31.537 41.2254 31.4517 41.7054 31.4517C42.0947 31.4517 42.4361 31.505 42.7294 31.6117C43.0227 31.713 43.2654 31.8464 43.4574 32.0117C43.6547 32.1717 43.8014 32.345 43.8974 32.5317C43.9987 32.7184 44.0521 32.8917 44.0574 33.0517C44.0627 33.0997 44.0494 33.1397 44.0174 33.1717C43.9854 33.2037 43.9427 33.2197 43.8894 33.2197H43.0654C43.0121 33.2197 42.9721 33.209 42.9454 33.1877C42.9187 33.1664 42.8947 33.1344 42.8734 33.0917C42.8307 32.9797 42.7641 32.8704 42.6734 32.7637C42.5827 32.6517 42.4601 32.5584 42.3054 32.4837C42.1507 32.409 41.9507 32.3717 41.7054 32.3717C41.3427 32.3717 41.0521 32.4677 40.8334 32.6597C40.6201 32.8517 40.5054 33.169 40.4894 33.6117C40.4734 34.0757 40.4734 34.545 40.4894 35.0197C40.5054 35.473 40.6227 35.7984 40.8414 35.9957C41.0654 36.193 41.3587 36.2917 41.7214 36.2917C41.9614 36.2917 42.1747 36.249 42.3614 36.1637C42.5534 36.0784 42.7027 35.945 42.8094 35.7637C42.9214 35.5824 42.9774 35.3504 42.9774 35.0677V34.8197H42.0014C41.9481 34.8197 41.9027 34.801 41.8654 34.7637C41.8281 34.7264 41.8094 34.6784 41.8094 34.6197V34.1957C41.8094 34.137 41.8281 34.089 41.8654 34.0517C41.9027 34.0144 41.9481 33.9957 42.0014 33.9957H43.9134C43.9721 33.9957 44.0174 34.0144 44.0494 34.0517C44.0867 34.089 44.1054 34.137 44.1054 34.1957V35.0357C44.1054 35.4837 44.0067 35.8704 43.8094 36.1957C43.6174 36.521 43.3401 36.7717 42.9774 36.9477C42.6201 37.1237 42.1961 37.2117 41.7054 37.2117ZM45.323 37.1317C45.2696 37.1317 45.2243 37.113 45.187 37.0757C45.1496 37.0384 45.131 36.993 45.131 36.9397V31.7317C45.131 31.673 45.1496 31.625 45.187 31.5877C45.2243 31.5504 45.2696 31.5317 45.323 31.5317H48.843C48.9016 31.5317 48.9496 31.5504 48.987 31.5877C49.0243 31.625 49.043 31.673 49.043 31.7317V32.2597C49.043 32.313 49.0243 32.3584 48.987 32.3957C48.9496 32.433 48.9016 32.4517 48.843 32.4517H46.211V33.8677H48.667C48.7256 33.8677 48.7736 33.8864 48.811 33.9237C48.8483 33.9557 48.867 34.001 48.867 34.0597V34.5557C48.867 34.6144 48.8483 34.6624 48.811 34.6997C48.7736 34.7317 48.7256 34.7477 48.667 34.7477H46.211V36.2117H48.907C48.9656 36.2117 49.0136 36.2304 49.051 36.2677C49.0883 36.305 49.107 36.353 49.107 36.4117V36.9397C49.107 36.993 49.0883 37.0384 49.051 37.0757C49.0136 37.113 48.9656 37.1317 48.907 37.1317H45.323ZM50.2995 37.1317C50.2462 37.1317 50.2009 37.113 50.1635 37.0757C50.1262 37.0384 50.1075 36.993 50.1075 36.9397V31.7317C50.1075 31.673 50.1262 31.625 50.1635 31.5877C50.2009 31.5504 50.2462 31.5317 50.2995 31.5317H52.3715C53.0169 31.5317 53.5262 31.681 53.8995 31.9797C54.2729 32.2784 54.4595 32.713 54.4595 33.2837C54.4595 33.6784 54.3609 34.0064 54.1635 34.2677C53.9715 34.529 53.7129 34.7184 53.3875 34.8357L54.5555 36.8757C54.5715 36.9077 54.5795 36.937 54.5795 36.9637C54.5795 37.0117 54.5609 37.0517 54.5235 37.0837C54.4915 37.1157 54.4542 37.1317 54.4115 37.1317H53.6835C53.5929 37.1317 53.5235 37.1077 53.4755 37.0597C53.4275 37.0117 53.3902 36.9637 53.3635 36.9157L52.3315 35.0197H51.2195V36.9397C51.2195 36.993 51.2009 37.0384 51.1635 37.0757C51.1315 37.113 51.0862 37.1317 51.0275 37.1317H50.2995ZM51.2195 34.1157H52.3475C52.6729 34.1157 52.9155 34.0437 53.0755 33.8997C53.2355 33.7504 53.3155 33.5424 53.3155 33.2757C53.3155 33.009 53.2355 32.801 53.0755 32.6517C52.9209 32.497 52.6782 32.4197 52.3475 32.4197H51.2195V34.1157Z" fill="#212B36"/>
</g>
<defs>
<filter id="filter0_d_298_2065" x="14.4044" y="31.4517" width="42.175" height="9.75999" filterUnits="userSpaceOnUse" color-interpolation-filters="sRGB">
<feFlood flood-opacity="0" result="BackgroundImageFix"/>
<feColorMatrix in="SourceAlpha" type="matrix" values="0 0 0 0 0 0 0 0 0 0 0 0 0 0 0 0 0 0 127 0" result="hardAlpha"/>
<feOffset dy="2"/>
<feGaussianBlur stdDeviation="1"/>
<feComposite in2="hardAlpha" operator="out"/>
<feColorMatrix type="matrix" values="0 0 0 0 0 0 0 0 0 0 0 0 0 0 0 0 0 0 0.15 0"/>
<feBlend mode="normal" in2="BackgroundImageFix" result="effect1_dropShadow_298_2065"/>
<feBlend mode="normal" in="SourceGraphic" in2="effect1_dropShadow_298_2065" result="shape"/>
</filter>
<linearGradient id="paint0_linear_298_2065" x1="82.2444" y1="46.2328" x2="104.525" y2="93.9476" gradientUnits="userSpaceOnUse">
<stop stop-color="#231F20"/>
<stop offset="1" stop-color="white"/>
</linearGradient>
<linearGradient id="paint1_linear_298_2065" x1="29.0947" y1="49.4706" x2="42.206" y2="75.3904" gradientUnits="userSpaceOnUse">
<stop stop-color="white"/>
<stop offset="1" stop-color="#A1A1A1"/>
</linearGradient>
<linearGradient id="paint2_linear_298_2065" x1="-260.57" y1="321.557" x2="-227.286" y2="354.841" gradientUnits="userSpaceOnUse">
<stop stop-color="#B8B8B8"/>
<stop offset="0.164" stop-color="#E8E8E8"/>
<stop offset="0.291" stop-color="white"/>
<stop offset="0.552" stop-color="#ABABAB"/>
<stop offset="0.782" stop-color="#E8E8E8"/>
<stop offset="0.909" stop-color="#A2A2A2"/>
<stop offset="1" stop-color="#717171"/>
</linearGradient>
<linearGradient id="paint3_linear_298_2065" x1="-275.543" y1="327.829" x2="-242.259" y2="361.113" gradientUnits="userSpaceOnUse">
<stop stop-color="#B8B8B8"/>
<stop offset="0.164" stop-color="#E8E8E8"/>
<stop offset="0.291" stop-color="white"/>
<stop offset="0.552" stop-color="#ABABAB"/>
<stop offset="0.782" stop-color="#E8E8E8"/>
<stop offset="0.909" stop-color="#A2A2A2"/>
<stop offset="1" stop-color="#717171"/>
</linearGradient>
<linearGradient id="paint4_linear_298_2065" x1="-12.251" y1="46.2329" x2="-34.5319" y2="93.9476" gradientUnits="userSpaceOnUse">
<stop stop-color="#231F20"/>
<stop offset="1" stop-color="white"/>
</linearGradient>
<linearGradient id="paint5_linear_298_2065" x1="40.8986" y1="49.4707" x2="27.7873" y2="75.3905" gradientUnits="userSpaceOnUse">
<stop stop-color="white"/>
<stop offset="1" stop-color="#A1A1A1"/>
</linearGradient>
<linearGradient id="paint6_linear_298_2065" x1="-298.165" y1="-202.259" x2="-264.881" y2="-235.544" gradientUnits="userSpaceOnUse">
<stop stop-color="#B8B8B8"/>
<stop offset="0.164" stop-color="#E8E8E8"/>
<stop offset="0.291" stop-color="white"/>
<stop offset="0.552" stop-color="#ABABAB"/>
<stop offset="0.782" stop-color="#E8E8E8"/>
<stop offset="0.909" stop-color="#A2A2A2"/>
<stop offset="1" stop-color="#717171"/>
</linearGradient>
<linearGradient id="paint7_linear_298_2065" x1="-283.18" y1="-195.977" x2="-249.895" y2="-229.261" gradientUnits="userSpaceOnUse">
<stop stop-color="#B8B8B8"/>
<stop offset="0.164" stop-color="#E8E8E8"/>
<stop offset="0.291" stop-color="white"/>
<stop offset="0.552" stop-color="#ABABAB"/>
<stop offset="0.782" stop-color="#E8E8E8"/>
<stop offset="0.909" stop-color="#A2A2A2"/>
<stop offset="1" stop-color="#717171"/>
</linearGradient>
<linearGradient id="paint8_linear_298_2065" x1="19.5428" y1="-9.14411e-07" x2="43.1374" y2="64.2395" gradientUnits="userSpaceOnUse">
<stop stop-color="white"/>
<stop offset="0.403279" stop-color="#D0D2D3"/>
<stop offset="0.463551" stop-color="#333333"/>
<stop offset="1"/>
</linearGradient>
<linearGradient id="paint9_linear_298_2065" x1="64.0884" y1="3.42174" x2="64.0884" y2="70.6126" gradientUnits="userSpaceOnUse">
<stop stop-color="#B8B8B8"/>
<stop offset="0.164" stop-color="#E8E8E8"/>
<stop offset="0.291" stop-color="white"/>
<stop offset="0.552" stop-color="#ABABAB"/>
<stop offset="0.782" stop-color="#E8E8E8"/>
<stop offset="0.909" stop-color="#A2A2A2"/>
<stop offset="1" stop-color="#717171"/>
</linearGradient>
<linearGradient id="paint10_linear_298_2065" x1="61.8591" y1="1.87782" x2="61.8591" y2="63.9201" gradientUnits="userSpaceOnUse">
<stop stop-color="#B8B8B8"/>
<stop offset="0.164" stop-color="#E8E8E8"/>
<stop offset="0.291" stop-color="white"/>
<stop offset="0.552" stop-color="#ABABAB"/>
<stop offset="0.782" stop-color="#E8E8E8"/>
<stop offset="0.909" stop-color="#A2A2A2"/>
<stop offset="1" stop-color="#717171"/>
</linearGradient>
</defs>
</svg>
