<svg width="62" height="64" viewBox="0 0 62 64" fill="none" xmlns="http://www.w3.org/2000/svg">
<path d="M37.8434 63.0381L43.0758 54.3983L52.9132 56.7364L40.7376 27.6803L25.6677 33.9962L37.8434 63.0381Z" fill="#F11616"/>
<path style="mix-blend-mode:soft-light" d="M37.8434 63.0381L43.0758 54.3983L52.9132 56.7364L40.7376 27.6803L25.6677 33.9962L37.8434 63.0381Z" fill="url(#paint0_linear_630_81748)"/>
<mask id="mask0_630_81748" style="mask-type:luminance" maskUnits="userSpaceOnUse" x="25" y="27" width="28" height="37">
<path d="M37.8476 63.0452L43.0785 54.4025L52.9074 56.7335L40.7318 27.6802L25.6733 33.9904L37.8476 63.0452Z" fill="white"/>
</mask>
<g mask="url(#mask0_630_81748)">
<g style="mix-blend-mode:multiply" opacity="0.4">
<path d="M26.7798 35.3362C26.8843 35.7735 26.9889 36.2059 27.0934 36.6337C28.1057 36.434 29.1037 36.2487 30.1017 35.9208C29.9734 35.5216 29.9591 35.0654 29.7025 34.6947C28.733 34.9228 27.8063 35.265 26.7798 35.3362ZM29.7025 34.6947C29.9591 35.0654 29.9734 35.5216 30.1017 35.9208C30.4439 35.8257 30.7813 35.7307 31.114 35.6356C31.0569 35.1937 30.9286 34.7945 30.7005 34.4523C30.3774 34.5378 30.0447 34.6186 29.7025 34.6947ZM30.7005 34.4523C30.9286 34.7945 31.0569 35.1937 31.114 35.6356C31.5702 35.5216 31.9979 35.3933 32.4542 35.265C32.2973 34.8658 32.3258 34.2955 31.9979 34.0959C31.5702 34.2194 31.1377 34.3382 30.7005 34.4523ZM31.9979 34.0959C32.3258 34.2955 32.2973 34.8658 32.4542 35.265C32.725 35.1937 32.9959 35.0796 33.2811 34.9941C33.0957 34.6376 33.224 33.939 32.7963 33.8392C32.5302 33.9248 32.2641 34.0103 31.9979 34.0959ZM32.7963 33.8392C33.224 33.939 33.0957 34.6376 33.2811 34.9941C33.609 34.8658 33.9226 34.7374 34.2506 34.6091C34.1508 34.1814 34.1365 33.4828 33.7373 33.5113C33.4236 33.6254 33.11 33.7347 32.7963 33.8392ZM33.7373 33.5113C34.1365 33.4828 34.1508 34.1814 34.2506 34.6091C34.664 34.4523 35.0632 34.2812 35.4624 34.0959C35.3911 33.6396 35.2913 32.9695 34.9064 33.0694C34.5167 33.2214 34.127 33.3688 33.7373 33.5113ZM34.9064 33.0694C35.2913 32.9695 35.3911 33.6396 35.4624 34.0959C35.7903 33.9533 36.1325 33.8107 36.4747 33.6682C36.3464 33.1406 36.3606 32.4991 35.8901 32.6702C35.567 32.8032 35.2391 32.9363 34.9064 33.0694ZM35.8901 32.6702C36.3606 32.4991 36.3464 33.1406 36.4747 33.6682C36.8454 33.5256 37.2018 33.326 37.5725 33.1549C37.4727 32.7985 37.5725 31.9715 36.9594 32.2139C36.6078 32.366 36.2513 32.5181 35.8901 32.6702ZM36.9594 32.2139C37.5725 31.9715 37.4727 32.7985 37.5725 33.1549C37.7721 33.0694 37.9717 32.9696 38.157 32.8698C38.0145 32.4705 38.1143 31.7577 37.5297 31.9573C37.3396 32.0428 37.1495 32.1284 36.9594 32.2139ZM37.5297 31.9573C38.1143 31.7577 38.0145 32.4705 38.157 32.8698C38.3994 32.7557 38.6275 32.6416 38.8556 32.5276C38.7131 32.1284 38.7986 31.4013 38.2141 31.6579C37.9859 31.7624 37.7578 31.8622 37.5297 31.9573ZM38.2141 31.6579C38.7986 31.4013 38.7131 32.1284 38.8556 32.5276C39.2073 32.347 39.5637 32.1664 39.9249 31.9858C39.8489 31.6816 39.7728 31.3727 39.6968 31.0591C39.5115 31.1304 39.4402 31.1304 39.2548 31.1874C38.9127 31.349 38.5657 31.5058 38.2141 31.6579ZM39.2548 31.1874C39.4402 31.1304 39.5115 31.1304 39.6968 31.0591C39.7728 31.3727 39.8489 31.6816 39.9249 31.9858C40.2956 31.7862 40.6758 31.5866 41.0655 31.387C40.9895 31.0924 40.9134 30.7977 40.8374 30.5031C40.652 30.5743 40.5665 30.5886 40.3812 30.6741C40.001 30.8452 39.6255 31.0163 39.2548 31.1874ZM40.3812 30.6741C40.5665 30.5886 40.652 30.5743 40.8374 30.5031C40.9134 30.7977 40.9895 31.0924 41.0655 31.387C41.2936 31.2634 41.5265 31.1399 41.7641 31.0163C41.6881 30.7217 41.612 30.4318 41.536 30.1466C41.3506 30.2322 41.2651 30.2607 41.0655 30.3462C40.8374 30.4508 40.6093 30.5601 40.3812 30.6741ZM41.0655 30.3462C41.2651 30.2607 41.3506 30.2322 41.536 30.1466C41.612 30.4318 41.6881 30.7217 41.7641 31.0163C42.1348 30.8025 42.5197 30.6029 42.9189 30.4033C42.8429 30.1276 42.7669 29.852 42.6908 29.5763C42.5055 29.6761 42.4057 29.7047 42.2061 29.8045C41.8259 29.985 41.4457 30.1656 41.0655 30.3462ZM42.2061 29.8045C42.4057 29.7047 42.5055 29.6761 42.6908 29.5763C42.7669 29.852 42.8429 30.1276 42.9189 30.4033C43.1043 30.3035 43.3039 30.2037 43.4892 30.1039C43.4132 29.8377 43.3419 29.5716 43.2754 29.3055C43.0758 29.391 42.976 29.4338 42.7764 29.5336C42.5863 29.6191 42.3962 29.7094 42.2061 29.8045ZM27.0934 36.6337C27.3691 37.6982 27.6685 38.7437 27.9916 39.7702C28.8471 42.3223 29.9164 44.7745 31.0284 47.1982C31.3041 47.8065 31.5797 48.4148 31.8553 49.0232C32.6395 50.8623 33.4807 52.73 34.2363 54.5835C35.3056 54.1843 35.106 54.2698 36.1468 53.8563C35.2771 51.3471 34.2506 48.9091 33.3666 46.3998C33.1385 45.782 32.9104 45.169 32.6823 44.5607C32.0122 42.7072 31.3991 40.8538 30.8859 38.9861C30.6007 37.9786 30.3393 36.9568 30.1017 35.9208C29.1037 36.2487 28.1057 36.434 27.0934 36.6337ZM30.1017 35.9208C30.3393 36.9568 30.6007 37.9786 30.8859 38.9861C31.3991 40.8538 32.0122 42.7072 32.6823 44.5607C32.9104 45.169 33.1385 45.782 33.3666 46.3998C34.2506 48.9091 35.2771 51.3471 36.1468 53.8563C36.5032 53.7138 36.7313 53.5997 36.9452 53.5142C35.9757 51.0477 35.106 48.5954 34.222 46.0862C34.0034 45.4684 33.7896 44.8506 33.5805 44.2327C32.9674 42.3936 32.3829 40.5401 31.8696 38.6724C31.6035 37.6649 31.3516 36.6527 31.114 35.6356C30.7813 35.7307 30.4439 35.8257 30.1017 35.9208ZM31.114 35.6356C31.3516 36.6527 31.6035 37.6649 31.8696 38.6724C32.3829 40.5401 32.9674 42.3936 33.5805 44.2327C33.7896 44.8506 34.0034 45.4684 34.222 46.0862C35.106 48.5954 35.9757 51.0477 36.9452 53.5142C37.2161 53.3716 37.4584 53.2575 37.9004 53.0722C36.8026 50.1637 35.9186 47.184 34.9777 44.2327C34.7686 43.5674 34.5595 42.9021 34.3504 42.2367C33.9417 40.8966 33.5615 39.5659 33.2098 38.2447C33.0767 37.7505 32.9484 37.2562 32.8248 36.762C32.6918 36.2677 32.5682 35.7687 32.4542 35.265C31.9979 35.3933 31.5702 35.5216 31.114 35.6356ZM32.4542 35.265C32.5682 35.7687 32.6918 36.2677 32.8248 36.762C32.9484 37.2562 33.0767 37.7505 33.2098 38.2447C33.5615 39.5659 33.9417 40.8966 34.3504 42.2367C34.5595 42.9021 34.7686 43.5674 34.9777 44.2327C35.9186 47.184 36.8026 50.1637 37.9004 53.0722C38.1855 52.9581 38.599 52.7871 39.0552 52.6017C38.0002 49.4936 36.9309 46.4711 35.8189 43.4058C35.6002 42.807 35.3864 42.2035 35.1773 41.5952C34.9777 40.9869 34.7828 40.3785 34.5927 39.7702C34.2933 38.7009 33.8941 37.6174 33.6375 36.4768C33.5139 35.9826 33.3951 35.4883 33.2811 34.9941C32.9959 35.0796 32.725 35.1937 32.4542 35.265ZM33.2811 34.9941C33.3951 35.4883 33.5139 35.9826 33.6375 36.4768C33.8941 37.6174 34.2933 38.7009 34.5927 39.7702C34.7828 40.3785 34.9777 40.9869 35.1773 41.5952C35.3864 42.2035 35.6002 42.807 35.8189 43.4058C36.9309 46.4711 38.0002 49.4936 39.0552 52.6017C39.6113 52.3736 40.2243 52.1027 40.7946 51.8603C39.6398 48.8236 38.4137 45.8723 37.102 42.9211C36.8454 42.3318 36.5982 41.7425 36.3606 41.1532C35.7048 39.4851 35.1202 37.817 34.6355 36.1061C34.4929 35.6119 34.3646 35.1129 34.2506 34.6091C33.9226 34.7374 33.609 34.8658 33.2811 34.9941ZM34.2506 34.6091C34.3646 35.1129 34.4929 35.6119 34.6355 36.1061C35.1202 37.817 35.7048 39.4851 36.3606 41.1532C36.5982 41.7425 36.8454 42.3318 37.102 42.9211C38.4137 45.8723 39.6398 48.8236 40.7946 51.8603C41.5217 51.5609 42.1918 51.2758 42.5768 51.1047C41.3649 48.1107 40.0532 45.2022 38.7273 42.2795C37.658 40.0554 36.7028 37.8455 35.9187 35.5644C35.7571 35.0891 35.605 34.5996 35.4624 34.0959C35.0632 34.2812 34.664 34.4523 34.2506 34.6091ZM35.4624 34.0959C35.605 34.5996 35.7571 35.0891 35.9187 35.5644C36.7028 37.8455 37.658 40.0554 38.7273 42.2795C40.0532 45.2022 41.3649 48.1107 42.5768 51.1047C42.8999 50.9621 43.2183 50.8196 43.532 50.677C42.3914 47.74 40.9657 45.0026 39.7111 42.1369C38.6418 39.87 37.6865 37.5604 36.8881 35.1509C36.7361 34.6662 36.5982 34.1719 36.4747 33.6682C36.1325 33.8107 35.7903 33.9533 35.4624 34.0959ZM36.4747 33.6682C36.5982 34.1719 36.7361 34.6662 36.8881 35.1509C37.6865 37.5604 38.6418 39.87 39.7111 42.1369C40.9657 45.0026 42.3914 47.74 43.532 50.677C43.8837 50.5249 44.2306 50.3728 44.5728 50.2208C43.5605 47.8256 42.477 45.4731 41.4647 43.1207C40.2671 40.2835 38.8414 37.5461 37.9859 34.6234C37.8339 34.1386 37.696 33.6491 37.5725 33.1549C37.2018 33.326 36.8454 33.5256 36.4747 33.6682ZM37.5725 33.1549C37.696 33.6491 37.8339 34.1386 37.9859 34.6234C38.8414 37.5461 40.2671 40.2835 41.4647 43.1207C42.477 45.4731 43.5605 47.8256 44.5728 50.2208C44.7534 50.1447 44.934 50.0687 45.1145 49.9926C44.0595 47.626 43.0615 45.2307 42.0065 42.8783C40.8231 40.0554 39.5257 37.2895 38.5847 34.3382C38.4327 33.8535 38.2901 33.364 38.157 32.8698C37.9717 32.9696 37.7721 33.0694 37.5725 33.1549ZM38.157 32.8698C38.2901 33.364 38.4327 33.8535 38.5847 34.3382C39.5257 37.2895 40.8231 40.0554 42.0065 42.8783C43.0615 45.2307 44.0595 47.626 45.1145 49.9926C45.3332 49.8976 45.547 49.8026 45.7561 49.7075C44.7724 47.3123 43.7744 44.9171 42.6908 42.5504C41.4219 39.7417 40.2386 36.8903 39.2833 33.9676C39.1313 33.4923 38.9887 33.0123 38.8556 32.5276C38.6275 32.6416 38.3994 32.7557 38.157 32.8698ZM38.8556 32.5276C38.9887 33.0123 39.1313 33.4923 39.2833 33.9676C40.2386 36.8903 41.4219 39.7417 42.6908 42.5504C43.7744 44.9171 44.7724 47.3123 45.7561 49.7075C46.0888 49.5554 46.4215 49.4081 46.7541 49.2655C45.9842 47.4834 45.2286 45.687 44.4587 43.8906C42.9617 40.4688 41.3934 37.0756 40.3384 33.4543C40.1863 32.96 40.0485 32.4705 39.9249 31.9858C39.5637 32.1664 39.2073 32.347 38.8556 32.5276ZM39.9249 31.9858C40.0485 32.4705 40.1863 32.96 40.3384 33.4543C41.3934 37.0756 42.9617 40.4688 44.4587 43.8906C45.2286 45.687 45.9842 47.4834 46.7541 49.2655C47.1058 49.1135 47.4575 48.9566 47.8092 48.795C47.0535 46.9986 46.2836 45.2022 45.5137 43.4201C44.031 39.9841 42.5768 36.4768 41.4932 32.8698C41.3411 32.3755 41.1986 31.8813 41.0655 31.387C40.6758 31.5866 40.2956 31.7862 39.9249 31.9858ZM41.0655 31.387C41.1986 31.8813 41.3411 32.3755 41.4932 32.8698C42.5768 36.4768 44.031 39.9841 45.5137 43.4201C46.2836 45.2022 47.0535 46.9986 47.8092 48.795C48.0278 48.7 48.2464 48.6049 48.465 48.5099C47.581 46.7278 46.9109 44.8886 46.1125 43.0922C44.6583 39.6134 43.3467 36.0919 42.1918 32.4706C42.0397 31.9858 41.8972 31.5011 41.7641 31.0163C41.5265 31.1399 41.2936 31.2634 41.0655 31.387ZM41.7641 31.0163C41.8972 31.5011 42.0397 31.9858 42.1918 32.4706C43.3467 36.0919 44.6583 39.6134 46.1125 43.0922C46.9109 44.8886 47.581 46.7278 48.465 48.5099C48.8167 48.3578 49.1731 48.201 49.5343 48.0394C48.9782 46.8846 48.5078 45.6299 47.966 44.4466C47.7189 43.8383 47.4765 43.23 47.2389 42.6217C45.8987 39.0431 44.473 35.5073 43.3467 31.9003C43.2041 31.406 43.0615 30.907 42.9189 30.4033C42.5197 30.6029 42.1348 30.8025 41.7641 31.0163ZM42.9189 30.4033C43.0615 30.907 43.2041 31.406 43.3467 31.9003C44.473 35.5073 45.8987 39.0431 47.2389 42.6217C47.4765 43.23 47.7189 43.8383 47.966 44.4466C48.5078 45.6299 48.9782 46.8846 49.5343 48.0394C49.7054 47.9634 49.8812 47.8873 50.0618 47.8113C49.5913 46.5852 49.0068 45.4303 48.5648 44.19C48.3177 43.5817 48.0705 42.9734 47.8234 42.365C46.4405 38.815 45.0005 35.2507 43.9169 31.6009C43.7744 31.1066 43.6318 30.6076 43.4892 30.1039C43.3039 30.2037 43.1043 30.3035 42.9189 30.4033ZM34.2363 54.5835C34.4644 55.1347 34.6878 55.6813 34.9064 56.223C36.1468 59.545 37.5155 62.7814 38.9982 65.975C39.2073 66.4217 39.4164 66.8637 39.6255 67.3009C39.8441 67.7381 40.0675 68.1753 40.2956 68.6126C41.1653 70.3519 42.0778 72.0628 43.0615 73.7166C43.8029 73.1463 44.6298 72.6758 45.3712 72.1626C43.9455 70.7084 42.8904 68.912 41.8354 67.1441C41.4742 66.5358 41.132 65.9179 40.8089 65.2906C39.1693 62.1683 37.9574 58.8179 36.7741 55.4532C36.565 54.9209 36.3559 54.3886 36.1468 53.8563C35.106 54.2698 35.3056 54.1843 34.2363 54.5835ZM36.1468 53.8563C36.3559 54.3886 36.565 54.9209 36.7741 55.4532C37.9574 58.8179 39.1693 62.1683 40.8089 65.2906C41.132 65.9179 41.4742 66.5358 41.8354 67.1441C42.8904 68.912 43.9455 70.7084 45.3712 72.1626C45.6278 72.001 45.8844 71.8394 46.1411 71.6779C44.9149 70.0098 43.8599 68.2133 42.8762 66.3884C42.515 65.7896 42.1681 65.1861 41.8354 64.5778C40.1816 61.5267 38.9269 58.2903 37.5867 55.0967C37.3681 54.574 37.1543 54.0464 36.9452 53.5142C36.7313 53.5997 36.5032 53.7138 36.1468 53.8563ZM36.9452 53.5142C37.1543 54.0464 37.3681 54.574 37.5867 55.0967C38.9269 58.2903 40.1816 61.5267 41.8354 64.5778C42.1681 65.1861 42.515 65.7896 42.8762 66.3884C43.8599 68.2133 44.9149 70.0098 46.1411 71.6779C46.4927 71.4592 46.8444 71.2454 47.1961 71.0363C46.949 70.561 46.7066 70.0858 46.469 69.6106C46.2314 69.1448 45.9937 68.6743 45.7561 68.1991C45.2999 67.2581 44.8294 66.3171 44.3447 65.3762C44.0025 64.7916 43.6746 64.1928 43.3324 63.6083C41.65 60.6713 40.0532 57.6915 38.5705 54.6405C38.3424 54.1272 38.119 53.6045 37.9004 53.0722C37.4584 53.2575 37.2161 53.3716 36.9452 53.5142ZM37.9004 53.0722C38.119 53.6045 38.3424 54.1272 38.5705 54.6405C40.0532 57.6915 41.65 60.6713 43.3324 63.6083C43.6746 64.1928 44.0025 64.7916 44.3447 65.3762C44.8294 66.3171 45.2999 67.2581 45.7561 68.1991C45.9937 68.6743 46.2314 69.1448 46.469 69.6106C46.7066 70.0858 46.949 70.561 47.1961 71.0363C47.4147 70.9032 47.6381 70.7749 47.8662 70.6513C47.5668 70.0668 47.2816 69.4822 47.0108 68.8977C46.7351 68.3084 46.4595 67.7239 46.1838 67.1441C45.6421 65.9607 45.086 64.7916 44.473 63.6653C44.1878 63.152 43.9074 62.634 43.6318 62.1113C42.2346 59.5022 40.8944 56.8646 39.7111 54.1557C39.4925 53.633 39.2738 53.115 39.0552 52.6017C38.599 52.7871 38.1855 52.9581 37.9004 53.0722ZM39.0552 52.6017C39.2738 53.115 39.4925 53.633 39.7111 54.1557C40.8944 56.8646 42.2346 59.5022 43.6318 62.1113C43.9074 62.634 44.1878 63.152 44.473 63.6653C45.086 64.7916 45.6421 65.9607 46.1838 67.1441C46.4595 67.7239 46.7351 68.3084 47.0108 68.8977C47.2816 69.4822 47.5668 70.0668 47.8662 70.6513C48.1323 70.5088 48.4032 70.3662 48.6788 70.2236C47.9945 68.8549 47.4242 67.4292 46.8254 66.032C46.6258 65.5663 46.431 65.0958 46.2409 64.6205C45.8559 63.6796 45.4567 62.7386 45.0433 61.8119C44.7296 61.118 44.4207 60.4242 44.1165 59.7303C43.2041 57.6345 42.3201 55.5244 41.4219 53.4286C41.2128 52.9059 41.0037 52.3831 40.7946 51.8603C40.2243 52.1027 39.6113 52.3736 39.0552 52.6017ZM40.7946 51.8603C41.0037 52.3831 41.2128 52.9059 41.4219 53.4286C42.3201 55.5244 43.2041 57.6345 44.1165 59.7303C44.4207 60.4242 44.7296 61.118 45.0433 61.8119C45.4567 62.7386 45.8559 63.6796 46.2409 64.6205C46.431 65.0958 46.6258 65.5663 46.8254 66.032C47.4242 67.4292 47.9945 68.8549 48.6788 70.2236C49.021 70.043 49.3727 69.8672 49.7339 69.6961C48.8642 67.8569 48.3367 65.8894 47.5525 63.9932C47.3719 63.518 47.1913 63.0427 47.0108 62.5675C46.8302 62.1018 46.6401 61.6313 46.4405 61.156C46.1648 60.4527 45.8892 59.7493 45.6135 59.046C44.8009 56.9216 44.0025 54.7831 43.1898 52.673C42.9902 52.1502 42.7859 51.6275 42.5768 51.1047C42.1918 51.2758 41.5217 51.5609 40.7946 51.8603ZM42.5768 51.1047C42.7859 51.6275 42.9902 52.1502 43.1898 52.673C44.0025 54.7831 44.8009 56.9216 45.6135 59.046C45.8892 59.7493 46.1648 60.4527 46.4405 61.156C46.6401 61.6313 46.8302 62.1018 47.0108 62.5675C47.1913 63.0427 47.3719 63.518 47.5525 63.9932C48.3367 65.8894 48.8642 67.8569 49.7339 69.6961C50.038 69.5535 50.3469 69.411 50.6606 69.2684C49.8052 67.529 49.3062 65.6043 48.6076 63.7936C48.3937 63.1948 48.1656 62.596 47.9232 61.9972C47.6666 61.3509 47.41 60.6998 47.1533 60.044C46.1553 57.4207 45.2143 54.7973 44.1593 52.2453C43.9502 51.7225 43.7411 51.1998 43.532 50.677C43.2183 50.8196 42.8999 50.9621 42.5768 51.1047ZM43.532 50.677C43.7411 51.1998 43.9502 51.7225 44.1593 52.2453C45.2143 54.7973 46.1553 57.4207 47.1533 60.044C47.41 60.6998 47.6666 61.3509 47.9232 61.9972C48.1656 62.596 48.3937 63.1948 48.6076 63.7936C49.3062 65.6043 49.8052 67.529 50.6606 69.2684C50.9933 69.1068 51.3402 68.95 51.7014 68.7979C50.7034 66.973 50.1901 64.9484 49.4772 62.9952C49.2634 62.3394 49.021 61.6978 48.7786 61.0562C48.541 60.4384 48.3034 59.8206 48.0658 59.2028C47.1248 56.7363 46.1981 54.2556 45.2001 51.7891C44.991 51.2663 44.7819 50.7435 44.5728 50.2208C44.2306 50.3728 43.8837 50.5249 43.532 50.677ZM44.5728 50.2208C44.7819 50.7435 44.991 51.2663 45.2001 51.7891C46.1981 54.2556 47.1248 56.7363 48.0658 59.2028C48.3034 59.8206 48.541 60.4384 48.7786 61.0562C49.021 61.6978 49.2634 62.3394 49.4772 62.9952C50.1901 64.9484 50.7034 66.973 51.7014 68.7979C51.8915 68.7124 52.0816 68.6268 52.2717 68.5413C51.4305 66.6023 50.9172 64.5778 50.1473 62.6103C49.8907 61.9972 49.6341 61.3842 49.3774 60.7711C48.1086 57.7058 46.9822 54.612 45.7419 51.5467C45.5328 51.0239 45.3236 50.5059 45.1145 49.9926C44.934 50.0687 44.7534 50.1447 44.5728 50.2208ZM45.1145 49.9926C45.3236 50.5059 45.5328 51.0239 45.7419 51.5467C46.9822 54.612 48.1086 57.7058 49.3774 60.7711C49.6341 61.3842 49.8907 61.9972 50.1473 62.6103C50.9172 64.5778 51.4305 66.6023 52.2717 68.5413C52.5093 68.4462 52.7421 68.3464 52.9703 68.2419C51.9295 65.8752 51.2024 63.4087 50.2471 61.0277C49.981 60.3814 49.7196 59.7303 49.463 59.0745C48.4365 56.4654 47.467 53.8421 46.3977 51.2615C46.1886 50.7388 45.9747 50.2208 45.7561 49.7075C45.547 49.8026 45.3332 49.8976 45.1145 49.9926ZM45.7561 49.7075C45.9747 50.2208 46.1886 50.7388 46.3977 51.2615C47.467 53.8421 48.4365 56.4654 49.463 59.0745C49.7196 59.7303 49.981 60.3814 50.2471 61.0277C51.2024 63.4087 51.9295 65.8752 52.9703 68.2419C53.3409 68.0898 53.7116 67.933 54.0823 67.7714C53.0701 65.5187 52.3715 63.1235 51.4162 60.8281C51.1786 60.2768 50.9457 59.7208 50.7176 59.16C49.577 56.3799 48.5078 53.5997 47.3957 50.8196C47.1866 50.3063 46.9727 49.7883 46.7541 49.2655C46.4215 49.4081 46.0888 49.5554 45.7561 49.7075ZM46.7541 49.2655C46.9727 49.7883 47.1866 50.3063 47.3957 50.8196C48.5078 53.5997 49.577 56.3799 50.7176 59.16C50.9457 59.7208 51.1786 60.2768 51.4162 60.8281C52.3715 63.1235 53.0701 65.5187 54.0823 67.7714C54.4815 67.6098 54.8855 67.4435 55.2942 67.2724C54.3675 64.9627 53.512 62.653 52.5425 60.3719C52.3049 59.8111 52.0721 59.2551 51.8439 58.7038C50.6891 55.9236 49.6626 53.115 48.465 50.3491C48.2464 49.8358 48.0278 49.3178 47.8092 48.795C47.4575 48.9566 47.1058 49.1135 46.7541 49.2655ZM47.8092 48.795C48.0278 49.3178 48.2464 49.8358 48.465 50.3491C49.6626 53.115 50.6891 55.9236 51.8439 58.7038C52.0721 59.2551 52.3049 59.8111 52.5425 60.3719C53.512 62.653 54.3675 64.9627 55.2942 67.2724C55.5508 67.1678 55.8074 67.0633 56.0641 66.9587C54.9092 64.7346 54.2249 62.3394 53.1984 60.101C52.9608 59.5497 52.7231 58.9984 52.4855 58.4472C51.3164 55.6813 50.2614 52.8583 49.1066 50.0639C48.8975 49.5507 48.6836 49.0327 48.465 48.5099C48.2464 48.6049 48.0278 48.7 47.8092 48.795ZM48.465 48.5099C48.6836 49.0327 48.8975 49.5507 49.1066 50.0639C50.2614 52.8583 51.3164 55.6813 52.4855 58.4472C52.7231 58.9984 52.9608 59.5497 53.1984 60.101C54.2249 62.3394 54.9092 64.7346 56.0641 66.9587C56.4823 66.7876 56.9005 66.6165 57.3187 66.4455C56.2637 63.8934 55.2086 61.2701 54.0538 58.7466C53.6641 57.9101 53.2887 57.069 52.9275 56.223C51.958 54.0132 51.1026 51.8176 50.1901 49.6077C49.9715 49.0849 49.7529 48.5622 49.5343 48.0394C49.1731 48.201 48.8167 48.3578 48.465 48.5099ZM49.5343 48.0394C49.7529 48.5622 49.9715 49.0849 50.1901 49.6077C51.1026 51.8176 51.958 54.0132 52.9275 56.223C53.2887 57.069 53.6641 57.9101 54.0538 58.7466C55.2086 61.2701 56.2637 63.8934 57.3187 66.4455C57.5278 66.3599 57.7369 66.2744 57.946 66.1888C56.7769 63.6938 55.7504 61.0562 54.5956 58.5327C54.2249 57.6868 53.859 56.8409 53.4978 55.9949C52.5425 53.7708 51.6586 51.5895 50.7176 49.3796C50.499 48.8568 50.2804 48.3341 50.0618 47.8113C49.8812 47.8873 49.7054 47.9634 49.5343 48.0394Z" fill="url(#paint1_linear_630_81748)" fill-opacity="0.5"/>
</g>
</g>
<path d="M49.0638 55.8239L37.7864 28.9206L39.3262 28.2648L51.0598 56.2944L49.0638 55.8239Z" fill="url(#paint2_linear_630_81748)"/>
<path d="M38.827 61.427L27.0791 33.3974L28.6189 32.7558L39.8963 59.6591L38.827 61.427Z" fill="url(#paint3_linear_630_81748)"/>
<path d="M24.1423 63.0382L18.9241 54.3983L9.08667 56.7365L21.2623 27.6803L36.3179 33.9963L24.1423 63.0382Z" fill="#F11616"/>
<path style="mix-blend-mode:soft-light" d="M24.1423 63.0382L18.9241 54.3983L9.08667 56.7365L21.2623 27.6803L36.3179 33.9963L24.1423 63.0382Z" fill="url(#paint4_linear_630_81748)"/>
<mask id="mask1_630_81748" style="mask-type:luminance" maskUnits="userSpaceOnUse" x="9" y="27" width="28" height="37">
<path d="M24.1466 63.0452L18.917 54.4025L9.08813 56.7336L21.2638 27.6803L36.3222 33.9905L24.1466 63.0452Z" fill="white"/>
</mask>
<g mask="url(#mask1_630_81748)">
<g style="mix-blend-mode:multiply" opacity="0.4">
<path d="M35.22 35.3363C35.1155 35.7735 35.0109 36.206 34.9064 36.6337C33.8941 36.4341 32.8961 36.2488 31.8981 35.9209C32.0264 35.5216 32.0264 35.0654 32.2831 34.6947C33.2668 34.9228 34.1935 35.265 35.22 35.3363ZM32.2831 34.6947C32.0264 35.0654 32.0264 35.5216 31.8981 35.9209C31.5559 35.8258 31.2138 35.7308 30.8716 35.6357C30.9429 35.1937 31.0712 34.7945 31.2993 34.4524C31.6225 34.5379 31.9504 34.6187 32.2831 34.6947ZM31.2993 34.4524C31.0712 34.7945 30.9429 35.1937 30.8716 35.6357C30.4296 35.5216 29.9877 35.3933 29.5457 35.265C29.7025 34.8658 29.6597 34.2955 30.0019 34.0959C30.4296 34.2195 30.8621 34.3383 31.2993 34.4524ZM30.0019 34.0959C29.6597 34.2955 29.7025 34.8658 29.5457 35.265C29.2748 35.1937 28.9896 35.0797 28.7188 34.9941C28.9041 34.6377 28.7758 33.9391 29.2035 33.8393C29.4696 33.9248 29.7358 34.0104 30.0019 34.0959ZM29.2035 33.8393C28.7758 33.9391 28.9041 34.6377 28.7188 34.9941C28.3908 34.8658 28.0629 34.7375 27.735 34.6092C27.8491 34.1815 27.8633 33.4829 28.2625 33.5114C28.5762 33.6254 28.8898 33.7347 29.2035 33.8393ZM28.2625 33.5114C27.8633 33.4829 27.8491 34.1815 27.735 34.6092C27.3358 34.4524 26.9366 34.2813 26.5374 34.0959C26.6087 33.6397 26.7085 32.9696 27.0792 33.0694C27.4784 33.2215 27.8728 33.3688 28.2625 33.5114ZM27.0792 33.0694C26.7085 32.9696 26.6087 33.6397 26.5374 34.0959C26.1952 33.9534 25.8673 33.8108 25.5251 33.6682C25.6392 33.1407 25.6392 32.4991 26.0954 32.6702C26.4281 32.8033 26.756 32.9363 27.0792 33.0694ZM26.0954 32.6702C25.6392 32.4991 25.6392 33.1407 25.5251 33.6682C25.1545 33.5256 24.7838 33.326 24.4131 33.155C24.5271 32.7985 24.4273 31.9716 25.0261 32.214C25.3873 32.3661 25.7438 32.5181 26.0954 32.6702ZM25.0261 32.214C24.4273 31.9716 24.5271 32.7985 24.4131 33.155C24.2277 33.0694 24.0281 32.9696 23.8285 32.8698C23.9711 32.4706 23.8856 31.7578 24.4559 31.9574C24.646 32.0429 24.8361 32.1284 25.0261 32.214ZM24.4559 31.9574C23.8856 31.7578 23.9711 32.4706 23.8285 32.8698C23.6004 32.7558 23.3723 32.6417 23.1442 32.5276C23.2868 32.1284 23.187 31.4013 23.7715 31.6579C23.9996 31.7625 24.2277 31.8623 24.4559 31.9574ZM23.7715 31.6579C23.187 31.4013 23.2868 32.1284 23.1442 32.5276C22.783 32.347 22.4266 32.1665 22.0749 31.9859C22.1509 31.6817 22.227 31.3728 22.303 31.0591C22.4741 31.1304 22.5597 31.1304 22.745 31.1875C23.0872 31.349 23.4293 31.5059 23.7715 31.6579ZM22.745 31.1875C22.5597 31.1304 22.4741 31.1304 22.303 31.0591C22.227 31.3728 22.1509 31.6817 22.0749 31.9859C21.6947 31.7863 21.3145 31.5867 20.9343 31.3871C21.0104 31.0924 21.0864 30.7978 21.1624 30.5031C21.3478 30.5744 21.4333 30.5887 21.6187 30.6742C21.9989 30.8453 22.3743 31.0164 22.745 31.1875ZM21.6187 30.6742C21.4333 30.5887 21.3478 30.5744 21.1624 30.5031C21.0864 30.7978 21.0104 31.0924 20.9343 31.3871C20.7062 31.2635 20.4733 31.1399 20.2357 31.0164C20.3118 30.7217 20.3878 30.4318 20.4638 30.1467C20.6492 30.2322 20.7347 30.2607 20.9343 30.3463C21.1624 30.4508 21.3906 30.5601 21.6187 30.6742ZM20.9343 30.3463C20.7347 30.2607 20.6492 30.2322 20.4638 30.1467C20.3878 30.4318 20.3118 30.7217 20.2357 31.0164C19.8508 30.8025 19.4658 30.6029 19.0809 30.4033C19.1569 30.1277 19.2282 29.852 19.2948 29.5764C19.4944 29.6762 19.5942 29.7047 19.7938 29.8045C20.1739 29.9851 20.5541 30.1657 20.9343 30.3463ZM19.7938 29.8045C19.5942 29.7047 19.4944 29.6762 19.2948 29.5764C19.2282 29.852 19.1569 30.1277 19.0809 30.4033C18.8956 30.3035 18.696 30.2037 18.5106 30.1039C18.5866 29.8378 18.6579 29.5716 18.7245 29.3055C18.9241 29.3911 19.0239 29.4338 19.2235 29.5336C19.4136 29.6192 19.6037 29.7095 19.7938 29.8045ZM34.9064 36.6337C34.6307 37.6982 34.3313 38.7438 34.0082 39.7703C33.1385 42.3223 32.0692 44.7746 30.9714 47.1983C30.6958 47.8066 30.4201 48.4149 30.1445 49.0232C29.3461 50.8624 28.5192 52.7301 27.7493 54.5835C26.68 54.1843 26.8938 54.2699 25.8531 53.8564C26.7228 51.3471 27.7493 48.9092 28.619 46.3999C28.8566 45.7821 29.0847 45.169 29.3033 44.5607C29.9734 42.7073 30.6007 40.8538 31.114 38.9861C31.3991 37.9786 31.6605 36.9569 31.8981 35.9209C32.8961 36.2488 33.8941 36.4341 34.9064 36.6337ZM31.8981 35.9209C31.6605 36.9569 31.3991 37.9786 31.114 38.9861C30.6007 40.8538 29.9734 42.7073 29.3033 44.5607C29.0847 45.169 28.8566 45.7821 28.619 46.3999C27.7493 48.9092 26.7228 51.3471 25.8531 53.8564C25.4824 53.7138 25.2685 53.5998 25.0547 53.5142C26.0099 51.0477 26.8938 48.5955 27.7778 46.0862C27.9964 45.4684 28.2055 44.8506 28.4051 44.2328C29.0324 42.3936 29.6027 40.5402 30.116 38.6725C30.3916 37.665 30.6435 36.6527 30.8716 35.6357C31.2138 35.7308 31.5559 35.8258 31.8981 35.9209ZM30.8716 35.6357C30.6435 36.6527 30.3916 37.665 30.116 38.6725C29.6027 40.5402 29.0324 42.3936 28.4051 44.2328C28.2055 44.8506 27.9964 45.4684 27.7778 46.0862C26.8938 48.5955 26.0099 51.0477 25.0547 53.5142C24.7838 53.3717 24.5414 53.2576 24.0852 53.0723C25.183 50.1638 26.0669 47.184 27.0079 44.2328C27.2265 43.5675 27.4356 42.9021 27.6352 42.2368C28.0439 40.8966 28.4289 39.5659 28.79 38.2448C28.9231 37.7505 29.0514 37.2563 29.175 36.762C29.2986 36.2678 29.4221 35.7688 29.5457 35.265C29.9877 35.3933 30.4296 35.5216 30.8716 35.6357ZM29.5457 35.265C29.4221 35.7688 29.2986 36.2678 29.175 36.762C29.0514 37.2563 28.9231 37.7505 28.79 38.2448C28.4289 39.5659 28.0439 40.8966 27.6352 42.2368C27.4356 42.9021 27.2265 43.5675 27.0079 44.2328C26.0669 47.184 25.183 50.1638 24.0852 53.0723C23.8143 52.9582 23.4008 52.7871 22.9303 52.6018C23.9996 49.4937 25.0547 46.4712 26.181 43.4059C26.3996 42.8071 26.6087 42.2035 26.8083 41.5952C27.0174 40.9869 27.217 40.3786 27.4071 39.7703C27.7065 38.701 28.0914 37.6175 28.3481 36.4769C28.4811 35.9826 28.6047 35.4884 28.7188 34.9941C28.9896 35.0797 29.2748 35.1937 29.5457 35.265ZM28.7188 34.9941C28.6047 35.4884 28.4811 35.9826 28.3481 36.4769C28.0914 37.6175 27.7065 38.701 27.4071 39.7703C27.217 40.3786 27.0174 40.9869 26.8083 41.5952C26.6087 42.2035 26.3996 42.8071 26.181 43.4059C25.0547 46.4712 23.9996 49.4937 22.9303 52.6018C22.3886 52.3737 21.7755 52.1028 21.191 51.8604C22.3601 48.8236 23.5862 45.8724 24.8978 42.9211C25.1545 42.3318 25.4016 41.7425 25.6392 41.1532C26.295 39.4852 26.8796 37.8171 27.3643 36.1062C27.4974 35.6119 27.621 35.1129 27.735 34.6092C28.0629 34.7375 28.3908 34.8658 28.7188 34.9941ZM27.735 34.6092C27.621 35.1129 27.4974 35.6119 27.3643 36.1062C26.8796 37.8171 26.295 39.4852 25.6392 41.1532C25.4016 41.7425 25.1545 42.3318 24.8978 42.9211C23.5862 45.8724 22.3601 48.8236 21.191 51.8604C20.4781 51.561 19.808 51.2759 19.4231 51.1048C20.6349 48.1108 21.9466 45.2023 23.2725 42.2796C24.3275 40.0554 25.2828 37.8456 26.0812 35.5644C26.2428 35.0892 26.3948 34.5997 26.5374 34.0959C26.9366 34.2813 27.3358 34.4524 27.735 34.6092ZM26.5374 34.0959C26.3948 34.5997 26.2428 35.0892 26.0812 35.5644C25.2828 37.8456 24.3275 40.0554 23.2725 42.2796C21.9466 45.2023 20.6349 48.1108 19.4231 51.1048C19.0999 50.9622 18.7767 50.8196 18.4536 50.6771C19.5942 47.7401 21.0199 45.0027 22.2745 42.137C23.3581 39.8701 24.3133 37.5604 25.0974 35.151C25.2495 34.6662 25.3921 34.172 25.5251 33.6682C25.8673 33.8108 26.1952 33.9534 26.5374 34.0959ZM25.5251 33.6682C25.3921 34.172 25.2495 34.6662 25.0974 35.151C24.3133 37.5604 23.3581 39.8701 22.2745 42.137C21.0199 45.0027 19.5942 47.7401 18.4536 50.6771C18.1114 50.525 17.7692 50.3729 17.4271 50.2208C18.4393 47.8256 19.5229 45.4732 20.5351 43.1207C21.7185 40.2836 23.1585 37.5462 24.0139 34.6234C24.166 34.1387 24.299 33.6492 24.4131 33.155C24.7838 33.326 25.1545 33.5256 25.5251 33.6682ZM24.4131 33.155C24.299 33.6492 24.166 34.1387 24.0139 34.6234C23.1585 37.5462 21.7185 40.2836 20.5351 43.1207C19.5229 45.4732 18.4393 47.8256 17.4271 50.2208C17.2465 50.1448 17.0659 50.0687 16.8853 49.9927C17.9261 47.626 18.9241 45.2308 19.9934 42.8784C21.1767 40.0554 22.4599 37.2895 23.4008 34.3383C23.5529 33.8536 23.6955 33.3641 23.8285 32.8698C24.0281 32.9696 24.2277 33.0694 24.4131 33.155ZM23.8285 32.8698C23.6955 33.3641 23.5529 33.8536 23.4008 34.3383C22.4599 37.2895 21.1767 40.0554 19.9934 42.8784C18.9241 45.2308 17.9261 47.626 16.8853 49.9927C16.6667 49.8977 16.4481 49.8026 16.2295 49.7076C17.2132 47.3124 18.2255 44.9171 19.2948 42.5504C20.5636 39.7418 21.7612 36.8903 22.7022 33.9676C22.8638 33.4924 23.0111 33.0124 23.1442 32.5276C23.3723 32.6417 23.6004 32.7558 23.8285 32.8698ZM23.1442 32.5276C23.0111 33.0124 22.8638 33.4924 22.7022 33.9676C21.7612 36.8903 20.5636 39.7418 19.2948 42.5504C18.2255 44.9171 17.2132 47.3124 16.2295 49.7076C15.8968 49.5555 15.5689 49.4082 15.2457 49.2656C16.0156 47.4834 16.7712 45.687 17.5411 43.8906C19.0381 40.4689 20.5922 37.0757 21.6614 33.4544C21.804 32.9601 21.9418 32.4706 22.0749 31.9859C22.4266 32.1665 22.783 32.347 23.1442 32.5276ZM22.0749 31.9859C21.9418 32.4706 21.804 32.9601 21.6614 33.4544C20.5922 37.0757 19.0381 40.4689 17.5411 43.8906C16.7712 45.687 16.0156 47.4834 15.2457 49.2656C14.894 49.1135 14.5424 48.9567 14.1907 48.7951C14.9463 46.9987 15.7162 45.2023 16.4861 43.4201C17.9688 39.9842 19.4231 36.4769 20.5066 32.8698C20.6587 32.3756 20.8013 31.8813 20.9343 31.3871C21.3145 31.5867 21.6947 31.7863 22.0749 31.9859ZM20.9343 31.3871C20.8013 31.8813 20.6587 32.3756 20.5066 32.8698C19.4231 36.4769 17.9688 39.9842 16.4861 43.4201C15.7162 45.2023 14.9463 46.9987 14.1907 48.7951C13.9721 48.7001 13.7535 48.605 13.5348 48.51C14.4188 46.7278 15.0889 44.8886 15.8873 43.0922C17.3415 39.6135 18.6532 36.0919 19.808 32.4706C19.9601 31.9859 20.1027 31.5011 20.2357 31.0164C20.4733 31.1399 20.7062 31.2635 20.9343 31.3871ZM20.2357 31.0164C20.1027 31.5011 19.9601 31.9859 19.808 32.4706C18.6532 36.0919 17.3415 39.6135 15.8873 43.0922C15.0889 44.8886 14.4188 46.7278 13.5348 48.51C13.1832 48.3579 12.8267 48.2011 12.4656 48.0395C13.0073 46.8846 13.4921 45.63 14.0338 44.4467C14.281 43.8384 14.5233 43.23 14.761 42.6217C16.1011 39.0432 17.5126 35.5074 18.6389 31.9003C18.791 31.4061 18.9383 30.9071 19.0809 30.4033C19.4658 30.6029 19.8508 30.8025 20.2357 31.0164ZM19.0809 30.4033C18.9383 30.9071 18.791 31.4061 18.6389 31.9003C17.5126 35.5074 16.1011 39.0432 14.761 42.6217C14.5233 43.23 14.281 43.8384 14.0338 44.4467C13.4921 45.63 13.0073 46.8846 12.4656 48.0395C12.285 47.9634 12.1091 47.8874 11.938 47.8114C12.4085 46.5852 12.9788 45.4304 13.4208 44.19C13.6679 43.5817 13.915 42.9734 14.1622 42.3651C15.5594 38.8151 16.9851 35.2508 18.0686 31.6009C18.2207 31.1067 18.368 30.6077 18.5106 30.1039C18.696 30.2037 18.8956 30.3035 19.0809 30.4033ZM27.7493 54.5835C27.5307 55.1348 27.312 55.6813 27.0934 56.2231C25.8531 59.545 24.4701 62.7814 23.0016 65.975C22.7925 66.4218 22.5787 66.8637 22.3601 67.3009C22.1509 67.7382 21.9323 68.1754 21.7042 68.6126C20.8203 70.352 19.9078 72.0629 18.9241 73.7167C18.1969 73.1464 17.3558 72.6759 16.6287 72.1627C18.0544 70.7084 19.1094 68.912 20.1644 67.1441C20.5256 66.5358 20.8678 65.918 21.191 65.2907C22.8163 62.1684 24.0281 58.8179 25.2257 55.4532C25.4253 54.9209 25.6345 54.3887 25.8531 53.8564C26.8938 54.2699 26.68 54.1843 27.7493 54.5835ZM25.8531 53.8564C25.6345 54.3887 25.4253 54.9209 25.2257 55.4532C24.0281 58.8179 22.8163 62.1684 21.191 65.2907C20.8678 65.918 20.5256 66.5358 20.1644 67.1441C19.1094 68.912 18.0544 70.7084 16.6287 72.1627C16.372 72.0011 16.1106 71.8395 15.8445 71.6779C17.0849 70.0098 18.1399 68.2134 19.1237 66.3885C19.4848 65.7897 19.827 65.1861 20.1502 64.5778C21.804 61.5268 23.0729 58.2904 24.4131 55.0968C24.6317 54.574 24.8456 54.0465 25.0547 53.5142C25.2685 53.5998 25.4824 53.7138 25.8531 53.8564ZM25.0547 53.5142C24.8456 54.0465 24.6317 54.574 24.4131 55.0968C23.0729 58.2904 21.804 61.5268 20.1502 64.5778C19.827 65.1861 19.4848 65.7897 19.1237 66.3885C18.1399 68.2134 17.0849 70.0098 15.8445 71.6779C15.5023 71.4593 15.1554 71.2454 14.8037 71.0363C15.0509 70.5611 15.2932 70.0859 15.5309 69.6106C15.7685 69.1449 16.0013 68.6744 16.2295 68.1992C16.6999 67.2582 17.1704 66.3172 17.6552 65.3762C17.9831 64.7917 18.3253 64.1929 18.6674 63.6083C20.3498 60.6713 21.9466 57.6916 23.4151 54.6406C23.6527 54.1273 23.8761 53.6045 24.0852 53.0723C24.5414 53.2576 24.7838 53.3717 25.0547 53.5142ZM24.0852 53.0723C23.8761 53.6045 23.6527 54.1273 23.4151 54.6406C21.9466 57.6916 20.3498 60.6713 18.6674 63.6083C18.3253 64.1929 17.9831 64.7917 17.6552 65.3762C17.1704 66.3172 16.6999 67.2582 16.2295 68.1992C16.0013 68.6744 15.7685 69.1449 15.5309 69.6106C15.2932 70.0859 15.0509 70.5611 14.8037 71.0363C14.5756 70.9033 14.3475 70.775 14.1194 70.6514C14.4188 70.0668 14.7039 69.4823 14.9891 68.8978C15.2647 68.3085 15.5404 67.7239 15.816 67.1441C16.3578 65.9608 16.8995 64.7917 17.5126 63.6654C17.7977 63.1521 18.0829 62.6341 18.368 62.1113C19.751 59.5023 21.1054 56.8647 22.2888 54.1558C22.5074 53.633 22.7212 53.115 22.9303 52.6018C23.4008 52.7871 23.8143 52.9582 24.0852 53.0723ZM22.9303 52.6018C22.7212 53.115 22.5074 53.633 22.2888 54.1558C21.1054 56.8647 19.751 59.5023 18.368 62.1113C18.0829 62.6341 17.7977 63.1521 17.5126 63.6654C16.8995 64.7917 16.3578 65.9608 15.816 67.1441C15.5404 67.7239 15.2647 68.3085 14.9891 68.8978C14.7039 69.4823 14.4188 70.0668 14.1194 70.6514C13.8533 70.5088 13.5871 70.3662 13.321 70.2237C14.0053 68.855 14.5614 67.4293 15.1744 66.0321C15.3645 65.5663 15.5594 65.0958 15.759 64.6206C16.1439 63.6796 16.5289 62.7386 16.9566 61.8119C17.2702 61.1181 17.5791 60.4242 17.8833 59.7304C18.7957 57.6346 19.6797 55.5245 20.5636 53.4287C20.7823 52.9059 20.9914 52.3832 21.191 51.8604C21.7755 52.1028 22.3886 52.3737 22.9303 52.6018ZM21.191 51.8604C20.9914 52.3832 20.7823 52.9059 20.5636 53.4287C19.6797 55.5245 18.7957 57.6346 17.8833 59.7304C17.5791 60.4242 17.2702 61.1181 16.9566 61.8119C16.5289 62.7386 16.1439 63.6796 15.759 64.6206C15.5594 65.0958 15.3645 65.5663 15.1744 66.0321C14.5614 67.4293 14.0053 68.855 13.321 70.2237C12.9693 70.0431 12.6176 69.8672 12.266 69.6962C13.1356 67.857 13.6632 65.8895 14.4473 63.9933C14.6184 63.518 14.799 63.0428 14.9891 62.5676C15.1697 62.1018 15.3598 61.6313 15.5594 61.1561C15.835 60.4527 16.1106 59.7494 16.3863 59.046C17.1989 56.9217 17.9831 54.7831 18.81 52.6731C19.0096 52.1503 19.214 51.6275 19.4231 51.1048C19.808 51.2759 20.4781 51.561 21.191 51.8604ZM19.4231 51.1048C19.214 51.6275 19.0096 52.1503 18.81 52.6731C17.9831 54.7831 17.1989 56.9217 16.3863 59.046C16.1106 59.7494 15.835 60.4527 15.5594 61.1561C15.3598 61.6313 15.1697 62.1018 14.9891 62.5676C14.799 63.0428 14.6184 63.518 14.4473 63.9933C13.6632 65.8895 13.1356 67.857 12.266 69.6962C11.9618 69.5536 11.6529 69.411 11.3392 69.2684C12.1804 67.5291 12.6937 65.6043 13.378 63.7937C13.5919 63.1949 13.82 62.5961 14.0766 61.9973C14.3332 61.3509 14.5851 60.6999 14.8322 60.044C15.8445 57.4207 16.7855 54.7974 17.8405 52.2453C18.0401 51.7226 18.2445 51.1998 18.4536 50.6771C18.7767 50.8196 19.0999 50.9622 19.4231 51.1048ZM18.4536 50.6771C18.2445 51.1998 18.0401 51.7226 17.8405 52.2453C16.7855 54.7974 15.8445 57.4207 14.8322 60.044C14.5851 60.6999 14.3332 61.3509 14.0766 61.9973C13.82 62.5961 13.5919 63.1949 13.378 63.7937C12.6937 65.6043 12.1804 67.5291 11.3392 69.2684C10.9971 69.1069 10.6501 68.95 10.2985 68.798C11.2965 66.973 11.7955 64.9485 12.5083 62.9953C12.7364 62.3394 12.9646 61.6979 13.2212 61.0563C13.4588 60.4385 13.6964 59.8207 13.934 59.2029C14.875 56.7364 15.7875 54.2556 16.7997 51.7891C17.0088 51.2664 17.218 50.7436 17.4271 50.2208C17.7692 50.3729 18.1114 50.525 18.4536 50.6771ZM17.4271 50.2208C17.218 50.7436 17.0088 51.2664 16.7997 51.7891C15.7875 54.2556 14.875 56.7364 13.934 59.2029C13.6964 59.8207 13.4588 60.4385 13.2212 61.0563C12.9646 61.6979 12.7364 62.3394 12.5083 62.9953C11.7955 64.9485 11.2965 66.973 10.2985 68.798C10.1084 68.7124 9.91827 68.6269 9.72817 68.5413C10.5693 66.6023 11.0684 64.5778 11.8525 62.6103C12.1091 61.9973 12.3658 61.3842 12.6224 60.7712C13.8913 57.7059 15.0176 54.612 16.2437 51.5467C16.4528 51.024 16.6667 50.506 16.8853 49.9927C17.0659 50.0687 17.2465 50.1448 17.4271 50.2208ZM16.8853 49.9927C16.6667 50.506 16.4528 51.024 16.2437 51.5467C15.0176 54.612 13.8913 57.7059 12.6224 60.7712C12.3658 61.3842 12.1091 61.9973 11.8525 62.6103C11.0684 64.5778 10.5693 66.6023 9.72817 68.5413C9.49055 68.4463 9.25293 68.3465 9.01531 68.2419C10.0561 65.8752 10.7975 63.4087 11.7527 61.0278C12.0188 60.3815 12.2802 59.7304 12.5368 59.0745C13.5491 56.4655 14.5328 53.8422 15.6021 51.2616C15.8112 50.7388 16.0203 50.2208 16.2295 49.7076C16.4481 49.8026 16.6667 49.8977 16.8853 49.9927ZM16.2295 49.7076C16.0203 50.2208 15.8112 50.7388 15.6021 51.2616C14.5328 53.8422 13.5491 56.4655 12.5368 59.0745C12.2802 59.7304 12.0188 60.3815 11.7527 61.0278C10.7975 63.4087 10.0561 65.8752 9.01531 68.2419C8.65413 68.0898 8.2882 67.933 7.91751 67.7714C8.92977 65.5188 9.61411 63.1236 10.5836 60.8282C10.8117 60.2769 11.0398 59.7209 11.268 59.1601C12.4228 56.3799 13.4921 53.5998 14.6041 50.8196C14.8132 50.3064 15.0271 49.7884 15.2457 49.2656C15.5689 49.4082 15.8968 49.5555 16.2295 49.7076ZM15.2457 49.2656C15.0271 49.7884 14.8132 50.3064 14.6041 50.8196C13.4921 53.5998 12.4228 56.3799 11.268 59.1601C11.0398 59.7209 10.8117 60.2769 10.5836 60.8282C9.61411 63.1236 8.92977 65.5188 7.91751 67.7714C7.5088 67.6099 7.10009 67.4435 6.69139 67.2724C7.63236 64.9628 8.4878 62.6531 9.45729 60.372C9.69491 59.8112 9.92777 59.2551 10.1559 58.7039C11.3107 55.9237 12.3372 53.115 13.5348 50.3491C13.7535 49.8359 13.9721 49.3179 14.1907 48.7951C14.5424 48.9567 14.894 49.1135 15.2457 49.2656ZM14.1907 48.7951C13.9721 49.3179 13.7535 49.8359 13.5348 50.3491C12.3372 53.115 11.3107 55.9237 10.1559 58.7039C9.92777 59.2551 9.69491 59.8112 9.45729 60.372C8.4878 62.6531 7.63236 64.9628 6.69139 67.2724C6.44426 67.1679 6.19239 67.0633 5.93576 66.9588C7.07633 64.7346 7.77494 62.3394 8.7872 60.1011C9.03432 59.5498 9.27194 58.9985 9.50006 58.4472C10.6691 55.6813 11.7384 52.8584 12.879 50.064C13.0976 49.5507 13.3162 49.0327 13.5348 48.51C13.7535 48.605 13.9721 48.7001 14.1907 48.7951ZM13.5348 48.51C13.3162 49.0327 13.0976 49.5507 12.879 50.064C11.7384 52.8584 10.6691 55.6813 9.50006 58.4472C9.27194 58.9985 9.03432 59.5498 8.7872 60.1011C7.77494 62.3394 7.07633 64.7346 5.93576 66.9588C5.51755 66.7877 5.09458 66.6166 4.66687 66.4455C5.7219 63.8935 6.79119 61.2702 7.94602 58.7466C8.32621 57.9102 8.70166 57.069 9.07234 56.2231C10.0276 54.0132 10.883 51.8176 11.8097 49.6078C12.0283 49.085 12.2469 48.5622 12.4656 48.0395C12.8267 48.2011 13.1832 48.3579 13.5348 48.51ZM12.4656 48.0395C12.2469 48.5622 12.0283 49.085 11.8097 49.6078C10.883 51.8176 10.0276 54.0132 9.07234 56.2231C8.70166 57.069 8.32621 57.9102 7.94602 58.7466C6.79119 61.2702 5.7219 63.8935 4.66687 66.4455C4.45776 66.36 4.24866 66.2744 4.03955 66.1889C5.2229 63.6939 6.24942 61.0563 7.38999 58.5328C7.77018 57.6868 8.14087 56.8409 8.50205 55.995C9.44303 53.7709 10.3412 51.5895 11.2822 49.3796C11.5008 48.8569 11.7194 48.3341 11.938 47.8114C12.1091 47.8874 12.285 47.9634 12.4656 48.0395Z" fill="url(#paint5_linear_630_81748)" fill-opacity="0.5"/>
</g>
</g>
<path d="M12.936 55.824L24.2135 28.9207L22.6737 28.2648L10.9258 56.2945L12.936 55.824Z" fill="url(#paint6_linear_630_81748)"/>
<path d="M23.1728 61.4271L34.9065 33.3974L33.3667 32.7559L22.1035 59.6592L23.1728 61.4271Z" fill="url(#paint7_linear_630_81748)"/>
<path d="M31.7129 0.320787L32.9675 1.74651C33.2954 2.11719 33.8514 2.18848 34.2506 1.90334L35.7904 0.791275C36.2609 0.449102 36.9167 0.591674 37.1876 1.10493L38.1001 2.77303C38.3282 3.20074 38.8557 3.38609 39.312 3.20074L41.0656 2.45937C41.5931 2.23125 42.1919 2.53065 42.3487 3.07243L42.862 4.91161C42.9903 5.38209 43.4608 5.68149 43.9455 5.59595L45.8275 5.26804C46.3835 5.16824 46.911 5.58169 46.9396 6.15198L47.0393 8.06245C47.0679 8.54719 47.4528 8.93214 47.9376 8.96065L49.848 9.06045C50.4183 9.08897 50.8318 9.61648 50.732 10.1725L50.4041 12.0545C50.3185 12.5392 50.6179 12.9954 51.0884 13.138L52.9276 13.6513C53.4694 13.8081 53.7687 14.4069 53.5406 14.9344L52.7993 16.6881C52.6139 17.1443 52.7993 17.6718 53.227 17.8999L54.8951 18.8124C55.4083 19.0833 55.5509 19.7391 55.2087 20.2096L54.0967 21.7494C53.8115 22.1486 53.8828 22.7046 54.2535 23.0325L55.6792 24.2871C56.1069 24.6721 56.1069 25.3422 55.6792 25.7129L54.2535 26.9818C53.8828 27.2954 53.8115 27.8514 54.0967 28.2506L55.2087 29.7904C55.5509 30.2609 55.4083 30.9167 54.8951 31.1876L53.227 32.1001C52.7993 32.3425 52.6139 32.8557 52.7993 33.312L53.5406 35.0656C53.7687 35.5931 53.4694 36.1919 52.9276 36.3487L51.0884 36.8763C50.6179 37.0046 50.3185 37.4751 50.4041 37.9598L50.732 39.8275C50.8318 40.3978 50.4183 40.9253 49.848 40.9538L47.9376 41.0393C47.4528 41.0679 47.0679 41.4528 47.0393 41.9518L46.9396 43.848C46.911 44.4183 46.3835 44.846 45.8275 44.7462L43.9455 44.4041C43.4608 44.3185 42.9903 44.6179 42.862 45.0884L42.3487 46.9276C42.1919 47.4836 41.5931 47.7687 41.0656 47.5406L39.312 46.7993C38.8557 46.6139 38.3282 46.7993 38.1001 47.227L37.1876 48.8951C36.9167 49.4083 36.2609 49.5509 35.7904 49.223L34.2506 48.1109C33.8514 47.8258 33.2954 47.8828 32.9675 48.2535L31.7129 49.6792C31.3279 50.1069 30.6578 50.1069 30.2871 49.6792L29.0182 48.2535C28.7046 47.8828 28.1486 47.8258 27.7494 48.1109L26.2096 49.223C25.7391 49.5509 25.0833 49.4083 24.8124 48.8951L23.8999 47.227C23.6575 46.7993 23.1443 46.6139 22.6881 46.7993L20.9344 47.5406C20.4069 47.7687 19.8081 47.4836 19.6513 46.9276L19.1238 45.0884C18.9954 44.6179 18.525 44.3185 18.0402 44.4041L16.1725 44.7462C15.6022 44.846 15.0747 44.4183 15.0462 43.848L14.9606 41.9518C14.9321 41.4528 14.5472 41.0679 14.0482 41.0393L12.152 40.9538C11.5817 40.9253 11.154 40.3978 11.2538 39.8275L11.596 37.9598C11.6815 37.4751 11.3821 37.0046 10.9116 36.8763L9.07243 36.3487C8.5164 36.1919 8.23125 35.5931 8.45937 35.0656L9.20074 33.312C9.38608 32.8557 9.20074 32.3425 8.77303 32.1001L7.10493 31.1876C6.59167 30.9167 6.4491 30.2609 6.77702 29.7904L7.88908 28.2506C8.17422 27.8514 8.11719 27.2954 7.74651 26.9818L6.32079 25.7129C5.89307 25.3422 5.89307 24.6721 6.32079 24.2871L7.74651 23.0325C8.11719 22.7046 8.17422 22.1486 7.88908 21.7494L6.77702 20.2096C6.4491 19.7391 6.59167 19.0833 7.10493 18.8124L8.77303 17.8999C9.20074 17.6718 9.38608 17.1443 9.20074 16.6881L8.45937 14.9344C8.23125 14.4069 8.5164 13.8081 9.07243 13.6513L10.9116 13.138C11.3821 12.9954 11.6815 12.5392 11.596 12.0545L11.2538 10.1725C11.154 9.61648 11.5817 9.08897 12.152 9.06045L14.0482 8.96065C14.5472 8.93214 14.9321 8.54719 14.9606 8.06245L15.0462 6.15198C15.0747 5.58169 15.6022 5.16824 16.1725 5.26804L18.0402 5.59595C18.525 5.68149 18.9954 5.38209 19.1238 4.91161L19.6513 3.07243C19.8081 2.53065 20.4069 2.23125 20.9344 2.45937L22.6881 3.20074C23.1443 3.38609 23.6575 3.20074 23.8999 2.77303L24.8124 1.10493C25.0833 0.591674 25.7391 0.449102 26.2096 0.791275L27.7494 1.90334C28.1486 2.18848 28.7046 2.11719 29.0182 1.74651L30.2871 0.320787C30.6578 -0.106929 31.3279 -0.106929 31.7129 0.320787Z" fill="#0C53B7"/>
<path d="M31.7129 0.320787L32.9675 1.74651C33.2954 2.11719 33.8514 2.18848 34.2506 1.90334L35.7904 0.791275C36.2609 0.449102 36.9167 0.591674 37.1876 1.10493L38.1001 2.77303C38.3282 3.20074 38.8557 3.38609 39.312 3.20074L41.0656 2.45937C41.5931 2.23125 42.1919 2.53065 42.3487 3.07243L42.862 4.91161C42.9903 5.38209 43.4608 5.68149 43.9455 5.59595L45.8275 5.26804C46.3835 5.16824 46.911 5.58169 46.9396 6.15198L47.0393 8.06245C47.0679 8.54719 47.4528 8.93214 47.9376 8.96065L49.848 9.06045C50.4183 9.08897 50.8318 9.61648 50.732 10.1725L50.4041 12.0545C50.3185 12.5392 50.6179 12.9954 51.0884 13.138L52.9276 13.6513C53.4694 13.8081 53.7687 14.4069 53.5406 14.9344L52.7993 16.6881C52.6139 17.1443 52.7993 17.6718 53.227 17.8999L54.8951 18.8124C55.4083 19.0833 55.5509 19.7391 55.2087 20.2096L54.0967 21.7494C53.8115 22.1486 53.8828 22.7046 54.2535 23.0325L55.6792 24.2871C56.1069 24.6721 56.1069 25.3422 55.6792 25.7129L54.2535 26.9818C53.8828 27.2954 53.8115 27.8514 54.0967 28.2506L55.2087 29.7904C55.5509 30.2609 55.4083 30.9167 54.8951 31.1876L53.227 32.1001C52.7993 32.3425 52.6139 32.8557 52.7993 33.312L53.5406 35.0656C53.7687 35.5931 53.4694 36.1919 52.9276 36.3487L51.0884 36.8763C50.6179 37.0046 50.3185 37.4751 50.4041 37.9598L50.732 39.8275C50.8318 40.3978 50.4183 40.9253 49.848 40.9538L47.9376 41.0393C47.4528 41.0679 47.0679 41.4528 47.0393 41.9518L46.9396 43.848C46.911 44.4183 46.3835 44.846 45.8275 44.7462L43.9455 44.4041C43.4608 44.3185 42.9903 44.6179 42.862 45.0884L42.3487 46.9276C42.1919 47.4836 41.5931 47.7687 41.0656 47.5406L39.312 46.7993C38.8557 46.6139 38.3282 46.7993 38.1001 47.227L37.1876 48.8951C36.9167 49.4083 36.2609 49.5509 35.7904 49.223L34.2506 48.1109C33.8514 47.8258 33.2954 47.8828 32.9675 48.2535L31.7129 49.6792C31.3279 50.1069 30.6578 50.1069 30.2871 49.6792L29.0182 48.2535C28.7046 47.8828 28.1486 47.8258 27.7494 48.1109L26.2096 49.223C25.7391 49.5509 25.0833 49.4083 24.8124 48.8951L23.8999 47.227C23.6575 46.7993 23.1443 46.6139 22.6881 46.7993L20.9344 47.5406C20.4069 47.7687 19.8081 47.4836 19.6513 46.9276L19.1238 45.0884C18.9954 44.6179 18.525 44.3185 18.0402 44.4041L16.1725 44.7462C15.6022 44.846 15.0747 44.4183 15.0462 43.848L14.9606 41.9518C14.9321 41.4528 14.5472 41.0679 14.0482 41.0393L12.152 40.9538C11.5817 40.9253 11.154 40.3978 11.2538 39.8275L11.596 37.9598C11.6815 37.4751 11.3821 37.0046 10.9116 36.8763L9.07243 36.3487C8.5164 36.1919 8.23125 35.5931 8.45937 35.0656L9.20074 33.312C9.38608 32.8557 9.20074 32.3425 8.77303 32.1001L7.10493 31.1876C6.59167 30.9167 6.4491 30.2609 6.77702 29.7904L7.88908 28.2506C8.17422 27.8514 8.11719 27.2954 7.74651 26.9818L6.32079 25.7129C5.89307 25.3422 5.89307 24.6721 6.32079 24.2871L7.74651 23.0325C8.11719 22.7046 8.17422 22.1486 7.88908 21.7494L6.77702 20.2096C6.4491 19.7391 6.59167 19.0833 7.10493 18.8124L8.77303 17.8999C9.20074 17.6718 9.38608 17.1443 9.20074 16.6881L8.45937 14.9344C8.23125 14.4069 8.5164 13.8081 9.07243 13.6513L10.9116 13.138C11.3821 12.9954 11.6815 12.5392 11.596 12.0545L11.2538 10.1725C11.154 9.61648 11.5817 9.08897 12.152 9.06045L14.0482 8.96065C14.5472 8.93214 14.9321 8.54719 14.9606 8.06245L15.0462 6.15198C15.0747 5.58169 15.6022 5.16824 16.1725 5.26804L18.0402 5.59595C18.525 5.68149 18.9954 5.38209 19.1238 4.91161L19.6513 3.07243C19.8081 2.53065 20.4069 2.23125 20.9344 2.45937L22.6881 3.20074C23.1443 3.38609 23.6575 3.20074 23.8999 2.77303L24.8124 1.10493C25.0833 0.591674 25.7391 0.449102 26.2096 0.791275L27.7494 1.90334C28.1486 2.18848 28.7046 2.11719 29.0182 1.74651L30.2871 0.320787C30.6578 -0.106929 31.3279 -0.106929 31.7129 0.320787Z" fill="url(#paint8_linear_630_81748)" fill-opacity="0.1"/>
<path d="M30.9999 4.4126C42.4769 4.4126 51.7726 13.7083 51.7726 25.1853C51.7726 36.6624 42.4769 45.9723 30.9999 45.9723C19.5228 45.9723 10.2129 36.6624 10.2129 25.1853C10.2129 13.7083 19.5228 4.4126 30.9999 4.4126Z" fill="url(#paint9_linear_630_81748)"/>
<path d="M31 6.0094C41.5931 6.0094 50.1902 14.5922 50.1902 25.1853C50.1902 35.7927 41.5931 44.3755 31 44.3755C20.4069 44.3755 11.8098 35.7927 11.8098 25.1853C11.8098 14.5922 20.4069 6.0094 31 6.0094Z" fill="url(#paint10_linear_630_81748)"/>
<path d="M31 7.05017C41.0228 7.05017 49.1352 15.1768 49.1352 25.1853C49.1352 35.2081 41.0228 43.3347 31 43.3347C20.9772 43.3347 12.8506 35.2081 12.8506 25.1853C12.8506 15.1768 20.9772 7.05017 31 7.05017Z" fill="#F1F2F2"/>
<g filter="url(#filter0_d_630_81748)">
<path d="M16.7204 23C16.6804 23 16.6464 22.986 16.6184 22.958C16.5904 22.93 16.5764 22.896 16.5764 22.856V18.95C16.5764 18.906 16.5904 18.87 16.6184 18.842C16.6464 18.814 16.6804 18.8 16.7204 18.8H18.2744C18.7584 18.8 19.1404 18.912 19.4204 19.136C19.7004 19.36 19.8404 19.686 19.8404 20.114C19.8404 20.41 19.7664 20.656 19.6184 20.852C19.4744 21.048 19.2804 21.19 19.0364 21.278L19.9124 22.808C19.9244 22.832 19.9304 22.854 19.9304 22.874C19.9304 22.91 19.9164 22.94 19.8884 22.964C19.8644 22.988 19.8364 23 19.8044 23H19.2584C19.1904 23 19.1384 22.982 19.1024 22.946C19.0664 22.91 19.0384 22.874 19.0184 22.838L18.2444 21.416H17.4104V22.856C17.4104 22.896 17.3964 22.93 17.3684 22.958C17.3444 22.986 17.3104 23 17.2664 23H16.7204ZM17.4104 20.738H18.2564C18.5004 20.738 18.6824 20.684 18.8024 20.576C18.9224 20.464 18.9824 20.308 18.9824 20.108C18.9824 19.908 18.9224 19.752 18.8024 19.64C18.6864 19.524 18.5044 19.466 18.2564 19.466H17.4104V20.738ZM20.7575 23C20.7175 23 20.6835 22.986 20.6555 22.958C20.6275 22.93 20.6135 22.896 20.6135 22.856V18.95C20.6135 18.906 20.6275 18.87 20.6555 18.842C20.6835 18.814 20.7175 18.8 20.7575 18.8H23.3975C23.4415 18.8 23.4775 18.814 23.5055 18.842C23.5335 18.87 23.5475 18.906 23.5475 18.95V19.346C23.5475 19.386 23.5335 19.42 23.5055 19.448C23.4775 19.476 23.4415 19.49 23.3975 19.49H21.4235V20.552H23.2655C23.3095 20.552 23.3455 20.566 23.3735 20.594C23.4015 20.618 23.4155 20.652 23.4155 20.696V21.068C23.4155 21.112 23.4015 21.148 23.3735 21.176C23.3455 21.2 23.3095 21.212 23.2655 21.212H21.4235V22.31H23.4455C23.4895 22.31 23.5255 22.324 23.5535 22.352C23.5815 22.38 23.5955 22.416 23.5955 22.46V22.856C23.5955 22.896 23.5815 22.93 23.5535 22.958C23.5255 22.986 23.4895 23 23.4455 23H20.7575ZM25.9428 23.06C25.5748 23.06 25.2608 22.996 25.0008 22.868C24.7448 22.74 24.5448 22.556 24.4008 22.316C24.2608 22.072 24.1848 21.782 24.1728 21.446C24.1688 21.274 24.1668 21.09 24.1668 20.894C24.1668 20.694 24.1688 20.506 24.1728 20.33C24.1848 19.998 24.2608 19.714 24.4008 19.478C24.5448 19.242 24.7468 19.06 25.0068 18.932C25.2708 18.804 25.5828 18.74 25.9428 18.74C26.2348 18.74 26.4908 18.78 26.7108 18.86C26.9308 18.936 27.1128 19.036 27.2568 19.16C27.4048 19.28 27.5148 19.41 27.5868 19.55C27.6628 19.69 27.7028 19.82 27.7068 19.94C27.7108 19.976 27.7008 20.006 27.6768 20.03C27.6528 20.054 27.6208 20.066 27.5808 20.066H26.9628C26.9228 20.066 26.8928 20.058 26.8728 20.042C26.8528 20.026 26.8348 20.002 26.8188 19.97C26.7868 19.886 26.7368 19.804 26.6688 19.724C26.6008 19.64 26.5088 19.57 26.3928 19.514C26.2768 19.458 26.1268 19.43 25.9428 19.43C25.6708 19.43 25.4528 19.502 25.2888 19.646C25.1288 19.79 25.0428 20.028 25.0308 20.36C25.0188 20.708 25.0188 21.06 25.0308 21.416C25.0428 21.756 25.1308 22 25.2948 22.148C25.4628 22.296 25.6828 22.37 25.9548 22.37C26.1348 22.37 26.2948 22.338 26.4348 22.274C26.5788 22.21 26.6908 22.11 26.7708 21.974C26.8548 21.838 26.8968 21.664 26.8968 21.452V21.266H26.1648C26.1248 21.266 26.0908 21.252 26.0628 21.224C26.0348 21.196 26.0208 21.16 26.0208 21.116V20.798C26.0208 20.754 26.0348 20.718 26.0628 20.69C26.0908 20.662 26.1248 20.648 26.1648 20.648H27.5988C27.6428 20.648 27.6768 20.662 27.7008 20.69C27.7288 20.718 27.7428 20.754 27.7428 20.798V21.428C27.7428 21.764 27.6688 22.054 27.5208 22.298C27.3768 22.542 27.1688 22.73 26.8968 22.862C26.6288 22.994 26.3108 23.06 25.9428 23.06ZM28.6559 23C28.6159 23 28.5819 22.986 28.5539 22.958C28.5259 22.93 28.5119 22.896 28.5119 22.856V18.944C28.5119 18.904 28.5259 18.87 28.5539 18.842C28.5819 18.814 28.6159 18.8 28.6559 18.8H29.2199C29.2639 18.8 29.2979 18.814 29.3219 18.842C29.3499 18.87 29.3639 18.904 29.3639 18.944V22.856C29.3639 22.896 29.3499 22.93 29.3219 22.958C29.2979 22.986 29.2639 23 29.2199 23H28.6559ZM31.9189 23.06C31.5629 23.06 31.2569 23.002 31.0009 22.886C30.7449 22.766 30.5449 22.584 30.4009 22.34C30.2569 22.092 30.1789 21.784 30.1669 21.416C30.1629 21.244 30.1609 21.074 30.1609 20.906C30.1609 20.738 30.1629 20.566 30.1669 20.39C30.1789 20.026 30.2589 19.722 30.4069 19.478C30.5549 19.234 30.7569 19.05 31.0129 18.926C31.2729 18.802 31.5749 18.74 31.9189 18.74C32.2629 18.74 32.5649 18.802 32.8249 18.926C33.0849 19.05 33.2889 19.234 33.4369 19.478C33.5849 19.722 33.6649 20.026 33.6769 20.39C33.6849 20.566 33.6889 20.738 33.6889 20.906C33.6889 21.074 33.6849 21.244 33.6769 21.416C33.6649 21.784 33.5869 22.092 33.4429 22.34C33.2989 22.584 33.0969 22.766 32.8369 22.886C32.5809 23.002 32.2749 23.06 31.9189 23.06ZM31.9189 22.37C32.1789 22.37 32.3909 22.294 32.5549 22.142C32.7189 21.986 32.8069 21.734 32.8189 21.386C32.8269 21.21 32.8309 21.048 32.8309 20.9C32.8309 20.748 32.8269 20.586 32.8189 20.414C32.8109 20.182 32.7669 19.994 32.6869 19.85C32.6109 19.702 32.5069 19.596 32.3749 19.532C32.2429 19.464 32.0909 19.43 31.9189 19.43C31.7509 19.43 31.6009 19.464 31.4689 19.532C31.3369 19.596 31.2309 19.702 31.1509 19.85C31.0749 19.994 31.0329 20.182 31.0249 20.414C31.0209 20.586 31.0189 20.748 31.0189 20.9C31.0189 21.048 31.0209 21.21 31.0249 21.386C31.0369 21.734 31.1249 21.986 31.2889 22.142C31.4529 22.294 31.6629 22.37 31.9189 22.37ZM34.6208 23C34.5808 23 34.5468 22.986 34.5188 22.958C34.4908 22.93 34.4768 22.896 34.4768 22.856V18.95C34.4768 18.906 34.4908 18.87 34.5188 18.842C34.5468 18.814 34.5808 18.8 34.6208 18.8H35.0828C35.1388 18.8 35.1788 18.814 35.2028 18.842C35.2308 18.866 35.2488 18.884 35.2568 18.896L36.9848 21.584V18.95C36.9848 18.906 36.9968 18.87 37.0208 18.842C37.0488 18.814 37.0848 18.8 37.1288 18.8H37.6328C37.6768 18.8 37.7128 18.814 37.7408 18.842C37.7688 18.87 37.7828 18.906 37.7828 18.95V22.85C37.7828 22.894 37.7688 22.93 37.7408 22.958C37.7128 22.986 37.6788 23 37.6388 23H37.1708C37.1148 23 37.0748 22.986 37.0508 22.958C37.0268 22.93 37.0088 22.912 36.9968 22.904L35.2748 20.276V22.856C35.2748 22.896 35.2608 22.93 35.2328 22.958C35.2048 22.986 35.1688 23 35.1248 23H34.6208ZM38.461 23C38.429 23 38.399 22.988 38.371 22.964C38.347 22.94 38.335 22.91 38.335 22.874C38.335 22.858 38.339 22.84 38.347 22.82L39.793 18.95C39.805 18.91 39.827 18.876 39.859 18.848C39.895 18.816 39.943 18.8 40.003 18.8H40.657C40.717 18.8 40.763 18.816 40.795 18.848C40.827 18.876 40.851 18.91 40.867 18.95L42.313 22.82C42.317 22.84 42.319 22.858 42.319 22.874C42.319 22.91 42.307 22.94 42.283 22.964C42.259 22.988 42.231 23 42.199 23H41.677C41.621 23 41.579 22.988 41.551 22.964C41.527 22.936 41.511 22.91 41.503 22.886L41.221 22.154H39.439L39.157 22.886C39.149 22.91 39.131 22.936 39.103 22.964C39.079 22.988 39.039 23 38.983 23H38.461ZM39.649 21.464H41.011L40.327 19.61L39.649 21.464ZM43.0231 23C42.9831 23 42.9491 22.986 42.9211 22.958C42.8931 22.93 42.8791 22.896 42.8791 22.856V18.944C42.8791 18.904 42.8931 18.87 42.9211 18.842C42.9491 18.814 42.9831 18.8 43.0231 18.8H43.5811C43.6211 18.8 43.6551 18.814 43.6831 18.842C43.7111 18.87 43.7251 18.904 43.7251 18.944V22.286H45.6271C45.6711 22.286 45.7071 22.3 45.7351 22.328C45.7631 22.356 45.7771 22.392 45.7771 22.436V22.856C45.7771 22.896 45.7631 22.93 45.7351 22.958C45.7071 22.986 45.6711 23 45.6271 23H43.0231ZM16.9608 31C16.9168 31 16.8808 30.986 16.8528 30.958C16.8248 30.93 16.8108 30.896 16.8108 30.856V26.95C16.8108 26.906 16.8248 26.87 16.8528 26.842C16.8808 26.814 16.9168 26.8 16.9608 26.8H17.4348C17.4908 26.8 17.5328 26.816 17.5608 26.848C17.5888 26.876 17.6068 26.898 17.6148 26.914L18.7728 29.074L19.9428 26.914C19.9508 26.898 19.9688 26.876 19.9968 26.848C20.0248 26.816 20.0668 26.8 20.1228 26.8H20.5908C20.6348 26.8 20.6708 26.814 20.6988 26.842C20.7268 26.87 20.7408 26.906 20.7408 26.95V30.856C20.7408 30.896 20.7268 30.93 20.6988 30.958C20.6708 30.986 20.6348 31 20.5908 31H20.0868C20.0428 31 20.0068 30.986 19.9788 30.958C19.9548 30.93 19.9428 30.896 19.9428 30.856V28.258L19.1028 29.86C19.0828 29.896 19.0568 29.928 19.0248 29.956C18.9928 29.98 18.9508 29.992 18.8988 29.992H18.6528C18.5968 29.992 18.5528 29.98 18.5208 29.956C18.4928 29.928 18.4688 29.896 18.4488 29.86L17.6088 28.258V30.856C17.6088 30.896 17.5948 30.93 17.5668 30.958C17.5388 30.986 17.5048 31 17.4648 31H16.9608ZM21.4161 31C21.3841 31 21.3541 30.988 21.3261 30.964C21.3021 30.94 21.2901 30.91 21.2901 30.874C21.2901 30.858 21.2941 30.84 21.3021 30.82L22.7481 26.95C22.7601 26.91 22.7821 26.876 22.8141 26.848C22.8501 26.816 22.8981 26.8 22.9581 26.8H23.6121C23.6721 26.8 23.7181 26.816 23.7501 26.848C23.7821 26.876 23.8061 26.91 23.8221 26.95L25.2681 30.82C25.2721 30.84 25.2741 30.858 25.2741 30.874C25.2741 30.91 25.2621 30.94 25.2381 30.964C25.2141 30.988 25.1861 31 25.1541 31H24.6321C24.5761 31 24.5341 30.988 24.5061 30.964C24.4821 30.936 24.4661 30.91 24.4581 30.886L24.1761 30.154H22.3941L22.1121 30.886C22.1041 30.91 22.0861 30.936 22.0581 30.964C22.0341 30.988 21.9941 31 21.9381 31H21.4161ZM22.6041 29.464H23.9661L23.2821 27.61L22.6041 29.464ZM25.9782 31C25.9382 31 25.9042 30.986 25.8762 30.958C25.8482 30.93 25.8342 30.896 25.8342 30.856V26.95C25.8342 26.906 25.8482 26.87 25.8762 26.842C25.9042 26.814 25.9382 26.8 25.9782 26.8H26.4402C26.4962 26.8 26.5362 26.814 26.5602 26.842C26.5882 26.866 26.6062 26.884 26.6142 26.896L28.3422 29.584V26.95C28.3422 26.906 28.3542 26.87 28.3782 26.842C28.4062 26.814 28.4422 26.8 28.4862 26.8H28.9902C29.0342 26.8 29.0702 26.814 29.0982 26.842C29.1262 26.87 29.1402 26.906 29.1402 26.95V30.85C29.1402 30.894 29.1262 30.93 29.0982 30.958C29.0702 30.986 29.0362 31 28.9962 31H28.5282C28.4722 31 28.4322 30.986 28.4082 30.958C28.3842 30.93 28.3662 30.912 28.3542 30.904L26.6322 28.276V30.856C26.6322 30.896 26.6182 30.93 26.5902 30.958C26.5622 30.986 26.5262 31 26.4822 31H25.9782ZM29.8184 31C29.7864 31 29.7564 30.988 29.7284 30.964C29.7044 30.94 29.6924 30.91 29.6924 30.874C29.6924 30.858 29.6964 30.84 29.7044 30.82L31.1504 26.95C31.1624 26.91 31.1844 26.876 31.2164 26.848C31.2524 26.816 31.3004 26.8 31.3604 26.8H32.0144C32.0744 26.8 32.1204 26.816 32.1524 26.848C32.1844 26.876 32.2084 26.91 32.2244 26.95L33.6704 30.82C33.6744 30.84 33.6764 30.858 33.6764 30.874C33.6764 30.91 33.6644 30.94 33.6404 30.964C33.6164 30.988 33.5884 31 33.5564 31H33.0344C32.9784 31 32.9364 30.988 32.9084 30.964C32.8844 30.936 32.8684 30.91 32.8604 30.886L32.5784 30.154H30.7964L30.5144 30.886C30.5064 30.91 30.4884 30.936 30.4604 30.964C30.4364 30.988 30.3964 31 30.3404 31H29.8184ZM31.0064 29.464H32.3684L31.6844 27.61L31.0064 29.464ZM35.7865 31.06C35.4185 31.06 35.1045 30.996 34.8445 30.868C34.5885 30.74 34.3885 30.556 34.2445 30.316C34.1045 30.072 34.0285 29.782 34.0165 29.446C34.0125 29.274 34.0105 29.09 34.0105 28.894C34.0105 28.694 34.0125 28.506 34.0165 28.33C34.0285 27.998 34.1045 27.714 34.2445 27.478C34.3885 27.242 34.5905 27.06 34.8505 26.932C35.1145 26.804 35.4265 26.74 35.7865 26.74C36.0785 26.74 36.3345 26.78 36.5545 26.86C36.7745 26.936 36.9565 27.036 37.1005 27.16C37.2485 27.28 37.3585 27.41 37.4305 27.55C37.5065 27.69 37.5465 27.82 37.5505 27.94C37.5545 27.976 37.5445 28.006 37.5205 28.03C37.4965 28.054 37.4645 28.066 37.4245 28.066H36.8065C36.7665 28.066 36.7365 28.058 36.7165 28.042C36.6965 28.026 36.6785 28.002 36.6625 27.97C36.6305 27.886 36.5805 27.804 36.5125 27.724C36.4445 27.64 36.3525 27.57 36.2365 27.514C36.1205 27.458 35.9705 27.43 35.7865 27.43C35.5145 27.43 35.2965 27.502 35.1325 27.646C34.9725 27.79 34.8865 28.028 34.8745 28.36C34.8625 28.708 34.8625 29.06 34.8745 29.416C34.8865 29.756 34.9745 30 35.1385 30.148C35.3065 30.296 35.5265 30.37 35.7985 30.37C35.9785 30.37 36.1385 30.338 36.2785 30.274C36.4225 30.21 36.5345 30.11 36.6145 29.974C36.6985 29.838 36.7405 29.664 36.7405 29.452V29.266H36.0085C35.9685 29.266 35.9345 29.252 35.9065 29.224C35.8785 29.196 35.8645 29.16 35.8645 29.116V28.798C35.8645 28.754 35.8785 28.718 35.9065 28.69C35.9345 28.662 35.9685 28.648 36.0085 28.648H37.4425C37.4865 28.648 37.5205 28.662 37.5445 28.69C37.5725 28.718 37.5865 28.754 37.5865 28.798V29.428C37.5865 29.764 37.5125 30.054 37.3645 30.298C37.2205 30.542 37.0125 30.73 36.7405 30.862C36.4725 30.994 36.1545 31.06 35.7865 31.06ZM38.4997 31C38.4597 31 38.4257 30.986 38.3977 30.958C38.3697 30.93 38.3557 30.896 38.3557 30.856V26.95C38.3557 26.906 38.3697 26.87 38.3977 26.842C38.4257 26.814 38.4597 26.8 38.4997 26.8H41.1397C41.1837 26.8 41.2197 26.814 41.2477 26.842C41.2757 26.87 41.2897 26.906 41.2897 26.95V27.346C41.2897 27.386 41.2757 27.42 41.2477 27.448C41.2197 27.476 41.1837 27.49 41.1397 27.49H39.1657V28.552H41.0077C41.0517 28.552 41.0877 28.566 41.1157 28.594C41.1437 28.618 41.1577 28.652 41.1577 28.696V29.068C41.1577 29.112 41.1437 29.148 41.1157 29.176C41.0877 29.2 41.0517 29.212 41.0077 29.212H39.1657V30.31H41.1877C41.2317 30.31 41.2677 30.324 41.2957 30.352C41.3237 30.38 41.3377 30.416 41.3377 30.46V30.856C41.3377 30.896 41.3237 30.93 41.2957 30.958C41.2677 30.986 41.2317 31 41.1877 31H38.4997ZM42.2321 31C42.1921 31 42.1581 30.986 42.1301 30.958C42.1021 30.93 42.0881 30.896 42.0881 30.856V26.95C42.0881 26.906 42.1021 26.87 42.1301 26.842C42.1581 26.814 42.1921 26.8 42.2321 26.8H43.7861C44.2701 26.8 44.6521 26.912 44.9321 27.136C45.2121 27.36 45.3521 27.686 45.3521 28.114C45.3521 28.41 45.2781 28.656 45.1301 28.852C44.9861 29.048 44.7921 29.19 44.5481 29.278L45.4241 30.808C45.4361 30.832 45.4421 30.854 45.4421 30.874C45.4421 30.91 45.4281 30.94 45.4001 30.964C45.3761 30.988 45.3481 31 45.3161 31H44.7701C44.7021 31 44.6501 30.982 44.6141 30.946C44.5781 30.91 44.5501 30.874 44.5301 30.838L43.7561 29.416H42.9221V30.856C42.9221 30.896 42.9081 30.93 42.8801 30.958C42.8561 30.986 42.8221 31 42.7781 31H42.2321ZM42.9221 28.738H43.7681C44.0121 28.738 44.1941 28.684 44.3141 28.576C44.4341 28.464 44.4941 28.308 44.4941 28.108C44.4941 27.908 44.4341 27.752 44.3141 27.64C44.1981 27.524 44.0161 27.466 43.7681 27.466H42.9221V28.738Z" fill="#212B36"/>
</g>
<defs>
<filter id="filter0_d_630_81748" x="14.5764" y="18.74" width="33.2007" height="16.32" filterUnits="userSpaceOnUse" color-interpolation-filters="sRGB">
<feFlood flood-opacity="0" result="BackgroundImageFix"/>
<feColorMatrix in="SourceAlpha" type="matrix" values="0 0 0 0 0 0 0 0 0 0 0 0 0 0 0 0 0 0 127 0" result="hardAlpha"/>
<feOffset dy="2"/>
<feGaussianBlur stdDeviation="1"/>
<feComposite in2="hardAlpha" operator="out"/>
<feColorMatrix type="matrix" values="0 0 0 0 0 0 0 0 0 0 0 0 0 0 0 0 0 0 0.15 0"/>
<feBlend mode="normal" in2="BackgroundImageFix" result="effect1_dropShadow_630_81748"/>
<feBlend mode="normal" in="SourceGraphic" in2="effect1_dropShadow_630_81748" result="shape"/>
</filter>
<linearGradient id="paint0_linear_630_81748" x1="64.7459" y1="33.0234" x2="80.6608" y2="67.1054" gradientUnits="userSpaceOnUse">
<stop stop-color="#231F20"/>
<stop offset="1" stop-color="white"/>
</linearGradient>
<linearGradient id="paint1_linear_630_81748" x1="26.7818" y1="35.3361" x2="36.147" y2="53.8502" gradientUnits="userSpaceOnUse">
<stop stop-color="white"/>
<stop offset="1" stop-color="#A1A1A1"/>
</linearGradient>
<linearGradient id="paint2_linear_630_81748" x1="-180.121" y1="229.684" x2="-156.347" y2="253.458" gradientUnits="userSpaceOnUse">
<stop stop-color="#B8B8B8"/>
<stop offset="0.164" stop-color="#E8E8E8"/>
<stop offset="0.291" stop-color="white"/>
<stop offset="0.552" stop-color="#ABABAB"/>
<stop offset="0.782" stop-color="#E8E8E8"/>
<stop offset="0.909" stop-color="#A2A2A2"/>
<stop offset="1" stop-color="#717171"/>
</linearGradient>
<linearGradient id="paint3_linear_630_81748" x1="-190.817" y1="234.163" x2="-167.042" y2="257.938" gradientUnits="userSpaceOnUse">
<stop stop-color="#B8B8B8"/>
<stop offset="0.164" stop-color="#E8E8E8"/>
<stop offset="0.291" stop-color="white"/>
<stop offset="0.552" stop-color="#ABABAB"/>
<stop offset="0.782" stop-color="#E8E8E8"/>
<stop offset="0.909" stop-color="#A2A2A2"/>
<stop offset="1" stop-color="#717171"/>
</linearGradient>
<linearGradient id="paint4_linear_630_81748" x1="-2.7508" y1="33.0235" x2="-18.6657" y2="67.1055" gradientUnits="userSpaceOnUse">
<stop stop-color="#231F20"/>
<stop offset="1" stop-color="white"/>
</linearGradient>
<linearGradient id="paint5_linear_630_81748" x1="35.2132" y1="35.3362" x2="25.848" y2="53.8503" gradientUnits="userSpaceOnUse">
<stop stop-color="white"/>
<stop offset="1" stop-color="#A1A1A1"/>
</linearGradient>
<linearGradient id="paint6_linear_630_81748" x1="-206.975" y1="-144.471" x2="-183.201" y2="-168.245" gradientUnits="userSpaceOnUse">
<stop stop-color="#B8B8B8"/>
<stop offset="0.164" stop-color="#E8E8E8"/>
<stop offset="0.291" stop-color="white"/>
<stop offset="0.552" stop-color="#ABABAB"/>
<stop offset="0.782" stop-color="#E8E8E8"/>
<stop offset="0.909" stop-color="#A2A2A2"/>
<stop offset="1" stop-color="#717171"/>
</linearGradient>
<linearGradient id="paint7_linear_630_81748" x1="-196.271" y1="-139.983" x2="-172.497" y2="-163.758" gradientUnits="userSpaceOnUse">
<stop stop-color="#B8B8B8"/>
<stop offset="0.164" stop-color="#E8E8E8"/>
<stop offset="0.291" stop-color="white"/>
<stop offset="0.552" stop-color="#ABABAB"/>
<stop offset="0.782" stop-color="#E8E8E8"/>
<stop offset="0.909" stop-color="#A2A2A2"/>
<stop offset="1" stop-color="#717171"/>
</linearGradient>
<linearGradient id="paint8_linear_630_81748" x1="19.9591" y1="-6.53151e-07" x2="36.8124" y2="45.8854" gradientUnits="userSpaceOnUse">
<stop stop-color="white"/>
<stop offset="0.403279" stop-color="#D0D2D3"/>
<stop offset="0.463551" stop-color="#333333"/>
<stop offset="1"/>
</linearGradient>
<linearGradient id="paint9_linear_630_81748" x1="51.7773" y1="2.44411" x2="51.7773" y2="50.4375" gradientUnits="userSpaceOnUse">
<stop stop-color="#B8B8B8"/>
<stop offset="0.164" stop-color="#E8E8E8"/>
<stop offset="0.291" stop-color="white"/>
<stop offset="0.552" stop-color="#ABABAB"/>
<stop offset="0.782" stop-color="#E8E8E8"/>
<stop offset="0.909" stop-color="#A2A2A2"/>
<stop offset="1" stop-color="#717171"/>
</linearGradient>
<linearGradient id="paint10_linear_630_81748" x1="50.1851" y1="1.34131" x2="50.1851" y2="45.6572" gradientUnits="userSpaceOnUse">
<stop stop-color="#B8B8B8"/>
<stop offset="0.164" stop-color="#E8E8E8"/>
<stop offset="0.291" stop-color="white"/>
<stop offset="0.552" stop-color="#ABABAB"/>
<stop offset="0.782" stop-color="#E8E8E8"/>
<stop offset="0.909" stop-color="#A2A2A2"/>
<stop offset="1" stop-color="#717171"/>
</linearGradient>
</defs>
</svg>
